<?xml version="1.0" encoding="iso-8859-1"?>
<!-- Generator: Adobe Illustrator 19.0.0, SVG Export Plug-In . SVG Version: 6.00 Build 0)  -->
<svg version="1.1" id="Layer_1" xmlns="http://www.w3.org/2000/svg" xmlns:xlink="http://www.w3.org/1999/xlink" x="0px" y="0px"
	 viewBox="0 0 127.852 127.852" style="enable-background:new 0 0 127.852 127.852;" xml:space="preserve">
<g>
	<g>
		<g>
			<circle style="fill:#FFA9D4;" cx="62.8" cy="121.193" r="5.16"/>
		</g>
		<g>
			<path style="fill:#FC70B0;" d="M62.8,116.032c2.85,0,5.16,2.311,5.16,5.16c0,2.851-2.311,5.159-5.16,5.159"/>
		</g>
		<g>
			<path style="fill:#33363A;" d="M62.8,127.852c-3.672,0-6.659-2.987-6.659-6.659c0-3.672,2.987-6.66,6.659-6.66
				c3.673,0,6.66,2.988,6.66,6.66C69.46,124.865,66.473,127.852,62.8,127.852z M62.8,117.532c-2.018,0-3.659,1.642-3.659,3.66
				c0,2.018,1.642,3.659,3.659,3.659c2.019,0,3.66-1.642,3.66-3.659C66.46,119.175,64.818,117.532,62.8,117.532z"/>
		</g>
	</g>
	<g>
		<g>
			<polygon style="fill:#FC70B0;" points="43.951,90.853 43.951,90.855 62.8,101.737 81.65,90.855 81.65,90.853 62.8,79.972 			"/>
		</g>
		<g>
			<polyline style="fill:#F93585;" points="62.8,101.737 81.65,90.855 81.65,90.853 62.8,79.972 			"/>
		</g>
		<g>
			<path style="fill:#33363A;" d="M82.4,89.553L63.55,78.673c-0.465-0.268-1.035-0.268-1.5,0L43.201,89.553
				c-0.464,0.268-0.75,0.764-0.75,1.3c0,0.536,0.286,1.032,0.75,1.3L61.3,102.602v5.015c0,0.829,0.672,1.5,1.5,1.5
				s1.5-0.671,1.5-1.5v-5.015l18.1-10.451c0.464-0.268,0.75-0.763,0.75-1.299C83.15,90.317,82.863,89.822,82.4,89.553z
				 M62.8,100.005l-15.849-9.152L62.8,81.704l15.85,9.151L62.8,100.005z"/>
			<path style="fill:#33363A;" d="M61.735,110.836c-0.279,0.28-0.439,0.67-0.439,1.07c0,0.39,0.16,0.78,0.439,1.06
				c0.28,0.28,0.67,0.44,1.061,0.44c0.399,0,0.779-0.16,1.069-0.44c0.28-0.29,0.44-0.67,0.44-1.06c0-0.4-0.16-0.78-0.44-1.07
				C63.306,110.286,62.306,110.286,61.735,110.836z"/>
		</g>
	</g>
	<g>
		<g>
			<polygon style="fill:#FFA9D4;" points="35.048,17.522 62.8,1.5 90.552,17.522 90.552,49.572 62.8,65.592 35.048,49.572 			"/>
		</g>
		<g>
			<polyline style="fill:#FC70B0;" points="35.048,17.522 62.8,1.5 90.552,17.522 90.552,49.572 62.8,65.592 			"/>
		</g>
		<g>
			<polygon style="fill:#F93585;" points="62.8,1.5 62.8,65.592 62.8,65.592 90.552,49.572 90.552,17.522 62.8,1.5 			"/>
		</g>
		<g>
			<polyline style="fill:#DD2466;" points="90.552,17.522 62.8,1.5 62.8,1.5 62.8,65.592 62.8,65.592 			"/>
		</g>
		<g>
			<polygon style="fill:#FC70B0;" points="35.048,17.522 35.048,17.525 62.8,33.546 90.552,17.525 90.552,17.522 62.8,1.5 			"/>
		</g>
		<g>
			<polyline style="fill:#F93585;" points="35.048,17.522 35.048,17.525 62.8,33.546 90.552,17.525 90.552,17.522 			"/>
		</g>
		<g>
			<path style="fill:#33363A;" d="M92.044,17.461c-0.004-0.087-0.015-0.173-0.034-0.26c-0.008-0.036-0.014-0.071-0.024-0.106
				c-0.029-0.096-0.067-0.189-0.116-0.28c-0.017-0.032-0.037-0.062-0.056-0.093c-0.051-0.08-0.107-0.155-0.17-0.222
				c-0.03-0.032-0.063-0.059-0.095-0.088c-0.057-0.051-0.117-0.098-0.181-0.139c-0.023-0.015-0.04-0.036-0.064-0.049L63.55,0.201
				c-0.465-0.269-1.035-0.269-1.5,0L34.298,16.223c-0.024,0.014-0.041,0.034-0.064,0.049c-0.064,0.041-0.124,0.088-0.181,0.139
				c-0.032,0.029-0.066,0.057-0.095,0.088c-0.063,0.067-0.119,0.142-0.17,0.222c-0.02,0.031-0.039,0.061-0.056,0.093
				c-0.049,0.091-0.088,0.185-0.116,0.28c-0.01,0.035-0.016,0.071-0.024,0.106c-0.019,0.086-0.031,0.173-0.034,0.26
				c-0.001,0.021-0.008,0.04-0.008,0.061v32.05c0,0.536,0.286,1.031,0.75,1.299L61.3,66.458v4.15c0,0.829,0.672,1.5,1.5,1.5
				s1.5-0.671,1.5-1.5v-4.15l27.002-15.588c0.464-0.268,0.75-0.763,0.75-1.299v-32.05C92.052,17.501,92.045,17.482,92.044,17.461z
				 M62.8,3.232l24.754,14.291L62.8,31.814L38.046,17.523L62.8,3.232z M36.548,20.122L61.3,34.412v28.582L36.548,48.705V20.122z
				 M64.3,62.994V34.412l24.752-14.29v28.583L64.3,62.994z"/>
			<path style="fill:#33363A;" d="M61.735,73.836c-0.279,0.28-0.439,0.66-0.439,1.06c0,0.39,0.16,0.78,0.439,1.06
				c0.28,0.28,0.67,0.44,1.061,0.44c0.399,0,0.779-0.16,1.069-0.44c0.28-0.28,0.44-0.67,0.44-1.06c0-0.4-0.16-0.78-0.44-1.06
				C63.306,73.276,62.306,73.276,61.735,73.836z"/>
		</g>
	</g>
	<g>
		<g>
			<path style="fill:#FC70B0;" d="M112.549,70.277c-2.825,0-5.306,1.586-6.179,3.941c-0.012,0.035-0.028,0.066-0.048,0.096
				c-0.02-0.029-0.036-0.061-0.049-0.096c-0.871-2.355-3.353-3.941-6.181-3.941c-3.575,0-6.487,2.564-6.487,5.713
				c0,1.146,0.379,2.253,1.105,3.195c0.007,0.006,0.011,0.017,0.011,0.017c0.023,0.026,0.043,0.043,0.061,0.06l11.54,13.65
				l11.539-13.65c0.018-0.017,0.038-0.033,0.062-0.06c0,0,0.003-0.011,0.011-0.017c0.727-0.942,1.105-2.049,1.105-3.195
				C119.039,72.841,116.127,70.277,112.549,70.277z"/>
		</g>
		<g>
			<path style="fill:#F93585;" d="M106.274,74.218c-0.871-2.355-3.353-3.941-6.181-3.941c-3.575,0-6.487,2.564-6.487,5.713
				c0,1.146,0.379,2.253,1.105,3.195c0.007,0.006,0.011,0.017,0.011,0.017c0.023,0.026,0.043,0.043,0.061,0.06l11.54,13.65V74.314
				C106.303,74.284,106.286,74.253,106.274,74.218z"/>
		</g>
		<g>
			<path style="fill:#33363A;" d="M106.322,94.411c-0.441,0-0.86-0.194-1.146-0.532L93.679,80.279
				c-0.031-0.032-0.063-0.064-0.078-0.081c-0.04-0.045-0.077-0.092-0.11-0.141c-0.906-1.193-1.385-2.599-1.385-4.068
				c0-3.977,3.583-7.213,7.987-7.213c2.478,0,4.748,1.02,6.234,2.685c1.493-1.672,3.756-2.685,6.222-2.685
				c4.406,0,7.99,3.236,7.99,7.213c0,1.469-0.479,2.875-1.385,4.068c-0.033,0.049-0.07,0.096-0.11,0.141
				c-0.02,0.022-0.053,0.057-0.086,0.089l-11.49,13.592C107.183,94.217,106.764,94.411,106.322,94.411z M95.868,78.229
				c0.021,0.02,0.032,0.031,0.06,0.063l10.395,12.295l10.394-12.295c0.023-0.027,0.047-0.054,0.072-0.079
				c0.491-0.661,0.751-1.429,0.751-2.224c0-2.323-2.238-4.213-4.99-4.213c-2.197,0-4.115,1.19-4.772,2.963
				c-0.036,0.111-0.111,0.264-0.206,0.406c-0.557,0.835-1.939,0.835-2.496,0c-0.088-0.131-0.159-0.272-0.212-0.418
				c-0.65-1.76-2.569-2.951-4.77-2.951c-2.75,0-4.987,1.89-4.987,4.213C95.106,76.791,95.369,77.565,95.868,78.229z"/>
		</g>
	</g>
	<g>
		<g>
			<path style="fill:#FC70B0;" d="M27.757,91.553c-2.826,0-5.307,1.586-6.18,3.941c-0.012,0.035-0.028,0.066-0.048,0.096
				c-0.02-0.029-0.036-0.061-0.049-0.096c-0.871-2.355-3.353-3.941-6.181-3.941c-3.575,0-6.487,2.564-6.487,5.714
				c0,1.146,0.379,2.252,1.106,3.194c0.007,0.006,0.011,0.017,0.011,0.017c0.023,0.026,0.043,0.043,0.061,0.059l11.54,13.65
				l11.539-13.65c0.018-0.017,0.038-0.033,0.062-0.059c0,0,0.004-0.011,0.011-0.017c0.727-0.942,1.105-2.049,1.105-3.194
				C34.246,94.117,31.334,91.553,27.757,91.553z"/>
		</g>
		<g>
			<path style="fill:#F93585;" d="M21.481,95.494c-0.871-2.355-3.353-3.941-6.181-3.941c-3.575,0-6.487,2.564-6.487,5.714
				c0,1.146,0.379,2.252,1.106,3.194c0.007,0.006,0.011,0.017,0.011,0.017c0.023,0.026,0.043,0.043,0.061,0.059l11.54,13.65V95.59
				C21.51,95.561,21.493,95.53,21.481,95.494z"/>
		</g>
		<g>
			<path style="fill:#33363A;" d="M21.529,115.688c-0.441,0-0.86-0.194-1.146-0.532L8.886,101.555
				c-0.031-0.032-0.063-0.064-0.078-0.081c-0.04-0.045-0.077-0.092-0.11-0.141c-0.906-1.193-1.385-2.599-1.385-4.067
				c0-3.978,3.583-7.214,7.987-7.214c2.478,0,4.748,1.02,6.234,2.685c1.493-1.672,3.756-2.685,6.223-2.685
				c4.405,0,7.989,3.236,7.989,7.214c0,1.468-0.479,2.874-1.385,4.067c-0.033,0.049-0.07,0.096-0.11,0.141
				c-0.019,0.021-0.052,0.055-0.085,0.088l-11.491,13.594C22.39,115.493,21.971,115.688,21.529,115.688z M11.075,99.506
				c0.021,0.02,0.032,0.031,0.06,0.063l10.395,12.295l10.394-12.295c0.023-0.027,0.047-0.054,0.072-0.079
				c0.491-0.661,0.751-1.428,0.751-2.223c0-2.324-2.238-4.214-4.989-4.214c-2.198,0-4.116,1.19-4.773,2.963
				c-0.036,0.111-0.111,0.264-0.206,0.406c-0.557,0.835-1.939,0.835-2.496,0c-0.088-0.131-0.159-0.272-0.212-0.418
				c-0.65-1.76-2.569-2.951-4.77-2.951c-2.75,0-4.987,1.89-4.987,4.214C10.313,98.068,10.576,98.841,11.075,99.506z"/>
		</g>
	</g>
	<g>
		<g>
			<path style="fill:#FC70B0;" d="M33.221,63.624c-1.744,0-3.275,0.979-3.813,2.433c-0.008,0.021-0.017,0.041-0.03,0.059
				c-0.012-0.018-0.021-0.037-0.029-0.059c-0.538-1.454-2.069-2.433-3.814-2.433c-2.207,0-4.004,1.583-4.004,3.525
				c0,0.708,0.234,1.391,0.682,1.972c0.005,0.004,0.007,0.011,0.007,0.011c0.015,0.017,0.027,0.026,0.038,0.037l7.121,8.424
				l7.121-8.424c0.012-0.011,0.024-0.021,0.038-0.037c0,0,0.003-0.007,0.007-0.011c0.448-0.581,0.683-1.264,0.683-1.972
				C37.226,65.207,35.429,63.624,33.221,63.624z"/>
		</g>
		<g>
			<path style="fill:#F93585;" d="M29.348,66.057c-0.538-1.454-2.069-2.433-3.814-2.433c-2.207,0-4.004,1.583-4.004,3.525
				c0,0.708,0.234,1.391,0.682,1.972c0.005,0.004,0.007,0.011,0.007,0.011c0.015,0.017,0.027,0.026,0.038,0.037l7.121,8.424V66.116
				C29.365,66.098,29.356,66.078,29.348,66.057z"/>
		</g>
		<g>
			<path style="fill:#33363A;" d="M29.377,79.093c-0.441,0-0.86-0.194-1.146-0.532l-7.083-8.379
				c-0.021-0.022-0.044-0.045-0.056-0.058c-0.036-0.042-0.07-0.085-0.103-0.13c-0.629-0.835-0.961-1.818-0.961-2.845
				c0-2.771,2.469-5.025,5.504-5.025c1.472,0,2.839,0.53,3.845,1.421c1.006-0.892,2.372-1.421,3.843-1.421
				c3.035,0,5.505,2.254,5.505,5.025c0,1.028-0.333,2.011-0.963,2.846c-0.021,0.031-0.045,0.061-0.068,0.09
				c-0.025,0.031-0.06,0.068-0.095,0.104l-7.077,8.372C30.237,78.899,29.818,79.093,29.377,79.093z M23.364,68.158
				c0.013,0.015,0.025,0.029,0.037,0.042l5.976,7.069l5.976-7.069c0.013-0.015,0.026-0.03,0.039-0.045
				c0.219-0.303,0.334-0.649,0.334-1.006c0-1.098-1.147-2.025-2.505-2.025c-1.118,0-2.085,0.584-2.406,1.453
				c-0.048,0.127-0.142,0.306-0.222,0.417c-0.288,0.398-0.738,0.645-1.244,0.621c-0.491-0.009-0.947-0.258-1.22-0.667
				c-0.066-0.1-0.15-0.266-0.191-0.378c-0.318-0.861-1.286-1.445-2.404-1.445c-1.357,0-2.504,0.928-2.504,2.025
				C23.029,67.508,23.145,67.855,23.364,68.158z"/>
		</g>
	</g>
	<g>
		<g>
			<path style="fill:#FC70B0;" d="M102.243,101.737c-1.744,0-3.274,0.979-3.813,2.433c-0.008,0.021-0.018,0.041-0.029,0.059
				c-0.012-0.018-0.022-0.037-0.03-0.059c-0.537-1.454-2.069-2.433-3.814-2.433c-2.206,0-4.004,1.583-4.004,3.525
				c0,0.708,0.234,1.391,0.683,1.972c0.004,0.004,0.007,0.011,0.007,0.011c0.015,0.017,0.026,0.026,0.037,0.037l7.122,8.424
				l7.121-8.424c0.011-0.011,0.023-0.021,0.038-0.037c0,0,0.002-0.007,0.007-0.011c0.448-0.581,0.682-1.264,0.682-1.972
				C106.248,103.32,104.451,101.737,102.243,101.737z"/>
		</g>
		<g>
			<path style="fill:#F93585;" d="M98.37,104.169c-0.537-1.454-2.069-2.433-3.814-2.433c-2.206,0-4.004,1.583-4.004,3.525
				c0,0.708,0.234,1.391,0.683,1.972c0.004,0.004,0.007,0.011,0.007,0.011c0.015,0.017,0.026,0.026,0.037,0.037l7.122,8.424v-11.477
				C98.389,104.21,98.378,104.191,98.37,104.169z"/>
		</g>
		<g>
			<path style="fill:#33363A;" d="M98.401,117.205c-0.441,0-0.86-0.194-1.146-0.532l-7.087-8.382
				c-0.021-0.021-0.041-0.042-0.052-0.054c-0.036-0.042-0.07-0.084-0.102-0.129c-0.63-0.835-0.963-1.818-0.963-2.846
				c0-2.771,2.469-5.025,5.504-5.025c1.473,0,2.84,0.53,3.846,1.421c1.006-0.892,2.372-1.421,3.842-1.421
				c3.035,0,5.505,2.254,5.505,5.025c0,1.029-0.332,2.012-0.962,2.846c-0.031,0.044-0.065,0.087-0.102,0.129
				c-0.017,0.019-0.039,0.042-0.062,0.065l-7.077,8.371C99.261,117.011,98.842,117.205,98.401,117.205z M92.391,106.275
				c0.012,0.013,0.023,0.026,0.033,0.038l5.977,7.069l5.976-7.069c0.013-0.016,0.026-0.03,0.04-0.045
				c0.221-0.305,0.332-0.643,0.332-1.006c0-1.098-1.147-2.025-2.505-2.025c-1.117,0-2.085,0.584-2.407,1.454
				c-0.04,0.109-0.123,0.272-0.188,0.369c-0.557,0.835-1.939,0.835-2.496,0c-0.066-0.1-0.151-0.266-0.192-0.378
				c-0.317-0.862-1.285-1.445-2.404-1.445c-1.357,0-2.504,0.928-2.504,2.025C92.052,105.622,92.169,105.971,92.391,106.275z"/>
		</g>
	</g>
</g>
<g>
</g>
<g>
</g>
<g>
</g>
<g>
</g>
<g>
</g>
<g>
</g>
<g>
</g>
<g>
</g>
<g>
</g>
<g>
</g>
<g>
</g>
<g>
</g>
<g>
</g>
<g>
</g>
<g>
</g>
</svg>
