<?xml version="1.0" encoding="iso-8859-1"?>
<!-- Generator: Adobe Illustrator 19.0.0, SVG Export Plug-In . SVG Version: 6.00 Build 0)  -->
<svg version="1.1" id="Layer_1" xmlns="http://www.w3.org/2000/svg" xmlns:xlink="http://www.w3.org/1999/xlink" x="0px" y="0px"
	 viewBox="0 0 129 129" style="enable-background:new 0 0 129 129;" xml:space="preserve">
<g>
	<g>
		<path style="fill:#DCE7EA;" d="M127.5,64.5c0,16.053-13.019,29.076-29.078,29.076H30.577C14.519,93.576,1.5,80.553,1.5,64.5l0,0
			c0-16.063,13.019-29.076,29.077-29.076h67.845C114.481,35.424,127.5,48.438,127.5,64.5L127.5,64.5z"/>
	</g>
	<g>
		<path style="fill:#D3DFE2;" d="M98.422,35.424H30.577C14.519,35.424,1.5,48.438,1.5,64.5h126
			C127.5,48.438,114.481,35.424,98.422,35.424z"/>
	</g>
	<g>
		<path style="fill:#33363A;" d="M98.422,95.076H30.577C13.717,95.076,0,81.36,0,64.5s13.717-30.576,30.577-30.576h67.845
			C115.283,33.924,129,47.64,129,64.5S115.283,95.076,98.422,95.076z M30.577,36.924C15.371,36.924,3,49.294,3,64.5
			s12.371,27.576,27.577,27.576h67.845C113.628,92.076,126,79.706,126,64.5s-12.372-27.576-27.578-27.576H30.577z"/>
	</g>
	<g>
		<g>
			<path style="fill:#A7BBC1;" d="M43.705,56.984c6.95,6.957,6.95,18.219,0,25.172c-6.947,6.949-18.214,6.949-25.163,0
				c-6.949-6.953-6.948-18.215,0-25.172C25.491,50.037,36.758,50.037,43.705,56.984z"/>
		</g>
		<g>
			<circle style="fill:#FFFFFF;" cx="31.124" cy="63.52" r="17.793"/>
		</g>
		<g>
			<path style="fill:#D8E5EA;" d="M18.542,76.102c-6.949-6.949-6.948-18.217,0-25.164c6.949-6.949,18.216-6.949,25.163,0"/>
		</g>
		<g>
			<path style="fill:#33363A;" d="M31.125,82.804c-4.941,0-9.881-1.88-13.643-5.642c-3.644-3.644-5.651-8.489-5.651-13.644
				c0-5.153,2.007-9.999,5.651-13.642c3.644-3.645,8.489-5.651,13.643-5.651c5.154,0,9.999,2.007,13.642,5.651l0,0
				c3.645,3.644,5.652,8.488,5.652,13.642c0,5.154-2.007,10-5.652,13.644C41.005,80.923,36.065,82.804,31.125,82.804z
				 M31.124,47.226c-4.352,0-8.444,1.695-11.521,4.772c-3.077,3.077-4.772,7.168-4.772,11.521s1.694,8.444,4.772,11.522
				c6.354,6.352,16.69,6.351,23.042,0c3.078-3.078,4.773-7.17,4.773-11.522c0-4.352-1.695-8.443-4.773-11.52c0,0,0,0,0,0
				C39.568,48.92,35.477,47.226,31.124,47.226z"/>
		</g>
	</g>
	<path style="fill:#33363A;" d="M81.729,53.744H69.032c-0.829,0-1.5,0.671-1.5,1.5v18.512c0,0.829,0.671,1.5,1.5,1.5
		s1.5-0.671,1.5-1.5v-7.758h9.697v7.758c0,0.829,0.671,1.5,1.5,1.5s1.5-0.671,1.5-1.5V55.244
		C83.229,54.416,82.558,53.744,81.729,53.744z M70.532,62.998v-6.254h9.697v6.254H70.532z"/>
	<path style="fill:#33363A;" d="M103.804,64.498v-9.254c0-0.829-0.671-1.5-1.5-1.5H89.607c-0.829,0-1.5,0.671-1.5,1.5v18.512
		c0,0.829,0.671,1.5,1.5,1.5s1.5-0.671,1.5-1.5v-7.758h4.035l5.927,8.608c0.291,0.423,0.76,0.649,1.237,0.649
		c0.293,0,0.589-0.085,0.849-0.265c0.683-0.47,0.854-1.404,0.385-2.086l-4.756-6.907h3.52
		C103.133,65.998,103.804,65.327,103.804,64.498z M91.107,56.744h9.697v6.254h-9.697V56.744z"/>
</g>
<g>
</g>
<g>
</g>
<g>
</g>
<g>
</g>
<g>
</g>
<g>
</g>
<g>
</g>
<g>
</g>
<g>
</g>
<g>
</g>
<g>
</g>
<g>
</g>
<g>
</g>
<g>
</g>
<g>
</g>
</svg>
