<?xml version="1.0" encoding="iso-8859-1"?>
<!-- Generator: Adobe Illustrator 19.0.0, SVG Export Plug-In . SVG Version: 6.00 Build 0)  -->
<svg version="1.1" id="Layer_1" xmlns="http://www.w3.org/2000/svg" xmlns:xlink="http://www.w3.org/1999/xlink" x="0px" y="0px"
	 viewBox="0 0 126.914 126.914" style="enable-background:new 0 0 126.914 126.914;" xml:space="preserve">
<g>
	<g>
		<g>
			<g>
				<g>
					<path style="fill:#7BC7FF;" d="M125.414,74.633c0,6.701-5.434,12.137-12.135,12.137H13.635C6.934,86.77,1.5,81.334,1.5,74.633
						V45.555c0-6.703,5.434-12.137,12.135-12.137h99.645c6.701,0,12.135,5.434,12.135,12.137V74.633z"/>
				</g>
				<g>
					<path style="fill:#0086FF;" d="M113.279,33.418H13.635C6.934,33.418,1.5,38.852,1.5,45.555v23.828
						c0,6.701,5.434,12.137,12.135,12.137h99.645c6.701,0,12.135-5.436,12.135-12.137V45.555
						C125.414,38.852,119.98,33.418,113.279,33.418z"/>
				</g>
				<g>
					<path style="fill:#33363A;" d="M113.279,88.27H13.635C6.116,88.27,0,82.152,0,74.633V45.555c0-7.52,6.116-13.637,13.635-13.637
						h99.645c7.519,0,13.635,6.117,13.635,13.637v29.078C126.914,82.152,120.798,88.27,113.279,88.27z M13.635,34.918
						C7.771,34.918,3,39.689,3,45.555v29.078C3,80.498,7.771,85.27,13.635,85.27h99.645c5.864,0,10.635-4.771,10.635-10.637V45.555
						c0-5.865-4.771-10.637-10.635-10.637H13.635z"/>
				</g>
			</g>
			<g>
				<polyline style="fill:#7BC7FF;" points="76.715,82.922 63.457,96.18 50.199,82.922 				"/>
			</g>
			<g>
				<path style="fill:#33363A;" d="M63.457,97.68c-0.384,0-0.768-0.146-1.061-0.439L49.139,83.982c-0.586-0.586-0.586-1.535,0-2.121
					s1.535-0.586,2.121,0l12.197,12.197l12.197-12.197c0.586-0.586,1.535-0.586,2.121,0s0.586,1.535,0,2.121L64.518,97.24
					C64.225,97.533,63.841,97.68,63.457,97.68z"/>
			</g>
		</g>
		<g>
			<g>
				<g>
					<g>
						<path style="fill:#33363A;" d="M63.459,11.785c-0.828,0-1.5-0.672-1.5-1.5V9.293c0-0.828,0.672-1.5,1.5-1.5s1.5,0.672,1.5,1.5
							v0.992C64.959,11.113,64.287,11.785,63.459,11.785z"/>
					</g>
					<g>
						<path style="fill:#33363A;" d="M63.459,26.65c-0.828,0-1.5-0.672-1.5-1.5v-5.824c0-0.828,0.672-1.5,1.5-1.5s1.5,0.672,1.5,1.5
							v5.824C64.959,25.979,64.287,26.65,63.459,26.65z"/>
					</g>
				</g>
				<g>
					<g>
						<g>
							<path style="fill:#33363A;" d="M36.1,17.119c-0.381,0-0.763-0.145-1.055-0.434l-0.709-0.701
								c-0.589-0.582-0.595-1.532-0.012-2.121c0.582-0.589,1.533-0.595,2.121-0.012l0.709,0.701
								c0.589,0.582,0.595,1.532,0.012,2.121C36.873,16.971,36.486,17.119,36.1,17.119z"/>
						</g>
						<g>
							<path style="fill:#33363A;" d="M46.611,27.635c-0.384,0-0.769-0.146-1.062-0.439l-4.123-4.127
								c-0.585-0.587-0.585-1.536,0.001-2.122c0.586-0.584,1.536-0.585,2.122,0.001l4.123,4.127
								c0.585,0.587,0.585,1.536-0.001,2.122C47.379,27.488,46.995,27.635,46.611,27.635z"/>
						</g>
					</g>
					<g>
						<g>
							<path style="fill:#33363A;" d="M90.818,17.123c-0.384,0-0.768-0.146-1.061-0.439c-0.586-0.586-0.586-1.535,0-2.121
								l0.705-0.705c0.586-0.586,1.535-0.586,2.121,0s0.586,1.535,0,2.121l-0.705,0.705C91.586,16.977,91.202,17.123,90.818,17.123z
								"/>
						</g>
						<g>
							<path style="fill:#33363A;" d="M80.309,27.635c-0.384,0-0.767-0.146-1.06-0.438c-0.587-0.586-0.587-1.535-0.002-2.121
								l4.119-4.125c0.586-0.588,1.535-0.586,2.121-0.002c0.587,0.586,0.587,1.535,0.002,2.121l-4.119,4.125
								C81.077,27.488,80.692,27.635,80.309,27.635z"/>
						</g>
					</g>
				</g>
			</g>
			<g>
				<g>
					<g>
						<path style="fill:#33363A;" d="M63.453,119.121c-0.828,0-1.5-0.672-1.5-1.5v-0.992c0-0.828,0.672-1.5,1.5-1.5
							s1.5,0.672,1.5,1.5v0.992C64.953,118.449,64.281,119.121,63.453,119.121z"/>
					</g>
					<g>
						<path style="fill:#33363A;" d="M63.453,109.088C63.453,109.088,63.453,109.088,63.453,109.088c-0.829,0-1.5-0.672-1.5-1.501
							l0.002-5.824c0-0.828,0.672-1.499,1.5-1.499c0,0,0,0,0.001,0c0.828,0,1.499,0.672,1.499,1.501l-0.002,5.824
							C64.953,108.417,64.281,109.088,63.453,109.088z"/>
					</g>
				</g>
				<g>
					<g>
						<g>
							<path style="fill:#33363A;" d="M91.523,113.496c-0.381,0-0.763-0.145-1.055-0.434l-0.709-0.701
								c-0.589-0.582-0.595-1.532-0.012-2.121c0.581-0.59,1.532-0.594,2.121-0.012l0.709,0.701c0.589,0.582,0.595,1.532,0.012,2.121
								C92.297,113.348,91.91,113.496,91.523,113.496z"/>
						</g>
						<g>
							<path style="fill:#33363A;" d="M84.426,106.408c-0.384,0-0.769-0.146-1.062-0.439l-4.123-4.127
								c-0.585-0.587-0.585-1.536,0.001-2.122c0.586-0.584,1.536-0.585,2.122,0.001l4.123,4.127
								c0.585,0.587,0.585,1.536-0.001,2.122C85.193,106.262,84.81,106.408,84.426,106.408z"/>
						</g>
					</g>
					<g>
						<g>
							<path style="fill:#33363A;" d="M35.391,113.496c-0.384,0-0.768-0.146-1.061-0.439c-0.586-0.586-0.586-1.535,0-2.121
								l0.705-0.705c0.586-0.586,1.535-0.586,2.121,0s0.586,1.535,0,2.121l-0.705,0.705
								C36.158,113.35,35.774,113.496,35.391,113.496z"/>
						</g>
						<g>
							<path style="fill:#33363A;" d="M42.486,106.404c-0.384,0-0.767-0.146-1.06-0.438c-0.587-0.586-0.587-1.535-0.002-2.121
								l4.119-4.125c0.586-0.588,1.535-0.586,2.121-0.002c0.587,0.586,0.587,1.535,0.002,2.121l-4.119,4.125
								C43.255,106.258,42.87,106.404,42.486,106.404z"/>
						</g>
					</g>
				</g>
			</g>
		</g>
	</g>
	<g>
		<path style="fill:#33363A;" d="M25.732,50.686h-9.445c-0.828,0-1.5,0.672-1.5,1.5v13.771c0,0.828,0.672,1.5,1.5,1.5h9.445
			c0.828,0,1.5-0.672,1.5-1.5V52.186C27.232,51.357,26.561,50.686,25.732,50.686z M24.232,53.686v3.885h-6.445v-3.885H24.232z
			 M17.787,64.457V60.57h6.445v3.887H17.787z"/>
		<path style="fill:#33363A;" d="M42.711,50.686h-9.445c-0.828,0-1.5,0.672-1.5,1.5v13.771c0,0.828,0.672,1.5,1.5,1.5
			s1.5-0.672,1.5-1.5V60.57h6.445v5.387c0,0.828,0.672,1.5,1.5,1.5s1.5-0.672,1.5-1.5V52.186
			C44.211,51.357,43.539,50.686,42.711,50.686z M34.766,57.57v-3.885h6.445v3.885H34.766z"/>
		<path style="fill:#33363A;" d="M93.646,64.457h-7.945V52.186c0-0.828-0.672-1.5-1.5-1.5s-1.5,0.672-1.5,1.5v13.771
			c0,0.828,0.672,1.5,1.5,1.5h9.445c0.828,0,1.5-0.672,1.5-1.5S94.475,64.457,93.646,64.457z"/>
		<path style="fill:#33363A;" d="M59.689,50.686h-9.445c-0.828,0-1.5,0.672-1.5,1.5s0.672,1.5,1.5,1.5h3.223v12.271
			c0,0.828,0.672,1.5,1.5,1.5s1.5-0.672,1.5-1.5V53.686h3.223c0.828,0,1.5-0.672,1.5-1.5S60.518,50.686,59.689,50.686z"/>
		<path style="fill:#33363A;" d="M76.668,50.686h-9.445c-0.828,0-1.5,0.672-1.5,1.5s0.672,1.5,1.5,1.5h3.223v12.271
			c0,0.828,0.672,1.5,1.5,1.5s1.5-0.672,1.5-1.5V53.686h3.223c0.828,0,1.5-0.672,1.5-1.5S77.496,50.686,76.668,50.686z"/>
		<path style="fill:#33363A;" d="M110.625,60.57c0.828,0,1.5-0.672,1.5-1.5s-0.672-1.5-1.5-1.5h-7.945v-3.885h7.945
			c0.828,0,1.5-0.672,1.5-1.5s-0.672-1.5-1.5-1.5h-9.445c-0.828,0-1.5,0.672-1.5,1.5v13.771c0,0.828,0.672,1.5,1.5,1.5h9.445
			c0.828,0,1.5-0.672,1.5-1.5s-0.672-1.5-1.5-1.5h-7.945V60.57H110.625z"/>
	</g>
</g>
<g>
</g>
<g>
</g>
<g>
</g>
<g>
</g>
<g>
</g>
<g>
</g>
<g>
</g>
<g>
</g>
<g>
</g>
<g>
</g>
<g>
</g>
<g>
</g>
<g>
</g>
<g>
</g>
<g>
</g>
</svg>
