<?xml version="1.0" encoding="iso-8859-1"?>
<!-- Generator: Adobe Illustrator 19.0.0, SVG Export Plug-In . SVG Version: 6.00 Build 0)  -->
<svg version="1.1" id="Layer_1" xmlns="http://www.w3.org/2000/svg" xmlns:xlink="http://www.w3.org/1999/xlink" x="0px" y="0px"
	 viewBox="0 0 127.738 127.738" style="enable-background:new 0 0 127.738 127.738;" xml:space="preserve">
<g>
	<g>
		<g>
			<path style="fill:#2AF42F;" d="M63.875,126.238c-34.431-0.02-62.362-27.951-62.374-62.373C1.508,29.414,29.429,1.5,63.869,1.5
				c34.451-0.012,62.367,27.928,62.369,62.369C126.24,98.309,98.322,126.225,63.875,126.238z"/>
		</g>
		<g>
			<path style="fill:#1AD88F;" d="M63.869,1.5c34.451-0.012,62.367,27.928,62.369,62.369c0.002,34.439-27.916,62.355-62.363,62.369"
				/>
		</g>
		<g>
			<path style="fill:#FDFFDC;" d="M8.516,35.145h110.71c-1.764-3.391-3.826-6.596-6.158-9.586H14.673
				C12.342,28.549,10.278,31.754,8.516,35.145z"/>
		</g>
		<g>
			<path style="fill:#E6FF2E;" d="M63.871,35.145h55.355c-0.002-0.002-0.002-0.004-0.004-0.006
				c-0.434-0.834-0.887-1.656-1.355-2.469c-0.012-0.02-0.023-0.037-0.033-0.057c-0.469-0.807-0.953-1.601-1.455-2.383
				c-0.012-0.017-0.023-0.037-0.035-0.055c-0.506-0.785-1.029-1.561-1.568-2.32c-0.006-0.01-0.014-0.019-0.021-0.029
				c-0.545-0.77-1.105-1.525-1.686-2.267H63.869L63.871,35.145z"/>
		</g>
		<g>
			<path style="fill:#FDFFDC;" d="M1.501,63.865c0.002,6.678,1.066,13.105,3.014,19.139h118.722
				c1.941-6.031,3.002-12.457,3.002-19.135c0-6.676-1.061-13.104-3.004-19.135H4.505C2.563,50.764,1.502,57.189,1.501,63.865z"/>
		</g>
		<g>
			<path style="fill:#E6FF2E;" d="M126.107,60.004c-0.039-0.629-0.086-1.254-0.143-1.877c-0.035-0.387-0.072-0.775-0.115-1.16
				c-0.061-0.557-0.135-1.107-0.211-1.656c-0.057-0.408-0.105-0.816-0.17-1.221c-0.127-0.811-0.271-1.617-0.432-2.418
				c-0.113-0.566-0.242-1.129-0.371-1.691c-0.068-0.303-0.135-0.605-0.209-0.906c-0.143-0.59-0.297-1.174-0.457-1.758
				c-0.066-0.24-0.135-0.48-0.205-0.723c-0.18-0.623-0.361-1.244-0.56-1.859H63.871l0.002,38.27h59.363
				c0.197-0.617,0.381-1.24,0.561-1.863c0.068-0.24,0.139-0.479,0.205-0.719c0.16-0.584,0.313-1.17,0.457-1.762
				c0.072-0.297,0.139-0.596,0.207-0.895c0.129-0.566,0.26-1.133,0.373-1.705c0.158-0.797,0.303-1.602,0.432-2.41
				c0.064-0.408,0.113-0.82,0.17-1.231c0.076-0.547,0.148-1.094,0.209-1.646c0.043-0.387,0.08-0.775,0.115-1.166
				c0.057-0.621,0.105-1.246,0.143-1.873c0.021-0.324,0.043-0.648,0.059-0.975c0.043-0.959,0.072-1.922,0.072-2.891
				c0-0.971-0.029-1.934-0.072-2.891C126.15,60.652,126.126,60.328,126.107,60.004z"/>
		</g>
		<g>
			<path style="fill:#FDFFDC;" d="M14.698,102.18h98.366c2.332-2.99,4.396-6.195,6.16-9.586H8.532
				C10.297,95.984,12.364,99.189,14.698,102.18z"/>
		</g>
		<g>
			<path style="fill:#E6FF2E;" d="M63.873,92.594v9.586h49.191c0.58-0.744,1.143-1.5,1.689-2.27
				c0.006-0.008,0.012-0.018,0.018-0.025c0.541-0.764,1.066-1.539,1.572-2.328c0.01-0.014,0.02-0.029,0.029-0.043
				c0.504-0.787,0.992-1.586,1.463-2.395c0.008-0.014,0.016-0.029,0.024-0.043c0.473-0.814,0.928-1.641,1.363-2.48l0.002-0.002
				H63.873z"/>
		</g>
		<path style="fill:#33363A;" d="M124.664,83.464c0.04-0.123,0.073-0.248,0.112-0.371c0.092-0.292,0.177-0.587,0.265-0.881
			c0.182-0.609,0.358-1.219,0.521-1.833c0.1-0.372,0.197-0.745,0.29-1.12c0.144-0.582,0.277-1.166,0.405-1.751
			c0.078-0.358,0.161-0.715,0.234-1.076c0.18-0.896,0.342-1.795,0.483-2.698c0.044-0.28,0.076-0.564,0.116-0.845
			c0.098-0.686,0.188-1.373,0.263-2.062c0.038-0.353,0.071-0.708,0.104-1.063c0.061-0.664,0.112-1.329,0.152-1.995
			c0.019-0.319,0.041-0.637,0.056-0.957c0.045-0.979,0.074-1.96,0.074-2.944c0-0.956-0.027-1.909-0.07-2.862
			c-0.016-0.354-0.041-0.706-0.062-1.06c-0.035-0.574-0.076-1.147-0.126-1.719c-0.04-0.461-0.085-0.921-0.135-1.38
			c-0.045-0.405-0.096-0.808-0.149-1.212c-1.784-13.94-8.066-26.832-18.164-36.933C96.973,6.642,80.943,0,63.891,0
			c-0.008,0-0.016,0-0.022,0C43.53,0,25.394,9.572,13.689,24.435c-0.071,0.062-0.139,0.126-0.198,0.202
			c-0.236,0.302-0.456,0.616-0.686,0.922c-0.07,0.093-0.139,0.187-0.209,0.281c-0.52,0.701-1.026,1.411-1.517,2.132
			c-0.101,0.148-0.201,0.296-0.301,0.445c-0.451,0.674-0.888,1.355-1.312,2.045c-0.122,0.197-0.243,0.395-0.362,0.593
			c-0.389,0.647-0.763,1.3-1.128,1.959c-0.139,0.25-0.278,0.5-0.413,0.752c-0.124,0.23-0.258,0.456-0.378,0.688
			c-0.028,0.054-0.041,0.112-0.062,0.169c-1.583,3.058-2.928,6.255-4.006,9.575c-0.011,0.028-0.03,0.049-0.04,0.078
			c-0.037,0.114-0.067,0.229-0.103,0.342c-0.099,0.313-0.189,0.629-0.284,0.944c-0.177,0.591-0.347,1.184-0.507,1.779
			c-0.102,0.379-0.2,0.758-0.295,1.139c-0.144,0.579-0.276,1.161-0.404,1.744c-0.078,0.358-0.161,0.714-0.234,1.075
			C1.072,52.195,0.908,53.096,0.767,54c-0.043,0.274-0.074,0.552-0.114,0.827c-0.099,0.692-0.189,1.385-0.265,2.08
			c-0.038,0.351-0.071,0.704-0.103,1.057c-0.062,0.666-0.112,1.333-0.153,2.002c-0.019,0.318-0.041,0.635-0.056,0.954
			C0.031,61.9,0.001,62.881,0,63.865c0,0,0,0,0,0.001c0,0.985,0.03,1.968,0.076,2.949c0.015,0.315,0.036,0.628,0.055,0.942
			c0.041,0.671,0.092,1.342,0.154,2.011c0.033,0.352,0.065,0.705,0.103,1.055c0.075,0.684,0.164,1.365,0.261,2.046
			c0.041,0.289,0.074,0.581,0.12,0.87c0.14,0.894,0.301,1.785,0.48,2.673c0.078,0.392,0.169,0.779,0.255,1.168
			c0.119,0.542,0.242,1.084,0.376,1.623c0.103,0.417,0.212,0.832,0.323,1.246c0.145,0.538,0.299,1.074,0.458,1.608
			c0.11,0.369,0.217,0.74,0.334,1.107c0.032,0.1,0.059,0.202,0.091,0.302c0.008,0.025,0.025,0.043,0.034,0.067
			c1.084,3.334,2.438,6.546,4.031,9.617c0.018,0.046,0.027,0.093,0.05,0.137c0.095,0.183,0.202,0.361,0.299,0.544
			c0.195,0.364,0.396,0.725,0.597,1.085c0.299,0.535,0.604,1.067,0.918,1.595c0.191,0.319,0.385,0.635,0.581,0.95
			c0.347,0.559,0.701,1.112,1.065,1.66c0.182,0.273,0.365,0.545,0.551,0.815c0.403,0.587,0.816,1.167,1.239,1.74
			c0.161,0.218,0.322,0.436,0.485,0.652c0.195,0.257,0.38,0.522,0.578,0.776c0.049,0.062,0.107,0.114,0.164,0.167
			c11.706,14.873,29.849,24.458,50.195,24.469c0.001,0,0.001,0,0.002,0c20.337-0.008,38.469-9.578,50.173-24.434
			c0.071-0.062,0.14-0.126,0.198-0.202c0.239-0.306,0.462-0.625,0.696-0.935c0.069-0.091,0.137-0.184,0.205-0.276
			c0.522-0.702,1.029-1.414,1.521-2.138c0.099-0.145,0.198-0.291,0.295-0.437c0.453-0.677,0.892-1.361,1.318-2.055
			c0.119-0.193,0.237-0.385,0.354-0.579c0.396-0.659,0.778-1.324,1.149-1.995c0.128-0.231,0.257-0.462,0.382-0.695
			c0.127-0.237,0.265-0.469,0.389-0.707c0.029-0.057,0.043-0.118,0.064-0.177c1.58-3.054,2.924-6.247,4.001-9.561
			C124.632,83.518,124.654,83.495,124.664,83.464z M124.667,66.643c-0.013,0.281-0.03,0.562-0.046,0.843
			c-0.04,0.681-0.093,1.358-0.155,2.033c-0.025,0.27-0.046,0.54-0.074,0.809c-0.092,0.869-0.202,1.733-0.33,2.591
			c-0.042,0.281-0.094,0.561-0.14,0.842c-0.101,0.612-0.209,1.222-0.327,1.828c-0.067,0.344-0.137,0.687-0.211,1.03
			c-0.131,0.612-0.273,1.219-0.422,1.824c-0.065,0.263-0.124,0.528-0.192,0.79c-0.199,0.763-0.418,1.519-0.646,2.271H5.623
			c-0.225-0.739-0.439-1.483-0.636-2.233c-0.083-0.315-0.154-0.632-0.231-0.948c-0.136-0.556-0.267-1.114-0.388-1.676
			c-0.078-0.361-0.152-0.722-0.223-1.084c-0.116-0.592-0.222-1.188-0.32-1.786c-0.048-0.289-0.101-0.576-0.145-0.865
			c-0.129-0.858-0.239-1.722-0.331-2.592C3.32,70.056,3.3,69.79,3.275,69.524c-0.063-0.68-0.116-1.363-0.157-2.05
			c-0.016-0.276-0.033-0.553-0.046-0.83C3.03,65.723,3.001,64.798,3,63.866c0-0.93,0.029-1.854,0.071-2.775
			c0.013-0.282,0.03-0.563,0.047-0.844c0.04-0.681,0.093-1.358,0.156-2.033c0.025-0.27,0.046-0.54,0.074-0.809
			c0.092-0.87,0.202-1.734,0.331-2.592c0.042-0.28,0.094-0.558,0.14-0.838c0.101-0.615,0.21-1.228,0.329-1.837
			c0.067-0.341,0.136-0.681,0.209-1.02c0.132-0.617,0.275-1.229,0.426-1.839c0.064-0.259,0.122-0.519,0.189-0.778
			c0.199-0.762,0.418-1.516,0.646-2.266h116.514c0.431,1.424,0.808,2.86,1.133,4.308c0.002,0.011,0.005,0.023,0.008,0.034
			c0.158,0.707,0.303,1.416,0.436,2.128c0.016,0.087,0.03,0.174,0.045,0.261c0.187,1.028,0.341,2.062,0.475,3.099
			c0.056,0.442,0.116,0.883,0.163,1.327c0.041,0.382,0.072,0.766,0.106,1.15c0.049,0.569,0.092,1.139,0.125,1.712
			c0.018,0.309,0.037,0.618,0.051,0.928c0.039,0.894,0.066,1.789,0.066,2.689C124.738,64.799,124.709,65.723,124.667,66.643z
			 M118.283,91.094H9.467c-1.072-2.13-2.03-4.326-2.849-6.59H121.13C120.311,86.767,119.354,88.963,118.283,91.094z M112.298,100.68
			H15.456c-0.109-0.143-0.225-0.279-0.332-0.422c-0.006-0.008-0.011-0.016-0.017-0.023c-0.559-0.747-1.099-1.508-1.624-2.281
			c-0.031-0.046-0.064-0.092-0.095-0.138c-0.52-0.77-1.022-1.553-1.507-2.348c-0.048-0.079-0.094-0.158-0.141-0.237
			c-0.226-0.374-0.437-0.757-0.655-1.136h105.581C115.349,96.386,113.893,98.587,112.298,100.68z M9.456,36.645h108.869
			c1.073,2.142,2.031,4.337,2.84,6.59H6.611C7.429,40.971,8.386,38.775,9.456,36.645z M15.439,27.059h96.891
			c1.594,2.095,3.057,4.301,4.367,6.586H11.073C12.39,31.353,13.845,29.151,15.439,27.059z M63.87,3c0.008,0,0.013,0,0.021,0
			c16.25,0,31.529,6.331,43.021,17.825c1.044,1.044,2.029,2.129,2.987,3.233h-92.01C29.057,11.174,45.522,3,63.87,3z
			 M63.875,124.738c-18.339-0.01-34.799-8.183-45.969-21.059h91.943C98.681,116.558,82.219,124.731,63.875,124.738z"/>
	</g>
	<g>
		<path style="fill:#CDFFBB;" d="M28.917,20.938c-0.43,0-0.855-0.183-1.152-0.538c-0.531-0.636-0.446-1.582,0.189-2.113
			c5.855-4.891,12.49-8.49,19.721-10.697c0.785-0.241,1.63,0.204,1.872,0.997c0.242,0.792-0.204,1.631-0.997,1.873
			c-6.845,2.09-13.127,5.498-18.672,10.131C29.597,20.823,29.256,20.938,28.917,20.938z"/>
	</g>
	<g>
		<path style="fill:#CDFFBB;" d="M53.11,9.309c-0.4,0-0.78-0.16-1.061-0.44c-0.28-0.28-0.439-0.66-0.439-1.06s0.159-0.78,0.439-1.06
			c0.55-0.56,1.561-0.56,2.12,0c0.28,0.28,0.44,0.67,0.44,1.06c0,0.39-0.16,0.78-0.44,1.06C53.889,9.149,53.5,9.309,53.11,9.309z"/>
	</g>
</g>
<g>
</g>
<g>
</g>
<g>
</g>
<g>
</g>
<g>
</g>
<g>
</g>
<g>
</g>
<g>
</g>
<g>
</g>
<g>
</g>
<g>
</g>
<g>
</g>
<g>
</g>
<g>
</g>
<g>
</g>
</svg>
