<?xml version="1.0" encoding="iso-8859-1"?>
<!-- Generator: Adobe Illustrator 19.0.0, SVG Export Plug-In . SVG Version: 6.00 Build 0)  -->
<svg version="1.1" id="Layer_1" xmlns="http://www.w3.org/2000/svg" xmlns:xlink="http://www.w3.org/1999/xlink" x="0px" y="0px"
	 viewBox="0 0 128.588 128.588" style="enable-background:new 0 0 128.588 128.588;" xml:space="preserve">
<g>
	<g>
		<circle style="fill:#FFD00B;" cx="64.294" cy="64.294" r="62.794"/>
	</g>
	<g>
		<path style="fill:#FFAA00;" d="M64.295,9.852c-33.277,0-60.491,25.887-62.641,58.618c2.15,32.731,29.364,58.618,62.641,58.618
			c33.273,0,60.488-25.887,62.641-58.618C124.784,35.738,97.569,9.852,64.295,9.852z"/>
	</g>
	<g>
		<path style="fill:#33363A;" d="M64.295,128.588C28.843,128.588,0,99.746,0,64.294S28.843,0,64.295,0
			c35.451,0,64.293,28.842,64.293,64.294S99.747,128.588,64.295,128.588z M64.295,3C30.497,3,3,30.497,3,64.294
			s27.497,61.294,61.295,61.294c33.797,0,61.293-27.497,61.293-61.294S98.092,3,64.295,3z"/>
	</g>
	<g>
		<g>
			<path style="fill:#D8E5EA;" d="M117.35,64.291c0,29.306-23.754,53.058-53.057,53.058c-29.3,0-53.054-23.752-53.054-53.058
				c0-29.299,23.754-53.052,53.054-53.052C93.596,11.239,117.35,34.992,117.35,64.291z"/>
		</g>
		<g>
			<path style="fill:#FFFFFF;" d="M11.239,64.291c0,29.306,23.754,53.058,53.054,53.058c29.303,0,53.057-23.752,53.057-53.058
				H11.239z"/>
		</g>
		<g>
			<path style="fill:#33363A;" d="M64.293,118.849c-30.081,0-54.554-24.475-54.554-54.558c0-30.08,24.473-54.552,54.554-54.552
				c30.083,0,54.557,24.472,54.557,54.552C118.85,94.374,94.376,118.849,64.293,118.849z M64.293,12.74
				c-28.427,0-51.554,23.126-51.554,51.552c0,28.429,23.127,51.558,51.554,51.558c28.428,0,51.557-23.128,51.557-51.558
				C115.85,35.865,92.722,12.74,64.293,12.74z"/>
		</g>
		<g>
			<path style="fill:none;stroke:#33363A;stroke-width:3;stroke-linecap:round;stroke-linejoin:round;stroke-miterlimit:10;" d="
				M11.239,64.291"/>
		</g>
		<g>
			<path style="fill:none;stroke:#33363A;stroke-width:3;stroke-linecap:round;stroke-linejoin:round;stroke-miterlimit:10;" d="
				M117.35,64.291"/>
		</g>
		<g>
			<g>
				<path style="fill:#A7BBC1;" d="M71.711,60.327c4.098,4.1,4.098,10.738,0,14.835c-4.096,4.098-10.736,4.098-14.834,0
					c-4.096-4.097-4.096-10.735,0-14.835C60.975,56.234,67.616,56.234,71.711,60.327z"/>
			</g>
			<g>
				<path style="fill:#FFAA00;" d="M56.877,56.764c4.096-4.098,10.738-4.098,14.836,0c4.092,4.094,4.092,10.736,0,14.832
					c-4.098,4.096-10.74,4.096-14.836,0C52.78,67.5,52.78,60.858,56.877,56.764z"/>
			</g>
			<g>
				<path style="fill:#FFD00B;" d="M64.295,74.668c-5.793,0-10.49-4.697-10.49-10.49c0-5.793,4.697-10.489,10.488-10.488"/>
			</g>
			<g>
				<path style="fill:#33363A;" d="M64.295,76.162c-3.07,0-6.14-1.168-8.478-3.503c-4.675-4.677-4.675-12.284,0-16.958
					c4.676-4.673,12.282-4.673,16.955,0v0c0,0,0,0,0,0c2.265,2.264,3.513,5.275,3.513,8.478c0,3.203-1.248,6.214-3.513,8.479
					C70.435,74.994,67.365,76.162,64.295,76.162z M64.295,55.195c-2.303,0-4.604,0.876-6.357,2.628
					c-3.504,3.504-3.504,9.208,0,12.714c3.505,3.501,9.208,3.502,12.712,0c1.698-1.698,2.634-3.956,2.634-6.358
					c0-2.401-0.936-4.659-2.634-6.356v0C68.899,56.071,66.597,55.195,64.295,55.195z"/>
			</g>
		</g>
	</g>
	<g>
		<g>
			<path style="fill:#7BC67B;" d="M67.129,45.696c0,1.564-1.27,2.834-2.834,2.834l0,0c-1.565,0-2.834-1.27-2.834-2.834V18.901
				c0-1.564,1.269-2.834,2.834-2.834l0,0c1.564,0,2.834,1.27,2.834,2.834V45.696z"/>
		</g>
		<g>
			<path style="fill:#0086FF;" d="M64.295,21.229c-1.565,0-2.834,1.269-2.834,2.834v21.633c0,1.564,1.269,2.834,2.834,2.834
				c1.564,0,2.834-1.27,2.834-2.834V24.063C67.129,22.498,65.86,21.229,64.295,21.229z"/>
		</g>
		<g>
			<path style="fill:#33363A;" d="M64.295,50.03c-2.39,0-4.334-1.944-4.334-4.334V18.901c0-2.39,1.944-4.334,4.334-4.334
				s4.334,1.944,4.334,4.334v26.795C68.629,48.085,66.685,50.03,64.295,50.03z M64.295,17.567c-0.735,0-1.334,0.599-1.334,1.334
				v26.795c0,0.735,0.599,1.334,1.334,1.334s1.334-0.599,1.334-1.334V18.901C65.629,18.165,65.031,17.567,64.295,17.567z"/>
		</g>
	</g>
	<g>
		<g>
			<path style="fill:#FF1A1A;" d="M82.831,67.014c-1.564,0-2.832-1.27-2.832-2.835l0,0c0-1.566,1.268-2.835,2.832-2.835h26.795
				c1.564,0,2.834,1.27,2.834,2.835l0,0c0,1.565-1.27,2.835-2.834,2.835H82.831z"/>
		</g>
		<g>
			<path style="fill:#D60909;" d="M107.299,64.179c0-1.566-1.27-2.835-2.834-2.835H82.831c-1.564,0-2.832,1.27-2.832,2.835
				c0,1.565,1.268,2.835,2.832,2.835h21.635C106.03,67.014,107.299,65.744,107.299,64.179z"/>
		</g>
		<g>
			<path style="fill:#33363A;" d="M109.625,68.514H82.831c-2.389,0-4.332-1.945-4.332-4.335s1.943-4.335,4.332-4.335h26.795
				c2.39,0,4.334,1.945,4.334,4.335S112.015,68.514,109.625,68.514z M82.831,62.844c-0.734,0-1.332,0.599-1.332,1.335
				s0.598,1.335,1.332,1.335h26.795c0.735,0,1.334-0.599,1.334-1.335s-0.599-1.335-1.334-1.335H82.831z"/>
		</g>
	</g>
</g>
<g>
</g>
<g>
</g>
<g>
</g>
<g>
</g>
<g>
</g>
<g>
</g>
<g>
</g>
<g>
</g>
<g>
</g>
<g>
</g>
<g>
</g>
<g>
</g>
<g>
</g>
<g>
</g>
<g>
</g>
</svg>
