<?xml version="1.0" encoding="iso-8859-1"?>
<!-- Generator: Adobe Illustrator 19.0.0, SVG Export Plug-In . SVG Version: 6.00 Build 0)  -->
<svg version="1.1" id="Layer_1" xmlns="http://www.w3.org/2000/svg" xmlns:xlink="http://www.w3.org/1999/xlink" x="0px" y="0px"
	 viewBox="0 0 127.188 127.188" style="enable-background:new 0 0 127.188 127.188;" xml:space="preserve">
<g>
	<g>
		<circle style="fill:#0086FF;" cx="63.594" cy="59.664" r="58.163"/>
	</g>
	<g>
		<path style="fill:#00AAFF;" d="M121.757,59.664c0,32.123-26.039,58.162-58.162,58.162c-32.123,0-58.164-26.039-58.164-58.162"/>
	</g>
	<g>
		<g>
			<g>
				<path style="fill:#FFFFFF;" d="M56.21,47.183c2.619,0,4.744-2.124,4.744-4.743c0-2.62-2.125-4.743-4.744-4.743H32.587
					c-2.619,0-4.744,2.123-4.744,4.743v34.449c0,2.617,2.125,4.742,4.744,4.742H56.21c2.619,0,4.744-2.125,4.744-4.742
					c0-2.621-2.125-4.746-4.744-4.746H37.331v-24.96H56.21z"/>
			</g>
			<g>
				<path style="fill:#FFFFFF;" d="M94.601,37.696H70.978c-2.619,0-4.744,2.123-4.744,4.743v34.449c0,2.617,2.125,4.742,4.744,4.742
					c2.621,0,4.744-2.125,4.744-4.742V64.405h18.867c0.006,0,0.01,0.003,0.012,0.003c2.621,0,4.744-2.125,4.744-4.744V42.439
					C99.345,39.819,97.222,37.696,94.601,37.696z M75.722,47.183h14.135v7.735H75.722V47.183z"/>
			</g>
		</g>
		<g>
			<g>
				<path style="fill:#D8E5EA;" d="M32.587,81.631H56.21c2.184,0,4.002-1.482,4.555-3.49c-0.553-2.008-2.371-3.491-4.555-3.491
					H37.331v-2.507V49.688v-2.506H56.21c2.184,0,4.002-1.482,4.555-3.49c-0.553-2.007-2.371-3.49-4.555-3.49H32.587
					c-2.619,0-4.744,2.124-4.744,4.743v31.943C27.843,79.506,29.968,81.631,32.587,81.631z"/>
			</g>
			<g>
				<path style="fill:#D8E5EA;" d="M94.601,40.202H70.978c-2.619,0-4.744,2.124-4.744,4.743v31.943c0,2.617,2.125,4.742,4.744,4.742
					c2.621,0,4.744-2.125,4.744-4.742V66.91v-2.505h18.867c0.006,0,0.01,0.003,0.012,0.003c2.621,0,4.744-2.125,4.744-4.744V44.945
					C99.345,42.326,97.222,40.202,94.601,40.202z M89.856,49.688v5.229v2.506H75.722v-2.506v-5.229v-2.506h14.135V49.688z"/>
			</g>
		</g>
	</g>
	<g>
		<g>
			<path style="fill:#33363A;" d="M70.978,83.131c-3.443,0-6.244-2.8-6.244-6.242V42.439c0-3.442,2.801-6.243,6.244-6.243h23.623
				c3.443,0,6.244,2.801,6.244,6.243v17.225c0,3.443-2.801,6.244-6.244,6.244c-0.031,0-0.062-0.001-0.093-0.003H77.222v10.983
				C77.222,80.331,74.42,83.131,70.978,83.131z M70.978,39.196c-1.789,0-3.244,1.455-3.244,3.243v34.449
				c0,1.788,1.455,3.242,3.244,3.242s3.244-1.455,3.244-3.242V64.405c0-0.829,0.671-1.5,1.5-1.5h18.867
				c0.026,0,0.053,0.001,0.08,0.002c1.757-0.037,3.176-1.478,3.176-3.244V42.439c0-1.788-1.455-3.243-3.244-3.243H70.978z
				 M89.856,56.418H75.722c-0.829,0-1.5-0.671-1.5-1.5v-7.735c0-0.829,0.671-1.5,1.5-1.5h14.135c0.829,0,1.5,0.671,1.5,1.5v7.735
				C91.356,55.747,90.685,56.418,89.856,56.418z M77.222,53.418h11.135v-4.735H77.222V53.418z"/>
		</g>
		<g>
			<path style="fill:#33363A;" d="M56.21,83.131H32.587c-3.443,0-6.244-2.8-6.244-6.242V42.439c0-3.442,2.801-6.243,6.244-6.243
				H56.21c3.443,0,6.244,2.801,6.244,6.243c0,1.833-0.819,3.57-2.248,4.767c-0.075,0.067-0.189,0.164-0.308,0.25
				c-0.139,0.105-0.308,0.213-0.48,0.319c-0.167,0.102-0.33,0.189-0.501,0.272c-0.147,0.071-0.294,0.139-0.447,0.201
				c-0.253,0.095-0.475,0.161-0.7,0.219c-0.174,0.049-0.29,0.079-0.408,0.101c-0.391,0.076-0.773,0.114-1.152,0.114H38.831v21.96
				H56.21c3.443,0,6.244,2.802,6.244,6.246c0,1.829-0.818,3.566-2.246,4.766c-0.08,0.07-0.187,0.161-0.3,0.244
				c-0.149,0.113-0.318,0.221-0.49,0.326c-0.178,0.106-0.344,0.198-0.518,0.28c-0.13,0.064-0.288,0.136-0.45,0.199
				c-0.229,0.087-0.46,0.157-0.695,0.215c-0.123,0.037-0.243,0.069-0.366,0.094C56.96,83.094,56.582,83.131,56.21,83.131z
				 M32.587,39.196c-1.789,0-3.244,1.455-3.244,3.243v34.449c0,1.788,1.455,3.242,3.244,3.242H56.21
				c0.184,0,0.383-0.021,0.607-0.063c0.021-0.004,0.061-0.018,0.102-0.029c0.018-0.005,0.091-0.026,0.109-0.03
				c0.117-0.029,0.232-0.062,0.344-0.104c0.076-0.029,0.153-0.066,0.229-0.104c0.108-0.051,0.188-0.096,0.266-0.143
				c0.075-0.046,0.164-0.1,0.249-0.164c0.056-0.042,0.097-0.078,0.138-0.114c0.772-0.65,1.201-1.55,1.201-2.491
				c0-1.79-1.455-3.246-3.244-3.246H37.331c-0.829,0-1.5-0.671-1.5-1.5v-24.96c0-0.829,0.671-1.5,1.5-1.5H56.21
				c0.185,0,0.381-0.021,0.597-0.063c0.007-0.002,0.194-0.052,0.201-0.054c0.131-0.034,0.257-0.07,0.378-0.115
				c0.052-0.021,0.139-0.063,0.224-0.104c0.084-0.041,0.167-0.086,0.249-0.135c0.083-0.05,0.172-0.104,0.256-0.168
				c0.06-0.044,0.094-0.076,0.129-0.107c0.781-0.655,1.209-1.555,1.209-2.498c0-1.788-1.455-3.243-3.244-3.243H32.587z"/>
		</g>
	</g>
	<g>
		<path style="fill:#33363A;" d="M63.595,119.326c-32.899,0-59.664-26.764-59.664-59.662C3.931,26.765,30.696,0,63.595,0
			c32.898,0,59.662,26.765,59.662,59.664C123.257,92.562,96.493,119.326,63.595,119.326z M63.595,3
			C32.35,3,6.931,28.419,6.931,59.664c0,31.244,25.419,56.662,56.664,56.662c31.244,0,56.662-25.418,56.662-56.662
			C120.257,28.419,94.838,3,63.595,3z"/>
	</g>
	<g>
		<polyline style="fill:#00AAFF;" points="79.317,109.964 63.595,125.688 47.87,109.964 		"/>
	</g>
	<g>
		<path style="fill:#33363A;" d="M63.595,127.188c-0.398,0-0.779-0.158-1.061-0.439L46.81,111.024c-0.586-0.585-0.586-1.535,0-2.121
			s1.535-0.586,2.121,0l14.664,14.663l14.662-14.663c0.586-0.586,1.535-0.586,2.121,0c0.586,0.585,0.586,1.535,0,2.121
			l-15.723,15.724C64.374,127.029,63.993,127.188,63.595,127.188z"/>
	</g>
</g>
<g>
</g>
<g>
</g>
<g>
</g>
<g>
</g>
<g>
</g>
<g>
</g>
<g>
</g>
<g>
</g>
<g>
</g>
<g>
</g>
<g>
</g>
<g>
</g>
<g>
</g>
<g>
</g>
<g>
</g>
</svg>
