<?xml version="1.0" encoding="iso-8859-1"?>
<!-- Generator: Adobe Illustrator 19.0.0, SVG Export Plug-In . SVG Version: 6.00 Build 0)  -->
<svg version="1.1" id="Layer_1" xmlns="http://www.w3.org/2000/svg" xmlns:xlink="http://www.w3.org/1999/xlink" x="0px" y="0px"
	 viewBox="0 0 127.9 127.9" style="enable-background:new 0 0 127.9 127.9;" xml:space="preserve">
<g>
	<g>
		<g>
			<g>
				<rect x="29.854" y="23.846" style="fill:#ADB8BC;" width="68.193" height="91.309"/>
			</g>
			<g>
				<rect x="50.152" y="23.846" style="fill:#93A0A3;" width="27.596" height="91.309"/>
			</g>
			<g>
				<rect x="29.854" y="106.668" style="fill:#FF8B00;" width="68.193" height="8.486"/>
			</g>
			<g>
				<rect x="29.854" y="106.668" style="fill:#FFB000;" width="68.193" height="4.243"/>
			</g>
			<g>
				<polygon style="fill:#EBF4F7;" points="29.854,115.154 98.047,115.154 89.377,126.4 38.522,126.4 				"/>
			</g>
			<g>
				<polygon style="fill:#EBF4F7;" points="98.047,23.992 29.854,23.992 38.522,1.5 89.377,1.5 				"/>
			</g>
			<g>
				<g>
					<polygon style="fill:#D8E5EA;" points="50.152,115.154 77.748,115.154 74.24,126.4 53.66,126.4 					"/>
				</g>
				<g>
					<polygon style="fill:#D8E5EA;" points="77.748,23.992 50.152,23.992 53.66,1.5 74.24,1.5 					"/>
				</g>
			</g>
			<path style="fill:#33363A;" d="M99.26,22.97L90.776,0.96C90.554,0.382,89.997,0,89.377,0H38.521c-0.62,0-1.177,0.382-1.399,0.96
				L28.64,22.97c-0.178,0.247-0.286,0.547-0.286,0.875v82.822v8.486c0,0.032,0.007,0.062,0.01,0.094
				c0.002,0.037,0.006,0.074,0.011,0.111c0.014,0.104,0.038,0.204,0.073,0.3c0.007,0.019,0.01,0.039,0.018,0.058
				c0.047,0.116,0.109,0.222,0.182,0.322c0.007,0.01,0.01,0.022,0.018,0.031l8.668,11.246c0.284,0.369,0.724,0.584,1.188,0.584
				h50.855c0.465,0,0.904-0.216,1.188-0.584l8.67-11.246c0.007-0.009,0.01-0.02,0.017-0.029c0.074-0.1,0.138-0.208,0.185-0.326
				c0.007-0.017,0.01-0.034,0.016-0.052c0.035-0.098,0.06-0.2,0.074-0.307c0.005-0.036,0.009-0.072,0.011-0.108
				c0.002-0.032,0.01-0.062,0.01-0.095v-8.486V23.846C99.547,23.518,99.439,23.217,99.26,22.97z M96.547,25.492v79.676H31.354
				V25.492H96.547z M31.354,108.168h65.193v5.486H31.354V108.168z M39.551,3h48.797l7.457,19.346H32.095L39.551,3z M88.64,124.9
				H39.259l-6.355-8.246h62.093L88.64,124.9z"/>
			<g>
				<g>
					<path style="fill:#FF8B00;" d="M77.328,12.709c0,2.209-1.791,4-4,4H54.572c-2.209,0-4-1.791-4-4v-0.75c0-2.209,1.791-4,4-4
						h18.756c2.209,0,4,1.791,4,4V12.709z"/>
				</g>
				<g>
					<path style="fill:#33363A;" d="M73.328,18.209H54.572c-3.032,0-5.5-2.467-5.5-5.5v-0.75c0-3.033,2.468-5.5,5.5-5.5h18.756
						c3.032,0,5.5,2.467,5.5,5.5v0.75C78.828,15.742,76.36,18.209,73.328,18.209z M54.572,9.459c-1.379,0-2.5,1.122-2.5,2.5v0.75
						c0,1.378,1.121,2.5,2.5,2.5h18.756c1.379,0,2.5-1.122,2.5-2.5v-0.75c0-1.378-1.121-2.5-2.5-2.5H54.572z"/>
				</g>
			</g>
			<g>
				<path style="fill:#FDFEFF;" d="M36.367,81.853c-0.828,0-1.5-0.671-1.5-1.5V38.834c0-0.829,0.672-1.5,1.5-1.5s1.5,0.671,1.5,1.5
					v41.519C37.867,81.181,37.195,81.853,36.367,81.853z"/>
			</g>
			<g>
				<path style="fill:#FDFEFF;" d="M36.367,34.334c-0.828,0-1.5-0.671-1.5-1.5v-2.853c0-0.829,0.672-1.5,1.5-1.5s1.5,0.671,1.5,1.5
					v2.853C37.867,33.663,37.195,34.334,36.367,34.334z"/>
			</g>
			<g>
				<path style="fill:#FDFEFF;" d="M36.367,90.334c-0.828,0-1.5-0.671-1.5-1.5v-2.853c0-0.829,0.672-1.5,1.5-1.5s1.5,0.671,1.5,1.5
					v2.853C37.867,89.663,37.195,90.334,36.367,90.334z"/>
			</g>
			<g>
				<path style="fill:#FDFEFF;" d="M36.367,99.084c-0.828,0-1.5-0.671-1.5-1.5v-2.853c0-0.829,0.672-1.5,1.5-1.5s1.5,0.671,1.5,1.5
					v2.853C37.867,98.413,37.195,99.084,36.367,99.084z"/>
			</g>
		</g>
		<g>
			<g>
				<path style="fill:#33363A;" d="M51.867,122.277h-1.166c-0.828,0-1.5-0.671-1.5-1.5s0.672-1.5,1.5-1.5h1.166
					c0.828,0,1.5,0.671,1.5,1.5S52.695,122.277,51.867,122.277z"/>
			</g>
			<g>
				<path style="fill:#33363A;" d="M58.201,122.277h-1.168c-0.828,0-1.5-0.671-1.5-1.5s0.672-1.5,1.5-1.5h1.168
					c0.828,0,1.5,0.671,1.5,1.5S59.029,122.277,58.201,122.277z"/>
			</g>
			<g>
				<path style="fill:#33363A;" d="M64.533,122.277h-1.166c-0.828,0-1.5-0.671-1.5-1.5s0.672-1.5,1.5-1.5h1.166
					c0.828,0,1.5,0.671,1.5,1.5S65.361,122.277,64.533,122.277z"/>
			</g>
			<g>
				<path style="fill:#33363A;" d="M70.867,122.277h-1.168c-0.828,0-1.5-0.671-1.5-1.5s0.672-1.5,1.5-1.5h1.168
					c0.828,0,1.5,0.671,1.5,1.5S71.695,122.277,70.867,122.277z"/>
			</g>
			<g>
				<path style="fill:#33363A;" d="M77.199,122.277h-1.166c-0.828,0-1.5-0.671-1.5-1.5s0.672-1.5,1.5-1.5h1.166
					c0.828,0,1.5,0.671,1.5,1.5S78.027,122.277,77.199,122.277z"/>
			</g>
		</g>
	</g>
	<g>
		<g>
			<path style="fill:#FFFFFA;" d="M85.791,85.41c0,11.739-9.518,21.258-21.258,21.258S43.277,97.149,43.277,85.41
				c0-11.74,9.516-33.32,21.256-33.32S85.791,73.67,85.791,85.41z"/>
		</g>
		<g>
			<path style="fill:#F9F9E4;" d="M64.533,52.09v54.578c11.74,0,21.258-9.519,21.258-21.258C85.791,73.67,76.273,52.09,64.533,52.09
				z"/>
		</g>
		<g>
			<g>
				<path style="fill:#7BC67B;" d="M51.361,97.47c1.961,2.144,4.121,3.194,2.973,4.244c-1.148,1.051-3.67,0.165-5.631-1.979
					c-1.961-2.145-2.619-4.734-1.471-5.785C48.381,92.898,49.4,95.324,51.361,97.47z"/>
			</g>
			<g>
				<path style="fill:#54AF79;" d="M77.705,97.47c-1.961,2.144-4.121,3.194-2.973,4.244c1.148,1.051,3.67,0.165,5.631-1.979
					c1.961-2.145,2.621-4.734,1.471-5.785C80.686,92.898,79.666,95.324,77.705,97.47z"/>
			</g>
		</g>
		<g>
			<path style="fill:#33363A;" d="M64.533,108.168c-12.548,0-22.756-10.209-22.756-22.758c0-11.919,9.609-34.82,22.756-34.82
				c13.147,0,22.758,22.901,22.758,34.82C87.291,97.959,77.082,108.168,64.533,108.168z M64.533,53.59
				c-10.812,0-19.756,21.068-19.756,31.82c0,10.895,8.862,19.758,19.756,19.758c10.895,0,19.758-8.863,19.758-19.758
				C84.291,74.658,75.346,53.59,64.533,53.59z"/>
		</g>
		<g>
			<path style="fill:#7BC67B;" d="M77.02,90.914c-2.766,5.99-8.416,9.273-12.617,7.334c-4.203-1.939-2.25-5.468,0.516-11.459
				c2.766-5.99,5.297-12.176,9.5-10.234C78.619,78.494,79.783,84.922,77.02,90.914z"/>
		</g>
		<g>
			<path style="fill:#54AF79;" d="M74.418,76.555c-4.203-1.941-6.734,4.244-9.5,10.234c-0.131,0.283-0.258,0.559-0.385,0.829v10.685
				c4.188,1.814,9.748-1.46,12.486-7.389C79.783,84.922,78.619,78.494,74.418,76.555z"/>
		</g>
		<g>
			<circle style="fill:#7BC67B;" cx="52.31" cy="68.439" r="1.351"/>
		</g>
		<g>
			<circle style="fill:#7BC67B;" cx="57.184" cy="61.98" r="0.529"/>
		</g>
		<g>
			<circle style="fill:#7BC67B;" cx="54.424" cy="76.191" r="0.764"/>
		</g>
		<g>
			<circle style="fill:#54AF79;" cx="66.324" cy="101.393" r="0.764"/>
		</g>
		<g>
			<circle style="fill:#7BC67B;" cx="62.732" cy="100.629" r="0.764"/>
		</g>
		<g>
			<circle style="fill:#54AF79;" cx="73.601" cy="64.658" r="1.562"/>
		</g>
		<g>
			<circle style="fill:#54AF79;" cx="78.029" cy="71.316" r="1.527"/>
		</g>
		<g>
			<circle style="fill:#7BC67B;" cx="56.296" cy="91.785" r="1.526"/>
		</g>
		<g>
			<path style="fill:#7BC67B;" d="M66.178,69.387c0,3.578,1.543,6.479-2.035,6.479c-3.578,0-6.48-2.9-6.48-6.479
				s2.902-6.48,6.48-6.48C67.721,62.906,66.178,65.809,66.178,69.387z"/>
		</g>
		<g>
			<path style="fill:#54AF79;" d="M64.533,75.852c3.068-0.213,1.645-3.025,1.645-6.465c0-3.439,1.424-6.253-1.645-6.467V75.852z"/>
		</g>
	</g>
</g>
<g>
</g>
<g>
</g>
<g>
</g>
<g>
</g>
<g>
</g>
<g>
</g>
<g>
</g>
<g>
</g>
<g>
</g>
<g>
</g>
<g>
</g>
<g>
</g>
<g>
</g>
<g>
</g>
<g>
</g>
</svg>
