<?xml version="1.0" encoding="iso-8859-1"?>
<!-- Generator: Adobe Illustrator 19.0.0, SVG Export Plug-In . SVG Version: 6.00 Build 0)  -->
<svg version="1.1" id="Layer_1" xmlns="http://www.w3.org/2000/svg" xmlns:xlink="http://www.w3.org/1999/xlink" x="0px" y="0px"
	 viewBox="0 0 127.971 127.971" style="enable-background:new 0 0 127.971 127.971;" xml:space="preserve">
<g>
	<g>
		<path style="fill:#F9F9E4;" d="M98.636,91.818c0,19.139-15.514,34.652-34.65,34.652s-34.65-15.514-34.65-34.652
			c0-19.137,15.514-54.314,34.65-54.314S98.636,72.682,98.636,91.818z"/>
	</g>
	<g>
		<path style="fill:#E5E4C3;" d="M63.985,37.504v88.967c19.137,0,34.65-15.514,34.65-34.652
			C98.636,72.682,83.122,37.504,63.985,37.504z"/>
	</g>
	<g>
		<g>
			<path style="fill:#E5E4C3;" d="M42.514,111.479c3.197,3.494,6.719,5.203,4.847,6.918c-1.873,1.713-5.984,0.268-9.18-3.227
				c-3.197-3.496-4.271-7.719-2.398-9.432C37.655,104.027,39.316,107.98,42.514,111.479z"/>
		</g>
		<g>
			<path style="fill:#D8D593;" d="M85.456,111.479c-3.197,3.494-6.719,5.203-4.848,6.918c1.874,1.713,5.984,0.268,9.181-3.227
				c3.197-3.496,4.271-7.719,2.398-9.432C90.314,104.027,88.653,107.98,85.456,111.479z"/>
		</g>
	</g>
	<g>
		<path style="fill:#E5E4C3;" d="M84.337,100.789c-4.509,9.766-13.717,15.121-20.566,11.959c-6.85-3.162-3.667-8.914,0.842-18.68
			c4.508-9.766,8.634-19.848,15.484-16.686C86.946,80.545,88.845,91.025,84.337,100.789z"/>
	</g>
	<g>
		<path style="fill:#D8D593;" d="M80.097,77.383c-6.851-3.162-10.976,6.92-15.484,16.686c-0.213,0.461-0.422,0.91-0.627,1.352
			v17.416c6.828,2.957,15.891-2.379,20.352-12.047C88.845,91.025,86.946,80.545,80.097,77.383z"/>
	</g>
	<g>
		<circle style="fill:#E5E4C3;" cx="44.06" cy="64.156" r="2.201"/>
	</g>
	<g>
		<path style="fill:#E5E4C3;" d="M52.865,53.625c0,0.477-0.386,0.863-0.862,0.863c-0.475,0-0.86-0.387-0.86-0.863
			c0-0.471,0.386-0.859,0.86-0.859C52.479,52.766,52.865,53.154,52.865,53.625z"/>
	</g>
	<g>
		<circle style="fill:#E5E4C3;" cx="47.505" cy="76.791" r="1.244"/>
	</g>
	<g>
		<circle style="fill:#D8D593;" cx="66.904" cy="117.873" r="1.245"/>
	</g>
	<g>
		<circle style="fill:#E5E4C3;" cx="61.048" cy="116.629" r="1.244"/>
	</g>
	<g>
		<circle style="fill:#D8D593;" cx="78.765" cy="57.992" r="2.545"/>
	</g>
	<g>
		<circle style="fill:#D8D593;" cx="85.984" cy="68.846" r="2.489"/>
	</g>
	<g>
		<circle style="fill:#E5E4C3;" cx="50.558" cy="102.213" r="2.488"/>
	</g>
	<g>
		<path style="fill:#33363A;" d="M50.685,0H40.233c-0.829,0-1.5,0.672-1.5,1.5v15.238c0,0.828,0.671,1.5,1.5,1.5h10.451
			c0.829,0,1.5-0.672,1.5-1.5V1.5C52.185,0.672,51.513,0,50.685,0z M49.185,15.238h-7.451V3h7.451V15.238z"/>
		<path style="fill:#33363A;" d="M69.524,0c-0.829,0-1.5,0.672-1.5,1.5v6.119h-7.451V1.5c0-0.828-0.671-1.5-1.5-1.5
			s-1.5,0.672-1.5,1.5v15.238c0,0.828,0.671,1.5,1.5,1.5s1.5-0.672,1.5-1.5v-6.119h7.451v6.119c0,0.828,0.671,1.5,1.5,1.5
			s1.5-0.672,1.5-1.5V1.5C71.024,0.672,70.353,0,69.524,0z"/>
		<path style="fill:#33363A;" d="M87.737,0H77.286c-0.829,0-1.5,0.672-1.5,1.5v3.191c0,0.828,0.671,1.5,1.5,1.5s1.5-0.672,1.5-1.5V3
			h7.451v4.619h-3.727c-0.829,0-1.5,0.672-1.5,1.5c0,0.023,0.006,0.045,0.007,0.067c-0.001,0.023-0.007,0.044-0.007,0.067v3.256
			c0,0.828,0.671,1.5,1.5,1.5s1.5-0.672,1.5-1.5v-1.891h3.727c0.829,0,1.5-0.672,1.5-1.5V1.5C89.237,0.672,88.566,0,87.737,0z"/>
		<path style="fill:#33363A;" d="M81.445,15.675c-0.27,0.28-0.43,0.67-0.43,1.061c0,0.399,0.16,0.78,0.44,1.06
			c0.27,0.28,0.66,0.44,1.06,0.44c0.39,0,0.78-0.16,1.06-0.44c0.28-0.279,0.44-0.66,0.44-1.06c0-0.391-0.16-0.78-0.45-1.061
			C83.015,15.115,82.005,15.125,81.445,15.675z"/>
	</g>
	<path style="fill:#33363A;" d="M89.795,56.751c-7.5-13.379-16.666-20.747-25.81-20.747s-18.311,7.368-25.81,20.747
		c-6.281,11.207-10.34,24.972-10.34,35.067c0,19.935,16.217,36.152,36.15,36.152s36.15-16.218,36.15-36.152
		C100.136,81.723,96.077,67.958,89.795,56.751z M63.985,124.971c-18.279,0-33.15-14.872-33.15-33.152
		c0-17.847,15.009-52.814,33.15-52.814c15.137,0,28.085,24.338,31.961,42.769l-3.519-3.521c-0.281-0.281-0.663-0.439-1.061-0.439
		s-0.779,0.158-1.061,0.439l-4.962,4.962l-4.961-4.962c-0.563-0.563-1.56-0.563-2.122,0l-4.96,4.962l-4.961-4.962
		c-0.563-0.563-1.559-0.563-2.122,0l-4.96,4.962l-4.961-4.962c-0.563-0.563-1.558-0.563-2.122,0l-6.021,6.023
		c-0.585,0.586-0.585,1.536,0,2.121c0.293,0.293,0.677,0.439,1.061,0.439s0.768-0.146,1.061-0.439l4.96-4.963l4.962,4.963
		c0.293,0.293,0.676,0.439,1.06,0.439c0,0,0,0,0,0c0.384,0,0.768-0.146,1.061-0.439l4.959-4.962l4.962,4.962
		c0.293,0.293,0.676,0.439,1.06,0.439c0,0,0,0,0,0c0.384,0,0.768-0.146,1.061-0.439l4.959-4.962l4.96,4.962
		c0.293,0.293,0.677,0.439,1.061,0.439s0.768-0.146,1.06-0.439l4.962-4.962l4.959,4.962c0.135,0.135,0.294,0.232,0.459,0.305
		c0.227,1.814,0.351,3.536,0.351,5.117C97.136,110.099,82.265,124.971,63.985,124.971z"/>
</g>
<g>
</g>
<g>
</g>
<g>
</g>
<g>
</g>
<g>
</g>
<g>
</g>
<g>
</g>
<g>
</g>
<g>
</g>
<g>
</g>
<g>
</g>
<g>
</g>
<g>
</g>
<g>
</g>
<g>
</g>
</svg>
