<?xml version="1.0" encoding="iso-8859-1"?>
<!-- Generator: Adobe Illustrator 19.0.0, SVG Export Plug-In . SVG Version: 6.00 Build 0)  -->
<svg version="1.1" id="Layer_1" xmlns="http://www.w3.org/2000/svg" xmlns:xlink="http://www.w3.org/1999/xlink" x="0px" y="0px"
	 viewBox="0 0 126.947 126.947" style="enable-background:new 0 0 126.947 126.947;" xml:space="preserve">
<g>
	<g>
		<path style="fill:#FF1A1A;" d="M88.579,1.5H49.172c-16.322,0-29.557,13.232-29.557,29.553v14.94l-6.369,6.369
			c-5.911,5.91-5.91,15.496,0,21.404l13.378,13.379c0.104,0.105,0.221,0.195,0.328,0.297c3.782,4.32,8.794,7.531,14.49,9.082
			c-0.423,0.705-0.681,1.523-0.681,2.406v21.805c0,2.602,2.111,4.713,4.715,4.713h49.205c2.604,0,4.715-2.111,4.715-4.713V98.93
			c0-1.152-0.431-2.193-1.117-3.014c11.557-4.018,19.855-14.996,19.855-27.918V31.053C118.134,14.732,104.9,1.5,88.579,1.5z"/>
	</g>
	<g>
		<path style="fill:#D60909;" d="M88.579,13.156H49.172c-16.322,0-29.557,13.234-29.557,29.555v3.281V57.65l-6.369,6.367
			c-1.441,1.441-2.525,3.104-3.264,4.875c0.738,1.771,1.822,3.432,3.264,4.873l13.378,13.379c0.104,0.105,0.221,0.195,0.328,0.297
			c3.782,4.32,8.794,7.531,14.49,9.082c-0.423,0.705-0.681,1.523-0.681,2.406v9.037c0.229,0.068,0.45,0.15,0.681,0.213
			c-0.423,0.707-0.681,1.523-0.681,2.408v10.146c0,2.602,2.111,4.713,4.715,4.713h49.205c2.604,0,4.715-2.111,4.715-4.713v-10.146
			c0-1.152-0.431-2.193-1.117-3.014c0.379-0.133,0.744-0.291,1.117-0.438V98.93c0-1.152-0.431-2.193-1.117-3.014
			c11.557-4.018,19.855-14.996,19.855-27.918V42.711C118.134,26.391,104.9,13.156,88.579,13.156z"/>
	</g>
	<g>
		<path style="fill:#33363A;" d="M73.406,97.25h-2.819c-0.829,0-1.5-0.672-1.5-1.5s0.671-1.5,1.5-1.5h2.819
			c0.829,0,1.5,0.672,1.5,1.5S74.235,97.25,73.406,97.25z"/>
	</g>
	<g>
		<path style="fill:#33363A;" d="M63.474,97.25h-2.82c-0.829,0-1.5-0.672-1.5-1.5s0.671-1.5,1.5-1.5h2.82c0.829,0,1.5,0.672,1.5,1.5
			S64.303,97.25,63.474,97.25z"/>
	</g>
	<g>
		<path style="fill:#33363A;" d="M53.541,97.25h-2.819c-0.829,0-1.5-0.672-1.5-1.5s0.671-1.5,1.5-1.5h2.819
			c0.829,0,1.5,0.672,1.5,1.5S54.369,97.25,53.541,97.25z"/>
	</g>
	<g>
		<g>
			<path style="fill:#FFD00B;" d="M90.754,43.147c-0.323-0.996-1.182-1.721-2.218-1.869l-10.7-1.557l-4.786-9.699
				c-0.462-0.936-1.417-1.529-2.463-1.529s-2.002,0.594-2.463,1.529l-4.786,9.699l-10.701,1.557
				c-1.035,0.148-1.894,0.873-2.217,1.869c-0.322,0.994-0.055,2.086,0.695,2.816l7.744,7.545l-1.83,10.658
				c-0.178,1.031,0.246,2.072,1.094,2.689c0.85,0.611,1.969,0.695,2.894,0.205l9.57-5.029l9.57,5.029
				c0.402,0.213,0.841,0.316,1.278,0.316c0.568,0,1.136-0.174,1.615-0.521c0.847-0.617,1.27-1.658,1.092-2.689l-1.828-10.658
				l7.744-7.545C90.807,45.232,91.076,44.141,90.754,43.147z"/>
		</g>
		<g>
			<path style="fill:#FFBE08;" d="M82.314,53.508l6.254-6.096c-0.012,0-0.021-0.004-0.032-0.006l-10.7-1.557l-4.786-9.697
				c-0.462-0.938-1.417-1.529-2.463-1.529s-2.002,0.592-2.463,1.529l-4.786,9.697l-10.701,1.557
				c-0.01,0.002-0.021,0.006-0.031,0.006l6.254,6.096l-0.9,5.25l0.9,0.879l-1.17,6.816c0.13,0.146,0.271,0.283,0.434,0.402
				c0.85,0.611,1.969,0.695,2.894,0.205l9.57-5.029l9.57,5.029c0.402,0.213,0.841,0.316,1.278,0.316
				c0.568,0,1.136-0.174,1.615-0.521c0.162-0.119,0.303-0.256,0.434-0.402l-1.17-6.816l0.9-0.879L82.314,53.508z"/>
		</g>
		<g>
			<path style="fill:#33363A;" d="M59.736,68.883c-0.873,0-1.743-0.272-2.489-0.81c-1.325-0.965-1.973-2.558-1.696-4.162l1.696-9.88
				l-7.179-6.994c-1.166-1.135-1.578-2.804-1.075-4.354c0.503-1.552,1.818-2.66,3.431-2.891l9.918-1.443l4.437-8.992
				c0.708-1.437,2.203-2.365,3.808-2.365c1.628,0,3.087,0.906,3.808,2.365l4.437,8.992l9.92,1.443
				c1.61,0.23,2.925,1.339,3.429,2.891l0,0c0.502,1.549,0.09,3.217-1.075,4.354l-7.18,6.994l1.695,9.881
				c0.276,1.604-0.37,3.195-1.687,4.155c-1.288,0.934-3.076,1.06-4.479,0.319l-8.869-4.661l-8.873,4.663
				C61.091,68.719,60.412,68.883,59.736,68.883z M70.587,29.992c-0.472,0-0.91,0.271-1.117,0.692l-4.787,9.7
				c-0.219,0.442-0.641,0.749-1.129,0.82l-10.701,1.557c-0.474,0.068-0.858,0.393-1.006,0.848c-0.147,0.456-0.027,0.945,0.315,1.279
				l7.745,7.545c0.354,0.345,0.515,0.841,0.432,1.328l-1.83,10.658c-0.082,0.472,0.109,0.94,0.498,1.223
				c0.386,0.278,0.89,0.315,1.308,0.093l9.575-5.032c0.437-0.229,0.959-0.229,1.396,0l9.57,5.029c0.421,0.223,0.94,0.18,1.315-0.092
				c0.385-0.28,0.575-0.748,0.494-1.22l-1.829-10.659c-0.083-0.487,0.078-0.983,0.432-1.328l7.744-7.545
				c0.342-0.334,0.463-0.824,0.315-1.279c-0.148-0.455-0.532-0.779-1.004-0.848L77.62,41.205c-0.489-0.071-0.911-0.378-1.129-0.82
				l-4.786-9.699C71.497,30.265,71.058,29.992,70.587,29.992z"/>
		</g>
	</g>
	<path style="fill:#33363A;" d="M88.579,0H49.172C32.047,0,18.115,13.931,18.115,31.053v12.5v1.818l-5.93,5.93
		c-3.142,3.142-4.873,7.319-4.873,11.764c0,4.444,1.73,8.621,4.873,11.762L25.558,88.2c0.086,0.087,0.177,0.168,0.269,0.248
		l0.056,0.049c3.676,4.175,8.334,7.259,13.556,8.988c-0.117,0.474-0.177,0.959-0.177,1.444v21.805c0,3.426,2.788,6.213,6.215,6.213
		h49.205c3.427,0,6.215-2.787,6.215-6.213V98.93c0-0.778-0.145-1.533-0.427-2.243c11.535-4.781,19.165-16.089,19.165-28.688V31.053
		C119.635,13.931,105.703,0,88.579,0z M94.681,123.947H45.476c-1.772,0-3.215-1.441-3.215-3.213v-4.318h55.635v4.318
		C97.896,122.506,96.454,123.947,94.681,123.947z M116.635,67.998c0,11.715-7.311,22.18-18.248,26.265
		c-0.044-0.004-0.087-0.013-0.133-0.013h-16.25c-0.829,0-1.5,0.672-1.5,1.5s0.671,1.5,1.5,1.5H97.4
		c0.264,0.415,0.497,0.98,0.497,1.68v14.486H42.261V98.93c0-0.568,0.157-1.118,0.467-1.635c0.241-0.402,0.28-0.896,0.105-1.331
		s-0.544-0.765-0.998-0.888c-5.331-1.451-10.088-4.434-13.756-8.623c-0.031-0.035-0.063-0.069-0.098-0.102
		c-0.061-0.059-0.125-0.114-0.188-0.169c-0.036-0.03-0.072-0.061-0.11-0.099L14.306,72.705c-2.575-2.574-3.994-5.998-3.994-9.641
		c0-3.644,1.418-7.067,3.994-9.643l3.809-3.809v8.879c0,0.034,0.008,0.066,0.01,0.099l-0.598,0.598
		c-0.586,0.586-0.586,1.535,0,2.121c0.293,0.293,0.677,0.439,1.061,0.439s0.768-0.146,1.061-0.439l3.75-3.75
		c0.586-0.586,0.586-1.535,0-2.121s-1.535-0.586-2.121,0l-0.162,0.162v-9.609v-2.439v-12.5C21.115,15.584,33.701,3,49.172,3h39.407
		c15.47,0,28.056,12.584,28.056,28.053V67.998z"/>
</g>
<g>
</g>
<g>
</g>
<g>
</g>
<g>
</g>
<g>
</g>
<g>
</g>
<g>
</g>
<g>
</g>
<g>
</g>
<g>
</g>
<g>
</g>
<g>
</g>
<g>
</g>
<g>
</g>
<g>
</g>
</svg>
