<?xml version="1.0" encoding="iso-8859-1"?>
<!-- Generator: Adobe Illustrator 19.0.0, SVG Export Plug-In . SVG Version: 6.00 Build 0)  -->
<svg version="1.1" id="Layer_1" xmlns="http://www.w3.org/2000/svg" xmlns:xlink="http://www.w3.org/1999/xlink" x="0px" y="0px"
	 viewBox="0 0 127.586 127.586" style="enable-background:new 0 0 127.586 127.586;" xml:space="preserve">
<g>
	<g>
		<g>
			<path style="fill:#8D9AA3;" d="M41.314,47.316c0.545,11.882-13.086,0.925-24.303,0.925C5.793,48.241,1.5,47.243,1.5,42.386
				c0-4.859,9.092-8.798,20.311-8.798C37.783,33.588,41.092,42.463,41.314,47.316z"/>
		</g>
		<g>
			<path style="fill:#5E707A;" d="M31.943,51.767c0.76-0.85,1.143-2.26,1.043-4.45c-0.203-4.419-2.969-12.171-15.52-13.522
				C8.338,34.655,1.5,38.173,1.5,42.386c0,4.857,4.293,5.855,15.512,5.855C21.998,48.241,27.459,50.405,31.943,51.767z"/>
		</g>
		<g>
			<path style="fill:#33363A;" d="M37.367,54.344c-2.404,0-5.36-0.96-8.602-2.013c-3.738-1.214-7.975-2.59-11.754-2.59
				C7.051,49.741,0,49.213,0,42.386c0-5.871,9.377-10.298,21.811-10.298c14.973,0,20.666,7.831,21.002,15.16l0,0
				c0.136,2.952-0.528,4.944-2.031,6.089C39.838,54.056,38.686,54.344,37.367,54.344z M21.811,35.088
				C10.726,35.088,3,38.934,3,42.386c0,3.012,2.023,4.355,14.012,4.355c4.254,0,8.73,1.454,12.681,2.737
				c3.862,1.254,7.853,2.552,9.271,1.473c0.812-0.619,0.912-2.281,0.854-3.565l0,0C39.684,44.5,37.994,35.088,21.811,35.088z"/>
		</g>
		<g>
			<path style="fill:#33363A;" d="M41.33,34.801h-1.143c-0.828,0-1.5-0.671-1.5-1.5s0.672-1.5,1.5-1.5h1.143
				c0.828,0,1.5,0.671,1.5,1.5S42.158,34.801,41.33,34.801z"/>
		</g>
		<g>
			<path style="fill:#33363A;" d="M44.389,38.63h-1.145c-0.828,0-1.5-0.671-1.5-1.5s0.672-1.5,1.5-1.5h1.145
				c0.828,0,1.5,0.671,1.5,1.5S45.217,38.63,44.389,38.63z"/>
		</g>
		<g>
			<path style="fill:#33363A;" d="M46.303,42.65H45.16c-0.828,0-1.5-0.671-1.5-1.5s0.672-1.5,1.5-1.5h1.143
				c0.828,0,1.5,0.671,1.5,1.5S47.131,42.65,46.303,42.65z"/>
		</g>
		<g>
			<path style="fill:#33363A;" d="M47.447,47.245h-1.145c-0.828,0-1.5-0.671-1.5-1.5s0.672-1.5,1.5-1.5h1.145
				c0.828,0,1.5,0.671,1.5,1.5S48.275,47.245,47.447,47.245z"/>
		</g>
		<g>
			<path style="fill:#33363A;" d="M47.447,52.108h-1.145c-0.828,0-1.5-0.671-1.5-1.5s0.672-1.5,1.5-1.5h1.145
				c0.828,0,1.5,0.671,1.5,1.5S48.275,52.108,47.447,52.108z"/>
		</g>
	</g>
	<g>
		<g>
			<path style="fill:#8D9AA3;" d="M80.635,80.27c0.545-11.883-13.086-0.926-24.305-0.926c-11.217,0-15.51,0.998-15.51,5.855
				c0,4.859,9.092,8.798,20.309,8.798C77.102,93.998,80.412,85.123,80.635,80.27z"/>
		</g>
		<g>
			<path style="fill:#5E707A;" d="M71.264,75.819c0.758,0.85,1.143,2.26,1.043,4.451c-0.203,4.418-2.971,12.17-15.52,13.522
				C47.658,92.931,40.82,89.413,40.82,85.2c0-4.857,4.293-5.855,15.51-5.855C61.318,79.345,66.779,77.181,71.264,75.819z"/>
		</g>
		<g>
			<path style="fill:#33363A;" d="M80.65,95.785h-1.143c-0.828,0-1.5-0.671-1.5-1.5s0.672-1.5,1.5-1.5h1.143
				c0.828,0,1.5,0.671,1.5,1.5S81.479,95.785,80.65,95.785z"/>
		</g>
		<g>
			<path style="fill:#33363A;" d="M83.709,91.956h-1.145c-0.828,0-1.5-0.671-1.5-1.5s0.672-1.5,1.5-1.5h1.145
				c0.828,0,1.5,0.671,1.5,1.5S84.537,91.956,83.709,91.956z"/>
		</g>
		<g>
			<path style="fill:#33363A;" d="M85.623,87.936H84.48c-0.828,0-1.5-0.671-1.5-1.5s0.672-1.5,1.5-1.5h1.143
				c0.828,0,1.5,0.671,1.5,1.5S86.451,87.936,85.623,87.936z"/>
		</g>
		<g>
			<path style="fill:#33363A;" d="M86.766,83.341h-1.143c-0.828,0-1.5-0.671-1.5-1.5s0.672-1.5,1.5-1.5h1.143
				c0.828,0,1.5,0.671,1.5,1.5S87.594,83.341,86.766,83.341z"/>
		</g>
		<g>
			<path style="fill:#33363A;" d="M86.766,78.478h-1.143c-0.828,0-1.5-0.671-1.5-1.5s0.672-1.5,1.5-1.5h1.143
				c0.828,0,1.5,0.671,1.5,1.5S87.594,78.478,86.766,78.478z"/>
		</g>
		<g>
			<path style="fill:#33363A;" d="M80.102,74.25c-2.664-2.033-6.999-0.625-12.017,1.005c-3.738,1.214-7.975,2.59-11.755,2.59
				c-9.823,0-16.802,0.526-16.992,7.091h-7.207c-0.828,0-1.5,0.671-1.5,1.5s0.672,1.5,1.5,1.5h7.777c0.05,0,0.098-0.01,0.147-0.015
				c2.406,4.462,10.655,7.577,21.074,7.577c19.33,0,20.888-12.627,21.004-15.159C82.269,77.387,81.604,75.395,80.102,74.25z
				 M79.137,80.202c-0.133,2.885-1.822,12.296-18.008,12.296c-11.084,0-18.809-3.846-18.809-7.298c0-3.012,2.022-4.355,14.01-4.355
				c4.255,0,8.731-1.454,12.682-2.737c2.851-0.925,5.772-1.875,7.677-1.875c0.676,0,1.224,0.12,1.595,0.402
				C79.095,77.255,79.195,78.917,79.137,80.202z"/>
			<path style="fill:#33363A;" d="M25.607,84.936c-0.828,0-1.5,0.671-1.5,1.5s0.672,1.5,1.5,1.5h0.09c0.828,0,1.455-0.671,1.455-1.5
				S26.436,84.936,25.607,84.936z"/>
			<path style="fill:#33363A;" d="M20.416,84.936c-0.828,0-1.5,0.671-1.5,1.5s0.672,1.5,1.5,1.5h0.09c0.828,0,1.455-0.671,1.455-1.5
				S21.244,84.936,20.416,84.936z"/>
			<path style="fill:#33363A;" d="M15.225,84.936c-0.828,0-1.5,0.671-1.5,1.5s0.672,1.5,1.5,1.5h0.09c0.828,0,1.455-0.671,1.455-1.5
				S16.053,84.936,15.225,84.936z"/>
		</g>
	</g>
	<g>
		<g>
			<path style="fill:#8D9AA3;" d="M119.955,47.316c0.545,11.882-13.088,0.925-24.305,0.925s-15.512-0.998-15.512-5.855
				c0-4.859,9.094-8.798,20.311-8.798C116.422,33.588,119.732,42.463,119.955,47.316z"/>
		</g>
		<g>
			<path style="fill:#5E707A;" d="M110.582,51.767c0.76-0.85,1.145-2.26,1.043-4.45c-0.203-4.419-2.969-12.171-15.52-13.522
				c-9.127,0.861-15.967,4.379-15.967,8.592c0,4.857,4.295,5.855,15.512,5.855C100.637,48.241,106.1,50.405,110.582,51.767z"/>
		</g>
		<g>
			<path style="fill:#33363A;" d="M119.971,34.801h-1.145c-0.828,0-1.5-0.671-1.5-1.5s0.672-1.5,1.5-1.5h1.145
				c0.828,0,1.5,0.671,1.5,1.5S120.799,34.801,119.971,34.801z"/>
		</g>
		<g>
			<path style="fill:#33363A;" d="M123.027,38.63h-1.143c-0.828,0-1.5-0.671-1.5-1.5s0.672-1.5,1.5-1.5h1.143
				c0.828,0,1.5,0.671,1.5,1.5S123.855,38.63,123.027,38.63z"/>
		</g>
		<g>
			<path style="fill:#33363A;" d="M124.943,42.65h-1.145c-0.828,0-1.5-0.671-1.5-1.5s0.672-1.5,1.5-1.5h1.145
				c0.828,0,1.5,0.671,1.5,1.5S125.771,42.65,124.943,42.65z"/>
		</g>
		<g>
			<path style="fill:#33363A;" d="M126.086,47.245h-1.143c-0.828,0-1.5-0.671-1.5-1.5s0.672-1.5,1.5-1.5h1.143
				c0.828,0,1.5,0.671,1.5,1.5S126.914,47.245,126.086,47.245z"/>
		</g>
		<g>
			<path style="fill:#33363A;" d="M126.086,52.108h-1.143c-0.828,0-1.5-0.671-1.5-1.5s0.672-1.5,1.5-1.5h1.143
				c0.828,0,1.5,0.671,1.5,1.5S126.914,52.108,126.086,52.108z"/>
		</g>
		<g>
			<path style="fill:#33363A;" d="M121.453,47.248c-0.336-7.329-6.03-15.16-21.004-15.16c-11.955,0-21.058,4.097-21.744,9.63
				c-0.002,0-0.004-0.001-0.006-0.001h-7.777c-0.828,0-1.5,0.671-1.5,1.5s0.672,1.5,1.5,1.5h7.777c0.094,0,0.185-0.011,0.274-0.028
				c1.504,4.647,7.98,5.051,16.677,5.051c3.779,0,8.016,1.376,11.754,2.59c3.242,1.053,6.198,2.013,8.604,2.013
				c1.317,0,2.471-0.288,3.414-1.007C120.925,52.191,121.589,50.2,121.453,47.248z M117.604,50.951
				c-1.418,1.078-5.411-0.219-9.272-1.473c-3.949-1.283-8.427-2.737-12.681-2.737c-11.988,0-14.012-1.344-14.012-4.355
				c0-3.452,7.726-7.298,18.811-7.298c16.186,0,17.875,9.413,18.008,12.297C118.516,48.67,118.415,50.332,117.604,50.951z"/>
			<path style="fill:#33363A;" d="M64.398,41.718c-0.828,0-1.5,0.671-1.5,1.5s0.672,1.5,1.5,1.5h0.09c0.828,0,1.455-0.671,1.455-1.5
				S65.227,41.718,64.398,41.718z"/>
			<path style="fill:#33363A;" d="M59.207,41.718c-0.828,0-1.5,0.671-1.5,1.5s0.672,1.5,1.5,1.5h0.09c0.828,0,1.455-0.671,1.455-1.5
				S60.035,41.718,59.207,41.718z"/>
			<path style="fill:#33363A;" d="M54.018,41.718c-0.828,0-1.5,0.671-1.5,1.5s0.672,1.5,1.5,1.5h0.09c0.828,0,1.455-0.671,1.455-1.5
				S54.846,41.718,54.018,41.718z"/>
		</g>
	</g>
</g>
<g>
</g>
<g>
</g>
<g>
</g>
<g>
</g>
<g>
</g>
<g>
</g>
<g>
</g>
<g>
</g>
<g>
</g>
<g>
</g>
<g>
</g>
<g>
</g>
<g>
</g>
<g>
</g>
<g>
</g>
</svg>
