<?xml version="1.0" encoding="iso-8859-1"?>
<!-- Generator: Adobe Illustrator 19.0.0, SVG Export Plug-In . SVG Version: 6.00 Build 0)  -->
<svg version="1.1" id="Layer_1" xmlns="http://www.w3.org/2000/svg" xmlns:xlink="http://www.w3.org/1999/xlink" x="0px" y="0px"
	 viewBox="0 0 126.915 126.915" style="enable-background:new 0 0 126.915 126.915;" xml:space="preserve">
<g>
	<g>
		<path style="fill:#FFD00B;" d="M125.415,74.633c0,6.702-5.434,12.137-12.136,12.137H13.635C6.934,86.77,1.5,81.335,1.5,74.633
			V45.555c0-6.703,5.434-12.136,12.135-12.136h99.644c6.702,0,12.136,5.433,12.136,12.136V74.633z"/>
	</g>
	<g>
		<path style="fill:#FF9C0D;" d="M113.279,33.419H13.635C6.934,33.419,1.5,38.852,1.5,45.555v23.828
			c0,6.702,5.434,12.137,12.135,12.137h99.644c6.702,0,12.136-5.435,12.136-12.137V45.555
			C125.415,38.852,119.981,33.419,113.279,33.419z"/>
	</g>
	<g>
		<path style="fill:#33363A;" d="M113.279,88.27H13.635C6.117,88.27,0,82.152,0,74.633V45.555c0-7.519,6.117-13.636,13.635-13.636
			h99.644c7.519,0,13.636,6.117,13.636,13.636v29.078C126.915,82.152,120.798,88.27,113.279,88.27z M13.635,34.919
			C7.771,34.919,3,39.69,3,45.555v29.078C3,80.498,7.771,85.27,13.635,85.27h99.644c5.865,0,10.636-4.771,10.636-10.637V45.555
			c0-5.865-4.771-10.636-10.636-10.636H13.635z"/>
	</g>
	<g>
		<path style="fill:#33363A;" d="M24.009,54.629c0.829,0,1.5-0.671,1.5-1.5s-0.671-1.5-1.5-1.5h-9.445c-0.829,0-1.5,0.671-1.5,1.5
			V66.9c0,0.829,0.671,1.5,1.5,1.5h9.445c0.829,0,1.5-0.671,1.5-1.5v-6.887c0-0.829-0.671-1.5-1.5-1.5h-4.723
			c-0.829,0-1.5,0.671-1.5,1.5s0.671,1.5,1.5,1.5h3.223V65.4h-6.445V54.629H24.009z"/>
		<path style="fill:#33363A;" d="M39.357,51.629h-9.445c-0.829,0-1.5,0.671-1.5,1.5V66.9c0,0.829,0.671,1.5,1.5,1.5h9.445
			c0.829,0,1.5-0.671,1.5-1.5V53.129C40.857,52.3,40.186,51.629,39.357,51.629z M37.857,65.4h-6.445V54.629h6.445V65.4z"/>
		<path style="fill:#33363A;" d="M54.706,51.629h-9.444c-0.829,0-1.5,0.671-1.5,1.5s0.671,1.5,1.5,1.5h3.222V66.9
			c0,0.829,0.671,1.5,1.5,1.5s1.5-0.671,1.5-1.5V54.629h3.222c0.829,0,1.5-0.671,1.5-1.5S55.535,51.629,54.706,51.629z"/>
		<path style="fill:#33363A;" d="M70.055,54.629c0.829,0,1.5-0.671,1.5-1.5s-0.671-1.5-1.5-1.5H60.61c-0.829,0-1.5,0.671-1.5,1.5
			V66.9c0,0.829,0.671,1.5,1.5,1.5h9.444c0.829,0,1.5-0.671,1.5-1.5s-0.671-1.5-1.5-1.5H62.11V54.629H70.055z"/>
		<path style="fill:#33363A;" d="M85.403,51.629c-0.829,0-1.5,0.671-1.5,1.5v5.385h-6.444v-5.385c0-0.829-0.671-1.5-1.5-1.5
			s-1.5,0.671-1.5,1.5V66.9c0,0.829,0.671,1.5,1.5,1.5s1.5-0.671,1.5-1.5v-5.387h6.444V66.9c0,0.829,0.671,1.5,1.5,1.5
			s1.5-0.671,1.5-1.5V53.129C86.903,52.3,86.232,51.629,85.403,51.629z"/>
		<path style="fill:#33363A;" d="M100.753,51.629h-9.445c-0.829,0-1.5,0.671-1.5,1.5V66.9c0,0.829,0.671,1.5,1.5,1.5
			s1.5-0.671,1.5-1.5v-5.387h6.445V66.9c0,0.829,0.671,1.5,1.5,1.5s1.5-0.671,1.5-1.5V53.129
			C102.253,52.3,101.582,51.629,100.753,51.629z M92.808,58.514v-3.885h6.445v3.885H92.808z"/>
		<path style="fill:#33363A;" d="M106.656,51.629c-0.829,0-1.5,0.671-1.5,1.5v9.396c0,0.829,0.671,1.5,1.5,1.5s1.5-0.671,1.5-1.5
			v-9.396C108.156,52.3,107.485,51.629,106.656,51.629z"/>
		<path style="fill:#33363A;" d="M112.352,51.629c-0.829,0-1.5,0.671-1.5,1.5v9.396c0,0.829,0.671,1.5,1.5,1.5s1.5-0.671,1.5-1.5
			v-9.396C113.852,52.3,113.18,51.629,112.352,51.629z"/>
		<path style="fill:#33363A;" d="M106.656,65.4c-0.829,0-1.5,0.671-1.5,1.5v0.16c0,0.829,0.671,1.5,1.5,1.5s1.5-0.671,1.5-1.5V66.9
			C108.156,66.072,107.485,65.4,106.656,65.4z"/>
		<path style="fill:#33363A;" d="M112.352,65.4c-0.829,0-1.5,0.671-1.5,1.5v0.16c0,0.829,0.671,1.5,1.5,1.5s1.5-0.671,1.5-1.5V66.9
			C113.852,66.072,113.18,65.4,112.352,65.4z"/>
	</g>
	<g>
		<polyline style="fill:#FFD00B;" points="76.716,82.922 63.458,96.18 50.199,82.922 		"/>
	</g>
	<g>
		<path style="fill:#33363A;" d="M63.458,97.68c-0.384,0-0.768-0.146-1.061-0.439L49.139,83.982c-0.586-0.585-0.586-1.535,0-2.121
			s1.535-0.586,2.121,0l12.198,12.197l12.198-12.197c0.586-0.586,1.535-0.586,2.121,0s0.586,1.536,0,2.121L64.518,97.24
			C64.225,97.533,63.841,97.68,63.458,97.68z"/>
	</g>
	<g>
		<g>
			<g>
				<g>
					<path style="fill:#33363A;" d="M63.46,11.785c-0.829,0-1.5-0.671-1.5-1.5V9.293c0-0.829,0.671-1.5,1.5-1.5s1.5,0.671,1.5,1.5
						v0.992C64.96,11.114,64.289,11.785,63.46,11.785z"/>
				</g>
				<g>
					<path style="fill:#33363A;" d="M63.459,26.65L63.459,26.65c-0.829,0-1.5-0.672-1.5-1.5l0.001-5.824c0-0.828,0.672-1.5,1.5-1.5
						h0c0.828,0,1.5,0.672,1.5,1.5l-0.001,5.824C64.959,25.979,64.287,26.65,63.459,26.65z"/>
				</g>
			</g>
			<g>
				<g>
					<g>
						<path style="fill:#33363A;" d="M36.1,17.119c-0.381,0-0.763-0.145-1.055-0.434l-0.708-0.701
							c-0.589-0.583-0.594-1.532-0.011-2.121c0.582-0.589,1.532-0.594,2.121-0.011l0.708,0.701c0.589,0.583,0.594,1.532,0.011,2.121
							C36.873,16.971,36.486,17.119,36.1,17.119z"/>
					</g>
					<g>
						<path style="fill:#33363A;" d="M46.612,27.635c-0.384,0-0.768-0.146-1.061-0.44l-4.123-4.127
							c-0.585-0.586-0.585-1.536,0.001-2.121c0.586-0.585,1.536-0.585,2.121,0.001l4.123,4.127c0.585,0.586,0.585,1.536-0.001,2.121
							C47.379,27.488,46.996,27.635,46.612,27.635z"/>
					</g>
				</g>
				<g>
					<g>
						<path style="fill:#33363A;" d="M90.818,17.123c-0.384,0-0.768-0.146-1.061-0.44c-0.585-0.586-0.585-1.536,0.001-2.121
							l0.706-0.705c0.585-0.585,1.536-0.586,2.121,0.001c0.585,0.586,0.585,1.536-0.001,2.121l-0.706,0.705
							C91.586,16.977,91.202,17.123,90.818,17.123z"/>
					</g>
					<g>
						<path style="fill:#33363A;" d="M80.309,27.636c-0.383,0-0.767-0.146-1.06-0.438c-0.586-0.585-0.587-1.535-0.001-2.122
							l4.12-4.126c0.585-0.585,1.535-0.588,2.122-0.001c0.586,0.585,0.587,1.535,0.001,2.122l-4.12,4.126
							C81.078,27.489,80.693,27.636,80.309,27.636z"/>
					</g>
				</g>
			</g>
		</g>
		<g>
			<g>
				<g>
					<path style="fill:#33363A;" d="M63.455,119.122c-0.829,0-1.5-0.671-1.5-1.5v-0.992c0-0.829,0.671-1.5,1.5-1.5
						s1.5,0.671,1.5,1.5v0.992C64.955,118.451,64.283,119.122,63.455,119.122z"/>
				</g>
				<g>
					<path style="fill:#33363A;" d="M63.455,109.089L63.455,109.089c-0.829,0-1.5-0.672-1.5-1.5l0.001-5.824
						c0-0.828,0.672-1.5,1.5-1.5h0c0.828,0,1.5,0.672,1.5,1.5l-0.001,5.824C64.955,108.417,64.283,109.089,63.455,109.089z"/>
				</g>
			</g>
			<g>
				<g>
					<g>
						<path style="fill:#33363A;" d="M91.524,113.497c-0.381,0-0.763-0.145-1.055-0.434l-0.708-0.701
							c-0.589-0.583-0.594-1.532-0.011-2.121c0.582-0.589,1.532-0.593,2.121-0.011l0.708,0.701c0.589,0.583,0.594,1.532,0.011,2.121
							C92.297,113.349,91.91,113.497,91.524,113.497z"/>
					</g>
					<g>
						<path style="fill:#33363A;" d="M84.426,106.407c-0.384,0-0.768-0.146-1.061-0.44l-4.123-4.127
							c-0.585-0.586-0.585-1.536,0.001-2.121s1.535-0.585,2.121,0.001l4.123,4.127c0.585,0.586,0.585,1.536-0.001,2.121
							C85.193,106.261,84.81,106.407,84.426,106.407z"/>
					</g>
				</g>
				<g>
					<g>
						<path style="fill:#33363A;" d="M35.391,113.497c-0.384,0-0.768-0.146-1.061-0.44c-0.585-0.586-0.585-1.536,0.001-2.121
							l0.706-0.705c0.585-0.585,1.536-0.585,2.121,0.001c0.585,0.586,0.585,1.536-0.001,2.121l-0.706,0.705
							C36.159,113.351,35.775,113.497,35.391,113.497z"/>
					</g>
					<g>
						<path style="fill:#33363A;" d="M42.486,106.405c-0.383,0-0.767-0.146-1.06-0.438c-0.586-0.585-0.587-1.535-0.001-2.122
							l4.12-4.126c0.584-0.586,1.534-0.587,2.122-0.001c0.586,0.585,0.587,1.535,0.001,2.122l-4.12,4.126
							C43.255,106.258,42.871,106.405,42.486,106.405z"/>
					</g>
				</g>
			</g>
		</g>
	</g>
</g>
<g>
</g>
<g>
</g>
<g>
</g>
<g>
</g>
<g>
</g>
<g>
</g>
<g>
</g>
<g>
</g>
<g>
</g>
<g>
</g>
<g>
</g>
<g>
</g>
<g>
</g>
<g>
</g>
<g>
</g>
</svg>
