<?xml version="1.0" encoding="iso-8859-1"?>
<!-- Generator: Adobe Illustrator 19.0.0, SVG Export Plug-In . SVG Version: 6.00 Build 0)  -->
<svg version="1.1" id="Layer_1" xmlns="http://www.w3.org/2000/svg" xmlns:xlink="http://www.w3.org/1999/xlink" x="0px" y="0px"
	 viewBox="0 0 127.455 127.455" style="enable-background:new 0 0 127.455 127.455;" xml:space="preserve">
<g>
	<g>
		<path style="fill:#D60909;" d="M94.2,8.35c-13.829,0-25.968,7.763-30.237,19.287c-0.061,0.169-0.138,0.321-0.236,0.465
			c-0.094-0.144-0.176-0.296-0.237-0.465C59.227,16.112,47.084,8.35,33.246,8.35C15.751,8.35,1.5,20.897,1.5,36.307
			c0,5.605,1.857,11.021,5.409,15.633c0.033,0.031,0.056,0.082,0.056,0.082c0.113,0.129,0.209,0.211,0.295,0.291l56.467,66.793
			l56.463-66.793c0.092-0.08,0.188-0.162,0.304-0.291c0,0,0.017-0.051,0.052-0.082c3.556-4.611,5.41-10.027,5.41-15.633
			C125.955,20.897,111.704,8.35,94.2,8.35z"/>
	</g>
	<g>
		<path style="fill:#FF1A1A;" d="M63.489,27.637C59.227,16.112,47.084,8.35,33.246,8.35C15.751,8.35,1.5,20.897,1.5,36.307
			c0,5.605,1.857,11.021,5.409,15.633c0.033,0.031,0.056,0.082,0.056,0.082c0.113,0.129,0.209,0.211,0.295,0.291l56.467,66.793
			V28.102C63.633,27.958,63.551,27.806,63.489,27.637z"/>
	</g>
	<g>
		<circle style="fill:#36C6FF;" cx="63.727" cy="64.783" r="21.931"/>
	</g>
	<g>
		<ellipse style="fill:#0086FF;" cx="63.727" cy="64.783" rx="21.931" ry="16.799"/>
	</g>
	<g>
		<path style="fill:#FFFFFF;" d="M41.796,64.783c0,12.113,9.819,21.932,21.931,21.932c12.112,0,21.931-9.818,21.931-21.932H41.796z"
			/>
	</g>
	<g>
		<path style="fill:#D8E5EA;" d="M63.727,81.582c12.112,0,21.931-7.521,21.931-16.799H41.796
			C41.796,74.061,51.615,81.582,63.727,81.582z"/>
	</g>
	<g>
		<path style="fill:#33363A;" d="M94.2,6.85c-13.329,0-25.192,6.943-30.473,17.561C58.459,13.797,46.59,6.85,33.246,6.85
			C14.914,6.85,0,20.064,0,36.307c0,5.956,1.971,11.667,5.7,16.521c0.041,0.065,0.087,0.126,0.138,0.185
			c0.116,0.131,0.218,0.23,0.336,0.34l56.407,66.722c0.285,0.337,0.704,0.532,1.146,0.532s0.86-0.194,1.146-0.532l56.391-66.708
			c0.104-0.093,0.215-0.197,0.344-0.34c0.063-0.07,0.119-0.146,0.167-0.225c3.716-4.843,5.68-10.545,5.68-16.494
			C127.455,20.064,112.537,6.85,94.2,6.85z M119.357,51.023l0.002,0.001c-0.014,0.018-0.027,0.037-0.041,0.055
			c-0.038,0.036-0.074,0.066-0.114,0.102c-0.058,0.05-0.111,0.104-0.16,0.162l-53.78,63.62v-7.873c0-0.829-0.671-1.5-1.5-1.5
			s-1.5,0.671-1.5,1.5v7.961L8.405,51.344c-0.041-0.049-0.134-0.14-0.181-0.183c-0.027-0.024-0.056-0.05-0.087-0.082
			c-0.014-0.018-0.027-0.037-0.041-0.054l0.001-0.001C4.763,46.694,3,41.605,3,36.307C3,21.718,16.568,9.85,33.246,9.85
			c13.198,0,24.786,7.357,28.833,18.3c0.051,0.141,0.113,0.278,0.184,0.415v8.543c0,0.829,0.671,1.5,1.5,1.5s1.5-0.671,1.5-1.5
			v-8.743c0.031-0.071,0.08-0.134,0.106-0.207C69.426,17.207,81.013,9.85,94.2,9.85c16.683,0,30.255,11.869,30.255,26.457
			C124.455,41.609,122.692,46.698,119.357,51.023z"/>
		<path style="fill:#33363A;" d="M65.248,41.408c-0.079-0.754-0.709-1.344-1.484-1.344c-0.773,0-1.402,0.587-1.484,1.338
			c-12.248,0.75-21.984,10.948-21.984,23.381c0,12.429,9.727,22.623,21.968,23.381v8.02c0,0.829,0.671,1.5,1.5,1.5
			s1.5-0.671,1.5-1.5v-8.026c12.205-0.795,21.894-10.972,21.894-23.376C87.157,52.376,77.461,42.195,65.248,41.408z M63.727,85.215
			c-10.759,0-19.582-8.366-20.355-18.932h40.709C83.308,76.849,74.486,85.215,63.727,85.215z M43.372,63.283
			c0.762-10.406,9.336-18.66,19.875-18.906c0.162,0.06,0.334,0.097,0.516,0.097c0.179,0,0.348-0.037,0.506-0.094
			c10.509,0.279,19.051,8.519,19.811,18.903H43.372z"/>
		<path style="fill:#33363A;" d="M63.764,99.448c-0.829,0-1.5,0.671-1.5,1.5v1.409c0,0.829,0.671,1.5,1.5,1.5s1.5-0.671,1.5-1.5
			v-1.409C65.264,100.12,64.592,99.448,63.764,99.448z"/>
	</g>
	<g>
		<g>
			<circle style="fill:#A7BBC1;" cx="63.727" cy="67.296" r="7.251"/>
		</g>
		<g>
			<circle style="fill:#FFFFFF;" cx="63.727" cy="64.831" r="7.251"/>
		</g>
		<g>
			<path style="fill:#D8E5EA;" d="M58.6,69.959c-2.832-2.832-2.832-7.424,0-10.256c2.832-2.832,7.423-2.832,10.254,0"/>
		</g>
		<g>
			<path style="fill:#33363A;" d="M63.727,73.577c-2.241,0-4.481-0.852-6.188-2.557c-3.413-3.413-3.413-8.965,0-12.377
				c1.653-1.653,3.851-2.563,6.188-2.563s4.534,0.91,6.187,2.563l0,0v0h0c1.653,1.653,2.563,3.851,2.563,6.188
				s-0.911,4.536-2.564,6.189C68.208,72.725,65.968,73.577,63.727,73.577z M63.727,59.079c-1.536,0-2.98,0.598-4.067,1.685
				c-2.243,2.243-2.243,5.892,0,8.135c2.243,2.241,5.891,2.241,8.133,0c1.087-1.086,1.685-2.531,1.685-4.067
				s-0.598-2.981-1.685-4.067c0,0,0,0,0,0C66.707,59.677,65.263,59.079,63.727,59.079z"/>
		</g>
	</g>
</g>
<g>
</g>
<g>
</g>
<g>
</g>
<g>
</g>
<g>
</g>
<g>
</g>
<g>
</g>
<g>
</g>
<g>
</g>
<g>
</g>
<g>
</g>
<g>
</g>
<g>
</g>
<g>
</g>
<g>
</g>
</svg>
