<?xml version="1.0" encoding="iso-8859-1"?>
<!-- Generator: Adobe Illustrator 19.0.0, SVG Export Plug-In . SVG Version: 6.00 Build 0)  -->
<svg version="1.1" id="Layer_1" xmlns="http://www.w3.org/2000/svg" xmlns:xlink="http://www.w3.org/1999/xlink" x="0px" y="0px"
	 viewBox="0 0 127.734 127.734" style="enable-background:new 0 0 127.734 127.734;" xml:space="preserve">
<g>
	<g>
		<g>
			<g>
				<path style="fill:#C0C0C4;" d="M63.867,106.482c0,10.745-13.961,19.455-31.184,19.455c-17.223,0-31.184-8.71-31.184-19.455
					c0-10.747,13.961-28.708,31.184-28.708C49.906,77.774,63.867,95.735,63.867,106.482z"/>
			</g>
			<g>
				<path style="fill:#2AF42F;" d="M63.867,106.924c0,6.548-13.961,11.855-31.184,11.855c-17.223,0-31.184-5.308-31.184-11.855
					c0-6.546,13.961-17.492,31.184-17.492C49.906,89.432,63.867,100.378,63.867,106.924z"/>
			</g>
			<g>
				<path style="fill:#FFFFFF;" d="M63.867,101.858c0,6.547-13.961,11.854-31.184,11.854c-17.223,0-31.184-5.308-31.184-11.854
					c0-6.548,13.961-17.492,31.184-17.492C49.906,84.366,63.867,95.31,63.867,101.858z"/>
			</g>
			<g>
				<path style="fill:#E8E8ED;" d="M50.797,109.176c0,6.548-8.109,4.536-18.113,4.536s-18.113,2.012-18.113-4.536
					c0-6.546,8.109-24.811,18.113-24.811S50.797,102.63,50.797,109.176z"/>
			</g>
			<g>
				<path style="fill:#2AF42F;" d="M55.025,88.411c-5.664-5.985-13.578-10.637-22.342-10.637s-16.678,4.651-22.342,10.637
					c5.664,3.631,13.578,5.891,22.342,5.891S49.361,92.041,55.025,88.411z"/>
			</g>
			<g>
				<path style="fill:#1AD88F;" d="M12.709,89.776c5.41,2.823,12.371,4.525,19.975,4.525s14.564-1.702,19.975-4.525
					c-5.41-4.837-12.371-8.342-19.975-8.342S18.119,84.939,12.709,89.776z"/>
			</g>
			<g>
				<path style="fill:#33363A;" d="M32.684,127.437c-18.022,0-32.684-9.4-32.684-20.955c0-11.653,14.958-30.208,32.684-30.208
					s32.684,18.555,32.684,30.208C65.367,118.037,50.706,127.437,32.684,127.437z M32.684,79.274C16.584,79.274,3,95.986,3,106.482
					c0,9.9,13.316,17.955,29.684,17.955s29.684-8.055,29.684-17.955C62.367,95.986,48.783,79.274,32.684,79.274z"/>
			</g>
			<g>
				<path style="fill:#33363A;" d="M32.684,127.437c-18.022,0-32.684-9.4-32.684-20.955c0-11.653,14.958-30.208,32.684-30.208
					s32.684,18.555,32.684,30.208C65.367,118.037,50.706,127.437,32.684,127.437z M32.684,79.274C16.584,79.274,3,95.986,3,106.482
					c0,9.9,13.316,17.955,29.684,17.955s29.684-8.055,29.684-17.955C62.367,95.986,48.783,79.274,32.684,79.274z"/>
			</g>
			<g>
				<path style="fill:#33363A;" d="M32.684,95.801c-8.765,0-16.987-2.176-23.151-6.128c-0.376-0.241-0.625-0.637-0.679-1.081
					c-0.054-0.443,0.092-0.888,0.399-1.213c3.925-4.147,12.188-11.105,23.431-11.105s19.506,6.958,23.431,11.105
					c0.307,0.325,0.454,0.77,0.399,1.213c-0.054,0.444-0.303,0.84-0.679,1.081C49.67,93.625,41.449,95.801,32.684,95.801z
					 M12.759,88.106c5.482,3.038,12.476,4.695,19.924,4.695s14.442-1.657,19.924-4.695c-3.956-3.787-10.918-8.833-19.924-8.833
					S16.715,84.319,12.759,88.106z"/>
			</g>
			<g>
				<g>
					<path style="fill:#33363A;" d="M24.637,101.981c-5.224,0-9.475-4.478-9.475-9.982c0-0.829,0.671-1.5,1.5-1.5s1.5,0.671,1.5,1.5
						c0,3.85,2.904,6.982,6.475,6.982c0.829,0,1.5,0.671,1.5,1.5S25.465,101.981,24.637,101.981z"/>
				</g>
				<g>
					<path style="fill:#33363A;" d="M40.73,101.981c-0.829,0-1.5-0.671-1.5-1.5s0.671-1.5,1.5-1.5c3.57,0,6.475-3.132,6.475-6.982
						c0-0.829,0.671-1.5,1.5-1.5s1.5,0.671,1.5,1.5C50.205,97.503,45.955,101.981,40.73,101.981z"/>
				</g>
			</g>
			<g>
				<circle style="fill:#FFAA00;" cx="32.684" cy="101.176" r="2.93"/>
			</g>
			<g>
				<path style="fill:#33363A;" d="M32.684,109.738c-5.003,0-9.074-4.071-9.074-9.075c0-0.829,0.671-1.5,1.5-1.5s1.5,0.671,1.5,1.5
					c0,3.35,2.725,6.075,6.074,6.075s6.074-2.725,6.074-6.075c0-0.829,0.671-1.5,1.5-1.5s1.5,0.671,1.5,1.5
					C41.758,105.667,37.687,109.738,32.684,109.738z"/>
			</g>
			<g>
				<path style="fill:#33363A;" d="M35.613,102.676c-0.829,0-1.5-0.671-1.5-1.5c0-0.789-0.642-1.431-1.43-1.431
					s-1.43,0.642-1.43,1.431c0,0.829-0.671,1.5-1.5,1.5s-1.5-0.671-1.5-1.5c0-2.443,1.987-4.431,4.43-4.431s4.43,1.988,4.43,4.431
					C37.113,102.005,36.442,102.676,35.613,102.676z"/>
			</g>
			<g>
				<path style="fill:#2AF42F;" d="M28.275,82.061c1.195,2.82,2.731,4.523,4.408,4.523s3.213-1.703,4.408-4.523
					c-1.195-4.835-2.73-8.34-4.408-8.34S29.471,77.226,28.275,82.061z"/>
			</g>
			<g>
				<path style="fill:#1AD88F;" d="M32.684,77.29c-1.4,0-2.699,2.445-3.785,6.062c1.086,2.035,2.383,4.515,3.785,4.515
					c1.4,0,2.699-2.479,3.785-4.515C35.383,79.736,34.082,77.29,32.684,77.29z"/>
			</g>
			<g>
				<path style="fill:#33363A;" d="M37.091,83.562c-0.674,0-1.286-0.457-1.455-1.141c-1.277-5.166-2.497-6.87-2.952-7.171
					c-0.455,0.301-1.675,2.005-2.952,7.171c-0.198,0.805-1.012,1.295-1.816,1.096c-0.804-0.199-1.295-1.012-1.096-1.816
					c1.599-6.468,3.462-9.48,5.864-9.48s4.266,3.012,5.864,9.48c0.199,0.804-0.292,1.617-1.096,1.816
					C37.331,83.547,37.21,83.562,37.091,83.562z"/>
			</g>
			<g>
				<g>
					<path style="fill:#33363A;" d="M32.684,115.212C14.051,115.212,0,109.471,0,101.858c0-0.829,0.671-1.5,1.5-1.5
						s1.5,0.671,1.5,1.5c0,4.897,12.19,10.354,29.684,10.354c0.829,0,1.5,0.671,1.5,1.5S33.512,115.212,32.684,115.212z"/>
				</g>
				<g>
					<path style="fill:#33363A;" d="M32.684,115.212c-0.829,0-1.5-0.671-1.5-1.5s0.671-1.5,1.5-1.5
						c17.493,0,29.684-5.457,29.684-10.354c0-0.829,0.671-1.5,1.5-1.5s1.5,0.671,1.5,1.5
						C65.367,109.471,51.316,115.212,32.684,115.212z"/>
				</g>
			</g>
		</g>
		<g>
			<g>
				<path style="fill:#C0C0C4;" d="M126.234,106.482c0,10.745-13.961,19.455-31.184,19.455s-31.184-8.71-31.184-19.455
					c0-10.747,13.961-28.708,31.184-28.708S126.234,95.735,126.234,106.482z"/>
			</g>
			<g>
				<path style="fill:#2AF42F;" d="M126.234,106.924c0,6.548-13.961,11.855-31.184,11.855s-31.184-5.308-31.184-11.855
					c0-6.546,13.961-17.492,31.184-17.492S126.234,100.378,126.234,106.924z"/>
			</g>
			<g>
				<path style="fill:#FFFFFF;" d="M126.234,101.858c0,6.547-13.961,11.854-31.184,11.854s-31.184-5.308-31.184-11.854
					c0-6.548,13.961-17.492,31.184-17.492S126.234,95.31,126.234,101.858z"/>
			</g>
			<g>
				<path style="fill:#E8E8ED;" d="M113.164,109.176c0,6.548-8.109,4.536-18.113,4.536s-18.113,2.012-18.113-4.536
					c0-6.546,8.109-24.811,18.113-24.811S113.164,102.63,113.164,109.176z"/>
			</g>
			<g>
				<path style="fill:#2AF42F;" d="M117.393,88.411c-5.664-5.985-13.578-10.637-22.342-10.637s-16.678,4.651-22.342,10.637
					c5.664,3.631,13.578,5.891,22.342,5.891S111.728,92.041,117.393,88.411z"/>
			</g>
			<g>
				<path style="fill:#1AD88F;" d="M75.076,89.776c5.41,2.823,12.371,4.525,19.975,4.525s14.564-1.702,19.975-4.525
					c-5.41-4.837-12.371-8.342-19.975-8.342S80.486,84.939,75.076,89.776z"/>
			</g>
			<g>
				<path style="fill:#33363A;" d="M95.051,127.437c-18.022,0-32.684-9.4-32.684-20.955c0-11.653,14.958-30.208,32.684-30.208
					s32.684,18.555,32.684,30.208C127.734,118.037,113.073,127.437,95.051,127.437z M95.051,79.274
					c-16.099,0-29.684,16.712-29.684,27.208c0,9.9,13.316,17.955,29.684,17.955s29.684-8.055,29.684-17.955
					C124.734,95.986,111.15,79.274,95.051,79.274z"/>
			</g>
			<g>
				<path style="fill:#33363A;" d="M95.051,127.437c-18.022,0-32.684-9.4-32.684-20.955c0-11.653,14.958-30.208,32.684-30.208
					s32.684,18.555,32.684,30.208C127.734,118.037,113.073,127.437,95.051,127.437z M95.051,79.274
					c-16.099,0-29.684,16.712-29.684,27.208c0,9.9,13.316,17.955,29.684,17.955s29.684-8.055,29.684-17.955
					C124.734,95.986,111.15,79.274,95.051,79.274z"/>
			</g>
			<g>
				<path style="fill:#33363A;" d="M95.051,95.801c-8.765,0-16.987-2.176-23.151-6.128c-0.376-0.241-0.625-0.637-0.679-1.081
					c-0.054-0.443,0.092-0.888,0.399-1.213c3.925-4.147,12.188-11.105,23.431-11.105s19.506,6.958,23.431,11.105
					c0.307,0.325,0.454,0.77,0.399,1.213c-0.054,0.444-0.303,0.84-0.679,1.081C112.038,93.625,103.816,95.801,95.051,95.801z
					 M75.126,88.106c5.482,3.038,12.476,4.695,19.924,4.695s14.442-1.657,19.924-4.695c-3.956-3.787-10.918-8.833-19.924-8.833
					S79.083,84.319,75.126,88.106z"/>
			</g>
			<g>
				<g>
					<path style="fill:#33363A;" d="M87.004,101.981c-5.224,0-9.475-4.478-9.475-9.982c0-0.829,0.671-1.5,1.5-1.5s1.5,0.671,1.5,1.5
						c0,3.85,2.904,6.982,6.475,6.982c0.829,0,1.5,0.671,1.5,1.5S87.833,101.981,87.004,101.981z"/>
				</g>
				<g>
					<path style="fill:#33363A;" d="M103.098,101.981c-0.829,0-1.5-0.671-1.5-1.5s0.671-1.5,1.5-1.5c3.57,0,6.475-3.132,6.475-6.982
						c0-0.829,0.671-1.5,1.5-1.5s1.5,0.671,1.5,1.5C112.572,97.503,108.322,101.981,103.098,101.981z"/>
				</g>
			</g>
			<g>
				<circle style="fill:#FFAA00;" cx="95.051" cy="101.176" r="2.93"/>
			</g>
			<g>
				<path style="fill:#33363A;" d="M95.051,109.738c-5.003,0-9.074-4.071-9.074-9.075c0-0.829,0.671-1.5,1.5-1.5s1.5,0.671,1.5,1.5
					c0,3.35,2.725,6.075,6.074,6.075s6.074-2.725,6.074-6.075c0-0.829,0.671-1.5,1.5-1.5s1.5,0.671,1.5,1.5
					C104.125,105.667,100.054,109.738,95.051,109.738z"/>
			</g>
			<g>
				<path style="fill:#33363A;" d="M97.98,102.676c-0.829,0-1.5-0.671-1.5-1.5c0-0.789-0.642-1.431-1.43-1.431
					s-1.43,0.642-1.43,1.431c0,0.829-0.671,1.5-1.5,1.5s-1.5-0.671-1.5-1.5c0-2.443,1.987-4.431,4.43-4.431s4.43,1.988,4.43,4.431
					C99.48,102.005,98.809,102.676,97.98,102.676z"/>
			</g>
			<g>
				<path style="fill:#2AF42F;" d="M90.643,82.061c1.195,2.82,2.73,4.523,4.408,4.523c1.678,0,3.213-1.703,4.408-4.523
					c-1.195-4.835-2.73-8.34-4.408-8.34C93.373,73.721,91.838,77.226,90.643,82.061z"/>
			</g>
			<g>
				<path style="fill:#1AD88F;" d="M95.051,77.29c-1.398,0-2.699,2.445-3.785,6.062c1.086,2.035,2.385,4.515,3.785,4.515
					c1.4,0,2.699-2.479,3.785-4.515C97.75,79.736,96.449,77.29,95.051,77.29z"/>
			</g>
			<g>
				<path style="fill:#33363A;" d="M99.458,83.562c-0.674,0-1.286-0.457-1.455-1.141c-1.277-5.166-2.497-6.87-2.952-7.171
					c-0.455,0.301-1.675,2.005-2.952,7.171c-0.199,0.805-1.011,1.295-1.816,1.096c-0.804-0.199-1.295-1.012-1.096-1.816
					c1.599-6.468,3.462-9.48,5.864-9.48s4.266,3.012,5.864,9.48c0.199,0.804-0.292,1.617-1.096,1.816
					C99.698,83.547,99.577,83.562,99.458,83.562z"/>
			</g>
			<g>
				<g>
					<path style="fill:#33363A;" d="M95.051,115.212c-18.633,0-32.684-5.741-32.684-13.354c0-0.829,0.671-1.5,1.5-1.5
						s1.5,0.671,1.5,1.5c0,4.897,12.19,10.354,29.684,10.354c0.829,0,1.5,0.671,1.5,1.5S95.879,115.212,95.051,115.212z"/>
				</g>
				<g>
					<path style="fill:#33363A;" d="M95.051,115.212c-0.829,0-1.5-0.671-1.5-1.5s0.671-1.5,1.5-1.5
						c17.493,0,29.684-5.457,29.684-10.354c0-0.829,0.671-1.5,1.5-1.5s1.5,0.671,1.5,1.5
						C127.734,109.471,113.684,115.212,95.051,115.212z"/>
				</g>
			</g>
		</g>
		<g>
			<g>
				<path style="fill:#C0C0C4;" d="M95.051,65.762c0,10.744-13.961,19.454-31.184,19.454c-17.223,0-31.184-8.71-31.184-19.454
					c0-10.748,13.961-28.709,31.184-28.709C81.09,37.053,95.051,55.014,95.051,65.762z"/>
			</g>
			<g>
				<path style="fill:#2AF42F;" d="M95.051,66.204c0,6.548-13.961,11.855-31.184,11.855c-17.223,0-31.184-5.308-31.184-11.855
					c0-6.546,13.961-17.492,31.184-17.492C81.09,48.711,95.051,59.658,95.051,66.204z"/>
			</g>
			<g>
				<path style="fill:#FFFFFF;" d="M95.051,61.137c0,6.547-13.961,11.854-31.184,11.854c-17.223,0-31.184-5.308-31.184-11.854
					c0-6.548,13.961-17.492,31.184-17.492C81.09,43.645,95.051,54.589,95.051,61.137z"/>
			</g>
			<g>
				<path style="fill:#E8E8ED;" d="M81.98,68.456c0,6.548-8.109,4.536-18.113,4.536c-10.004,0-18.113,2.012-18.113-4.536
					c0-6.546,8.109-24.811,18.113-24.811C73.871,43.645,81.98,61.91,81.98,68.456z"/>
			</g>
			<g>
				<path style="fill:#2AF42F;" d="M86.209,47.69c-5.664-5.985-13.578-10.637-22.342-10.637c-8.764,0-16.678,4.651-22.342,10.637
					c5.664,3.631,13.578,5.891,22.342,5.891C72.631,53.581,80.545,51.321,86.209,47.69z"/>
			</g>
			<g>
				<path style="fill:#1AD88F;" d="M43.893,49.055c5.41,2.823,12.371,4.525,19.975,4.525c7.603,0,14.564-1.702,19.975-4.525
					c-5.41-4.837-12.371-8.342-19.975-8.342C56.264,40.713,49.303,44.218,43.893,49.055z"/>
			</g>
			<g>
				<path style="fill:#33363A;" d="M63.867,86.716c-18.022,0-32.684-9.4-32.684-20.954c0-11.654,14.958-30.209,32.684-30.209
					s32.684,18.555,32.684,30.209C96.551,77.316,81.889,86.716,63.867,86.716z M63.867,38.553
					c-16.099,0-29.684,16.712-29.684,27.209c0,9.9,13.316,17.954,29.684,17.954s29.684-8.054,29.684-17.954
					C93.551,55.266,79.966,38.553,63.867,38.553z"/>
			</g>
			<g>
				<path style="fill:#33363A;" d="M63.867,86.716c-18.022,0-32.684-9.4-32.684-20.954c0-11.654,14.958-30.209,32.684-30.209
					s32.684,18.555,32.684,30.209C96.551,77.316,81.889,86.716,63.867,86.716z M63.867,38.553
					c-16.099,0-29.684,16.712-29.684,27.209c0,9.9,13.316,17.954,29.684,17.954s29.684-8.054,29.684-17.954
					C93.551,55.266,79.966,38.553,63.867,38.553z"/>
			</g>
			<g>
				<path style="fill:#33363A;" d="M63.867,55.081c-8.765,0-16.987-2.176-23.151-6.128c-0.376-0.241-0.625-0.637-0.679-1.081
					c-0.054-0.443,0.092-0.888,0.399-1.213c3.925-4.147,12.188-11.105,23.431-11.105s19.506,6.958,23.431,11.105
					c0.307,0.325,0.454,0.77,0.399,1.213c-0.054,0.444-0.303,0.84-0.679,1.081C80.854,52.904,72.632,55.081,63.867,55.081z
					 M43.943,47.386c5.482,3.038,12.476,4.695,19.924,4.695s14.442-1.657,19.924-4.695c-3.956-3.787-10.918-8.833-19.924-8.833
					S47.899,43.599,43.943,47.386z"/>
			</g>
			<g>
				<g>
					<path style="fill:#33363A;" d="M55.82,61.26c-5.224,0-9.475-4.478-9.475-9.982c0-0.829,0.671-1.5,1.5-1.5s1.5,0.671,1.5,1.5
						c0,3.85,2.904,6.982,6.475,6.982c0.829,0,1.5,0.671,1.5,1.5S56.649,61.26,55.82,61.26z"/>
				</g>
				<g>
					<path style="fill:#33363A;" d="M71.914,61.26c-0.829,0-1.5-0.671-1.5-1.5s0.671-1.5,1.5-1.5c3.57,0,6.475-3.132,6.475-6.982
						c0-0.829,0.671-1.5,1.5-1.5s1.5,0.671,1.5,1.5C81.389,56.782,77.138,61.26,71.914,61.26z"/>
				</g>
			</g>
			<g>
				<circle style="fill:#FFAA00;" cx="63.867" cy="60.456" r="2.93"/>
			</g>
			<g>
				<path style="fill:#33363A;" d="M63.867,69.017c-5.003,0-9.074-4.071-9.074-9.075c0-0.829,0.671-1.5,1.5-1.5s1.5,0.671,1.5,1.5
					c0,3.35,2.725,6.075,6.074,6.075s6.074-2.725,6.074-6.075c0-0.829,0.671-1.5,1.5-1.5s1.5,0.671,1.5,1.5
					C72.941,64.946,68.871,69.017,63.867,69.017z"/>
			</g>
			<g>
				<path style="fill:#33363A;" d="M66.797,61.956c-0.829,0-1.5-0.671-1.5-1.5c0-0.789-0.642-1.431-1.43-1.431
					s-1.43,0.642-1.43,1.431c0,0.829-0.671,1.5-1.5,1.5s-1.5-0.671-1.5-1.5c0-2.443,1.987-4.431,4.43-4.431s4.43,1.988,4.43,4.431
					C68.297,61.284,67.625,61.956,66.797,61.956z"/>
			</g>
			<g>
				<path style="fill:#2AF42F;" d="M59.459,41.34c1.195,2.82,2.73,4.524,4.408,4.524c1.678,0,3.213-1.703,4.408-4.524
					C67.08,36.505,65.545,33,63.867,33C62.189,33,60.654,36.505,59.459,41.34z"/>
			</g>
			<g>
				<path style="fill:#1AD88F;" d="M63.867,36.57c-1.398,0-2.699,2.445-3.785,6.062c1.086,2.034,2.385,4.515,3.785,4.515
					c1.4,0,2.699-2.48,3.785-4.515C66.566,39.015,65.266,36.57,63.867,36.57z"/>
			</g>
			<g>
				<path style="fill:#33363A;" d="M68.274,42.841c-0.674,0-1.286-0.457-1.455-1.141c-1.277-5.166-2.497-6.87-2.952-7.171
					c-0.455,0.301-1.675,2.005-2.952,7.171c-0.199,0.804-1.013,1.295-1.816,1.096c-0.804-0.199-1.295-1.012-1.096-1.816
					c1.599-6.468,3.462-9.48,5.864-9.48s4.266,3.012,5.864,9.48c0.199,0.804-0.292,1.617-1.096,1.816
					C68.515,42.826,68.394,42.841,68.274,42.841z"/>
			</g>
			<g>
				<g>
					<path style="fill:#33363A;" d="M63.867,74.492c-18.633,0-32.684-5.741-32.684-13.354c0-0.829,0.671-1.5,1.5-1.5
						s1.5,0.671,1.5,1.5c0,4.897,12.19,10.354,29.684,10.354c0.829,0,1.5,0.671,1.5,1.5S64.696,74.492,63.867,74.492z"/>
				</g>
				<g>
					<path style="fill:#33363A;" d="M63.867,74.492c-0.829,0-1.5-0.671-1.5-1.5s0.671-1.5,1.5-1.5
						c17.493,0,29.684-5.457,29.684-10.354c0-0.829,0.671-1.5,1.5-1.5s1.5,0.671,1.5,1.5C96.551,68.75,82.5,74.492,63.867,74.492z"
						/>
				</g>
			</g>
			<g>
				<g>
					<path style="fill:none;stroke:#33363A;stroke-width:3;stroke-linecap:round;stroke-linejoin:round;stroke-miterlimit:10;" d="
						M32.684,66.487"/>
				</g>
				<g>
					<path style="fill:none;stroke:#33363A;stroke-width:3;stroke-linecap:round;stroke-linejoin:round;stroke-miterlimit:10;" d="
						M95.051,66.487"/>
				</g>
			</g>
		</g>
	</g>
	<g>
		<g>
			<g>
				<path style="fill:#33363A;" d="M54.063,20.76c-5.98,0-10.846-4.864-10.846-10.844c0-0.829,0.671-1.5,1.5-1.5s1.5,0.671,1.5,1.5
					c0,4.325,3.52,7.844,7.846,7.844c0.829,0,1.5,0.671,1.5,1.5S54.891,20.76,54.063,20.76z"/>
			</g>
			<g>
				<path style="fill:#33363A;" d="M63.709,30.104c-0.828,0-1.5-0.671-1.5-1.5c0-1.318-0.333-2.621-0.962-3.767
					c-0.398-0.727-0.133-1.638,0.593-2.037c0.727-0.399,1.639-0.132,2.037,0.593c0.871,1.587,1.332,3.388,1.332,5.209
					C65.209,29.432,64.538,30.104,63.709,30.104L63.709,30.104z M59.127,22.064c-0.26,0-0.524-0.067-0.764-0.21
					c-1.205-0.716-2.588-1.094-3.998-1.094c-0.829,0-1.5-0.671-1.5-1.5s0.671-1.5,1.5-1.5c1.949,0,3.861,0.523,5.529,1.514
					c0.712,0.423,0.947,1.343,0.524,2.056C60.139,21.802,59.64,22.064,59.127,22.064z"/>
			</g>
		</g>
		<g>
			<g>
				<path style="fill:#33363A;" d="M54.063,12.642c-5.98,0-10.846-4.865-10.846-10.845c0-0.829,0.671-1.5,1.5-1.5s1.5,0.671,1.5,1.5
					c0,4.326,3.52,7.845,7.846,7.845c0.829,0,1.5,0.671,1.5,1.5S54.891,12.642,54.063,12.642z"/>
			</g>
			<g>
				<path style="fill:#33363A;" d="M63.709,21.986c-0.828,0-1.5-0.671-1.5-1.5c0-1.318-0.333-2.621-0.962-3.767
					c-0.398-0.727-0.133-1.638,0.593-2.037c0.727-0.398,1.639-0.132,2.037,0.593c0.871,1.587,1.332,3.388,1.332,5.209
					C65.209,21.314,64.538,21.985,63.709,21.986L63.709,21.986z M59.127,13.946c-0.26,0-0.524-0.067-0.764-0.21
					c-1.205-0.716-2.588-1.094-3.998-1.094c-0.829,0-1.5-0.671-1.5-1.5s0.671-1.5,1.5-1.5c1.949,0,3.861,0.523,5.529,1.514
					c0.712,0.423,0.947,1.343,0.524,2.056C60.139,13.684,59.64,13.946,59.127,13.946z"/>
			</g>
		</g>
	</g>
</g>
<g>
</g>
<g>
</g>
<g>
</g>
<g>
</g>
<g>
</g>
<g>
</g>
<g>
</g>
<g>
</g>
<g>
</g>
<g>
</g>
<g>
</g>
<g>
</g>
<g>
</g>
<g>
</g>
<g>
</g>
</svg>
