<?xml version="1.0" encoding="iso-8859-1"?>
<!-- Generator: Adobe Illustrator 19.0.0, SVG Export Plug-In . SVG Version: 6.00 Build 0)  -->
<svg version="1.1" id="Layer_1" xmlns="http://www.w3.org/2000/svg" xmlns:xlink="http://www.w3.org/1999/xlink" x="0px" y="0px"
	 viewBox="0 0 127.57 127.57" style="enable-background:new 0 0 127.57 127.57;" xml:space="preserve">
<g>
	<g>
		<g>
			<path style="fill:#C0C0C4;" d="M94.969,51.74c0,10.744-13.961,19.455-31.184,19.455c-17.223,0-31.184-8.711-31.184-19.455
				c0-10.748,13.961-28.709,31.184-28.709C81.008,23.031,94.969,40.992,94.969,51.74z"/>
		</g>
		<g>
			<path style="fill:#2AF42F;" d="M94.969,52.182c0,6.549-13.961,11.855-31.184,11.855c-17.223,0-31.184-5.307-31.184-11.855
				c0-6.545,13.961-17.492,31.184-17.492C81.008,34.689,94.969,45.637,94.969,52.182z"/>
		</g>
		<g>
			<path style="fill:#FFFFFF;" d="M94.969,47.115c0,6.547-13.961,11.855-31.184,11.855c-17.223,0-31.184-5.309-31.184-11.855
				s13.961-17.492,31.184-17.492C81.008,29.623,94.969,40.568,94.969,47.115z"/>
		</g>
		<g>
			<path style="fill:#E8E8ED;" d="M81.897,54.436c0,6.547-8.108,4.535-18.112,4.535c-10.004,0-18.113,2.012-18.113-4.535
				s8.109-24.812,18.113-24.812C73.789,29.623,81.897,47.889,81.897,54.436z"/>
		</g>
		<g>
			<path style="fill:#2AF42F;" d="M86.127,33.668c-5.664-5.984-13.578-10.637-22.342-10.637c-8.764,0-16.678,4.652-22.342,10.637
				c5.664,3.631,13.578,5.893,22.342,5.893C72.549,39.561,80.463,37.299,86.127,33.668z"/>
		</g>
		<g>
			<path style="fill:#1AD88F;" d="M43.811,35.033c5.41,2.824,12.371,4.527,19.975,4.527c7.603,0,14.564-1.703,19.975-4.527
				c-5.41-4.836-12.371-8.342-19.975-8.342C56.182,26.691,49.221,30.197,43.811,35.033z"/>
		</g>
		<g>
			<path style="fill:#33363A;" d="M63.785,72.695c-18.022,0-32.684-9.4-32.684-20.955c0-11.654,14.958-30.209,32.684-30.209
				S96.469,40.086,96.469,51.74C96.469,63.295,81.807,72.695,63.785,72.695z M63.785,24.531c-16.099,0-29.684,16.712-29.684,27.209
				c0,9.9,13.316,17.955,29.684,17.955s29.684-8.055,29.684-17.955C93.469,41.244,79.884,24.531,63.785,24.531z"/>
		</g>
		<g>
			<path style="fill:#33363A;" d="M63.785,72.695c-18.022,0-32.684-9.4-32.684-20.955c0-11.654,14.958-30.209,32.684-30.209
				S96.469,40.086,96.469,51.74C96.469,63.295,81.807,72.695,63.785,72.695z M63.785,24.531c-16.099,0-29.684,16.712-29.684,27.209
				c0,9.9,13.316,17.955,29.684,17.955s29.684-8.055,29.684-17.955C93.469,41.244,79.884,24.531,63.785,24.531z"/>
		</g>
		<g>
			<path style="fill:#33363A;" d="M63.785,41.061c-8.763,0-16.985-2.177-23.151-6.13c-0.376-0.241-0.625-0.637-0.679-1.081
				c-0.054-0.443,0.092-0.888,0.399-1.213c3.926-4.147,12.189-11.105,23.431-11.105s19.505,6.958,23.431,11.105
				c0.307,0.325,0.454,0.77,0.399,1.213c-0.054,0.444-0.303,0.84-0.679,1.081C80.77,38.884,72.548,41.061,63.785,41.061z
				 M43.861,33.364c5.483,3.039,12.478,4.697,19.924,4.697s14.441-1.658,19.924-4.697c-3.957-3.787-10.92-8.833-19.924-8.833
				S47.818,29.577,43.861,33.364z"/>
		</g>
		<g>
			<g>
				<path style="fill:#33363A;" d="M55.738,47.238c-5.225,0-9.476-4.478-9.476-9.982c0-0.829,0.671-1.5,1.5-1.5s1.5,0.671,1.5,1.5
					c0,3.85,2.905,6.982,6.476,6.982c0.829,0,1.5,0.671,1.5,1.5S56.567,47.238,55.738,47.238z"/>
			</g>
			<g>
				<path style="fill:#33363A;" d="M71.832,47.238c-0.829,0-1.5-0.671-1.5-1.5s0.671-1.5,1.5-1.5c3.571,0,6.476-3.132,6.476-6.982
					c0-0.829,0.671-1.5,1.5-1.5s1.5,0.671,1.5,1.5C81.308,42.76,77.057,47.238,71.832,47.238z"/>
			</g>
		</g>
		<g>
			<path style="fill:#FFAA00;" d="M66.715,46.436c0,1.617-1.312,2.928-2.93,2.928c-1.618,0-2.93-1.31-2.93-2.928
				c0-1.621,1.312-2.932,2.93-2.932C65.403,43.504,66.715,44.814,66.715,46.436z"/>
		</g>
		<g>
			<path style="fill:#33363A;" d="M63.785,54.996c-5.003,0-9.074-4.072-9.074-9.076c0-0.829,0.671-1.5,1.5-1.5s1.5,0.671,1.5,1.5
				c0,3.351,2.725,6.076,6.074,6.076c3.349,0,6.073-2.726,6.073-6.076c0-0.829,0.671-1.5,1.5-1.5s1.5,0.671,1.5,1.5
				C72.858,50.924,68.788,54.996,63.785,54.996z"/>
		</g>
		<g>
			<path style="fill:#33363A;" d="M66.715,47.936c-0.829,0-1.5-0.671-1.5-1.5c0-0.79-0.642-1.432-1.43-1.432s-1.43,0.642-1.43,1.432
				c0,0.829-0.671,1.5-1.5,1.5s-1.5-0.671-1.5-1.5c0-2.444,1.987-4.432,4.43-4.432s4.43,1.988,4.43,4.432
				C68.215,47.264,67.543,47.936,66.715,47.936z"/>
		</g>
		<g>
			<path style="fill:#2AF42F;" d="M59.378,27.318c1.193,2.82,2.729,4.523,4.407,4.523c1.677,0,3.214-1.703,4.407-4.523
				c-1.193-4.834-2.73-8.34-4.407-8.34C62.107,18.979,60.571,22.484,59.378,27.318z"/>
		</g>
		<g>
			<path style="fill:#1AD88F;" d="M63.785,22.549c-1.399,0-2.7,2.445-3.786,6.06c1.087,2.035,2.385,4.516,3.786,4.516
				c1.401,0,2.699-2.48,3.785-4.516C66.485,24.994,65.185,22.549,63.785,22.549z"/>
		</g>
		<g>
			<path style="fill:#33363A;" d="M68.191,28.819c-0.674,0-1.287-0.458-1.455-1.141c-1.275-5.164-2.496-6.868-2.951-7.17
				c-0.456,0.301-1.676,2.005-2.951,7.17c-0.198,0.804-1.008,1.3-1.815,1.097c-0.804-0.198-1.295-1.011-1.097-1.815
				c1.597-6.468,3.459-9.48,5.863-9.48s4.267,3.012,5.863,9.48c0.199,0.804-0.292,1.617-1.097,1.815
				C68.431,28.804,68.31,28.819,68.191,28.819z"/>
		</g>
		<g>
			<g>
				<path style="fill:#33363A;" d="M63.785,60.471c-18.633,0-32.684-5.742-32.684-13.355c0-0.829,0.671-1.5,1.5-1.5
					s1.5,0.671,1.5,1.5c0,4.898,12.19,10.355,29.684,10.355c0.829,0,1.5,0.671,1.5,1.5S64.614,60.471,63.785,60.471z"/>
			</g>
			<g>
				<path style="fill:#33363A;" d="M63.785,60.471c-0.829,0-1.5-0.671-1.5-1.5s0.671-1.5,1.5-1.5
					c17.493,0,29.684-5.458,29.684-10.355c0-0.829,0.671-1.5,1.5-1.5s1.5,0.671,1.5,1.5C96.469,54.729,82.418,60.471,63.785,60.471z
					"/>
			</g>
		</g>
		<g>
			<g>
				<path style="fill:none;stroke:#33363A;stroke-width:3;stroke-linecap:round;stroke-linejoin:round;stroke-miterlimit:10;" d="
					M32.602,52.465"/>
			</g>
			<g>
				<path style="fill:none;stroke:#33363A;stroke-width:3;stroke-linecap:round;stroke-linejoin:round;stroke-miterlimit:10;" d="
					M94.969,52.465"/>
			</g>
		</g>
	</g>
	<g>
		<g>
			<g>
				<path style="fill:#33363A;" d="M58.521,16.281c-3.639,0-6.6-2.959-6.6-6.598c0-0.829,0.671-1.5,1.5-1.5s1.5,0.671,1.5,1.5
					c0,1.984,1.615,3.598,3.6,3.598c0.829,0,1.5,0.671,1.5,1.5S59.349,16.281,58.521,16.281z"/>
			</g>
			<g>
				<path style="fill:#33363A;" d="M62.923,18.541c-0.483,0-0.957-0.232-1.247-0.664c-0.671-0.999-1.79-1.596-2.991-1.596
					c-0.829,0-1.5-0.671-1.5-1.5s0.671-1.5,1.5-1.5c2.203,0,4.252,1.093,5.481,2.923c0.462,0.688,0.279,1.62-0.409,2.082
					C63.501,18.458,63.211,18.541,62.923,18.541z"/>
			</g>
		</g>
		<g>
			<g>
				<path style="fill:#33363A;" d="M58.521,8.102c-3.639,0-6.6-2.961-6.6-6.602c0-0.829,0.671-1.5,1.5-1.5s1.5,0.671,1.5,1.5
					c0,1.986,1.615,3.602,3.6,3.602c0.829,0,1.5,0.671,1.5,1.5S59.349,8.102,58.521,8.102z"/>
			</g>
			<g>
				<path style="fill:#33363A;" d="M62.923,10.36c-0.483,0-0.957-0.232-1.247-0.664c-0.671-0.999-1.789-1.595-2.991-1.595
					c-0.829,0-1.5-0.671-1.5-1.5s0.671-1.5,1.5-1.5c2.203,0,4.252,1.092,5.481,2.922c0.462,0.688,0.279,1.62-0.409,2.082
					C63.501,10.278,63.211,10.36,62.923,10.36z"/>
			</g>
		</g>
	</g>
	<g>
		<g>
			<g>
				<circle style="fill:#2AF42F;" cx="63.785" cy="104.848" r="21.221"/>
			</g>
			<g>
				<path style="fill:#1AD88F;" d="M42.564,104.848c0-11.719,9.501-21.219,21.221-21.219c11.72,0,21.221,9.5,21.221,21.219"/>
			</g>
			<g>
				<path style="fill:#33363A;" d="M63.786,127.57c-12.529-0.002-22.721-10.195-22.721-22.723s10.192-22.719,22.721-22.719
					s22.721,10.191,22.721,22.719S76.313,127.568,63.786,127.57z M63.785,85.129c-10.874,0-19.721,8.846-19.721,19.719
					s8.847,19.721,19.721,19.723c10.874-0.002,19.72-8.85,19.72-19.723S74.659,85.129,63.785,85.129z"/>
			</g>
			<g>
				<g>
					<polyline style="fill:#1AD88F;" points="58.048,85.498 63.785,73.643 69.522,85.498 					"/>
				</g>
				<g>
					<path style="fill:#33363A;" d="M69.523,86.998c-0.557,0-1.092-0.312-1.351-0.847l-4.387-9.065l-4.387,9.065
						c-0.36,0.746-1.257,1.058-2.003,0.697c-0.746-0.361-1.058-1.258-0.697-2.004l5.737-11.855c0.25-0.518,0.775-0.847,1.35-0.847
						s1.1,0.329,1.35,0.847l5.737,11.855c0.361,0.746,0.049,1.643-0.697,2.004C69.965,86.95,69.743,86.998,69.523,86.998z"/>
				</g>
			</g>
		</g>
		<g>
			<g>
				<g>
					<path style="fill:#33363A;" d="M74.247,112.082h-7.864c-0.829,0-1.5-0.672-1.5-1.5V99.115c0-0.828,0.671-1.5,1.5-1.5h7.864
						c0.829,0,1.5,0.672,1.5,1.5v11.467C75.747,111.41,75.076,112.082,74.247,112.082z M67.883,109.082h4.864v-8.467h-4.864V109.082
						z"/>
				</g>
			</g>
			<g>
				<g>
					<g>
						<path style="fill:#33363A;" d="M61.188,112.082h-7.864c-0.829,0-1.5-0.672-1.5-1.5s0.671-1.5,1.5-1.5h6.364v-8.467h-6.364
							c-0.829,0-1.5-0.672-1.5-1.5s0.671-1.5,1.5-1.5h7.864c0.829,0,1.5,0.672,1.5,1.5v11.467
							C62.688,111.41,62.016,112.082,61.188,112.082z"/>
					</g>
				</g>
				<g>
					<path style="fill:#33363A;" d="M61.188,106.35h-7.864c-0.829,0-1.5-0.672-1.5-1.5s0.671-1.5,1.5-1.5h7.864
						c0.829,0,1.5,0.672,1.5,1.5S62.016,106.35,61.188,106.35z"/>
				</g>
			</g>
		</g>
	</g>
</g>
<g>
</g>
<g>
</g>
<g>
</g>
<g>
</g>
<g>
</g>
<g>
</g>
<g>
</g>
<g>
</g>
<g>
</g>
<g>
</g>
<g>
</g>
<g>
</g>
<g>
</g>
<g>
</g>
<g>
</g>
</svg>
