<?xml version="1.0" encoding="iso-8859-1"?>
<!-- Generator: Adobe Illustrator 19.0.0, SVG Export Plug-In . SVG Version: 6.00 Build 0)  -->
<svg version="1.1" id="Layer_1" xmlns="http://www.w3.org/2000/svg" xmlns:xlink="http://www.w3.org/1999/xlink" x="0px" y="0px"
	 viewBox="0 0 127.324 127.324" style="enable-background:new 0 0 127.324 127.324;" xml:space="preserve">
<g>
	<g>
		<g>
			<g>
				<g>
					<g>
						<path style="fill:#87C3F4;" d="M82.849,65.539c-3.857,6.605-11.004,11.066-19.191,11.066c-8.188,0-15.334-4.461-19.191-11.066
							H11.7c5.141,23.963,26.48,41.986,51.957,41.986c25.477,0,46.816-18.023,51.957-41.986H82.849z"/>
					</g>
					<g>
						<path style="fill:#5F9AD6;" d="M63.657,76.605c-8.188,0-15.334-4.461-19.191-11.066H16.339
							c8.809,17.191,26.707,28.992,47.318,28.992c20.611,0,38.51-11.801,47.318-28.992H82.849
							C78.991,72.145,71.845,76.605,63.657,76.605z"/>
					</g>
					<g>
						<path style="fill:#33363A;" d="M63.657,109.025c-25.589,0-48.057-18.156-53.424-43.172c-0.095-0.442,0.016-0.905,0.3-1.258
							c0.285-0.352,0.713-0.557,1.167-0.557h32.766c0.533,0,1.026,0.283,1.295,0.743c3.718,6.368,10.576,10.323,17.896,10.323
							s14.178-3.955,17.896-10.323c0.269-0.46,0.762-0.743,1.295-0.743h32.766c0.453,0,0.882,0.205,1.167,0.557
							c0.285,0.353,0.395,0.815,0.3,1.258C111.714,90.869,89.247,109.025,63.657,109.025z M13.591,67.039
							c5.744,22.7,26.505,38.986,50.066,38.986s44.323-16.286,50.066-38.986H83.691c-4.343,6.848-11.94,11.066-20.034,11.066
							s-15.691-4.219-20.034-11.066H13.591z"/>
					</g>
				</g>
				<g>
					<g>
						<path style="fill:#87C3F4;" d="M44.466,43.486C48.323,36.883,55.47,32.42,63.657,32.42c8.187,0,15.334,4.463,19.191,11.066
							h32.766C110.474,19.525,89.134,1.5,63.657,1.5C38.181,1.5,16.841,19.525,11.7,43.486H44.466z"/>
					</g>
					<g>
						<path style="fill:#5F9AD6;" d="M63.657,32.42c8.187,0,15.334,4.463,19.191,11.066h28.127
							c-8.809-17.193-26.707-28.992-47.318-28.992c-20.611,0-38.51,11.799-47.318,28.992h28.127
							C48.323,36.883,55.47,32.42,63.657,32.42z"/>
					</g>
					<g>
						<path style="fill:#33363A;" d="M115.614,44.986H82.849c-0.533,0-1.026-0.283-1.295-0.743
							C77.834,37.875,70.977,33.92,63.657,33.92S49.48,37.875,45.761,44.243c-0.269,0.46-0.762,0.743-1.295,0.743H11.7
							c-0.453,0-0.882-0.205-1.167-0.558c-0.285-0.352-0.395-0.814-0.3-1.257C15.601,18.156,38.068,0,63.657,0
							s48.057,18.156,53.424,43.172c0.095,0.442-0.016,0.905-0.3,1.257C116.496,44.781,116.067,44.986,115.614,44.986z
							 M83.691,41.986h30.033C107.979,19.286,87.218,3,63.657,3S19.335,19.286,13.591,41.986h30.033
							c4.344-6.848,11.941-11.066,20.034-11.066S79.347,35.139,83.691,41.986z"/>
					</g>
				</g>
			</g>
			<g>
				<g>
					<path style="fill:#87C3F4;" d="M75.241,54.512c0,6.402-5.186,11.586-11.584,11.586c-6.398,0-11.586-5.184-11.586-11.586
						c0-6.396,5.188-11.586,11.586-11.586C70.056,42.926,75.241,48.115,75.241,54.512z"/>
				</g>
				<g>
					<path style="fill:#5F9AD6;" d="M52.071,54.512c0-6.396,5.188-11.586,11.586-11.586c6.398,0,11.584,5.19,11.584,11.586"/>
				</g>
				<g>
					<path style="fill:#33363A;" d="M63.657,67.598c-7.216,0-13.086-5.87-13.086-13.086s5.87-13.086,13.086-13.086
						c7.214,0,13.084,5.87,13.084,13.086S70.872,67.598,63.657,67.598z M63.657,44.426c-5.562,0-10.086,4.524-10.086,10.086
						s4.524,10.086,10.086,10.086c5.561,0,10.084-4.524,10.084-10.086S69.218,44.426,63.657,44.426z"/>
				</g>
			</g>
		</g>
		<g>
			<g>
				<g>
					<path style="fill:#33363A;" d="M41.562,56.012H25.192c-0.829,0-1.5-0.672-1.5-1.5s0.671-1.5,1.5-1.5h16.369
						c0.829,0,1.5,0.672,1.5,1.5S42.39,56.012,41.562,56.012z"/>
				</g>
				<g>
					<path style="fill:#33363A;" d="M15.767,56.01c-0.4,0-0.78-0.16-1.06-0.439c-0.28-0.28-0.44-0.67-0.44-1.061
						c0-0.39,0.16-0.78,0.44-1.06c0.56-0.561,1.56-0.561,2.12,0c0.28,0.279,0.44,0.67,0.44,1.06c0,0.391-0.16,0.78-0.44,1.061
						C16.547,55.85,16.157,56.01,15.767,56.01z"/>
				</g>
				<g>
					<path style="fill:#33363A;" d="M7.177,56.01c-0.4,0-0.79-0.16-1.07-0.439c-0.27-0.28-0.43-0.67-0.43-1.061
						c0-0.39,0.16-0.78,0.43-1.06c0.56-0.561,1.56-0.561,2.13,0c0.28,0.279,0.44,0.67,0.44,1.06c0,0.391-0.16,0.78-0.44,1.061
						C7.957,55.85,7.567,56.01,7.177,56.01z"/>
				</g>
			</g>
			<g>
				<g>
					<path style="fill:#33363A;" d="M102.122,56.012H85.755c-0.829,0-1.5-0.672-1.5-1.5s0.671-1.5,1.5-1.5h16.367
						c0.829,0,1.5,0.672,1.5,1.5S102.951,56.012,102.122,56.012z"/>
				</g>
				<g>
					<path style="fill:#33363A;" d="M111.547,56.01c-0.39,0-0.78-0.16-1.06-0.439c-0.28-0.28-0.44-0.67-0.44-1.061
						c0-0.39,0.16-0.78,0.44-1.06c0.55-0.561,1.56-0.561,2.12,0c0.28,0.279,0.44,0.67,0.44,1.06c0,0.391-0.16,0.78-0.43,1.061
						C112.327,55.85,111.947,56.01,111.547,56.01z"/>
				</g>
				<g>
					<path style="fill:#33363A;" d="M120.137,56.01c-0.39,0-0.78-0.16-1.06-0.439c-0.28-0.28-0.44-0.66-0.44-1.061
						c0-0.39,0.16-0.78,0.44-1.06c0.56-0.561,1.57-0.561,2.12,0c0.29,0.279,0.45,0.67,0.45,1.06c0,0.391-0.16,0.78-0.44,1.061
						C120.927,55.85,120.537,56.01,120.137,56.01z"/>
				</g>
			</g>
		</g>
	</g>
	<g>
		<g>
			<g>
				<path style="fill:#FFD00B;" d="M59.876,101.588c-0.323-0.996-1.182-1.721-2.218-1.869l-10.7-1.557l-4.786-9.699
					c-0.462-0.935-1.417-1.529-2.463-1.529c-1.046,0-2.002,0.594-2.463,1.529l-4.786,9.699l-10.701,1.557
					c-1.035,0.148-1.894,0.873-2.217,1.869c-0.322,0.994-0.055,2.086,0.695,2.816l7.744,7.545l-1.83,10.658
					c-0.178,1.031,0.246,2.072,1.094,2.689c0.85,0.611,1.969,0.695,2.893,0.205l9.57-5.029l9.57,5.029
					c0.402,0.213,0.841,0.316,1.278,0.316c0.568,0,1.136-0.174,1.615-0.521c0.847-0.617,1.27-1.658,1.092-2.689l-1.828-10.658
					l7.744-7.545C59.93,103.674,60.198,102.582,59.876,101.588z"/>
			</g>
			<g>
				<path style="fill:#FFBE08;" d="M51.437,111.949l6.254-6.096c-0.012,0-0.021-0.004-0.032-0.006l-10.7-1.557l-4.786-9.697
					c-0.462-0.938-1.417-1.529-2.463-1.529c-1.046,0-2.002,0.592-2.463,1.529l-4.786,9.697l-10.701,1.557
					c-0.01,0.002-0.021,0.006-0.031,0.006l6.254,6.096l-0.9,5.25l0.9,0.879l-1.17,6.816c0.13,0.146,0.272,0.283,0.434,0.402
					c0.85,0.611,1.969,0.695,2.893,0.205l9.57-5.029l9.57,5.029c0.402,0.213,0.841,0.316,1.278,0.316
					c0.568,0,1.136-0.174,1.615-0.521c0.162-0.119,0.303-0.256,0.434-0.402l-1.17-6.816l0.9-0.879L51.437,111.949z"/>
			</g>
			<g>
				<path style="fill:#33363A;" d="M28.858,127.324c-0.873,0-1.743-0.272-2.489-0.81c-1.325-0.965-1.973-2.558-1.696-4.162
					l1.696-9.88l-7.179-6.994c-1.166-1.135-1.578-2.804-1.075-4.354c0.503-1.552,1.818-2.66,3.431-2.891l9.918-1.443l4.437-8.992
					c0.708-1.437,2.203-2.365,3.808-2.365c1.628,0,3.087,0.906,3.808,2.365l4.437,8.992l9.92,1.443
					c1.61,0.23,2.925,1.339,3.429,2.891l0,0c0.502,1.549,0.09,3.217-1.075,4.354l-7.18,6.994l1.695,9.881
					c0.276,1.604-0.37,3.195-1.687,4.155c-1.289,0.934-3.076,1.06-4.479,0.319l-8.869-4.661l-8.873,4.663
					C30.213,127.16,29.535,127.324,28.858,127.324z M39.709,88.434c-0.472,0-0.91,0.271-1.117,0.692l-4.787,9.7
					c-0.219,0.442-0.641,0.749-1.129,0.82l-10.701,1.557c-0.474,0.068-0.858,0.393-1.006,0.848
					c-0.147,0.456-0.027,0.945,0.315,1.279l7.745,7.545c0.354,0.345,0.515,0.841,0.432,1.328l-1.83,10.658
					c-0.082,0.472,0.109,0.94,0.498,1.223c0.386,0.279,0.889,0.314,1.308,0.093l9.575-5.032c0.437-0.229,0.959-0.229,1.396,0
					l9.57,5.029c0.421,0.224,0.941,0.18,1.315-0.092c0.385-0.28,0.575-0.748,0.494-1.22l-1.829-10.659
					c-0.083-0.487,0.078-0.983,0.432-1.328l7.744-7.545c0.342-0.334,0.463-0.824,0.315-1.279c-0.148-0.455-0.532-0.779-1.004-0.848
					l-10.703-1.557c-0.489-0.071-0.911-0.378-1.129-0.82l-4.786-9.699C40.619,88.706,40.18,88.434,39.709,88.434z"/>
			</g>
		</g>
		<g>
			<g>
				<path style="fill:#FFD00B;" d="M107.77,101.588c-0.323-0.996-1.182-1.721-2.218-1.869l-10.701-1.557l-4.785-9.699
					c-0.461-0.935-1.417-1.529-2.463-1.529s-2.002,0.594-2.463,1.529l-4.785,9.699l-10.701,1.557
					c-1.036,0.148-1.895,0.873-2.219,1.869c-0.32,0.994-0.053,2.086,0.696,2.816l7.744,7.545l-1.829,10.658
					c-0.178,1.031,0.246,2.072,1.093,2.689c0.85,0.611,1.969,0.695,2.894,0.205l9.57-5.029l9.57,5.029
					c0.402,0.213,0.84,0.316,1.278,0.316c0.569,0,1.136-0.174,1.615-0.521c0.847-0.617,1.271-1.658,1.093-2.689l-1.83-10.658
					l7.744-7.545C107.823,103.674,108.091,102.582,107.77,101.588z"/>
			</g>
			<g>
				<path style="fill:#FFBE08;" d="M99.329,111.949l6.255-6.096c-0.011,0-0.021-0.004-0.032-0.006l-10.701-1.557l-4.785-9.697
					c-0.461-0.938-1.417-1.529-2.463-1.529s-2.002,0.592-2.463,1.529l-4.785,9.697l-10.701,1.557
					c-0.012,0.002-0.021,0.006-0.032,0.006l6.254,6.096l-0.901,5.25l0.901,0.879l-1.171,6.816c0.131,0.146,0.271,0.283,0.435,0.402
					c0.85,0.611,1.969,0.695,2.894,0.205l9.57-5.029l9.57,5.029c0.402,0.213,0.84,0.316,1.278,0.316
					c0.569,0,1.136-0.174,1.615-0.521c0.162-0.119,0.304-0.256,0.434-0.402l-1.171-6.816l0.901-0.879L99.329,111.949z"/>
			</g>
			<g>
				<path style="fill:#33363A;" d="M76.752,127.324c-0.873,0-1.743-0.272-2.489-0.81c-1.325-0.966-1.971-2.559-1.695-4.162
					l1.695-9.88l-7.179-6.994c-1.164-1.135-1.576-2.802-1.077-4.351c0.506-1.556,1.822-2.663,3.434-2.894l9.918-1.443l4.436-8.992
					c0.708-1.437,2.203-2.365,3.808-2.365s3.1,0.929,3.809,2.366l4.436,8.991l9.921,1.443c1.61,0.23,2.925,1.339,3.429,2.891
					c0,0,0,0.001,0,0.002c0.501,1.55,0.088,3.217-1.077,4.352l-7.179,6.994l1.697,9.881c0.276,1.603-0.371,3.195-1.688,4.155
					c-1.289,0.934-3.076,1.06-4.479,0.319l-8.869-4.661l-8.873,4.663C78.106,127.16,77.428,127.324,76.752,127.324z M87.603,88.434
					c-0.472,0-0.91,0.271-1.117,0.692l-4.786,9.7c-0.218,0.442-0.641,0.749-1.129,0.82l-10.701,1.557
					c-0.475,0.068-0.86,0.394-1.008,0.849c-0.146,0.453-0.025,0.945,0.317,1.278l7.744,7.545c0.354,0.345,0.515,0.841,0.432,1.328
					l-1.829,10.658c-0.082,0.472,0.109,0.94,0.498,1.224c0.384,0.276,0.889,0.313,1.307,0.092l9.575-5.032
					c0.437-0.229,0.959-0.229,1.396,0l9.57,5.029c0.421,0.224,0.94,0.18,1.315-0.092c0.385-0.28,0.576-0.749,0.495-1.22
					l-1.831-10.659c-0.083-0.487,0.078-0.983,0.432-1.328l7.744-7.545c0.342-0.334,0.463-0.824,0.316-1.281
					c-0.148-0.454-0.532-0.777-1.003-0.846l-10.704-1.557c-0.489-0.071-0.911-0.378-1.129-0.82l-4.785-9.699
					C88.513,88.705,88.074,88.434,87.603,88.434z"/>
			</g>
		</g>
	</g>
</g>
<g>
</g>
<g>
</g>
<g>
</g>
<g>
</g>
<g>
</g>
<g>
</g>
<g>
</g>
<g>
</g>
<g>
</g>
<g>
</g>
<g>
</g>
<g>
</g>
<g>
</g>
<g>
</g>
<g>
</g>
</svg>
