<?xml version="1.0" encoding="iso-8859-1"?>
<!-- Generator: Adobe Illustrator 19.0.0, SVG Export Plug-In . SVG Version: 6.00 Build 0)  -->
<svg version="1.1" id="Layer_1" xmlns="http://www.w3.org/2000/svg" xmlns:xlink="http://www.w3.org/1999/xlink" x="0px" y="0px"
	 viewBox="0 0 127.102 127.102" style="enable-background:new 0 0 127.102 127.102;" xml:space="preserve">
<g>
	<g>
		<polygon style="fill:#FFF24D;" points="95.188,70.213 125.602,50.646 90.745,57.624 99.147,38.648 84.588,49.982 91.405,1.541 
			63.551,50.877 35.7,1.541 42.514,49.982 27.957,38.648 36.358,57.624 1.5,50.646 31.916,70.213 1.5,89.78 38.246,82.428 
			27.957,105.664 54.496,87.244 55.84,88.922 63.551,107.82 63.551,107.722 63.553,107.82 71.264,88.922 72.608,87.244 
			99.147,105.664 88.858,82.428 125.602,89.78 		"/>
	</g>
	<g>
		<polygon style="fill:#FFD00B;" points="54.496,87.244 55.84,88.922 63.551,107.82 63.551,107.722 63.553,107.82 71.264,88.922 
			72.608,87.244 93.151,101.502 88.858,91.806 93.414,92.719 88.858,82.428 104.446,85.547 95.188,79.593 102.477,74.903 
			95.188,70.213 104.44,64.261 90.745,67.001 95.301,56.711 90.745,57.624 92.811,52.958 84.588,59.361 86.071,48.828 
			84.588,49.982 89.647,14.033 63.551,60.254 37.457,14.033 42.514,49.982 41.034,48.828 42.514,59.361 34.293,52.958 
			36.358,57.624 31.801,56.711 36.358,67.001 22.662,64.261 31.916,70.213 24.627,74.903 31.916,79.593 22.659,85.547 
			38.246,82.428 33.69,92.719 38.246,91.806 33.952,101.502 		"/>
	</g>
	<g>
		<path style="fill:#33363A;" d="M63.554,109.32c-0.091,0-0.183-0.008-0.275-0.025c-0.403-0.075-0.745-0.308-0.964-0.628
			c-0.06-0.085-0.111-0.179-0.152-0.28l-7.629-18.697l-0.332-0.414l-25.389,17.621c-0.553,0.383-1.292,0.353-1.811-0.076
			c-0.519-0.428-0.688-1.148-0.416-1.764l9.117-20.59L1.794,91.251C1.09,91.392,0.38,91.012,0.11,90.343
			c-0.271-0.668-0.027-1.434,0.579-1.824l28.455-18.306L0.689,51.908c-0.606-0.39-0.85-1.156-0.579-1.825
			c0.271-0.668,0.979-1.051,1.685-0.908l32.021,6.41l-7.229-16.33c-0.278-0.629-0.093-1.366,0.449-1.79
			c0.54-0.424,1.301-0.424,1.845-0.001l11.634,9.058L34.214,1.75c-0.101-0.714,0.321-1.398,1.004-1.629
			c0.68-0.233,1.434,0.055,1.788,0.683l26.545,47.022L90.098,0.804c0.355-0.628,1.108-0.917,1.788-0.683
			c0.683,0.231,1.104,0.916,1.004,1.629l-6.3,44.773l11.635-9.059c0.544-0.423,1.304-0.422,1.845,0.001
			c0.542,0.423,0.728,1.161,0.448,1.79l-7.23,16.329l32.021-6.409c0.708-0.143,1.414,0.24,1.685,0.908
			c0.271,0.668,0.027,1.435-0.579,1.825L97.96,70.213l28.453,18.306c0.606,0.391,0.85,1.156,0.579,1.824
			c-0.271,0.669-0.978,1.049-1.685,0.908l-33.907-6.784l9.117,20.59c0.272,0.615,0.103,1.336-0.416,1.764
			c-0.52,0.429-1.26,0.457-1.811,0.076L72.903,89.275l-0.332,0.414l-7.629,18.697C64.708,108.959,64.154,109.32,63.554,109.32z
			 M54.495,85.744c0.441,0,0.877,0.194,1.172,0.563l1.344,1.678c0.09,0.112,0.163,0.237,0.218,0.371l6.323,15.497l6.323-15.497
			c0.055-0.134,0.128-0.259,0.218-0.371l1.344-1.678c0.492-0.615,1.376-0.745,2.026-0.295l22.148,15.372l-8.125-18.349
			c-0.228-0.513-0.149-1.108,0.201-1.546c0.35-0.437,0.915-0.644,1.464-0.532l28.976,5.798l-23.751-15.28
			c-0.429-0.276-0.688-0.752-0.688-1.262s0.26-0.985,0.688-1.262l23.749-15.278l-27.087,5.422c-0.548,0.108-1.114-0.095-1.464-0.533
			c-0.351-0.437-0.429-1.033-0.201-1.545l5.985-13.518l-9.849,7.667c-0.482,0.375-1.145,0.421-1.673,0.115
			c-0.529-0.306-0.819-0.902-0.734-1.507l5.712-40.595L64.858,51.614c-0.267,0.471-0.766,0.763-1.307,0.763l0,0
			c-0.541,0-1.04-0.292-1.307-0.763L38.288,9.179l5.711,40.595c0.085,0.605-0.205,1.201-0.734,1.507
			c-0.528,0.306-1.19,0.261-1.673-0.115l-9.848-7.667l5.985,13.518c0.227,0.513,0.148,1.108-0.202,1.546
			c-0.35,0.437-0.916,0.641-1.464,0.532L8.978,53.673l23.75,15.278c0.429,0.276,0.688,0.752,0.688,1.262s-0.26,0.985-0.688,1.262
			L8.976,86.755l28.977-5.798c0.547-0.111,1.114,0.096,1.464,0.532c0.351,0.438,0.429,1.033,0.201,1.546l-8.125,18.349
			l22.148-15.372C53.901,85.831,54.2,85.744,54.495,85.744z"/>
	</g>
	<g>
		<g>
			<polygon style="fill:#FFFCDC;" points="67.977,81.559 63.551,125.562 59.127,81.559 63.551,75.717 			"/>
		</g>
		<g>
			<polygon style="fill:#F9F4B7;" points="59.766,87.9 63.551,125.562 67.338,87.9 63.551,82.898 			"/>
		</g>
		<g>
			<path style="fill:#33363A;" d="M63.551,127.062L63.551,127.062c-0.771,0-1.415-0.584-1.492-1.35L57.635,81.71
				c-0.038-0.377,0.067-0.754,0.296-1.056l4.424-5.843c0.568-0.75,1.825-0.75,2.392,0l4.426,5.843
				c0.229,0.302,0.335,0.679,0.297,1.056l-4.426,44.003C64.966,126.479,64.322,127.062,63.551,127.062z M60.679,81.995l2.872,28.575
				l2.874-28.574l-2.874-3.795L60.679,81.995z"/>
		</g>
	</g>
	<g>
		<path style="fill:#33363A;" d="M63.551,78.23c-0.828,0-1.5-0.672-1.5-1.5v-8.957c0-0.828,0.672-1.5,1.5-1.5s1.5,0.672,1.5,1.5
			v8.957C65.051,77.558,64.379,78.23,63.551,78.23z"/>
	</g>
	<g>
		<path style="fill:#33363A;" d="M63.551,64.161c-0.391,0-0.78-0.16-1.061-0.439c-0.279-0.28-0.439-0.66-0.439-1.06
			c0-0.39,0.16-0.78,0.439-1.06c0.561-0.56,1.561-0.56,2.12,0c0.28,0.28,0.44,0.67,0.44,1.06s-0.16,0.78-0.44,1.06
			C64.331,64.001,63.951,64.161,63.551,64.161z"/>
	</g>
	<g>
		<path style="fill:#33363A;" d="M63.551,58.631c-0.391,0-0.78-0.16-1.061-0.44c-0.279-0.28-0.439-0.67-0.439-1.06
			c0-0.4,0.16-0.79,0.439-1.06c0.561-0.56,1.561-0.56,2.12,0c0.28,0.27,0.44,0.66,0.44,1.06c0,0.39-0.16,0.78-0.44,1.06
			C64.331,58.472,63.951,58.631,63.551,58.631z"/>
	</g>
</g>
<g>
</g>
<g>
</g>
<g>
</g>
<g>
</g>
<g>
</g>
<g>
</g>
<g>
</g>
<g>
</g>
<g>
</g>
<g>
</g>
<g>
</g>
<g>
</g>
<g>
</g>
<g>
</g>
<g>
</g>
</svg>
