<?xml version="1.0" encoding="iso-8859-1"?>
<!-- Generator: Adobe Illustrator 19.0.0, SVG Export Plug-In . SVG Version: 6.00 Build 0)  -->
<svg version="1.1" id="Layer_1" xmlns="http://www.w3.org/2000/svg" xmlns:xlink="http://www.w3.org/1999/xlink" x="0px" y="0px"
	 viewBox="0 0 126.482 126.482" style="enable-background:new 0 0 126.482 126.482;" xml:space="preserve">
<g>
	<g>
		<g>
			<path style="fill:#FFBE08;" d="M96.118,124.982l27.973-103.688L73.513,51.309v0.002c0.051,7.236-3.611,14.318-10.273,18.271
				s-14.627,3.771-20.957,0.26l-26.658,15.82c15.752,17.014,41.816,21.377,62.545,9.076c0.193-0.115,0.379-0.24,0.57-0.355
				l0.199,1.646L96.118,124.982z"/>
		</g>
		<g>
			<g>
				<g>
					<g>
						<g>
							<path style="fill:#FF960B;" d="M63.24,69.582c-6.662,3.953-14.627,3.771-20.957,0.26L19.4,83.424
								c15.465,9.73,35.727,10.691,52.496,0.74c16.77-9.953,25.633-28.193,24.5-46.432L73.513,51.311
								C73.564,58.547,69.902,65.629,63.24,69.582z"/>
						</g>
					</g>
					<g>
						<g>
							<path style="fill:#FFBE08;" d="M31.636,51.902c-0.051-7.238,3.609-14.318,10.272-18.271
								c6.66-3.953,14.631-3.773,20.957-0.262l26.658-15.822C73.773,0.535,47.706-3.828,26.98,8.475
								C6.251,20.775-2.409,45.742,4.976,67.719L31.636,51.902z"/>
						</g>
						<g>
							<path style="fill:#FF960B;" d="M41.907,33.631c6.66-3.953,14.631-3.773,20.957-0.262l22.885-13.582
								c-15.469-9.736-35.728-10.693-52.496-0.742C16.484,28.998,7.616,47.238,8.751,65.479l22.885-13.576
								C31.585,44.664,35.245,37.584,41.907,33.631z"/>
						</g>
						<g>
							<path style="fill:#33363A;" d="M4.976,69.219c-0.176,0-0.354-0.031-0.522-0.094c-0.425-0.158-0.755-0.499-0.899-0.929
								c-7.722-22.979,1.809-48.638,22.66-61.012C47.066-5.19,74.154-1.263,90.623,16.527c0.308,0.333,0.449,0.787,0.384,1.235
								s-0.329,0.843-0.719,1.074L63.63,34.659c-0.458,0.272-1.027,0.28-1.493,0.021c-6.077-3.374-13.534-3.28-19.464,0.24
								c-5.932,3.52-9.586,10.022-9.537,16.971c0.004,0.533-0.276,1.028-0.734,1.301L5.741,69.009
								C5.507,69.148,5.242,69.219,4.976,69.219z M52.53,2.996c-8.527,0-17.104,2.21-24.784,6.769
								C8.638,21.104-0.379,44.283,5.838,65.463l24.309-14.421c0.243-7.681,4.398-14.787,10.995-18.701s14.825-4.157,21.681-0.691
								l24.307-14.427C77.793,7.89,65.217,2.996,52.53,2.996z"/>
						</g>
					</g>
				</g>
				<g>
					<g>
						<path style="fill:#FFBE08;" d="M61.999,46.012c3.09,5.207,1.375,11.93-3.832,15.018c-5.205,3.09-11.93,1.377-15.021-3.832
							c-3.088-5.203-1.371-11.932,3.834-15.019C52.185,39.088,58.909,40.807,61.999,46.012z"/>
					</g>
					<g>
						<path style="fill:#FF960B;" d="M43.146,57.197c-3.088-5.203-1.371-11.932,3.834-15.019c5.205-3.09,11.93-1.371,15.019,3.834"
							/>
					</g>
					<g>
						<path style="fill:#33363A;" d="M52.593,64.07c-1.033,0-2.072-0.13-3.1-0.392c-3.226-0.822-5.938-2.853-7.638-5.716
							c-1.698-2.861-2.18-6.214-1.356-9.439c0.823-3.227,2.854-5.938,5.715-7.636c5.905-3.505,13.567-1.553,17.075,4.358l0,0
							c1.699,2.863,2.182,6.216,1.358,9.439c-0.822,3.226-2.853,5.937-5.716,7.634C56.983,63.478,54.804,64.07,52.593,64.07z
							 M52.556,42.146c-1.641,0-3.301,0.426-4.811,1.322c-2.173,1.289-3.714,3.348-4.339,5.798c-0.625,2.449-0.26,4.994,1.029,7.166
							c1.29,2.175,3.35,3.716,5.799,4.34c2.448,0.626,4.994,0.26,7.167-1.032c2.174-1.289,3.715-3.347,4.34-5.795
							c0.624-2.448,0.258-4.993-1.032-7.167C58.943,43.801,55.788,42.146,52.556,42.146z"/>
					</g>
				</g>
			</g>
			<g>
				<g>
					<g>
						<path style="fill:#33363A;" d="M21.278,71.678c-0.512,0-1.011-0.262-1.291-0.734c-0.423-0.713-0.188-1.633,0.524-2.056
							l13.32-7.904c0.712-0.422,1.633-0.188,2.056,0.524s0.188,1.633-0.524,2.056l-13.32,7.904
							C21.802,71.61,21.538,71.678,21.278,71.678z"/>
					</g>
					<g>
						<path style="fill:#33363A;" d="M13.604,76.225c-0.391,0-0.78-0.16-1.061-0.44c-0.279-0.27-0.439-0.659-0.439-1.06
							c0-0.39,0.16-0.78,0.439-1.06c0.561-0.551,1.57-0.551,2.12,0c0.28,0.279,0.44,0.67,0.44,1.06c0,0.4-0.16,0.78-0.44,1.06
							C14.383,76.065,14.003,76.225,13.604,76.225z"/>
					</g>
					<g>
						<path style="fill:#33363A;" d="M6.613,80.375c-0.39,0-0.771-0.16-1.061-0.44c-0.279-0.28-0.439-0.67-0.439-1.06
							c0-0.391,0.16-0.78,0.439-1.061c0.57-0.56,1.561-0.56,2.12,0c0.28,0.28,0.44,0.67,0.44,1.061c0,0.39-0.16,0.779-0.44,1.06
							C7.394,80.215,7.003,80.375,6.613,80.375z"/>
					</g>
				</g>
				<g>
					<g>
						<path style="fill:#33363A;" d="M70.551,42.436c-0.512,0-1.011-0.263-1.291-0.734c-0.423-0.713-0.188-1.633,0.524-2.056
							l13.318-7.9c0.713-0.421,1.633-0.188,2.056,0.524c0.423,0.713,0.188,1.633-0.524,2.056l-13.318,7.9
							C71.075,42.368,70.812,42.436,70.551,42.436z"/>
					</g>
					<g>
						<path style="fill:#33363A;" d="M91.543,29.984c-0.399,0-0.79-0.16-1.06-0.439c-0.28-0.28-0.44-0.67-0.44-1.061
							c0-0.399,0.16-0.79,0.44-1.069c0.56-0.561,1.55-0.561,2.12,0c0.279,0.279,0.439,0.67,0.439,1.069
							c0,0.391-0.16,0.78-0.439,1.061C92.323,29.824,91.934,29.984,91.543,29.984z"/>
					</g>
					<g>
						<path style="fill:#33363A;" d="M98.531,25.834c-0.512,0-1.011-0.262-1.291-0.734c-0.423-0.712-0.188-1.633,0.524-2.056
							l20.236-12.012c0.713-0.422,1.633-0.188,2.056,0.524c0.423,0.712,0.188,1.633-0.524,2.056L99.296,25.624
							C99.056,25.767,98.792,25.834,98.531,25.834z"/>
					</g>
				</g>
			</g>
		</g>
		<g>
			<path style="fill:#33363A;" d="M96.118,126.482c-0.524,0-1.018-0.275-1.29-0.734l-17.18-28.953
				c-0.004-0.007-0.009-0.015-0.013-0.021c-20.667,11.46-46.983,7.329-63.112-10.092c-0.308-0.333-0.449-0.787-0.384-1.235
				s0.329-0.843,0.719-1.074l26.658-15.82c0.458-0.271,1.027-0.28,1.493-0.021c6.078,3.371,13.536,3.277,19.464-0.238
				c5.933-3.521,9.588-10.023,9.539-16.971c-0.004-0.533,0.276-1.028,0.734-1.301l50.578-30.016
				c0.525-0.312,1.187-0.274,1.673,0.096c0.486,0.369,0.7,0.996,0.541,1.585L97.567,125.373c-0.157,0.582-0.647,1.014-1.245,1.096
				C96.253,126.478,96.186,126.482,96.118,126.482z M80.39,95.535l15.206,25.627l26.085-96.692L75.002,52.169
				c-0.243,7.681-4.399,14.788-10.997,18.703c-6.594,3.913-14.823,4.153-21.681,0.689L18.018,85.986
				c15.612,15.608,40.279,18.8,59.386,7.462l0.563-0.351c0.435-0.262,0.974-0.286,1.432-0.063c0.457,0.223,0.77,0.662,0.831,1.167
				L80.39,95.535z"/>
		</g>
	</g>
	<g>
		<path style="fill:#33363A;" d="M91.79,93.438c-0.557,0-1.067-0.309-1.327-0.801L80,72.781c-0.292-0.555-0.209-1.232,0.209-1.699
			c0.417-0.467,1.08-0.624,1.666-0.396l9.915,3.887l9.915-3.887c0.586-0.228,1.249-0.07,1.666,0.396
			c0.418,0.467,0.501,1.145,0.209,1.699L93.117,92.637C92.858,93.129,92.347,93.438,91.79,93.438z M84.534,74.95l7.256,13.77
			l7.256-13.77l-6.708,2.63c-0.354,0.139-0.742,0.139-1.096,0L84.534,74.95z"/>
	</g>
</g>
<g>
</g>
<g>
</g>
<g>
</g>
<g>
</g>
<g>
</g>
<g>
</g>
<g>
</g>
<g>
</g>
<g>
</g>
<g>
</g>
<g>
</g>
<g>
</g>
<g>
</g>
<g>
</g>
<g>
</g>
</svg>
