<?xml version="1.0" encoding="iso-8859-1"?>
<!-- Generator: Adobe Illustrator 19.0.0, SVG Export Plug-In . SVG Version: 6.00 Build 0)  -->
<svg version="1.1" id="Layer_1" xmlns="http://www.w3.org/2000/svg" xmlns:xlink="http://www.w3.org/1999/xlink" x="0px" y="0px"
	 viewBox="0 0 126.666 126.666" style="enable-background:new 0 0 126.666 126.666;" xml:space="preserve">
<g>
	<g>
		<g>
			<path style="fill:#EEDCF4;" d="M111.907,77c0,26.601-21.564,48.166-48.168,48.166c-26.603,0-48.167-21.565-48.167-48.166
				c0-26.604,21.564-75.5,48.167-75.5C90.342,1.5,111.907,50.397,111.907,77z"/>
		</g>
		<g>
			<path style="fill:#A8A3E5;" d="M63.739,1.5v123.666c26.604,0,48.168-21.565,48.168-48.166C111.907,50.397,90.342,1.5,63.739,1.5z
				"/>
		</g>
		<g>
			<path style="fill:#33363A;" d="M63.739,126.666c-27.386,0-49.667-22.28-49.667-49.666c0-13.942,5.613-32.964,14.299-48.46
				C38.688,10.136,51.248,0,63.739,0C76.23,0,88.791,10.136,99.107,28.54c8.687,15.496,14.299,34.518,14.299,48.46
				C113.407,104.386,91.126,126.666,63.739,126.666z M63.739,3C48.415,3,36.642,19.921,30.988,30.007
				C22.534,45.088,17.072,63.534,17.072,77c0,25.732,20.935,46.666,46.667,46.666c25.733,0,46.668-20.934,46.668-46.666
				c0-13.466-5.462-31.912-13.916-46.993C90.836,19.921,79.063,3,63.739,3z"/>
		</g>
	</g>
	<g>
		<g>
			<g>
				<circle style="fill:#EEDCF4;" cx="74.991" cy="33.601" r="3.5"/>
			</g>
			<g>
				<ellipse style="fill:#EEDCF4;" cx="73.241" cy="20.91" rx="1.75" ry="0"/>
			</g>
			<g>
				<circle style="fill:#EEDCF4;" cx="86.323" cy="32.601" r="2.5"/>
			</g>
			<g>
				<circle style="fill:#EEDCF4;" cx="87.573" cy="42.351" r="1.25"/>
			</g>
			<g>
				<circle style="fill:#EEDCF4;" cx="78.407" cy="20.29" r="3.416"/>
			</g>
			<g>
				<ellipse style="fill:#EEDCF4;" cx="68.157" cy="20.29" rx="0.666" ry="0"/>
			</g>
			<g>
				<circle style="fill:#EEDCF4;" cx="70.358" cy="11.303" r="1.535"/>
			</g>
			<g>
				<circle style="fill:#EEDCF4;" cx="76.699" cy="55.019" r="1.708"/>
			</g>
			<g>
				<circle style="fill:#EEDCF4;" cx="76.724" cy="74.128" r="1.733"/>
			</g>
			<g>
				<circle style="fill:#EEDCF4;" cx="90.656" cy="65.166" r="1.833"/>
			</g>
			<g>
				<circle style="fill:#EEDCF4;" cx="99.324" cy="58.56" r="1.833"/>
			</g>
			<g>
				<ellipse style="fill:#EEDCF4;" cx="97.491" cy="79.528" rx="0" ry="1.24"/>
			</g>
			<g>
				<circle style="fill:#EEDCF4;" cx="89.74" cy="84.351" r="0.917"/>
			</g>
			<g>
				<circle style="fill:#EEDCF4;" cx="100.657" cy="75.56" r="3.166"/>
			</g>
			<g>
				<circle style="fill:#EEDCF4;" cx="73.96" cy="99.7" r="2.067"/>
			</g>
			<g>
				<circle style="fill:#EEDCF4;" cx="76.425" cy="112.637" r="2.464"/>
			</g>
			<g>
				<circle style="fill:#EEDCF4;" cx="85.073" cy="101.625" r="1.25"/>
			</g>
			<g>
				<circle style="fill:#EEDCF4;" cx="95.657" cy="93.972" r="1.834"/>
			</g>
		</g>
		<g>
			<g>
				<circle style="fill:#A8A3E5;" cx="52.489" cy="33.601" r="3.5"/>
			</g>
			<g>
				<ellipse style="fill:#A8A3E5;" cx="54.239" cy="20.91" rx="1.75" ry="0"/>
			</g>
			<g>
				<circle style="fill:#A8A3E5;" cx="41.156" cy="32.601" r="2.5"/>
			</g>
			<g>
				<circle style="fill:#A8A3E5;" cx="39.906" cy="42.351" r="1.25"/>
			</g>
			<g>
				<circle style="fill:#A8A3E5;" cx="49.073" cy="20.29" r="3.416"/>
			</g>
			<g>
				<ellipse style="fill:#A8A3E5;" cx="59.323" cy="20.29" rx="0.666" ry="0"/>
			</g>
			<g>
				<circle style="fill:#A8A3E5;" cx="57.122" cy="11.303" r="1.535"/>
			</g>
			<g>
				<circle style="fill:#A8A3E5;" cx="50.781" cy="55.019" r="1.708"/>
			</g>
			<g>
				<circle style="fill:#A8A3E5;" cx="50.755" cy="74.128" r="1.733"/>
			</g>
			<g>
				<circle style="fill:#A8A3E5;" cx="36.823" cy="65.166" r="1.833"/>
			</g>
			<g>
				<circle style="fill:#A8A3E5;" cx="28.155" cy="58.56" r="1.833"/>
			</g>
			<g>
				<ellipse style="fill:#A8A3E5;" cx="29.988" cy="79.528" rx="0" ry="1.24"/>
			</g>
			<g>
				<circle style="fill:#A8A3E5;" cx="37.739" cy="84.351" r="0.917"/>
			</g>
			<g>
				<circle style="fill:#A8A3E5;" cx="26.822" cy="75.56" r="3.166"/>
			</g>
			<g>
				<circle style="fill:#A8A3E5;" cx="53.519" cy="99.7" r="2.067"/>
			</g>
			<g>
				<circle style="fill:#A8A3E5;" cx="51.054" cy="112.637" r="2.464"/>
			</g>
			<g>
				<circle style="fill:#A8A3E5;" cx="42.406" cy="101.625" r="1.25"/>
			</g>
			<g>
				<circle style="fill:#A8A3E5;" cx="31.822" cy="93.972" r="1.834"/>
			</g>
		</g>
	</g>
	<path style="fill:#33363A;" d="M18.702,12.517h-2.749V9.769c0-0.829-0.671-1.5-1.5-1.5s-1.5,0.671-1.5,1.5v2.748h-2.75
		c-0.829,0-1.5,0.671-1.5,1.5s0.671,1.5,1.5,1.5h2.75v2.75c0,0.829,0.671,1.5,1.5,1.5s1.5-0.671,1.5-1.5v-2.75h2.749
		c0.829,0,1.5-0.671,1.5-1.5S19.53,12.517,18.702,12.517z"/>
	<path style="fill:#33363A;" d="M115.579,32.601l1.945-1.945c0.586-0.585,0.586-1.536,0-2.121c-0.586-0.586-1.535-0.586-2.121,0
		l-1.945,1.945l-1.944-1.944c-0.586-0.586-1.535-0.586-2.121,0c-0.586,0.585-0.586,1.536,0,2.121l1.944,1.944l-1.944,1.944
		c-0.586,0.585-0.586,1.536,0,2.121c0.293,0.293,0.677,0.439,1.061,0.439s0.768-0.146,1.061-0.439l1.944-1.944l1.945,1.945
		c0.293,0.293,0.677,0.439,1.061,0.439s0.768-0.146,1.061-0.439c0.586-0.585,0.586-1.536,0-2.121L115.579,32.601z"/>
	<path style="fill:#33363A;" d="M18.518,31.542l-0.443-0.443l0.443-0.443c0.586-0.585,0.586-1.536,0-2.121
		c-0.586-0.586-1.535-0.586-2.121,0l-0.442,0.442l-0.441-0.441c-0.586-0.586-1.536-0.585-2.122,0c-0.586,0.586-0.586,1.536,0,2.122
		l0.442,0.442l-0.441,0.441c-0.586,0.585-0.586,1.536,0,2.121c0.293,0.293,0.677,0.439,1.061,0.439s0.768-0.146,1.061-0.439
		l0.441-0.441l0.443,0.443c0.293,0.293,0.677,0.439,1.061,0.439s0.768-0.146,1.061-0.439C19.103,33.078,19.103,32.128,18.518,31.542
		z"/>
	<path style="fill:#33363A;" d="M105.948,8.269h-0.623l0-0.625c0-0.828-0.671-1.5-1.5-1.5h0c-0.828,0-1.5,0.671-1.5,1.5l0,0.625
		h-0.627c-0.829,0-1.5,0.671-1.5,1.5s0.671,1.5,1.5,1.5h0.625l0,0.625c0,0.828,0.671,1.5,1.5,1.5h0c0.828,0,1.5-0.671,1.5-1.5
		l0-0.625h0.625c0.829,0,1.5-0.671,1.5-1.5S106.776,8.269,105.948,8.269z"/>
	<path style="fill:#33363A;" d="M107.708,19.149c-0.479-0.479-1.192-0.545-1.76-0.24c-0.568-0.305-1.281-0.239-1.76,0.24
		c-0.479,0.479-0.545,1.192-0.24,1.76c-0.305,0.568-0.239,1.281,0.24,1.76c0.293,0.293,0.677,0.439,1.061,0.439
		c0.244,0,0.479-0.081,0.699-0.199c0.221,0.118,0.455,0.199,0.699,0.199c0.384,0,0.768-0.146,1.061-0.439
		c0.479-0.479,0.545-1.192,0.24-1.76C108.252,20.341,108.187,19.628,107.708,19.149z"/>
	<path style="fill:#33363A;" d="M30.644,12.838c0-0.675-0.448-1.239-1.061-1.427c-0.189-0.613-0.752-1.061-1.427-1.061
		c-0.675,0-1.238,0.448-1.427,1.061c-0.613,0.188-1.062,0.752-1.062,1.427c0,0.675,0.449,1.239,1.062,1.427
		c0.188,0.613,0.752,1.062,1.427,1.062c0.675,0,1.239-0.449,1.427-1.062C30.196,14.076,30.644,13.513,30.644,12.838z"/>
</g>
<g>
</g>
<g>
</g>
<g>
</g>
<g>
</g>
<g>
</g>
<g>
</g>
<g>
</g>
<g>
</g>
<g>
</g>
<g>
</g>
<g>
</g>
<g>
</g>
<g>
</g>
<g>
</g>
<g>
</g>
</svg>
