<?xml version="1.0" encoding="iso-8859-1"?>
<!-- Generator: Adobe Illustrator 19.0.0, SVG Export Plug-In . SVG Version: 6.00 Build 0)  -->
<svg version="1.1" id="Layer_1" xmlns="http://www.w3.org/2000/svg" xmlns:xlink="http://www.w3.org/1999/xlink" x="0px" y="0px"
	 viewBox="0 0 126.649 126.649" style="enable-background:new 0 0 126.649 126.649;" xml:space="preserve">
<g>
	<g>
		<g>
			<g>
				<path style="fill:#EEDCF4;" d="M89.284,42.19c0,14.336-11.623,25.958-25.959,25.958c-14.338,0-25.959-11.622-25.959-25.958
					c0-14.339,11.621-40.69,25.959-40.69C77.661,1.5,89.284,27.852,89.284,42.19z"/>
			</g>
			<g>
				<path style="fill:#A8A3E5;" d="M63.325,1.5v66.648c14.336,0,25.959-11.622,25.959-25.958C89.284,27.852,77.661,1.5,63.325,1.5z"
					/>
			</g>
			<g>
				<path style="fill:#33363A;" d="M63.325,69.648c-15.141,0-27.459-12.317-27.459-27.458C35.866,27.748,47.461,0,63.325,0
					s27.459,27.748,27.459,42.19C90.784,57.331,78.466,69.648,63.325,69.648z M63.325,3C49.939,3,38.866,28.947,38.866,42.19
					c0,13.486,10.972,24.458,24.459,24.458S87.784,55.677,87.784,42.19C87.784,28.947,76.71,3,63.325,3z"/>
			</g>
		</g>
		<g>
			<g>
				<g>
					<circle style="fill:#EEDCF4;" cx="69.387" cy="18.801" r="1.887"/>
				</g>
				<g>
					<ellipse style="fill:#EEDCF4;" cx="68.444" cy="11.96" rx="0.943" ry="0.002"/>
				</g>
				<g>
					<circle style="fill:#EEDCF4;" cx="75.496" cy="18.262" r="1.347"/>
				</g>
				<g>
					<circle style="fill:#EEDCF4;" cx="76.169" cy="23.517" r="0.673"/>
				</g>
				<g>
					<circle style="fill:#EEDCF4;" cx="71.229" cy="11.627" r="1.842"/>
				</g>
				<g>
					<ellipse style="fill:#EEDCF4;" cx="65.705" cy="11.627" rx="0.358" ry="0.001"/>
				</g>
				<g>
					<circle style="fill:#EEDCF4;" cx="66.891" cy="6.782" r="0.828"/>
				</g>
				<g>
					<circle style="fill:#EEDCF4;" cx="70.308" cy="30.344" r="0.921"/>
				</g>
				<g>
					<circle style="fill:#EEDCF4;" cx="70.323" cy="40.643" r="0.936"/>
				</g>
				<g>
					<circle style="fill:#EEDCF4;" cx="77.831" cy="35.813" r="0.988"/>
				</g>
				<g>
					<circle style="fill:#EEDCF4;" cx="82.502" cy="32.252" r="0.988"/>
				</g>
				<g>
					<ellipse style="fill:#EEDCF4;" cx="81.514" cy="43.553" rx="0" ry="0.668"/>
				</g>
				<g>
					<circle style="fill:#EEDCF4;" cx="77.336" cy="46.152" r="0.494"/>
				</g>
				<g>
					<circle style="fill:#EEDCF4;" cx="83.22" cy="41.413" r="1.706"/>
				</g>
				<g>
					<circle style="fill:#EEDCF4;" cx="68.833" cy="54.424" r="1.114"/>
				</g>
				<g>
					<circle style="fill:#EEDCF4;" cx="70.162" cy="61.397" r="1.327"/>
				</g>
				<g>
					<circle style="fill:#EEDCF4;" cx="74.823" cy="55.462" r="0.674"/>
				</g>
				<g>
					<circle style="fill:#EEDCF4;" cx="80.526" cy="51.337" r="0.988"/>
				</g>
			</g>
			<g>
				<g>
					<circle style="fill:#A8A3E5;" cx="57.261" cy="18.801" r="1.886"/>
				</g>
				<g>
					<ellipse style="fill:#A8A3E5;" cx="58.205" cy="11.96" rx="0.942" ry="0.001"/>
				</g>
				<g>
					<circle style="fill:#A8A3E5;" cx="51.153" cy="18.262" r="1.348"/>
				</g>
				<g>
					<circle style="fill:#A8A3E5;" cx="50.479" cy="23.517" r="0.674"/>
				</g>
				<g>
					<circle style="fill:#A8A3E5;" cx="55.42" cy="11.627" r="1.842"/>
				</g>
				<g>
					<ellipse style="fill:#A8A3E5;" cx="60.944" cy="11.627" rx="0.359" ry="0"/>
				</g>
				<g>
					<circle style="fill:#A8A3E5;" cx="59.757" cy="6.782" r="0.827"/>
				</g>
				<g>
					<circle style="fill:#A8A3E5;" cx="56.341" cy="30.344" r="0.921"/>
				</g>
				<g>
					<circle style="fill:#A8A3E5;" cx="56.328" cy="40.643" r="0.935"/>
				</g>
				<g>
					<circle style="fill:#A8A3E5;" cx="48.818" cy="35.813" r="0.987"/>
				</g>
				<g>
					<circle style="fill:#A8A3E5;" cx="44.147" cy="32.252" r="0.988"/>
				</g>
				<g>
					<ellipse style="fill:#A8A3E5;" cx="45.135" cy="43.553" rx="0" ry="0.668"/>
				</g>
				<g>
					<circle style="fill:#A8A3E5;" cx="49.312" cy="46.152" r="0.493"/>
				</g>
				<g>
					<circle style="fill:#A8A3E5;" cx="43.428" cy="41.413" r="1.707"/>
				</g>
				<g>
					<circle style="fill:#A8A3E5;" cx="57.816" cy="54.424" r="1.114"/>
				</g>
				<g>
					<circle style="fill:#A8A3E5;" cx="56.488" cy="61.397" r="1.329"/>
				</g>
				<g>
					<circle style="fill:#A8A3E5;" cx="51.827" cy="55.462" r="0.674"/>
				</g>
				<g>
					<circle style="fill:#A8A3E5;" cx="46.124" cy="51.337" r="0.988"/>
				</g>
			</g>
		</g>
	</g>
	<g>
		<g>
			<g>
				<g>
					<path style="fill:#EEDCF4;" d="M63.325,99.191c0,14.335-11.621,25.958-25.959,25.958s-25.959-11.623-25.959-25.958
						c0-14.34,11.621-40.691,25.959-40.691S63.325,84.852,63.325,99.191z"/>
				</g>
				<g>
					<path style="fill:#A8A3E5;" d="M37.366,58.5v66.649c14.338,0,25.959-11.623,25.959-25.958
						C63.325,84.852,51.704,58.5,37.366,58.5z"/>
				</g>
				<g>
					<path style="fill:#33363A;" d="M37.366,126.649c-15.141,0-27.459-12.317-27.459-27.458C9.907,84.749,21.502,57,37.366,57
						s27.459,27.749,27.459,42.191C64.825,114.332,52.507,126.649,37.366,126.649z M37.366,60C23.98,60,12.907,85.948,12.907,99.191
						c0,13.486,10.972,24.458,24.459,24.458s24.459-10.972,24.459-24.458C61.825,85.948,50.751,60,37.366,60z"/>
				</g>
			</g>
			<g>
				<g>
					<g>
						<circle style="fill:#EEDCF4;" cx="43.428" cy="75.801" r="1.887"/>
					</g>
					<g>
						<ellipse style="fill:#EEDCF4;" cx="42.485" cy="68.961" rx="0.943" ry="0"/>
					</g>
					<g>
						<circle style="fill:#EEDCF4;" cx="49.537" cy="75.262" r="1.347"/>
					</g>
					<g>
						<circle style="fill:#EEDCF4;" cx="50.21" cy="80.517" r="0.673"/>
					</g>
					<g>
						<circle style="fill:#EEDCF4;" cx="45.27" cy="68.627" r="1.842"/>
					</g>
					<g>
						<ellipse style="fill:#EEDCF4;" cx="39.747" cy="68.627" rx="0.359" ry="0.002"/>
					</g>
					<g>
						<circle style="fill:#EEDCF4;" cx="40.933" cy="63.783" r="0.827"/>
					</g>
					<g>
						<circle style="fill:#EEDCF4;" cx="44.349" cy="87.344" r="0.921"/>
					</g>
					<g>
						<circle style="fill:#EEDCF4;" cx="44.363" cy="97.643" r="0.935"/>
					</g>
					<g>
						<circle style="fill:#EEDCF4;" cx="51.872" cy="92.813" r="0.988"/>
					</g>
					<g>
						<circle style="fill:#EEDCF4;" cx="56.543" cy="89.252" r="0.988"/>
					</g>
					<g>
						<ellipse style="fill:#EEDCF4;" cx="55.555" cy="100.553" rx="0" ry="0.668"/>
					</g>
					<g>
						<circle style="fill:#EEDCF4;" cx="51.377" cy="103.152" r="0.494"/>
					</g>
					<g>
						<path style="fill:#EEDCF4;" d="M58.967,98.413c0,0.944-0.764,1.708-1.705,1.708c-0.943,0-1.707-0.764-1.707-1.708
							c0-0.94,0.764-1.705,1.707-1.705C58.204,96.708,58.967,97.473,58.967,98.413z"/>
					</g>
					<g>
						<circle style="fill:#EEDCF4;" cx="42.875" cy="111.425" r="1.114"/>
					</g>
					<g>
						<circle style="fill:#EEDCF4;" cx="44.202" cy="118.397" r="1.328"/>
					</g>
					<g>
						<circle style="fill:#EEDCF4;" cx="48.864" cy="112.462" r="0.674"/>
					</g>
					<g>
						<circle style="fill:#EEDCF4;" cx="54.567" cy="108.338" r="0.988"/>
					</g>
				</g>
				<g>
					<g>
						<circle style="fill:#A8A3E5;" cx="31.302" cy="75.801" r="1.886"/>
					</g>
					<g>
						<ellipse style="fill:#A8A3E5;" cx="32.245" cy="68.961" rx="0.943" ry="0"/>
					</g>
					<g>
						<circle style="fill:#A8A3E5;" cx="25.194" cy="75.262" r="1.348"/>
					</g>
					<g>
						<circle style="fill:#A8A3E5;" cx="24.52" cy="80.517" r="0.674"/>
					</g>
					<g>
						<circle style="fill:#A8A3E5;" cx="29.46" cy="68.627" r="1.841"/>
					</g>
					<g>
						<ellipse style="fill:#A8A3E5;" cx="34.985" cy="68.627" rx="0.359" ry="0"/>
					</g>
					<g>
						<circle style="fill:#A8A3E5;" cx="33.798" cy="63.783" r="0.827"/>
					</g>
					<g>
						<circle style="fill:#A8A3E5;" cx="30.381" cy="87.344" r="0.92"/>
					</g>
					<g>
						<circle style="fill:#A8A3E5;" cx="30.368" cy="97.643" r="0.934"/>
					</g>
					<g>
						<circle style="fill:#A8A3E5;" cx="22.859" cy="92.813" r="0.987"/>
					</g>
					<g>
						<circle style="fill:#A8A3E5;" cx="18.188" cy="89.252" r="0.988"/>
					</g>
					<g>
						<ellipse style="fill:#A8A3E5;" cx="19.176" cy="100.553" rx="0" ry="0.668"/>
					</g>
					<g>
						<circle style="fill:#A8A3E5;" cx="23.353" cy="103.152" r="0.493"/>
					</g>
					<g>
						<path style="fill:#A8A3E5;" d="M15.762,98.413c0,0.944,0.766,1.708,1.707,1.708c0.943,0,1.707-0.764,1.707-1.708
							c0-0.94-0.764-1.705-1.707-1.705C16.528,96.708,15.762,97.473,15.762,98.413z"/>
					</g>
					<g>
						<circle style="fill:#A8A3E5;" cx="31.857" cy="111.425" r="1.114"/>
					</g>
					<g>
						<circle style="fill:#A8A3E5;" cx="30.529" cy="118.397" r="1.327"/>
					</g>
					<g>
						<circle style="fill:#A8A3E5;" cx="25.868" cy="112.462" r="0.674"/>
					</g>
					<g>
						<circle style="fill:#A8A3E5;" cx="20.165" cy="108.338" r="0.988"/>
					</g>
				</g>
			</g>
		</g>
		<g>
			<g>
				<g>
					<path style="fill:#EEDCF4;" d="M115.243,99.191c0,14.335-11.623,25.958-25.959,25.958c-14.338,0-25.959-11.623-25.959-25.958
						c0-14.34,11.621-40.691,25.959-40.691C103.62,58.5,115.243,84.852,115.243,99.191z"/>
				</g>
				<g>
					<path style="fill:#A8A3E5;" d="M89.284,58.5v66.649c14.336,0,25.959-11.623,25.959-25.958
						C115.243,84.852,103.62,58.5,89.284,58.5z"/>
				</g>
				<g>
					<path style="fill:#33363A;" d="M89.284,126.649c-15.141,0-27.459-12.317-27.459-27.458C61.825,84.749,73.42,57,89.284,57
						s27.459,27.749,27.459,42.191C116.743,114.332,104.425,126.649,89.284,126.649z M89.284,60
						c-13.385,0-24.459,25.948-24.459,39.191c0,13.486,10.972,24.458,24.459,24.458s24.459-10.972,24.459-24.458
						C113.743,85.948,102.669,60,89.284,60z"/>
				</g>
			</g>
			<g>
				<g>
					<g>
						<circle style="fill:#EEDCF4;" cx="95.347" cy="75.801" r="1.886"/>
					</g>
					<g>
						<ellipse style="fill:#EEDCF4;" cx="94.404" cy="68.961" rx="0.942" ry="0.001"/>
					</g>
					<g>
						<circle style="fill:#EEDCF4;" cx="101.455" cy="75.262" r="1.347"/>
					</g>
					<g>
						<circle style="fill:#EEDCF4;" cx="102.128" cy="80.517" r="0.673"/>
					</g>
					<g>
						<circle style="fill:#EEDCF4;" cx="97.188" cy="68.627" r="1.842"/>
					</g>
					<g>
						<ellipse style="fill:#EEDCF4;" cx="91.665" cy="68.627" rx="0.359" ry="0.002"/>
					</g>
					<g>
						<circle style="fill:#EEDCF4;" cx="92.851" cy="63.783" r="0.827"/>
					</g>
					<g>
						<circle style="fill:#EEDCF4;" cx="96.267" cy="87.344" r="0.921"/>
					</g>
					<g>
						<circle style="fill:#EEDCF4;" cx="96.281" cy="97.643" r="0.935"/>
					</g>
					<g>
						<circle style="fill:#EEDCF4;" cx="103.79" cy="92.813" r="0.988"/>
					</g>
					<g>
						<circle style="fill:#EEDCF4;" cx="108.461" cy="89.252" r="0.988"/>
					</g>
					<g>
						<ellipse style="fill:#EEDCF4;" cx="107.473" cy="100.553" rx="0" ry="0.668"/>
					</g>
					<g>
						<circle style="fill:#EEDCF4;" cx="103.295" cy="103.152" r="0.494"/>
					</g>
					<g>
						<path style="fill:#EEDCF4;" d="M110.885,98.413c0,0.944-0.764,1.708-1.705,1.708c-0.943,0-1.707-0.764-1.707-1.708
							c0-0.94,0.764-1.705,1.707-1.705C110.122,96.708,110.885,97.473,110.885,98.413z"/>
					</g>
					<g>
						<circle style="fill:#EEDCF4;" cx="94.792" cy="111.425" r="1.114"/>
					</g>
					<g>
						<circle style="fill:#EEDCF4;" cx="96.121" cy="118.397" r="1.327"/>
					</g>
					<g>
						<circle style="fill:#EEDCF4;" cx="100.782" cy="112.462" r="0.674"/>
					</g>
					<g>
						<circle style="fill:#EEDCF4;" cx="106.485" cy="108.338" r="0.988"/>
					</g>
				</g>
				<g>
					<g>
						<circle style="fill:#A8A3E5;" cx="83.22" cy="75.801" r="1.886"/>
					</g>
					<g>
						<ellipse style="fill:#A8A3E5;" cx="84.163" cy="68.961" rx="0.943" ry="0"/>
					</g>
					<g>
						<circle style="fill:#A8A3E5;" cx="77.112" cy="75.262" r="1.348"/>
					</g>
					<g>
						<circle style="fill:#A8A3E5;" cx="76.438" cy="80.517" r="0.674"/>
					</g>
					<g>
						<circle style="fill:#A8A3E5;" cx="81.378" cy="68.627" r="1.841"/>
					</g>
					<g>
						<ellipse style="fill:#A8A3E5;" cx="86.903" cy="68.627" rx="0.359" ry="0"/>
					</g>
					<g>
						<circle style="fill:#A8A3E5;" cx="85.716" cy="63.783" r="0.827"/>
					</g>
					<g>
						<circle style="fill:#A8A3E5;" cx="82.299" cy="87.344" r="0.92"/>
					</g>
					<g>
						<circle style="fill:#A8A3E5;" cx="82.286" cy="97.643" r="0.934"/>
					</g>
					<g>
						<circle style="fill:#A8A3E5;" cx="74.777" cy="92.813" r="0.987"/>
					</g>
					<g>
						<circle style="fill:#A8A3E5;" cx="70.106" cy="89.252" r="0.988"/>
					</g>
					<g>
						<ellipse style="fill:#A8A3E5;" cx="71.094" cy="100.553" rx="0" ry="0.668"/>
					</g>
					<g>
						<circle style="fill:#A8A3E5;" cx="75.271" cy="103.152" r="0.493"/>
					</g>
					<g>
						<path style="fill:#A8A3E5;" d="M67.68,98.413c0,0.944,0.766,1.708,1.707,1.708c0.943,0,1.707-0.764,1.707-1.708
							c0-0.94-0.764-1.705-1.707-1.705C68.446,96.708,67.68,97.473,67.68,98.413z"/>
					</g>
					<g>
						<circle style="fill:#A8A3E5;" cx="83.775" cy="111.425" r="1.114"/>
					</g>
					<g>
						<circle style="fill:#A8A3E5;" cx="82.448" cy="118.397" r="1.328"/>
					</g>
					<g>
						<circle style="fill:#A8A3E5;" cx="77.786" cy="112.462" r="0.674"/>
					</g>
					<g>
						<circle style="fill:#A8A3E5;" cx="72.083" cy="108.338" r="0.988"/>
					</g>
				</g>
			</g>
		</g>
	</g>
</g>
<g>
</g>
<g>
</g>
<g>
</g>
<g>
</g>
<g>
</g>
<g>
</g>
<g>
</g>
<g>
</g>
<g>
</g>
<g>
</g>
<g>
</g>
<g>
</g>
<g>
</g>
<g>
</g>
<g>
</g>
</svg>
