<?xml version="1.0" encoding="iso-8859-1"?>
<!-- Generator: Adobe Illustrator 19.0.0, SVG Export Plug-In . SVG Version: 6.00 Build 0)  -->
<svg version="1.1" id="Layer_1" xmlns="http://www.w3.org/2000/svg" xmlns:xlink="http://www.w3.org/1999/xlink" x="0px" y="0px"
	 viewBox="0 0 127.402 127.402" style="enable-background:new 0 0 127.402 127.402;" xml:space="preserve">
<g>
	<g>
		<g>
			<g>
				<path style="fill:#EEDCF4;" d="M90.782,43.947c0,14.955-12.125,27.08-27.081,27.08c-14.957,0-27.082-12.125-27.082-27.08
					C36.62,28.989,48.745,1.5,63.702,1.5C78.657,1.5,90.782,28.989,90.782,43.947z"/>
			</g>
			<g>
				<path style="fill:#A8A3E5;" d="M63.702,1.5v69.527c14.956,0,27.081-12.125,27.081-27.08C90.782,28.989,78.657,1.5,63.702,1.5z"
					/>
			</g>
			<g>
				<path style="fill:#33363A;" d="M63.702,72.527c-15.76,0-28.582-12.821-28.582-28.58C35.12,28.903,47.19,0,63.702,0
					c16.511,0,28.581,28.903,28.581,43.947C92.282,59.707,79.461,72.527,63.702,72.527z M63.702,3c-14,0-25.582,27.11-25.582,40.947
					c0,14.105,11.476,25.58,25.582,25.58c14.105,0,25.581-11.475,25.581-25.58C89.282,30.11,77.701,3,63.702,3z"/>
			</g>
		</g>
		<g>
			<g>
				<g>
					<path style="fill:#EEDCF4;" d="M71.994,19.548c0,1.086-0.88,1.966-1.967,1.966c-1.087,0-1.968-0.88-1.968-1.966
						c0-1.089,0.881-1.968,1.968-1.968C71.114,17.58,71.994,18.459,71.994,19.548z"/>
				</g>
				<g>
					<ellipse style="fill:#EEDCF4;" cx="69.042" cy="12.411" rx="0.984" ry="0"/>
				</g>
				<g>
					<circle style="fill:#EEDCF4;" cx="76.398" cy="18.985" r="1.405"/>
				</g>
				<g>
					<circle style="fill:#EEDCF4;" cx="77.101" cy="24.467" r="0.703"/>
				</g>
				<g>
					<circle style="fill:#EEDCF4;" cx="71.947" cy="12.064" r="1.921"/>
				</g>
				<g>
					<ellipse style="fill:#EEDCF4;" cx="66.184" cy="12.064" rx="0.374" ry="0"/>
				</g>
				<g>
					<circle style="fill:#EEDCF4;" cx="67.422" cy="7.01" r="0.864"/>
				</g>
				<g>
					<circle style="fill:#EEDCF4;" cx="70.987" cy="31.59" r="0.961"/>
				</g>
				<g>
					<circle style="fill:#EEDCF4;" cx="71.002" cy="42.333" r="0.975"/>
				</g>
				<g>
					<circle style="fill:#EEDCF4;" cx="78.835" cy="37.295" r="1.031"/>
				</g>
				<g>
					<circle style="fill:#EEDCF4;" cx="83.707" cy="33.58" r="1.031"/>
				</g>
				<g>
					<ellipse style="fill:#EEDCF4;" cx="82.676" cy="45.369" rx="0" ry="0.697"/>
				</g>
				<g>
					<circle style="fill:#EEDCF4;" cx="78.319" cy="48.081" r="0.515"/>
				</g>
				<g>
					<circle style="fill:#EEDCF4;" cx="84.456" cy="43.137" r="1.78"/>
				</g>
				<g>
					<circle style="fill:#EEDCF4;" cx="69.448" cy="56.709" r="1.162"/>
				</g>
				<g>
					<circle style="fill:#EEDCF4;" cx="70.834" cy="63.983" r="1.385"/>
				</g>
				<g>
					<circle style="fill:#EEDCF4;" cx="75.696" cy="57.793" r="0.703"/>
				</g>
				<g>
					<circle style="fill:#EEDCF4;" cx="81.646" cy="53.489" r="1.03"/>
				</g>
			</g>
			<g>
				<g>
					<path style="fill:#A8A3E5;" d="M55.409,19.548c0,1.086,0.88,1.966,1.968,1.966c1.086,0,1.967-0.88,1.967-1.966
						c0-1.089-0.881-1.968-1.967-1.968C56.289,17.58,55.409,18.459,55.409,19.548z"/>
				</g>
				<g>
					<ellipse style="fill:#A8A3E5;" cx="58.36" cy="12.411" rx="0.984" ry="0.001"/>
				</g>
				<g>
					<circle style="fill:#A8A3E5;" cx="51.004" cy="18.985" r="1.405"/>
				</g>
				<g>
					<circle style="fill:#A8A3E5;" cx="50.301" cy="24.467" r="0.703"/>
				</g>
				<g>
					<circle style="fill:#A8A3E5;" cx="55.456" cy="12.064" r="1.921"/>
				</g>
				<g>
					<ellipse style="fill:#A8A3E5;" cx="61.218" cy="12.064" rx="0.374" ry="0"/>
				</g>
				<g>
					<circle style="fill:#A8A3E5;" cx="59.98" cy="7.01" r="0.864"/>
				</g>
				<g>
					<circle style="fill:#A8A3E5;" cx="56.416" cy="31.59" r="0.96"/>
				</g>
				<g>
					<circle style="fill:#A8A3E5;" cx="56.401" cy="42.333" r="0.975"/>
				</g>
				<g>
					<circle style="fill:#A8A3E5;" cx="48.568" cy="37.295" r="1.031"/>
				</g>
				<g>
					<circle style="fill:#A8A3E5;" cx="43.695" cy="33.58" r="1.031"/>
				</g>
				<g>
					<ellipse style="fill:#A8A3E5;" cx="44.727" cy="45.369" rx="0" ry="0.697"/>
				</g>
				<g>
					<circle style="fill:#A8A3E5;" cx="49.084" cy="48.081" r="0.515"/>
				</g>
				<g>
					<circle style="fill:#A8A3E5;" cx="42.946" cy="43.137" r="1.78"/>
				</g>
				<g>
					<circle style="fill:#A8A3E5;" cx="57.955" cy="56.709" r="1.162"/>
				</g>
				<g>
					<circle style="fill:#A8A3E5;" cx="56.569" cy="63.983" r="1.386"/>
				</g>
				<g>
					<circle style="fill:#A8A3E5;" cx="51.707" cy="57.793" r="0.703"/>
				</g>
				<g>
					<circle style="fill:#A8A3E5;" cx="45.757" cy="53.489" r="1.031"/>
				</g>
			</g>
		</g>
	</g>
	<g>
		<g>
			<g>
				<circle style="fill:#EEDCF4;" cx="63.701" cy="104.681" r="21.22"/>
			</g>
			<g>
				<path style="fill:#A8A3E5;" d="M42.481,104.681c0-11.719,9.5-21.22,21.22-21.22c11.72,0,21.221,9.501,21.221,21.22"/>
			</g>
			<g>
				<path style="fill:#33363A;" d="M63.701,127.402c-12.528-0.001-22.72-10.194-22.72-22.722s10.192-22.72,22.72-22.72
					c12.528,0,22.721,10.192,22.721,22.72S76.229,127.401,63.701,127.402z M63.701,84.961c-10.874,0-19.72,8.847-19.72,19.72
					c0,10.874,8.847,19.721,19.72,19.722c10.874-0.001,19.721-8.848,19.721-19.722C83.422,93.808,74.575,84.961,63.701,84.961z"/>
			</g>
			<g>
				<g>
					<polyline style="fill:#A8A3E5;" points="57.964,85.33 63.701,73.475 69.438,85.33 					"/>
				</g>
				<g>
					<path style="fill:#33363A;" d="M69.439,86.83c-0.557,0-1.092-0.312-1.351-0.847l-4.387-9.065l-4.387,9.065
						c-0.36,0.746-1.257,1.059-2.003,0.697c-0.746-0.361-1.058-1.258-0.697-2.004l5.737-11.855c0.25-0.518,0.775-0.847,1.35-0.847
						s1.1,0.329,1.35,0.847l5.737,11.855c0.361,0.746,0.049,1.643-0.697,2.004C69.881,86.782,69.659,86.83,69.439,86.83z"/>
				</g>
			</g>
		</g>
		<g>
			<g>
				<g>
					<path style="fill:#33363A;" d="M74.164,111.915h-7.865c-0.829,0-1.5-0.672-1.5-1.5V98.948c0-0.828,0.671-1.5,1.5-1.5h7.865
						c0.829,0,1.5,0.672,1.5,1.5v11.467C75.664,111.243,74.992,111.915,74.164,111.915z M67.799,108.915h4.865v-8.467h-4.865
						V108.915z"/>
				</g>
			</g>
			<g>
				<g>
					<g>
						<path style="fill:#33363A;" d="M61.104,111.915h-7.865c-0.829,0-1.5-0.672-1.5-1.5s0.671-1.5,1.5-1.5h6.365v-8.467h-6.365
							c-0.829,0-1.5-0.672-1.5-1.5s0.671-1.5,1.5-1.5h7.865c0.829,0,1.5,0.672,1.5,1.5v11.467
							C62.604,111.243,61.933,111.915,61.104,111.915z"/>
					</g>
				</g>
				<g>
					<path style="fill:#33363A;" d="M61.104,106.182h-7.865c-0.829,0-1.5-0.672-1.5-1.5s0.671-1.5,1.5-1.5h7.865
						c0.829,0,1.5,0.672,1.5,1.5S61.933,106.182,61.104,106.182z"/>
				</g>
			</g>
		</g>
	</g>
</g>
<g>
</g>
<g>
</g>
<g>
</g>
<g>
</g>
<g>
</g>
<g>
</g>
<g>
</g>
<g>
</g>
<g>
</g>
<g>
</g>
<g>
</g>
<g>
</g>
<g>
</g>
<g>
</g>
<g>
</g>
</svg>
