<?xml version="1.0" encoding="iso-8859-1"?>
<!-- Generator: Adobe Illustrator 19.0.0, SVG Export Plug-In . SVG Version: 6.00 Build 0)  -->
<svg version="1.1" id="Layer_1" xmlns="http://www.w3.org/2000/svg" xmlns:xlink="http://www.w3.org/1999/xlink" x="0px" y="0px"
	 viewBox="0 0 127.752 127.752" style="enable-background:new 0 0 127.752 127.752;" xml:space="preserve">
<g>
	<g>
		<g>
			<g>
				<path style="fill:#FC70B0;" d="M122.352,65.614c0,2.584-2.096,4.68-4.679,4.68H88.435c-2.584,0-4.679-2.096-4.679-4.68v-2.033
					c0-2.584,2.095-4.679,4.679-4.679h29.238c2.583,0,4.679,2.095,4.679,4.679V65.614z"/>
			</g>
			<g>
				<path style="fill:#FFA9D4;" d="M88.435,58.903c-1.934,0-3.593,1.175-4.306,2.849c0.713,1.673,2.372,2.846,4.306,2.846h29.238
					c1.934,0,3.593-1.173,4.305-2.846c-0.712-1.674-2.371-2.849-4.305-2.849H88.435z"/>
			</g>
			<g>
				<path style="fill:#33363A;" d="M117.673,71.794H88.435c-3.407,0-6.179-2.772-6.179-6.18v-2.033c0-3.407,2.771-6.179,6.179-6.179
					h29.238c3.407,0,6.179,2.772,6.179,6.179v2.033C123.852,69.022,121.08,71.794,117.673,71.794z M88.435,60.403
					c-1.753,0-3.179,1.426-3.179,3.179v2.033c0,1.753,1.426,3.18,3.179,3.18h29.238c1.753,0,3.179-1.426,3.179-3.18v-2.033
					c0-1.753-1.426-3.179-3.179-3.179H88.435z"/>
			</g>
		</g>
		<g>
			<g>
				<path style="fill:#FC70B0;" d="M116.504,77.003c0,2.582-2.096,4.678-4.679,4.678H82.587c-2.584,0-4.679-2.096-4.679-4.678
					v-2.032c0-2.585,2.095-4.677,4.679-4.677h29.238c2.583,0,4.679,2.092,4.679,4.677V77.003z"/>
			</g>
			<g>
				<path style="fill:#FFA9D4;" d="M82.587,70.294c-1.934,0-3.593,1.172-4.306,2.845c0.713,1.673,2.372,2.849,4.306,2.849h29.238
					c1.934,0,3.593-1.176,4.305-2.849c-0.712-1.673-2.371-2.845-4.305-2.845H82.587z"/>
			</g>
			<g>
				<path style="fill:#33363A;" d="M111.825,83.181H82.587c-3.407,0-6.179-2.771-6.179-6.178v-2.032
					c0-3.406,2.771-6.177,6.179-6.177h29.238c3.407,0,6.179,2.771,6.179,6.177v2.032C118.004,80.409,115.232,83.181,111.825,83.181z
					 M82.587,71.794c-1.753,0-3.179,1.425-3.179,3.177v2.032c0,1.752,1.426,3.178,3.179,3.178h29.238
					c1.753,0,3.179-1.425,3.179-3.178v-2.032c0-1.751-1.426-3.177-3.179-3.177H82.587z"/>
			</g>
		</g>
		<g>
			<g>
				<path style="fill:#FC70B0;" d="M110.656,88.394c0,2.582-2.096,4.676-4.679,4.676H76.739c-2.584,0-4.679-2.094-4.679-4.676V86.36
					c0-2.583,2.095-4.679,4.679-4.679h29.238c2.583,0,4.679,2.096,4.679,4.679V88.394z"/>
			</g>
			<g>
				<path style="fill:#FFA9D4;" d="M76.739,81.681c-1.934,0-3.593,1.174-4.306,2.849c0.713,1.673,2.372,2.847,4.306,2.847h29.238
					c1.934,0,3.593-1.174,4.305-2.847c-0.712-1.675-2.371-2.849-4.305-2.849H76.739z"/>
			</g>
			<g>
				<path style="fill:#33363A;" d="M105.978,94.57H76.739c-3.407,0-6.179-2.771-6.179-6.176V86.36c0-3.407,2.771-6.179,6.179-6.179
					h29.238c3.407,0,6.179,2.772,6.179,6.179v2.034C112.156,91.799,109.385,94.57,105.978,94.57z M76.739,83.181
					c-1.753,0-3.179,1.426-3.179,3.179v2.034c0,1.751,1.426,3.176,3.179,3.176h29.238c1.753,0,3.179-1.425,3.179-3.176V86.36
					c0-1.753-1.426-3.179-3.179-3.179H76.739z"/>
			</g>
		</g>
	</g>
	<g>
		<path style="fill:#FC70B0;" d="M125.783,38.152c-0.906-2.105-2.978-3.469-5.27-3.469H7.235c-3.168,0-5.735,2.568-5.735,5.736
			v46.916c0,3.166,2.567,5.734,5.735,5.734h68.912c1.576,0,3.083-0.648,4.167-1.795l44.367-46.916
			C126.256,42.696,126.688,40.253,125.783,38.152z"/>
	</g>
	<g>
		<path style="fill:#E2378D;" d="M7.235,93.07h68.912c1.576,0,3.083-0.648,4.167-1.795l43.252-45.736
			c-0.896-0.564-1.947-0.887-3.053-0.887H7.235c-3.168,0-5.735,2.566-5.735,5.735v36.948C1.5,90.501,4.067,93.07,7.235,93.07z"/>
	</g>
	<g>
		<path style="fill:#33363A;" d="M76.147,94.57H7.235C3.246,94.57,0,91.324,0,87.335V40.419c0-3.99,3.246-7.236,7.235-7.236h113.278
			c2.894,0,5.503,1.717,6.647,4.375l0,0c1.145,2.657,0.599,5.731-1.391,7.832L81.404,92.305
			C80.044,93.744,78.128,94.57,76.147,94.57z M7.235,36.183C4.9,36.183,3,38.083,3,40.419v46.916c0,2.335,1.9,4.234,4.235,4.234
			h68.912c1.159,0,2.28-0.483,3.077-1.326l44.367-46.916c1.164-1.229,1.483-3.028,0.813-4.583l0,0
			c-0.67-1.557-2.197-2.562-3.892-2.562H7.235z"/>
	</g>
	<g>
		<path style="fill:#7815CE;" d="M95.584,48.03c-0.559-1.299-1.834-2.14-3.245-2.14H22.547c-1.951,0-3.534,1.584-3.534,3.535v28.906
			c0,1.95,1.583,3.53,3.534,3.53h42.457c0.971,0,1.9-0.398,2.566-1.104l27.336-28.905C95.875,50.829,96.143,49.323,95.584,48.03z"/>
	</g>
	<g>
		<path style="fill:#A02FF2;" d="M22.547,81.862h42.457c0.971,0,1.9-0.398,2.566-1.104l26.649-28.179
			c-0.552-0.348-1.199-0.546-1.88-0.546H22.547c-1.951,0-3.534,1.581-3.534,3.532v22.767C19.013,80.282,20.596,81.862,22.547,81.862
			z"/>
	</g>
	<g>
		<path style="fill:#33363A;" d="M65.004,83.362H22.547c-2.775,0-5.034-2.256-5.034-5.03V49.426c0-2.776,2.259-5.035,5.034-5.035
			h69.792c2.013,0,3.827,1.196,4.623,3.047c0.797,1.847,0.418,3.984-0.966,5.446L68.66,81.789
			C67.717,82.788,66.384,83.362,65.004,83.362z M22.547,47.391c-1.122,0-2.034,0.913-2.034,2.035v28.906
			c0,1.12,0.912,2.03,2.034,2.03h42.457c0.558,0,1.096-0.231,1.476-0.634l27.337-28.907c0.559-0.59,0.712-1.453,0.391-2.197
			c0,0-0.001-0.001-0.001-0.002c-0.322-0.749-1.055-1.232-1.867-1.232H22.547z"/>
	</g>
	<g>
		<path style="fill:#7815CE;" d="M44.577,69.648c0,2.085-1.692,3.777-3.778,3.777h-8.816c-2.087,0-3.779-1.692-3.779-3.777V60.83
			c0-2.087,1.692-3.777,3.779-3.777h8.816c2.086,0,3.778,1.69,3.778,3.777V69.648z"/>
	</g>
	<path style="fill:#33363A;" d="M78.006,58.765H59.385c-0.397,0-0.779,0.158-1.061,0.439l-7.172,7.168h-5.075V61.55h4.228
		c0.397,0,0.779-0.158,1.061-0.439l5.871-5.873h14.824c0.828,0,1.5-0.671,1.5-1.5s-0.672-1.5-1.5-1.5H56.615
		c-0.397,0-0.779,0.158-1.061,0.439l-5.871,5.873h-4.146c-0.854-1.766-2.649-2.997-4.739-2.997h-8.816
		c-2.911,0-5.279,2.367-5.279,5.277v8.817c0,2.91,2.368,5.277,5.279,5.277h8.816c2.91,0,5.278-2.367,5.278-5.277v-0.275h5.696
		c0.397,0,0.779-0.158,1.061-0.439l7.172-7.168h18c0.828,0,1.5-0.671,1.5-1.5S78.834,58.765,78.006,58.765z M43.077,69.648
		c0,1.256-1.022,2.277-2.278,2.277h-8.816c-1.257,0-2.279-1.021-2.279-2.277V60.83c0-1.256,1.022-2.277,2.279-2.277h8.816
		c1.256,0,2.278,1.021,2.278,2.277V69.648z"/>
	<g>
		<path style="fill:#33363A;" d="M68.65,68.446h-5.459c-0.828,0-1.5-0.671-1.5-1.5s0.672-1.5,1.5-1.5h5.459
			c0.828,0,1.5,0.671,1.5,1.5S69.479,68.446,68.65,68.446z"/>
	</g>
	<g>
		<path style="fill:#33363A;" d="M64.166,73.804h-5.457c-0.828,0-1.5-0.671-1.5-1.5s0.672-1.5,1.5-1.5h5.457
			c0.828,0,1.5,0.671,1.5,1.5S64.994,73.804,64.166,73.804z"/>
	</g>
</g>
<g>
</g>
<g>
</g>
<g>
</g>
<g>
</g>
<g>
</g>
<g>
</g>
<g>
</g>
<g>
</g>
<g>
</g>
<g>
</g>
<g>
</g>
<g>
</g>
<g>
</g>
<g>
</g>
<g>
</g>
</svg>
