<?xml version="1.0" encoding="iso-8859-1"?>
<!-- Generator: Adobe Illustrator 19.0.0, SVG Export Plug-In . SVG Version: 6.00 Build 0)  -->
<svg version="1.1" id="Layer_1" xmlns="http://www.w3.org/2000/svg" xmlns:xlink="http://www.w3.org/1999/xlink" x="0px" y="0px"
	 viewBox="0 0 127.156 127.156" style="enable-background:new 0 0 127.156 127.156;" xml:space="preserve">
<g>
	<g>
		<g>
			<g>
				<path style="fill:#FC70B0;" d="M105.019,106.199c0,1.83-1.484,3.316-3.315,3.316H80.982c-1.831,0-3.316-1.486-3.316-3.316
					v-1.441c0-1.83,1.484-3.315,3.316-3.315h20.721c1.831,0,3.315,1.484,3.315,3.315V106.199z"/>
			</g>
			<g>
				<path style="fill:#FFA9D4;" d="M80.982,101.443c-1.37,0-2.546,0.83-3.051,2.018c0.505,1.186,1.681,2.018,3.051,2.018h20.721
					c1.37,0,2.546-0.832,3.051-2.018c-0.505-1.188-1.681-2.018-3.051-2.018H80.982z"/>
			</g>
			<g>
				<path style="fill:#33363A;" d="M101.703,111.016H80.982c-2.655,0-4.815-2.161-4.815-4.816v-1.441
					c0-2.655,2.16-4.814,4.815-4.814h20.721c2.655,0,4.815,2.16,4.815,4.814v1.441C106.519,108.855,104.358,111.016,101.703,111.016
					z M80.982,102.943c-1.001,0-1.815,0.814-1.815,1.814v1.441c0,1.001,0.814,1.816,1.815,1.816h20.721
					c1.001,0,1.815-0.815,1.815-1.816v-1.441c0-1-0.814-1.814-1.815-1.814H80.982z"/>
			</g>
		</g>
		<g>
			<g>
				<path style="fill:#FC70B0;" d="M100.875,114.27c0,1.832-1.485,3.316-3.316,3.316H76.839c-1.832,0-3.316-1.484-3.316-3.316
					v-1.439c0-1.832,1.484-3.314,3.316-3.314H97.56c1.83,0,3.316,1.482,3.316,3.314V114.27z"/>
			</g>
			<g>
				<path style="fill:#FFA9D4;" d="M76.839,109.516c-1.371,0-2.547,0.83-3.053,2.016c0.506,1.186,1.682,2.018,3.053,2.018H97.56
					c1.371,0,2.546-0.832,3.051-2.018c-0.505-1.186-1.68-2.016-3.051-2.016H76.839z"/>
			</g>
			<g>
				<path style="fill:#33363A;" d="M97.56,119.086H76.839c-2.656,0-4.816-2.161-4.816-4.816v-1.439c0-2.655,2.16-4.814,4.816-4.814
					H97.56c2.655,0,4.815,2.16,4.815,4.814v1.439C102.375,116.925,100.215,119.086,97.56,119.086z M76.839,111.016
					c-1.002,0-1.816,0.814-1.816,1.814v1.439c0,1.001,0.814,1.816,1.816,1.816H97.56c1.001,0,1.815-0.815,1.815-1.816v-1.439
					c0-1-0.814-1.814-1.815-1.814H76.839z"/>
			</g>
		</g>
		<g>
			<g>
				<path style="fill:#FC70B0;" d="M96.729,122.342c0,1.83-1.484,3.314-3.314,3.314H72.693c-1.831,0-3.315-1.484-3.315-3.314V120.9
					c0-1.83,1.484-3.315,3.315-3.315h20.722c1.83,0,3.314,1.484,3.314,3.315V122.342z"/>
			</g>
			<g>
				<path style="fill:#FFA9D4;" d="M72.693,117.586c-1.37,0-2.546,0.831-3.05,2.018c0.504,1.188,1.68,2.018,3.05,2.018h20.722
					c1.37,0,2.547-0.83,3.051-2.018c-0.504-1.187-1.681-2.018-3.051-2.018H72.693z"/>
			</g>
			<g>
				<path style="fill:#33363A;" d="M93.415,127.156H72.693c-2.655,0-4.815-2.16-4.815-4.814V120.9c0-2.655,2.16-4.814,4.815-4.814
					h20.722c2.654,0,4.814,2.16,4.814,4.814v1.441C98.23,124.997,96.069,127.156,93.415,127.156z M72.693,119.086
					c-1.001,0-1.815,0.814-1.815,1.814v1.441c0,1,0.814,1.814,1.815,1.814h20.722c1.001,0,1.814-0.814,1.814-1.814V120.9
					c0-1-0.813-1.814-1.814-1.814H72.693z"/>
			</g>
		</g>
	</g>
	<g>
		<g>
			<path style="fill:#FC70B0;" d="M107.451,86.734c-0.643-1.49-2.11-2.457-3.734-2.457h-80.28c-2.245,0-4.065,1.82-4.065,4.064
				v33.25c0,2.244,1.819,4.064,4.065,4.064h48.838c1.117,0,2.186-0.46,2.953-1.273l31.443-33.248
				C107.786,89.957,108.093,88.226,107.451,86.734z"/>
		</g>
		<g>
			<path style="fill:#E2378D;" d="M23.437,125.656h48.838c1.117,0,2.186-0.46,2.953-1.273l30.652-32.411
				c-0.636-0.401-1.38-0.629-2.163-0.629h-80.28c-2.245,0-4.065,1.818-4.065,4.063v26.186
				C19.372,123.836,21.191,125.656,23.437,125.656z"/>
		</g>
		<g>
			<path style="fill:#33363A;" d="M72.274,127.156H23.437c-3.068,0-5.564-2.496-5.564-5.564v-33.25c0-3.068,2.496-5.564,5.564-5.564
				h80.28c2.225,0,4.23,1.32,5.111,3.363c0.001,0,0.001,0,0.001,0.001c0.88,2.045,0.46,4.41-1.069,6.024l-31.442,33.248
				C75.272,126.521,73.799,127.156,72.274,127.156z M23.437,85.777c-1.414,0-2.564,1.15-2.564,2.564v33.25
				c0,1.414,1.15,2.564,2.564,2.564h48.838c0.702,0,1.381-0.292,1.862-0.803l31.444-33.25c0.705-0.744,0.897-1.833,0.493-2.776l0,0
				c-0.406-0.942-1.332-1.551-2.357-1.551H23.437z"/>
		</g>
	</g>
	<g>
		<g>
			<path style="fill:#7815CE;" d="M86.05,93.736c-0.396-0.921-1.3-1.516-2.301-1.516H34.288c-1.383,0-2.505,1.124-2.505,2.506
				v20.484c0,1.382,1.122,2.503,2.505,2.503h30.088c0.689,0,1.348-0.283,1.819-0.784l19.372-20.483
				C86.256,95.72,86.444,94.653,86.05,93.736z"/>
		</g>
		<g>
			<path style="fill:#A02FF2;" d="M34.288,117.714h30.088c0.689,0,1.348-0.283,1.819-0.784l18.886-19.969
				c-0.391-0.246-0.851-0.389-1.332-0.389H34.288c-1.383,0-2.505,1.121-2.505,2.506v16.133
				C31.783,116.593,32.905,117.714,34.288,117.714z"/>
		</g>
		<g>
			<path style="fill:#33363A;" d="M64.376,119.214H34.288c-2.208,0-4.005-1.796-4.005-4.003V94.727c0-2.209,1.797-4.006,4.005-4.006
				h49.461c1.601,0,3.045,0.951,3.679,2.422v0c0.633,1.471,0.33,3.172-0.771,4.334L67.285,117.96
				C66.536,118.756,65.475,119.214,64.376,119.214z M34.288,93.721c-0.554,0-1.005,0.451-1.005,1.006v20.484
				c0,0.553,0.451,1.003,1.005,1.003h30.088c0.275,0,0.54-0.114,0.728-0.313l19.374-20.486c0.276-0.292,0.353-0.718,0.194-1.086l0,0
				c-0.159-0.37-0.521-0.609-0.923-0.609H34.288z"/>
		</g>
	</g>
	<g>
		<path style="fill:#7815CE;" d="M49.9,109.057c0,1.479-1.199,2.678-2.677,2.678h-6.25c-1.478,0-2.677-1.199-2.677-2.678v-6.248
			c0-1.479,1.199-2.679,2.677-2.679h6.25c1.477,0,2.677,1.199,2.677,2.679V109.057z"/>
	</g>
	<g>
		<path style="fill:none;stroke:#33363A;stroke-width:3;stroke-linecap:round;stroke-linejoin:round;stroke-miterlimit:10;" d="
			M49.9,102.256"/>
	</g>
	<path style="fill:#33363A;" d="M69.378,96.283H58.433c-0.828,0-1.5,0.671-1.5,1.5s0.672,1.5,1.5,1.5h2.965l-7.017,7.015H51.4
		v-3.489c0-2.304-1.874-4.179-4.177-4.179h-6.25c-2.303,0-4.177,1.875-4.177,4.179v6.248c0,2.304,1.874,4.178,4.177,4.178h6.25
		c2.22,0,4.025-1.747,4.152-3.937h3.625c0.397,0,0.779-0.158,1.061-0.439l9.426-9.422c0.045-0.045,0.064-0.104,0.102-0.154h3.788
		c0.828,0,1.5-0.671,1.5-1.5S70.206,96.283,69.378,96.283z M48.4,109.057c0,0.649-0.528,1.178-1.177,1.178h-6.25
		c-0.648,0-1.177-0.528-1.177-1.178v-6.248c0-0.65,0.528-1.179,1.177-1.179h6.25c0.648,0,1.177,0.529,1.177,1.179V109.057z"/>
	<g>
		<path style="fill:none;stroke:#33363A;stroke-width:3;stroke-linecap:round;stroke-linejoin:round;stroke-miterlimit:10;" d="
			M73.592,102.407"/>
	</g>
	<g>
		<path style="fill:#33363A;" d="M66.962,108.643h-3.869c-0.828,0-1.5-0.671-1.5-1.5s0.672-1.5,1.5-1.5h3.869
			c0.828,0,1.5,0.671,1.5,1.5S67.79,108.643,66.962,108.643z"/>
	</g>
	<g>
		<g>
			<g>
				<path style="fill:#FC70B0;" d="M105.019,64.81c0,1.832-1.484,3.317-3.315,3.317H80.982c-1.831,0-3.316-1.485-3.316-3.317v-1.44
					c0-1.83,1.484-3.316,3.316-3.316h20.721c1.831,0,3.315,1.486,3.315,3.316V64.81z"/>
			</g>
			<g>
				<path style="fill:#FFA9D4;" d="M80.982,60.053c-1.37,0-2.546,0.832-3.051,2.019c0.505,1.187,1.681,2.019,3.051,2.019h20.721
					c1.37,0,2.546-0.832,3.051-2.019c-0.505-1.187-1.681-2.019-3.051-2.019H80.982z"/>
			</g>
			<g>
				<path style="fill:#33363A;" d="M101.703,69.627H80.982c-2.655,0-4.815-2.161-4.815-4.817v-1.44c0-2.656,2.16-4.816,4.815-4.816
					h20.721c2.655,0,4.815,2.161,4.815,4.816v1.44C106.519,67.466,104.358,69.627,101.703,69.627z M80.982,61.553
					c-1.001,0-1.815,0.815-1.815,1.816v1.44c0,1.002,0.814,1.817,1.815,1.817h20.721c1.001,0,1.815-0.815,1.815-1.817v-1.44
					c0-1.001-0.814-1.816-1.815-1.816H80.982z"/>
			</g>
		</g>
		<g>
			<g>
				<path style="fill:#FC70B0;" d="M100.875,72.881c0,1.83-1.485,3.315-3.316,3.315H76.839c-1.832,0-3.316-1.484-3.316-3.315v-1.439
					c0-1.832,1.484-3.314,3.316-3.314H97.56c1.83,0,3.316,1.483,3.316,3.314V72.881z"/>
			</g>
			<g>
				<path style="fill:#FFA9D4;" d="M76.839,68.127c-1.371,0-2.547,0.83-3.053,2.016c0.506,1.186,1.682,2.018,3.053,2.018H97.56
					c1.371,0,2.546-0.832,3.051-2.018c-0.505-1.186-1.68-2.016-3.051-2.016H76.839z"/>
			</g>
			<g>
				<path style="fill:#33363A;" d="M97.56,77.695H76.839c-2.656,0-4.816-2.16-4.816-4.814v-1.439c0-2.655,2.16-4.814,4.816-4.814
					H97.56c2.655,0,4.815,2.16,4.815,4.814v1.439C102.375,75.536,100.215,77.695,97.56,77.695z M76.839,69.627
					c-1.002,0-1.816,0.814-1.816,1.814v1.439c0,1,0.814,1.814,1.816,1.814H97.56c1.001,0,1.815-0.814,1.815-1.814v-1.439
					c0-1-0.814-1.814-1.815-1.814H76.839z"/>
			</g>
		</g>
		<g>
			<g>
				<path style="fill:#FC70B0;" d="M96.729,80.953c0,1.83-1.484,3.314-3.314,3.314H72.693c-1.831,0-3.315-1.484-3.315-3.314v-1.44
					c0-1.831,1.484-3.317,3.315-3.317h20.722c1.83,0,3.314,1.486,3.314,3.317V80.953z"/>
			</g>
			<g>
				<path style="fill:#FFA9D4;" d="M72.693,76.195c-1.37,0-2.546,0.832-3.05,2.02c0.504,1.186,1.68,2.018,3.05,2.018h20.722
					c1.37,0,2.547-0.832,3.051-2.018c-0.504-1.188-1.681-2.02-3.051-2.02H72.693z"/>
			</g>
			<g>
				<path style="fill:#33363A;" d="M93.415,85.768H72.693c-2.655,0-4.815-2.16-4.815-4.814v-1.44c0-2.656,2.16-4.817,4.815-4.817
					h20.722c2.654,0,4.814,2.161,4.814,4.817v1.44C98.23,83.608,96.069,85.768,93.415,85.768z M72.693,77.695
					c-1.001,0-1.815,0.815-1.815,1.817v1.44c0,1,0.814,1.814,1.815,1.814h20.722c1.001,0,1.814-0.814,1.814-1.814v-1.44
					c0-1.002-0.813-1.817-1.814-1.817H72.693z"/>
			</g>
		</g>
	</g>
	<g>
		<g>
			<path style="fill:#FC70B0;" d="M107.451,45.346c-0.643-1.492-2.11-2.457-3.734-2.457h-80.28c-2.245,0-4.065,1.82-4.065,4.064
				v33.25c0,2.244,1.819,4.064,4.065,4.064h48.838c1.117,0,2.186-0.459,2.953-1.272l31.443-33.251
				C107.786,48.568,108.093,46.837,107.451,45.346z"/>
		</g>
		<g>
			<path style="fill:#E2378D;" d="M23.437,84.268h48.838c1.117,0,2.186-0.459,2.953-1.272l30.652-32.413
				c-0.636-0.398-1.38-0.628-2.163-0.628h-80.28c-2.245,0-4.065,1.819-4.065,4.063v26.186
				C19.372,82.447,21.191,84.268,23.437,84.268z"/>
		</g>
		<g>
			<path style="fill:#33363A;" d="M72.274,85.768H23.437c-3.068,0-5.564-2.496-5.564-5.564v-33.25c0-3.068,2.496-5.564,5.564-5.564
				h80.28c2.226,0,4.232,1.32,5.112,3.364v0c0.88,2.046,0.46,4.41-1.07,6.023l-31.441,33.25
				C75.273,85.132,73.799,85.768,72.274,85.768z M23.437,44.389c-1.414,0-2.564,1.15-2.564,2.564v33.25
				c0,1.414,1.15,2.564,2.564,2.564h48.838c0.702,0,1.381-0.292,1.862-0.802l31.444-33.252c0.705-0.743,0.897-1.832,0.492-2.774l0,0
				c-0.405-0.942-1.33-1.55-2.356-1.55H23.437z"/>
		</g>
	</g>
	<g>
		<g>
			<path style="fill:#7815CE;" d="M86.05,52.348c-0.396-0.921-1.3-1.516-2.301-1.516H34.288c-1.383,0-2.505,1.123-2.505,2.506
				v20.484c0,1.383,1.122,2.502,2.505,2.502h30.088c0.689,0,1.348-0.281,1.819-0.783l19.372-20.484
				C86.256,54.33,86.444,53.263,86.05,52.348z"/>
		</g>
		<g>
			<path style="fill:#A02FF2;" d="M34.288,76.324h30.088c0.689,0,1.348-0.281,1.819-0.783l18.886-19.97
				c-0.391-0.245-0.851-0.386-1.332-0.386H34.288c-1.383,0-2.505,1.119-2.505,2.502v16.135
				C31.783,75.205,32.905,76.324,34.288,76.324z"/>
		</g>
		<g>
			<path style="fill:#33363A;" d="M64.376,77.824H34.288c-2.208,0-4.005-1.795-4.005-4.002V53.338c0-2.209,1.797-4.006,4.005-4.006
				h49.461c1.601,0,3.045,0.951,3.678,2.422l0,0c0.001,0,0.001,0,0.001,0l0,0c0.633,1.47,0.33,3.171-0.771,4.334L67.285,76.572
				C66.538,77.366,65.477,77.824,64.376,77.824z M34.288,52.332c-0.554,0-1.005,0.451-1.005,1.006v20.484
				c0,0.552,0.451,1.002,1.005,1.002h30.088c0.276,0,0.541-0.113,0.727-0.311l19.375-20.488c0.277-0.292,0.354-0.717,0.195-1.084
				c-0.001,0-0.001,0-0.001,0c-0.159-0.37-0.521-0.609-0.923-0.609H34.288z"/>
		</g>
	</g>
	<g>
		<path style="fill:#7815CE;" d="M49.9,67.668c0,1.477-1.199,2.678-2.677,2.678h-6.25c-1.478,0-2.677-1.201-2.677-2.678V61.42
			c0-1.479,1.199-2.678,2.677-2.678h6.25c1.477,0,2.677,1.199,2.677,2.678V67.668z"/>
	</g>
	<g>
		<path style="fill:none;stroke:#33363A;stroke-width:3;stroke-linecap:round;stroke-linejoin:round;stroke-miterlimit:10;" d="
			M49.9,60.865"/>
	</g>
	<path style="fill:#33363A;" d="M69.378,54.892H58.433c-0.828,0-1.5,0.671-1.5,1.5s0.672,1.5,1.5,1.5h2.967l-7.019,7.017H51.4V61.42
		c0-2.304-1.874-4.178-4.177-4.178h-6.25c-2.303,0-4.177,1.874-4.177,4.178v6.248c0,2.304,1.874,4.178,4.177,4.178h6.25
		c2.22,0,4.025-1.747,4.152-3.938h3.625c0.397,0,0.779-0.158,1.061-0.439l9.426-9.422c0.046-0.046,0.065-0.106,0.104-0.156h3.787
		c0.828,0,1.5-0.671,1.5-1.5S70.206,54.892,69.378,54.892z M48.4,67.668c0,0.649-0.528,1.178-1.177,1.178h-6.25
		c-0.648,0-1.177-0.528-1.177-1.178V61.42c0-0.649,0.528-1.178,1.177-1.178h6.25c0.648,0,1.177,0.528,1.177,1.178V67.668z"/>
	<g>
		<path style="fill:none;stroke:#33363A;stroke-width:3;stroke-linecap:round;stroke-linejoin:round;stroke-miterlimit:10;" d="
			M73.592,61.02"/>
	</g>
	<g>
		<path style="fill:#33363A;" d="M66.962,67.254h-3.869c-0.828,0-1.5-0.671-1.5-1.5s0.672-1.5,1.5-1.5h3.869
			c0.828,0,1.5,0.671,1.5,1.5S67.79,67.254,66.962,67.254z"/>
	</g>
	<g>
		<g>
			<g>
				<path style="fill:#FC70B0;" d="M105.019,23.42c0,1.832-1.484,3.316-3.315,3.316H80.982c-1.831,0-3.316-1.484-3.316-3.316v-1.44
					c0-1.831,1.484-3.317,3.316-3.317h20.721c1.831,0,3.315,1.486,3.315,3.317V23.42z"/>
			</g>
			<g>
				<path style="fill:#FFA9D4;" d="M80.982,18.663c-1.37,0-2.546,0.833-3.051,2.02c0.505,1.187,1.681,2.017,3.051,2.017h20.721
					c1.37,0,2.546-0.83,3.051-2.017c-0.505-1.187-1.681-2.02-3.051-2.02H80.982z"/>
			</g>
			<g>
				<path style="fill:#33363A;" d="M101.703,28.236H80.982c-2.655,0-4.815-2.161-4.815-4.816V21.98c0-2.656,2.16-4.817,4.815-4.817
					h20.721c2.655,0,4.815,2.161,4.815,4.817v1.439C106.519,26.076,104.358,28.236,101.703,28.236z M80.982,20.163
					c-1.001,0-1.815,0.815-1.815,1.817v1.439c0,1.001,0.814,1.816,1.815,1.816h20.721c1.001,0,1.815-0.815,1.815-1.816V21.98
					c0-1.002-0.814-1.817-1.815-1.817H80.982z"/>
			</g>
		</g>
		<g>
			<g>
				<path style="fill:#FC70B0;" d="M100.875,31.491c0,1.83-1.485,3.317-3.316,3.317H76.839c-1.832,0-3.316-1.487-3.316-3.317v-1.438
					c0-1.832,1.484-3.316,3.316-3.316H97.56c1.83,0,3.316,1.484,3.316,3.316V31.491z"/>
			</g>
			<g>
				<path style="fill:#FFA9D4;" d="M76.839,26.736c-1.371,0-2.547,0.832-3.053,2.017c0.506,1.186,1.682,2.019,3.053,2.019H97.56
					c1.371,0,2.546-0.834,3.051-2.019c-0.505-1.185-1.68-2.017-3.051-2.017H76.839z"/>
			</g>
			<g>
				<path style="fill:#33363A;" d="M97.56,36.309H76.839c-2.656,0-4.816-2.161-4.816-4.817v-1.438c0-2.656,2.16-4.816,4.816-4.816
					H97.56c2.655,0,4.815,2.161,4.815,4.816v1.438C102.375,34.147,100.215,36.309,97.56,36.309z M76.839,28.236
					c-1.002,0-1.816,0.815-1.816,1.816v1.438c0,1.002,0.814,1.817,1.816,1.817H97.56c1.001,0,1.815-0.815,1.815-1.817v-1.438
					c0-1.001-0.814-1.816-1.815-1.816H76.839z"/>
			</g>
		</g>
		<g>
			<g>
				<path style="fill:#FC70B0;" d="M96.729,39.564c0,1.83-1.484,3.314-3.314,3.314H72.693c-1.831,0-3.315-1.484-3.315-3.314v-1.441
					c0-1.832,1.484-3.314,3.315-3.314h20.722c1.83,0,3.314,1.482,3.314,3.314V39.564z"/>
			</g>
			<g>
				<path style="fill:#FFA9D4;" d="M72.693,34.809c-1.37,0-2.546,0.83-3.05,2.018c0.504,1.186,1.68,2.018,3.05,2.018h20.722
					c1.37,0,2.547-0.832,3.051-2.018c-0.504-1.188-1.681-2.018-3.051-2.018H72.693z"/>
			</g>
			<g>
				<path style="fill:#33363A;" d="M93.415,44.379H72.693c-2.655,0-4.815-2.16-4.815-4.814v-1.441c0-2.655,2.16-4.814,4.815-4.814
					h20.722c2.654,0,4.814,2.16,4.814,4.814v1.441C98.23,42.219,96.069,44.379,93.415,44.379z M72.693,36.309
					c-1.001,0-1.815,0.814-1.815,1.814v1.441c0,1,0.814,1.814,1.815,1.814h20.722c1.001,0,1.814-0.814,1.814-1.814v-1.441
					c0-1-0.813-1.814-1.814-1.814H72.693z"/>
			</g>
		</g>
	</g>
	<g>
		<g>
			<path style="fill:#FC70B0;" d="M107.451,3.957c-0.643-1.492-2.11-2.457-3.734-2.457h-80.28c-2.245,0-4.065,1.82-4.065,4.064
				v33.249c0,2.245,1.819,4.065,4.065,4.065h48.838c1.117,0,2.186-0.461,2.953-1.273l31.443-33.25
				C107.786,7.18,108.093,5.447,107.451,3.957z"/>
		</g>
		<g>
			<path style="fill:#E2378D;" d="M23.437,42.879h48.838c1.117,0,2.186-0.461,2.953-1.273L105.88,9.193
				c-0.636-0.4-1.38-0.629-2.163-0.629h-80.28c-2.245,0-4.065,1.818-4.065,4.063v26.186C19.372,41.059,21.191,42.879,23.437,42.879z
				"/>
		</g>
		<g>
			<path style="fill:#33363A;" d="M72.274,44.379H23.437c-3.068,0-5.564-2.497-5.564-5.565V5.564C17.872,2.496,20.368,0,23.437,0
				h80.28c2.226,0,4.232,1.32,5.112,3.364l0,0c0.881,2.046,0.461,4.41-1.07,6.024L76.317,42.636
				C75.272,43.744,73.798,44.379,72.274,44.379z M23.437,3c-1.414,0-2.564,1.15-2.564,2.564v33.249c0,1.415,1.15,2.565,2.564,2.565
				h48.838c0.701,0,1.38-0.293,1.862-0.804l31.444-33.25c0.705-0.744,0.898-1.832,0.492-2.774l0,0
				c-0.405-0.942-1.33-1.55-2.356-1.55H23.437z"/>
		</g>
	</g>
	<g>
		<g>
			<path style="fill:#7815CE;" d="M86.05,10.959c-0.396-0.922-1.3-1.518-2.301-1.518H34.288c-1.383,0-2.505,1.123-2.505,2.506
				v20.486c0,1.381,1.122,2.5,2.505,2.5h30.088c0.689,0,1.348-0.281,1.819-0.781l19.372-20.484
				C86.256,12.943,86.444,11.875,86.05,10.959z"/>
		</g>
		<g>
			<path style="fill:#A02FF2;" d="M34.288,34.934h30.088c0.689,0,1.348-0.281,1.819-0.781l18.886-19.971
				c-0.391-0.246-0.851-0.387-1.332-0.387H34.288c-1.383,0-2.505,1.121-2.505,2.505v16.134
				C31.783,33.814,32.905,34.934,34.288,34.934z"/>
		</g>
		<g>
			<path style="fill:#33363A;" d="M64.376,36.434H34.288c-2.208,0-4.005-1.794-4.005-4V11.947c0-2.209,1.797-4.006,4.005-4.006
				h49.461c1.601,0,3.045,0.952,3.679,2.424l0,0v0c0.634,1.472,0.33,3.174-0.772,4.335l-19.37,20.482
				C66.536,35.977,65.475,36.434,64.376,36.434z M34.288,10.941c-0.554,0-1.005,0.451-1.005,1.006v20.486c0,0.551,0.451,1,1.005,1
				h30.088c0.276,0,0.542-0.113,0.729-0.311l19.373-20.486c0.277-0.292,0.354-0.717,0.194-1.085v0
				c-0.159-0.371-0.521-0.61-0.923-0.61H34.288z"/>
		</g>
	</g>
	<g>
		<path style="fill:#7815CE;" d="M49.9,26.278c0,1.478-1.199,2.679-2.677,2.679h-6.25c-1.478,0-2.677-1.201-2.677-2.679v-6.247
			c0-1.48,1.199-2.68,2.677-2.68h6.25c1.477,0,2.677,1.199,2.677,2.68V26.278z"/>
	</g>
	<g>
		<path style="fill:none;stroke:#33363A;stroke-width:3;stroke-linecap:round;stroke-linejoin:round;stroke-miterlimit:10;" d="
			M49.9,19.478"/>
	</g>
	<path style="fill:#33363A;" d="M69.378,13.504H58.433c-0.828,0-1.5,0.671-1.5,1.5s0.672,1.5,1.5,1.5h2.966L54.38,23.52H51.4v-3.488
		c0-2.305-1.874-4.18-4.177-4.18h-6.25c-2.303,0-4.177,1.875-4.177,4.18v6.247c0,2.304,1.874,4.179,4.177,4.179h6.25
		c2.22,0,4.025-1.747,4.152-3.938h3.625c0.397,0,0.779-0.158,1.061-0.439l9.426-9.422c0.046-0.046,0.064-0.105,0.103-0.155h3.788
		c0.828,0,1.5-0.671,1.5-1.5S70.206,13.504,69.378,13.504z M48.4,26.278c0,0.65-0.528,1.179-1.177,1.179h-6.25
		c-0.648,0-1.177-0.529-1.177-1.179v-6.247c0-0.65,0.528-1.18,1.177-1.18h6.25c0.648,0,1.177,0.529,1.177,1.18V26.278z"/>
	<g>
		<path style="fill:none;stroke:#33363A;stroke-width:3;stroke-linecap:round;stroke-linejoin:round;stroke-miterlimit:10;" d="
			M73.592,19.631"/>
	</g>
	<g>
		<path style="fill:#33363A;" d="M66.962,25.864h-3.869c-0.828,0-1.5-0.671-1.5-1.5s0.672-1.5,1.5-1.5h3.869
			c0.828,0,1.5,0.671,1.5,1.5S67.79,25.864,66.962,25.864z"/>
	</g>
</g>
<g>
</g>
<g>
</g>
<g>
</g>
<g>
</g>
<g>
</g>
<g>
</g>
<g>
</g>
<g>
</g>
<g>
</g>
<g>
</g>
<g>
</g>
<g>
</g>
<g>
</g>
<g>
</g>
<g>
</g>
</svg>
