<?xml version="1.0" encoding="iso-8859-1"?>
<!-- Generator: Adobe Illustrator 19.0.0, SVG Export Plug-In . SVG Version: 6.00 Build 0)  -->
<svg version="1.1" id="Layer_1" xmlns="http://www.w3.org/2000/svg" xmlns:xlink="http://www.w3.org/1999/xlink" x="0px" y="0px"
	 viewBox="0 0 125.828 125.828" style="enable-background:new 0 0 125.828 125.828;" xml:space="preserve">
<g>
	<g>
		<g>
			<g>
				<g>
					<path style="fill:#FC70B0;" d="M104.355,23.42c0,1.832-1.485,3.316-3.316,3.316H80.319c-1.832,0-3.316-1.484-3.316-3.316V21.98
						c0-1.83,1.484-3.317,3.316-3.317h20.721c1.831,0,3.316,1.487,3.316,3.317V23.42z"/>
				</g>
				<g>
					<path style="fill:#FFA9D4;" d="M80.319,18.663c-1.371,0-2.546,0.833-3.051,2.02c0.505,1.186,1.68,2.017,3.051,2.017h20.721
						c1.371,0,2.546-0.83,3.051-2.017c-0.505-1.187-1.68-2.02-3.051-2.02H80.319z"/>
				</g>
				<g>
					<path style="fill:#33363A;" d="M101.039,28.236H80.319c-2.655,0-4.816-2.161-4.816-4.816V21.98
						c0-2.656,2.161-4.817,4.816-4.817h20.721c2.655,0,4.816,2.161,4.816,4.817v1.439C105.855,26.076,103.695,28.236,101.039,28.236
						z M80.319,20.163c-1.001,0-1.816,0.815-1.816,1.817v1.439c0,1.001,0.814,1.816,1.816,1.816h20.721
						c1.001,0,1.816-0.815,1.816-1.816V21.98c0-1.002-0.814-1.817-1.816-1.817H80.319z"/>
				</g>
			</g>
			<g>
				<g>
					<path style="fill:#FC70B0;" d="M100.211,31.491c0,1.83-1.485,3.317-3.316,3.317H76.175c-1.831,0-3.316-1.487-3.316-3.317
						v-1.438c0-1.832,1.484-3.316,3.316-3.316h20.721c1.831,0,3.316,1.484,3.316,3.316V31.491z"/>
				</g>
				<g>
					<path style="fill:#FFA9D4;" d="M76.175,26.736c-1.371,0-2.546,0.832-3.052,2.017c0.505,1.186,1.681,2.02,3.052,2.02h20.721
						c1.371,0,2.546-0.834,3.05-2.02c-0.504-1.185-1.68-2.017-3.05-2.017H76.175z"/>
				</g>
				<g>
					<path style="fill:#33363A;" d="M96.896,36.309H76.175c-2.655,0-4.816-2.161-4.816-4.817v-1.438
						c0-2.656,2.161-4.816,4.816-4.816h20.721c2.655,0,4.815,2.161,4.815,4.816v1.438C101.711,34.147,99.551,36.309,96.896,36.309z
						 M76.175,28.236c-1.001,0-1.816,0.815-1.816,1.816v1.438c0,1.002,0.814,1.817,1.816,1.817h20.721
						c1.001,0,1.815-0.815,1.815-1.817v-1.438c0-1.001-0.814-1.816-1.815-1.816H76.175z"/>
				</g>
			</g>
			<g>
				<g>
					<path style="fill:#FC70B0;" d="M96.066,39.564c0,1.83-1.484,3.314-3.315,3.314H72.03c-1.831,0-3.315-1.484-3.315-3.314v-1.441
						c0-1.832,1.484-3.314,3.315-3.314h20.722c1.831,0,3.315,1.482,3.315,3.314V39.564z"/>
				</g>
				<g>
					<path style="fill:#FFA9D4;" d="M72.03,34.809c-1.37,0-2.545,0.83-3.05,2.018c0.505,1.186,1.68,2.018,3.05,2.018h20.722
						c1.37,0,2.546-0.832,3.051-2.018c-0.504-1.188-1.681-2.018-3.051-2.018H72.03z"/>
				</g>
				<g>
					<path style="fill:#33363A;" d="M92.751,44.379H72.03c-2.655,0-4.815-2.16-4.815-4.814v-1.441c0-2.655,2.16-4.814,4.815-4.814
						h20.722c2.655,0,4.815,2.16,4.815,4.814v1.441C97.566,42.219,95.406,44.379,92.751,44.379z M72.03,36.309
						c-1.001,0-1.815,0.814-1.815,1.814v1.441c0,1,0.814,1.814,1.815,1.814h20.722c1.001,0,1.815-0.814,1.815-1.814v-1.441
						c0-1-0.814-1.814-1.815-1.814H72.03z"/>
				</g>
			</g>
		</g>
		<g>
			<g>
				<path style="fill:#FC70B0;" d="M106.787,3.957c-0.643-1.492-2.11-2.457-3.734-2.457h-80.28c-2.246,0-4.066,1.82-4.066,4.065
					v33.249c0,2.245,1.82,4.065,4.066,4.065h48.837c1.117,0,2.185-0.461,2.954-1.273l31.443-33.25
					C107.123,7.18,107.429,5.447,106.787,3.957z"/>
			</g>
			<g>
				<path style="fill:#E2378D;" d="M22.773,42.879h48.837c1.117,0,2.185-0.461,2.954-1.273l30.652-32.412
					c-0.636-0.4-1.38-0.629-2.164-0.629h-80.28c-2.246,0-4.066,1.818-4.066,4.063v26.185C18.708,41.059,20.528,42.879,22.773,42.879
					z"/>
			</g>
			<g>
				<path style="fill:#33363A;" d="M71.611,44.379H22.773c-3.069,0-5.565-2.497-5.565-5.565V5.564C17.208,2.496,19.704,0,22.773,0
					h80.28c2.226,0,4.232,1.32,5.112,3.364l0,0c0.881,2.046,0.461,4.411-1.07,6.024L75.654,42.636
					C74.606,43.744,73.133,44.379,71.611,44.379z M22.773,3c-1.415,0-2.565,1.15-2.565,2.564v33.249
					c0,1.415,1.151,2.565,2.565,2.565h48.837c0.701,0,1.38-0.293,1.864-0.804l31.443-33.25c0.706-0.744,0.898-1.832,0.492-2.774l0,0
					C105.004,3.608,104.079,3,103.053,3H22.773z"/>
			</g>
		</g>
		<g>
			<g>
				<path style="fill:#7815CE;" d="M85.386,10.959c-0.396-0.922-1.299-1.518-2.3-1.518H33.624c-1.383,0-2.504,1.123-2.504,2.506
					v20.486c0,1.381,1.122,2.5,2.504,2.5h30.088c0.689,0,1.348-0.281,1.819-0.781l19.372-20.484
					C85.592,12.943,85.781,11.875,85.386,10.959z"/>
			</g>
			<g>
				<path style="fill:#A02FF2;" d="M33.624,34.934h30.088c0.689,0,1.348-0.281,1.819-0.781l18.886-19.971
					c-0.391-0.246-0.851-0.387-1.332-0.387H33.624c-1.383,0-2.504,1.121-2.504,2.505v16.134
					C31.119,33.814,32.241,34.934,33.624,34.934z"/>
			</g>
			<g>
				<path style="fill:#33363A;" d="M63.712,36.434H33.624c-2.208,0-4.004-1.794-4.004-4V11.947c0-2.209,1.796-4.006,4.004-4.006
					h49.462c1.6,0,3.043,0.951,3.677,2.424l0,0c0.635,1.472,0.332,3.174-0.771,4.335L66.621,35.183
					C65.872,35.977,64.811,36.434,63.712,36.434z M33.624,10.941c-0.554,0-1.004,0.451-1.004,1.006v20.486c0,0.551,0.451,1,1.004,1
					h30.088c0.277,0,0.542-0.113,0.728-0.311l19.374-20.486c0.277-0.292,0.353-0.717,0.194-1.084c0,0,0,0,0-0.001
					c-0.16-0.371-0.521-0.61-0.922-0.61H33.624z"/>
			</g>
		</g>
		<g>
			<path style="fill:#7815CE;" d="M49.237,26.278c0,1.478-1.199,2.679-2.677,2.679H40.31c-1.478,0-2.677-1.201-2.677-2.679v-6.247
				c0-1.481,1.199-2.68,2.677-2.68h6.249c1.478,0,2.677,1.199,2.677,2.68V26.278z"/>
		</g>
		<g>
			<path style="fill:none;stroke:#33363A;stroke-width:3;stroke-linecap:round;stroke-linejoin:round;stroke-miterlimit:10;" d="
				M49.237,19.478"/>
		</g>
		<path style="fill:#33363A;" d="M68.715,13.504H57.768c-0.829,0-1.5,0.671-1.5,1.5s0.671,1.5,1.5,1.5h2.966l-7.018,7.016h-2.979
			v-3.488c0-2.305-1.874-4.18-4.177-4.18H40.31c-2.303,0-4.177,1.875-4.177,4.18v6.247c0,2.304,1.874,4.179,4.177,4.179h6.249
			c2.221,0,4.025-1.747,4.153-3.938h3.625c0.398,0,0.779-0.158,1.061-0.439l9.425-9.422c0.046-0.046,0.064-0.105,0.103-0.155h3.789
			c0.829,0,1.5-0.671,1.5-1.5S69.543,13.504,68.715,13.504z M47.737,26.278c0,0.65-0.528,1.179-1.177,1.179H40.31
			c-0.649,0-1.177-0.529-1.177-1.179v-6.247c0-0.65,0.528-1.18,1.177-1.18h6.249c0.649,0,1.177,0.529,1.177,1.18V26.278z"/>
		<g>
			<path style="fill:none;stroke:#33363A;stroke-width:3;stroke-linecap:round;stroke-linejoin:round;stroke-miterlimit:10;" d="
				M72.928,19.631"/>
		</g>
		<g>
			<path style="fill:#33363A;" d="M66.298,25.864h-3.869c-0.829,0-1.5-0.671-1.5-1.5s0.671-1.5,1.5-1.5h3.869
				c0.829,0,1.5,0.671,1.5,1.5S67.126,25.864,66.298,25.864z"/>
		</g>
	</g>
	<g>
		<g>
			<g>
				<circle style="fill:#FC70B0;" cx="62.913" cy="103.106" r="21.22"/>
			</g>
			<g>
				<path style="fill:#E2378D;" d="M41.693,103.106c0-11.719,9.5-21.22,21.22-21.22c11.72,0,21.221,9.501,21.221,21.22"/>
			</g>
			<g>
				<path style="fill:#33363A;" d="M62.913,125.828c-12.528-0.001-22.72-10.194-22.72-22.722s10.192-22.72,22.72-22.72
					c12.528,0,22.721,10.192,22.721,22.72S75.441,125.827,62.913,125.828z M62.913,83.387c-10.874,0-19.72,8.847-19.72,19.72
					c0,10.874,8.847,19.721,19.72,19.722c10.874-0.001,19.721-8.848,19.721-19.722C82.634,92.233,73.787,83.387,62.913,83.387z"/>
			</g>
			<g>
				<g>
					<polyline style="fill:#E2378D;" points="57.176,83.756 62.913,71.9 68.65,83.756 					"/>
				</g>
				<g>
					<path style="fill:#33363A;" d="M68.651,85.256c-0.557,0-1.092-0.312-1.351-0.847l-4.387-9.065l-4.387,9.065
						c-0.36,0.746-1.258,1.057-2.003,0.697c-0.746-0.361-1.058-1.258-0.697-2.004l5.737-11.855c0.25-0.518,0.775-0.847,1.35-0.847
						s1.1,0.329,1.35,0.847L70,83.103c0.361,0.746,0.049,1.643-0.697,2.004C69.093,85.208,68.87,85.256,68.651,85.256z"/>
				</g>
			</g>
		</g>
		<g>
			<g>
				<g>
					<path style="fill:#33363A;" d="M73.375,110.341h-7.865c-0.829,0-1.5-0.672-1.5-1.5V97.374c0-0.828,0.671-1.5,1.5-1.5h7.865
						c0.829,0,1.5,0.672,1.5,1.5v11.467C74.875,109.669,74.204,110.341,73.375,110.341z M67.011,107.341h4.865v-8.467h-4.865
						V107.341z"/>
				</g>
			</g>
			<g>
				<g>
					<g>
						<path style="fill:#33363A;" d="M60.316,110.341h-7.865c-0.829,0-1.5-0.672-1.5-1.5s0.671-1.5,1.5-1.5h6.365v-8.467h-6.365
							c-0.829,0-1.5-0.672-1.5-1.5s0.671-1.5,1.5-1.5h7.865c0.829,0,1.5,0.672,1.5,1.5v11.467
							C61.816,109.669,61.144,110.341,60.316,110.341z"/>
					</g>
				</g>
				<g>
					<path style="fill:#33363A;" d="M60.316,104.607h-7.865c-0.829,0-1.5-0.672-1.5-1.5s0.671-1.5,1.5-1.5h7.865
						c0.829,0,1.5,0.672,1.5,1.5S61.144,104.607,60.316,104.607z"/>
				</g>
			</g>
		</g>
	</g>
	<g>
		<g>
			<path style="fill:#FC70B0;" d="M58.585,50.536c1.744,0,3.275,0.979,3.813,2.433c0.008,0.021,0.018,0.041,0.03,0.059
				c0.012-0.018,0.022-0.037,0.03-0.059c0.538-1.454,2.069-2.433,3.815-2.433c2.206,0,4.004,1.583,4.004,3.525
				c0,0.708-0.234,1.391-0.682,1.972c-0.004,0.004-0.007,0.011-0.007,0.011c-0.015,0.017-0.027,0.026-0.038,0.037l-7.122,8.424
				l-7.121-8.424c-0.011-0.011-0.024-0.021-0.038-0.037c0,0-0.003-0.007-0.007-0.011c-0.448-0.581-0.682-1.264-0.682-1.972
				C54.58,52.119,56.377,50.536,58.585,50.536z"/>
		</g>
		<g>
			<path style="fill:#F93585;" d="M62.458,52.969c0.538-1.454,2.069-2.433,3.815-2.433c2.206,0,4.004,1.583,4.004,3.525
				c0,0.708-0.234,1.391-0.682,1.972c-0.004,0.004-0.007,0.011-0.007,0.011c-0.015,0.017-0.027,0.026-0.038,0.037l-7.122,8.424
				V53.027C62.44,53.01,62.45,52.99,62.458,52.969z"/>
		</g>
		<g>
			<path style="fill:#33363A;" d="M62.428,66.005L62.428,66.005c-0.441,0-0.86-0.194-1.146-0.531l-7.082-8.378
				c-0.028-0.029-0.056-0.059-0.073-0.078c-0.03-0.036-0.059-0.072-0.085-0.11c-0.63-0.834-0.962-1.817-0.962-2.846
				c0-2.771,2.47-5.025,5.505-5.025c1.471,0,2.838,0.53,3.844,1.421c1.006-0.892,2.373-1.421,3.844-1.421
				c3.035,0,5.504,2.254,5.504,5.025c0,1.028-0.333,2.01-0.962,2.845c-0.032,0.045-0.066,0.088-0.102,0.13
				c-0.016,0.017-0.037,0.04-0.059,0.063l-7.08,8.375C63.289,65.811,62.87,66.005,62.428,66.005z M56.414,55.069
				c0.014,0.015,0.027,0.029,0.039,0.043l5.976,7.069l5.976-7.069c0.012-0.014,0.024-0.028,0.037-0.042
				c0.22-0.304,0.335-0.651,0.335-1.009c0-1.098-1.146-2.025-2.504-2.025c-1.119,0-2.086,0.584-2.408,1.453
				c-0.041,0.11-0.124,0.273-0.188,0.371c-0.275,0.413-0.737,0.663-1.234,0.668c-0.484,0.003-0.963-0.237-1.246-0.645
				c-0.074-0.106-0.164-0.28-0.208-0.401c-0.319-0.861-1.286-1.445-2.404-1.445c-1.358,0-2.505,0.928-2.505,2.025
				C56.08,54.425,56.193,54.764,56.414,55.069z"/>
		</g>
	</g>
</g>
<g>
</g>
<g>
</g>
<g>
</g>
<g>
</g>
<g>
</g>
<g>
</g>
<g>
</g>
<g>
</g>
<g>
</g>
<g>
</g>
<g>
</g>
<g>
</g>
<g>
</g>
<g>
</g>
<g>
</g>
</svg>
