<?xml version="1.0" encoding="iso-8859-1"?>
<!-- Generator: Adobe Illustrator 19.0.0, SVG Export Plug-In . SVG Version: 6.00 Build 0)  -->
<svg version="1.1" id="Layer_1" xmlns="http://www.w3.org/2000/svg" xmlns:xlink="http://www.w3.org/1999/xlink" x="0px" y="0px"
	 viewBox="0 0 127.73 127.73" style="enable-background:new 0 0 127.73 127.73;" xml:space="preserve">
<g>
	<g>
		<path style="fill:#7BC7FF;" d="M83.451,112.839c-19.654-11.375-7.225-28.067-7.225-35.3H63.935h-0.139H51.504
			c0,7.232,12.432,23.925-7.225,35.3c-3.682,3.605-3.34,8.218-2.822,13.39h44.818C86.791,121.057,87.133,116.444,83.451,112.839z"/>
	</g>
	<g>
		<path style="fill:#0086FF;" d="M75.48,112.839c-11.656-11.375-4.285-28.067-4.285-35.3h-7.289h-0.082h-7.289
			c0,7.232,7.371,23.925-4.283,35.3c-2.184,3.605-1.98,8.218-1.674,13.39h26.576C77.459,121.057,77.662,116.444,75.48,112.839z"/>
	</g>
	<g>
		<path style="fill:#0A6ADD;" d="M63.935,77.539h-0.139H51.504c0,2.918,2.023,7.377,3.147,12.404l9.215,7.959l-0.715-3.74
			l0.715,2.055l0.713-2.049l-0.713,3.734l9.215-7.959c1.123-5.027,3.146-9.486,3.146-12.404H63.935z"/>
	</g>
	<g>
		<path style="fill:#33363A;" d="M86.277,127.729c-0.05,0-0.101-0.002-0.15-0.008c-0.825-0.082-1.427-0.816-1.344-1.641
			c0.531-5.337,0.661-9.079-2.254-12.042c-15.824-9.265-11.865-21.969-9.243-30.386c0.542-1.74,1.033-3.314,1.277-4.613H53.167
			c0.245,1.299,0.735,2.873,1.277,4.613c2.623,8.417,6.582,21.121-9.243,30.386c-2.917,2.965-2.785,6.705-2.252,12.041
			c0.083,0.824-0.519,1.56-1.343,1.642c-0.83,0.095-1.56-0.519-1.642-1.343c-0.488-4.872-1.041-10.395,3.265-14.61
			c0.09-0.088,0.19-0.164,0.299-0.227c13.948-8.072,10.679-18.565,8.052-26.996c-0.846-2.715-1.576-5.06-1.576-7.006
			c0-0.828,0.672-1.5,1.5-1.5h24.723c0.828,0,1.5,0.672,1.5,1.5c0,1.946-0.73,4.291-1.576,7.005
			c-2.626,8.432-5.896,18.925,8.052,26.997c0.108,0.063,0.209,0.139,0.299,0.227c4.304,4.214,3.753,9.737,3.267,14.609
			C87.69,127.151,87.039,127.729,86.277,127.729z"/>
	</g>
	<g>
		<g>
			<polygon style="fill:#7BC7FF;" points="56.465,51.156 63.865,89.902 34.012,64.119 26.611,25.375 			"/>
		</g>
		<g>
			<polygon style="fill:#0086FF;" points="41.074,70.22 63.865,89.902 58.215,60.326 35.428,40.646 			"/>
		</g>
		<g>
			<path style="fill:#33363A;" d="M63.865,91.402c-0.352,0-0.701-0.124-0.98-0.365L33.031,65.254
				c-0.256-0.221-0.43-0.521-0.493-0.854l-7.4-38.744c-0.119-0.627,0.171-1.261,0.724-1.58c0.552-0.32,1.246-0.255,1.73,0.164
				l29.854,25.781c0.256,0.221,0.43,0.522,0.493,0.854l7.4,38.746c0.119,0.627-0.171,1.261-0.724,1.58
				C64.382,91.336,64.123,91.402,63.865,91.402z M35.387,63.325l26.196,22.624L55.09,51.95L28.894,29.328L35.387,63.325z"/>
		</g>
	</g>
	<g>
		<g>
			<polygon style="fill:#7BC7FF;" points="71.266,51.156 63.865,89.902 93.719,64.119 101.119,25.375 			"/>
		</g>
		<g>
			<polygon style="fill:#0086FF;" points="86.656,70.22 63.865,89.902 69.516,60.326 92.303,40.646 			"/>
		</g>
		<g>
			<path style="fill:#33363A;" d="M63.865,91.402c-0.258,0-0.517-0.066-0.75-0.201c-0.553-0.319-0.843-0.953-0.724-1.58l7.4-38.746
				c0.063-0.332,0.237-0.633,0.493-0.854l29.854-25.781c0.484-0.418,1.179-0.483,1.73-0.164c0.553,0.319,0.843,0.953,0.724,1.58
				l-7.4,38.744c-0.063,0.332-0.237,0.633-0.493,0.854L64.846,91.037C64.566,91.278,64.217,91.402,63.865,91.402z M72.641,51.95
				l-6.493,33.999l26.196-22.624l6.493-33.998L72.641,51.95z"/>
		</g>
	</g>
	<g>
		<g>
			<polygon style="fill:#7BC7FF;" points="78.953,44.857 63.865,88.217 48.777,44.857 63.865,1.5 			"/>
		</g>
		<g>
			<polygon style="fill:#0086FF;" points="52.348,55.118 63.865,88.217 75.383,55.118 63.865,22.021 			"/>
		</g>
		<g>
			<path style="fill:#33363A;" d="M63.865,89.717c-0.639,0-1.207-0.404-1.417-1.007L47.36,45.351c-0.11-0.319-0.11-0.667,0-0.986
				L62.448,1.007C62.658,0.404,63.227,0,63.865,0s1.207,0.404,1.417,1.007L80.37,44.364c0.11,0.319,0.11,0.667,0,0.986L65.282,88.71
				C65.072,89.313,64.504,89.717,63.865,89.717z M50.365,44.857l13.5,38.795l13.5-38.795l-13.5-38.793L50.365,44.857z"/>
		</g>
	</g>
	<g>
		<polygon style="fill:#7BC7FF;" points="67.381,96.001 63.865,100.164 60.351,96.001 63.865,93.227 		"/>
	</g>
	<g>
		<path style="fill:#33363A;" d="M63.865,101.664L63.865,101.664c-0.442,0-0.861-0.195-1.146-0.532l-3.514-4.163
			c-0.262-0.311-0.387-0.714-0.346-1.118s0.244-0.775,0.563-1.026l3.514-2.775c0.545-0.43,1.314-0.43,1.859,0l3.516,2.774
			c0.318,0.252,0.521,0.622,0.563,1.027c0.041,0.404-0.084,0.808-0.346,1.118l-3.516,4.163
			C64.727,101.47,64.307,101.664,63.865,101.664z M62.497,96.218l1.368,1.621l1.369-1.621l-1.369-1.08L62.497,96.218z"/>
	</g>
</g>
<g>
</g>
<g>
</g>
<g>
</g>
<g>
</g>
<g>
</g>
<g>
</g>
<g>
</g>
<g>
</g>
<g>
</g>
<g>
</g>
<g>
</g>
<g>
</g>
<g>
</g>
<g>
</g>
<g>
</g>
</svg>
