<?xml version="1.0" encoding="iso-8859-1"?>
<!-- Generator: Adobe Illustrator 19.0.0, SVG Export Plug-In . SVG Version: 6.00 Build 0)  -->
<svg version="1.1" id="Layer_1" xmlns="http://www.w3.org/2000/svg" xmlns:xlink="http://www.w3.org/1999/xlink" x="0px" y="0px"
	 viewBox="0 0 126.813 126.813" style="enable-background:new 0 0 126.813 126.813;" xml:space="preserve">
<g>
	<g>
		<g>
			<g>
				<path style="fill:#8D9AA3;" d="M76.742,95.298L61.93,89.916l20.191-7.336c0.004-0.147,0.021-0.288,0.021-0.437
					s-0.018-0.29-0.021-0.436L61.93,74.372l14.813-5.383c-3.398-3.444-8.115-5.582-13.336-5.582
					c-10.348,0-18.738,8.389-18.738,18.736s8.391,18.737,18.738,18.737C68.627,100.881,73.344,98.741,76.742,95.298z"/>
			</g>
			<g>
				<path style="fill:#5E707A;" d="M67.021,76.331l0.148-0.055l-5.24-1.904l12.723-4.623c-1.951-1.029-4.166-1.621-6.525-1.621
					c-7.74,0-14.016,6.276-14.016,14.016c0,7.74,6.275,14.016,14.016,14.016c2.359,0,4.574-0.592,6.525-1.622L61.93,89.916
					l5.24-1.906l-0.148-0.054l15.105-5.486c0.006-0.109,0.016-0.217,0.016-0.326c0-0.11-0.01-0.217-0.016-0.326L67.021,76.331z"/>
			</g>
			<g>
				<path style="fill:#33363A;" d="M63.406,102.381c-11.159,0-20.238-9.079-20.238-20.237c0-11.158,9.079-20.236,20.238-20.236
					c5.452,0,10.568,2.141,14.403,6.028c0.359,0.364,0.508,0.885,0.396,1.384c-0.112,0.498-0.471,0.905-0.95,1.08l-10.933,3.973
					l16.312,5.926c0.579,0.21,0.971,0.753,0.986,1.37l0.008,0.126c0.008,0.115,0.015,0.23,0.015,0.349
					c0,0.118-0.007,0.233-0.015,0.348L83.62,82.62c-0.016,0.616-0.407,1.16-0.986,1.37l-16.312,5.926l10.933,3.972
					c0.479,0.174,0.838,0.582,0.95,1.08c0.112,0.499-0.036,1.02-0.396,1.384C73.973,100.24,68.857,102.381,63.406,102.381z
					 M63.406,64.907c-9.505,0-17.238,7.732-17.238,17.236c0,9.505,7.733,17.237,17.238,17.237c3.829,0,7.463-1.241,10.454-3.534
					l-12.443-4.521c-0.593-0.215-0.987-0.779-0.987-1.41s0.395-1.194,0.987-1.41l17.512-6.362l-17.512-6.362
					c-0.593-0.215-0.987-0.779-0.987-1.41s0.395-1.194,0.987-1.41L73.86,68.44C70.871,66.147,67.236,64.907,63.406,64.907z"/>
			</g>
		</g>
		<g>
			<g>
				<g>
					<path style="fill:#8D9AA3;" d="M33.572,57.823L18.76,52.44l20.191-7.336c0.004-0.146,0.022-0.287,0.022-0.435
						c0-0.148-0.018-0.29-0.022-0.437L18.76,36.897l14.813-5.383c-3.398-3.443-8.115-5.583-13.336-5.583
						C9.889,25.932,1.5,34.321,1.5,44.67c0,10.348,8.389,18.737,18.736,18.737C25.457,63.407,30.174,61.267,33.572,57.823z"/>
				</g>
				<g>
					<path style="fill:#5E707A;" d="M23.853,38.856l0.149-0.055l-5.242-1.904l12.723-4.623c-1.949-1.029-4.166-1.62-6.523-1.62
						c-7.742,0-14.018,6.276-14.018,14.016c0,7.739,6.275,14.015,14.018,14.015c2.357,0,4.574-0.591,6.523-1.621L18.76,52.44
						l5.242-1.904l-0.149-0.054l15.104-5.487c0.008-0.108,0.016-0.217,0.016-0.325c0-0.11-0.008-0.218-0.016-0.326L23.853,38.856z"
						/>
				</g>
				<g>
					<path style="fill:#33363A;" d="M20.236,64.907C9.078,64.907,0,55.829,0,44.67c0-11.16,9.078-20.238,20.236-20.238
						c5.451,0,10.566,2.141,14.403,6.029c0.359,0.364,0.508,0.885,0.396,1.384c-0.112,0.498-0.471,0.905-0.95,1.08l-10.933,3.973
						l16.312,5.926c0.579,0.21,0.971,0.753,0.986,1.37l0.008,0.128c0.008,0.115,0.015,0.23,0.015,0.349
						c0,0.118-0.007,0.232-0.015,0.347l-0.008,0.127c-0.016,0.616-0.407,1.159-0.986,1.37L23.152,52.44l10.933,3.973
						c0.479,0.174,0.838,0.582,0.95,1.08c0.112,0.499-0.036,1.02-0.396,1.384C30.802,62.766,25.687,64.907,20.236,64.907z
						 M20.236,27.432C10.732,27.432,3,35.165,3,44.67c0,9.505,7.732,17.237,17.236,17.237c3.828,0,7.463-1.241,10.454-3.535
						L18.247,53.85c-0.593-0.215-0.987-0.779-0.987-1.41s0.395-1.194,0.987-1.41l17.511-6.362l-17.511-6.362
						c-0.593-0.215-0.987-0.779-0.987-1.41s0.395-1.194,0.987-1.41l12.443-4.522C27.7,28.673,24.065,27.432,20.236,27.432z"/>
				</g>
			</g>
			<g>
				<g>
					<path style="fill:#8D9AA3;" d="M119.91,57.823l-14.813-5.383l20.191-7.336c0.004-0.146,0.023-0.287,0.023-0.435
						c0-0.148-0.02-0.29-0.023-0.437l-20.191-7.336l14.813-5.383c-3.398-3.443-8.115-5.583-13.336-5.583
						c-10.348,0-18.736,8.39-18.736,18.738c0,10.348,8.389,18.737,18.736,18.737C111.795,63.407,116.512,61.267,119.91,57.823z"/>
				</g>
				<g>
					<path style="fill:#5E707A;" d="M110.191,38.856l0.148-0.055l-5.242-1.904l12.723-4.623c-1.949-1.029-4.166-1.62-6.523-1.62
						c-7.742,0-14.016,6.276-14.016,14.016c0,7.739,6.273,14.015,14.016,14.015c2.357,0,4.574-0.591,6.523-1.621l-12.723-4.623
						l5.242-1.904l-0.148-0.054l15.104-5.487c0.008-0.108,0.018-0.217,0.018-0.325c0-0.11-0.01-0.218-0.018-0.326L110.191,38.856z"
						/>
				</g>
				<g>
					<path style="fill:#33363A;" d="M106.574,64.907c-11.158,0-20.236-9.079-20.236-20.237c0-11.16,9.078-20.238,20.236-20.238
						c5.451,0,10.566,2.141,14.403,6.029c0.359,0.364,0.508,0.885,0.396,1.384c-0.112,0.498-0.471,0.905-0.95,1.08l-10.933,3.973
						l16.312,5.926c0.579,0.21,0.971,0.753,0.986,1.37l0.008,0.121c0.009,0.118,0.017,0.235,0.017,0.356
						c0,0.12-0.008,0.237-0.017,0.354l-0.008,0.12c-0.016,0.616-0.407,1.159-0.986,1.37L109.49,52.44l10.933,3.973
						c0.479,0.174,0.838,0.582,0.95,1.08c0.112,0.499-0.036,1.02-0.396,1.384C117.14,62.766,112.024,64.907,106.574,64.907z
						 M106.574,27.432c-9.504,0-17.236,7.733-17.236,17.238c0,9.505,7.732,17.237,17.236,17.237c3.828,0,7.463-1.241,10.454-3.535
						l-12.443-4.522c-0.593-0.215-0.987-0.779-0.987-1.41s0.395-1.194,0.987-1.41l17.511-6.362l-17.511-6.362
						c-0.593-0.215-0.987-0.779-0.987-1.41s0.395-1.194,0.987-1.41l12.443-4.522C114.038,28.673,110.403,27.432,106.574,27.432z"/>
				</g>
			</g>
		</g>
	</g>
	<g>
		<g>
			<path style="fill:#33363A;" d="M77.838,47.349h-7.777c-0.828,0-1.5-0.671-1.5-1.5s0.672-1.5,1.5-1.5h7.777
				c0.828,0,1.5,0.671,1.5,1.5S78.666,47.349,77.838,47.349z"/>
		</g>
		<g>
			<path style="fill:#33363A;" d="M63.627,47.349h-0.09c-0.828,0-1.5-0.671-1.5-1.5s0.672-1.5,1.5-1.5s1.545,0.671,1.545,1.5
				S64.455,47.349,63.627,47.349z"/>
		</g>
		<g>
			<path style="fill:#33363A;" d="M58.436,47.349h-0.09c-0.828,0-1.5-0.671-1.5-1.5s0.672-1.5,1.5-1.5s1.545,0.671,1.545,1.5
				S59.264,47.349,58.436,47.349z"/>
		</g>
		<g>
			<path style="fill:#33363A;" d="M53.244,47.349h-0.09c-0.828,0-1.5-0.671-1.5-1.5s0.672-1.5,1.5-1.5s1.545,0.671,1.545,1.5
				S54.072,47.349,53.244,47.349z"/>
		</g>
	</g>
	<g>
		<g>
			<path style="fill:#33363A;" d="M33.838,85.171h-7.777c-0.828,0-1.5-0.671-1.5-1.5s0.672-1.5,1.5-1.5h7.777
				c0.828,0,1.5,0.671,1.5,1.5S34.666,85.171,33.838,85.171z"/>
		</g>
		<g>
			<path style="fill:#33363A;" d="M19.627,85.171h-0.09c-0.828,0-1.5-0.671-1.5-1.5s0.672-1.5,1.5-1.5s1.545,0.671,1.545,1.5
				S20.455,85.171,19.627,85.171z"/>
		</g>
		<g>
			<path style="fill:#33363A;" d="M14.436,85.171h-0.09c-0.828,0-1.5-0.671-1.5-1.5s0.672-1.5,1.5-1.5s1.545,0.671,1.545,1.5
				S15.264,85.171,14.436,85.171z"/>
		</g>
		<g>
			<path style="fill:#33363A;" d="M9.244,85.171h-0.09c-0.828,0-1.5-0.671-1.5-1.5s0.672-1.5,1.5-1.5s1.545,0.671,1.545,1.5
				S10.072,85.171,9.244,85.171z"/>
		</g>
	</g>
</g>
<g>
</g>
<g>
</g>
<g>
</g>
<g>
</g>
<g>
</g>
<g>
</g>
<g>
</g>
<g>
</g>
<g>
</g>
<g>
</g>
<g>
</g>
<g>
</g>
<g>
</g>
<g>
</g>
<g>
</g>
</svg>
