<?xml version="1.0" encoding="iso-8859-1"?>
<!-- Generator: Adobe Illustrator 19.0.0, SVG Export Plug-In . SVG Version: 6.00 Build 0)  -->
<svg version="1.1" id="Layer_1" xmlns="http://www.w3.org/2000/svg" xmlns:xlink="http://www.w3.org/1999/xlink" x="0px" y="0px"
	 viewBox="0 0 127.729 127.729" style="enable-background:new 0 0 127.729 127.729;" xml:space="preserve">
<g>
	<g>
		<g>
			<g>
				<g>
					<path style="fill:#FFBF31;" d="M3.699,57.544c1.613,4.719,4.803,8.455,8.775,10.824c1.689-4.308,1.924-9.21,0.311-13.932
						c-1.615-4.719-4.805-8.455-8.777-10.824C2.318,47.918,2.084,52.823,3.699,57.544z"/>
				</g>
				<g>
					<path style="fill:#FF8B00;" d="M4.008,48.924c-0.594,1.514-1.004,3.104-1.221,4.732c0.174,1.298,0.471,2.599,0.912,3.888
						c1.613,4.719,4.803,8.455,8.775,10.824c0.594-1.516,1.004-3.105,1.221-4.732c-0.172-1.3-0.471-2.602-0.91-3.889
						C11.17,55.026,7.98,51.291,4.008,48.924z"/>
				</g>
				<path style="fill:#33363A;" d="M14.204,53.951c-0.756-2.208-1.873-4.252-3.264-6.086c-0.011-0.016-0.018-0.034-0.03-0.049
					c-0.019-0.024-0.04-0.046-0.058-0.07c-0.363-0.471-0.745-0.925-1.145-1.365c-0.068-0.075-0.133-0.153-0.201-0.227
					c-0.371-0.397-0.76-0.775-1.16-1.144c-0.109-0.1-0.212-0.207-0.322-0.305c-0.376-0.332-0.77-0.643-1.169-0.949
					c-0.139-0.107-0.27-0.223-0.412-0.327c-0.537-0.392-1.091-0.762-1.666-1.105c-0.19-0.113-0.399-0.182-0.613-0.205
					c-0.214-0.022-0.433,0.001-0.641,0.074c-0.417,0.143-0.75,0.461-0.911,0.871c-0.204,0.521-0.38,1.053-0.543,1.589
					c-0.043,0.142-0.086,0.283-0.126,0.425c-0.145,0.512-0.274,1.029-0.381,1.551c-0.026,0.127-0.045,0.254-0.069,0.38
					c-0.083,0.448-0.153,0.898-0.208,1.35c-0.016,0.132-0.036,0.264-0.049,0.396c-0.057,0.544-0.092,1.09-0.108,1.636
					c-0.003,0.108-0.003,0.215-0.004,0.322c-0.007,0.536,0.002,1.071,0.035,1.605c0.003,0.045,0.003,0.09,0.006,0.134
					c0.002,0.032,0.002,0.064,0.004,0.095c0.002,0.024,0.011,0.046,0.014,0.07c0.137,1.832,0.498,3.651,1.1,5.412
					c1.663,4.864,5.011,8.994,9.426,11.627c0.235,0.141,0.501,0.212,0.769,0.212c0.163,0,0.327-0.026,0.485-0.081
					c0.417-0.143,0.75-0.461,0.911-0.871C15.748,64.13,15.866,58.815,14.204,53.951z M11.677,66.035
					c-3.031-2.25-5.328-5.38-6.559-8.977c-0.42-1.229-0.698-2.492-0.855-3.767l4.994-2.629c0.872,1.319,1.59,2.744,2.109,4.259
					C12.595,58.518,12.694,62.4,11.677,66.035z"/>
				<g>
					<path style="fill:#FFBF31;" d="M37.982,57.544c-1.613,4.719-4.803,8.455-8.775,10.824c-1.69-4.308-1.924-9.21-0.311-13.932
						c1.615-4.719,4.803-8.455,8.777-10.824C39.363,47.918,39.596,52.823,37.982,57.544z"/>
				</g>
				<g>
					<path style="fill:#FF8B00;" d="M28.896,59.747c-0.439,1.287-0.738,2.589-0.91,3.889c0.217,1.627,0.627,3.217,1.221,4.732
						c3.973-2.369,7.162-6.105,8.775-10.824c0.439-1.289,0.738-2.59,0.912-3.89c-0.217-1.628-0.627-3.217-1.221-4.73
						C33.699,51.291,30.512,55.026,28.896,59.747z"/>
				</g>
				<path style="fill:#33363A;" d="M40.521,52.433c0.001-0.022,0.001-0.045,0.003-0.067c0.035-0.553,0.044-1.108,0.036-1.664
					c-0.001-0.103-0.001-0.206-0.004-0.31c-0.016-0.548-0.051-1.095-0.108-1.64c-0.014-0.132-0.033-0.264-0.049-0.396
					c-0.056-0.453-0.125-0.903-0.209-1.352c-0.023-0.126-0.042-0.252-0.068-0.377c-0.107-0.524-0.237-1.042-0.383-1.556
					c-0.039-0.139-0.081-0.276-0.123-0.414c-0.163-0.538-0.34-1.071-0.545-1.594c-0.161-0.41-0.494-0.729-0.911-0.871
					c-0.208-0.072-0.426-0.095-0.641-0.073c-0.107,0.011-0.213,0.034-0.316,0.068C37.1,42.222,37,42.268,36.905,42.324
					c-0.04,0.024-0.076,0.053-0.116,0.077c-0.533,0.322-1.051,0.664-1.552,1.029c-0.135,0.099-0.26,0.21-0.393,0.311
					c-0.407,0.311-0.808,0.629-1.191,0.967c-0.102,0.091-0.198,0.19-0.299,0.283c-0.409,0.376-0.807,0.763-1.185,1.168
					c-0.062,0.066-0.12,0.136-0.18,0.203c-0.407,0.447-0.796,0.909-1.165,1.389c-0.017,0.022-0.037,0.041-0.053,0.064
					c-0.011,0.014-0.017,0.031-0.027,0.045c-1.392,1.834-2.51,3.88-3.267,6.09c-1.662,4.864-1.544,10.179,0.333,14.965
					c0.161,0.41,0.494,0.729,0.911,0.871c0.158,0.055,0.322,0.081,0.485,0.081c0.268,0,0.533-0.071,0.769-0.212
					c4.415-2.633,7.763-6.763,9.426-11.627c0.6-1.756,0.96-3.571,1.098-5.398c0.004-0.029,0.015-0.055,0.017-0.084
					C40.518,52.509,40.518,52.471,40.521,52.433z M30.005,66.035c-1.018-3.635-0.918-7.518,0.311-11.113
					c0.519-1.515,1.237-2.941,2.109-4.259l4.994,2.629c-0.157,1.274-0.435,2.538-0.855,3.767
					C35.333,60.655,33.036,63.785,30.005,66.035z"/>
				<g>
					<g>
						<path style="fill:#FF8B00;" d="M12.07,124.798c0,0.791-0.641,1.431-1.43,1.431H8.316c-0.789,0-1.43-0.64-1.43-1.431v-2.858
							c0-0.79,0.641-1.429,1.43-1.429h2.324c0.789,0,1.43,0.639,1.43,1.429V124.798z"/>
					</g>
					<g>
						<path style="fill:#FF8B00;" d="M34.795,124.798c0,0.791-0.641,1.431-1.43,1.431h-2.324c-0.791,0-1.43-0.64-1.43-1.431v-2.858
							c0-0.79,0.639-1.429,1.43-1.429h2.324c0.789,0,1.43,0.639,1.43,1.429V124.798z"/>
					</g>
				</g>
				<g>
					<g>
						<path style="fill:#33363A;" d="M10.641,127.729H8.316c-1.615,0-2.93-1.314-2.93-2.931v-2.858c0-1.615,1.314-2.929,2.93-2.929
							h2.324c1.615,0,2.93,1.313,2.93,2.929v2.858C13.57,126.414,12.256,127.729,10.641,127.729z M8.387,122.011v2.787l2.184-0.067
							v-2.72H8.387z"/>
					</g>
					<g>
						<path style="fill:#33363A;" d="M33.365,127.729h-2.324c-1.615,0-2.93-1.314-2.93-2.931v-2.858c0-1.615,1.314-2.929,2.93-2.929
							h2.324c1.615,0,2.93,1.313,2.93,2.929v2.858C36.295,126.414,34.98,127.729,33.365,127.729z M31.111,122.011v2.787l2.184-0.067
							v-2.72H31.111z"/>
					</g>
				</g>
				<g>
					<path style="fill:#FFBF31;" d="M38.139,104.917V79.778c0-8.856-7.207-16.063-16.062-16.063h-2.471
						c-8.857,0-16.063,7.206-16.063,16.063v25.139c-1.131,1.224-1.826,2.854-1.826,4.649v5.695c0,3.792,3.074,6.865,6.865,6.865
						h24.516c3.793,0,6.867-3.073,6.867-6.865v-5.695C39.965,107.771,39.268,106.141,38.139,104.917z"/>
				</g>
				<g>
					<path style="fill:#FF8B00;" d="M38.139,104.917v-20.9c0-8.857-7.207-16.063-16.062-16.063h-2.471
						c-8.857,0-16.063,7.206-16.063,16.063v20.9v4.238c-1.131,1.223-1.826,2.854-1.826,4.651v1.454c0,3.792,3.074,6.865,6.865,6.865
						h24.516c3.793,0,6.867-3.073,6.867-6.865v-1.454c0-1.798-0.697-3.429-1.826-4.651V104.917z"/>
				</g>
				<g>
					<path style="fill:#33363A;" d="M33.098,123.626H8.582c-4.612,0-8.365-3.753-8.365-8.365v-5.695
						c0-1.898,0.645-3.724,1.826-5.203V79.778c0-9.684,7.879-17.563,17.563-17.563h2.471c9.684,0,17.563,7.879,17.563,17.563v24.585
						c1.182,1.48,1.826,3.306,1.826,5.202v5.695C41.465,119.873,37.711,123.626,33.098,123.626z M19.605,65.216
						c-8.03,0-14.563,6.532-14.563,14.563v25.139c0,0.377-0.143,0.741-0.398,1.019c-0.921,0.996-1.428,2.285-1.428,3.63v5.695
						c0,2.958,2.407,5.365,5.365,5.365h24.516c2.96,0,5.367-2.407,5.367-5.365v-5.695c0-1.343-0.508-2.633-1.429-3.631
						c-0.256-0.277-0.397-0.641-0.397-1.018V79.778c0-8.03-6.532-14.563-14.563-14.563H19.605z"/>
				</g>
				<g>
					<polygon style="fill:#FFBF31;" points="67.365,89.479 49.264,81.775 31.84,95.032 39.945,98.483 20.117,115.562 58.701,102.45 
						49.625,98.588 					"/>
				</g>
				<g>
					<polygon style="fill:#FF8B00;" points="44.959,100.893 62.699,91.783 45.646,84.527 31.84,95.032 39.945,98.483 
						20.117,115.562 53.096,104.356 					"/>
				</g>
				<g>
					<path style="fill:#33363A;" d="M20.117,117.062c-0.625,0-1.208-0.393-1.42-1.018c-0.267-0.784,0.153-1.636,0.938-1.902
						l34.866-11.849l-5.463-2.325c-0.536-0.228-0.892-0.744-0.912-1.326c-0.021-0.581,0.296-1.122,0.813-1.388l14.895-7.648
						l-14.355-6.108L34.802,94.663l5.731,2.44c0.762,0.324,1.117,1.205,0.792,1.968c-0.324,0.761-1.199,1.119-1.968,0.792
						l-8.105-3.451c-0.491-0.209-0.835-0.664-0.9-1.194c-0.066-0.53,0.154-1.056,0.58-1.379l17.424-13.257
						c0.43-0.327,1.002-0.398,1.495-0.187l18.102,7.703c0.536,0.228,0.892,0.744,0.912,1.326c0.021,0.581-0.296,1.122-0.813,1.388
						l-14.895,7.648l6.132,2.609c0.572,0.243,0.936,0.814,0.912,1.436c-0.023,0.622-0.428,1.164-1.017,1.364L20.6,116.981
						C20.439,117.036,20.277,117.062,20.117,117.062z"/>
				</g>
				<g>
					<path style="fill:#33363A;" d="M27.195,84.481c-0.384,0-0.768-0.146-1.061-0.439c-2.631-2.629-6.908-2.629-9.539,0
						c-0.586,0.586-1.535,0.586-2.121,0s-0.586-1.535,0-2.121c3.799-3.799,9.982-3.799,13.781,0c0.586,0.586,0.586,1.535,0,2.121
						C27.963,84.335,27.579,84.481,27.195,84.481z"/>
				</g>
				<g>
					<path style="fill:#33363A;" d="M27.195,92.398c-0.384,0-0.768-0.146-1.061-0.439c-1.274-1.273-2.969-1.976-4.771-1.976
						s-3.495,0.702-4.769,1.976c-0.586,0.586-1.535,0.586-2.121,0c-0.586-0.585-0.586-1.535,0-2.121
						c1.84-1.841,4.287-2.854,6.89-2.854c2.604,0,5.051,1.014,6.892,2.854c0.586,0.585,0.586,1.535,0,2.121
						C27.963,92.252,27.579,92.398,27.195,92.398z"/>
				</g>
			</g>
		</g>
		<g>
			<g>
				<g>
					<path style="fill:#FFBF31;" d="M98.312,56.903C83.02,56.895,70.613,44.488,70.609,29.199C70.611,13.898,83.014,1.5,98.311,1.5
						c15.301-0.006,27.701,12.404,27.701,27.701S113.613,56.896,98.312,56.903z"/>
				</g>
				<g>
					<path style="fill:#FF8B00;" d="M98.311,1.5c15.301-0.006,27.701,12.404,27.701,27.701s-12.398,27.695-27.699,27.702"/>
				</g>
				<g>
					<path style="fill:#FDFFDC;" d="M73.725,16.442h49.172c-0.783-1.506-1.699-2.929-2.734-4.257H76.459
						C75.424,13.514,74.508,14.937,73.725,16.442z"/>
				</g>
				<g>
					<path style="fill:#E6FF2E;" d="M98.311,16.442h24.586v-0.001c-0.193-0.371-0.395-0.736-0.604-1.098
						c-0.006-0.008-0.01-0.016-0.014-0.025c-0.209-0.358-0.424-0.711-0.646-1.059c-0.006-0.008-0.012-0.016-0.016-0.023
						c-0.225-0.35-0.457-0.693-0.697-1.031c-0.002-0.004-0.006-0.009-0.01-0.012c-0.242-0.343-0.49-0.678-0.748-1.008H98.311V16.442
						z"/>
				</g>
				<g>
					<path style="fill:#FDFFDC;" d="M70.609,29.199c0,2.966,0.473,5.82,1.338,8.502h52.73c0.863-2.68,1.334-5.534,1.334-8.5
						c0-2.965-0.471-5.82-1.334-8.498H71.943C71.08,23.381,70.609,26.234,70.609,29.199z"/>
				</g>
				<g>
					<path style="fill:#E6FF2E;" d="M125.953,27.484c-0.018-0.279-0.037-0.557-0.063-0.834c-0.016-0.172-0.033-0.344-0.051-0.515
						c-0.027-0.247-0.061-0.491-0.094-0.737c-0.025-0.18-0.047-0.361-0.076-0.541c-0.057-0.359-0.121-0.717-0.191-1.073
						c-0.051-0.251-0.108-0.502-0.164-0.753c-0.031-0.133-0.061-0.268-0.094-0.4c-0.064-0.263-0.133-0.521-0.203-0.781
						c-0.029-0.108-0.061-0.214-0.092-0.32c-0.078-0.277-0.16-0.554-0.248-0.826H98.311l0.002,16.998h26.365
						c0.088-0.274,0.17-0.552,0.25-0.829c0.031-0.105,0.061-0.212,0.09-0.319c0.072-0.259,0.139-0.52,0.203-0.781
						c0.033-0.131,0.063-0.266,0.092-0.398c0.059-0.251,0.117-0.502,0.166-0.756c0.07-0.355,0.135-0.712,0.191-1.071
						c0.029-0.181,0.051-0.364,0.076-0.546c0.033-0.244,0.066-0.486,0.094-0.731c0.018-0.172,0.035-0.345,0.051-0.519
						c0.025-0.275,0.047-0.553,0.063-0.832c0.01-0.143,0.02-0.287,0.027-0.433c0.018-0.427,0.031-0.854,0.031-1.284
						c0-0.432-0.014-0.859-0.031-1.283C125.973,27.772,125.963,27.628,125.953,27.484z"/>
				</g>
				<g>
					<path style="fill:#FDFFDC;" d="M76.471,46.218h43.689c1.037-1.329,1.953-2.753,2.736-4.259H73.732
						C74.516,43.465,75.434,44.889,76.471,46.218z"/>
				</g>
				<g>
					<path style="fill:#E6FF2E;" d="M98.312,41.959v4.259h21.848c0.258-0.331,0.508-0.667,0.75-1.009
						c0.004-0.004,0.006-0.008,0.008-0.012c0.24-0.339,0.475-0.684,0.699-1.033c0.004-0.006,0.008-0.013,0.012-0.02
						c0.225-0.35,0.441-0.703,0.65-1.063c0.004-0.007,0.008-0.014,0.012-0.02c0.209-0.362,0.412-0.729,0.605-1.102v-0.002H98.312z"
						/>
				</g>
				<path style="fill:#33363A;" d="M126.105,38.161c0.012-0.037,0.02-0.076,0.032-0.113c0.201-0.63,0.378-1.27,0.536-1.917
					c0.032-0.131,0.061-0.262,0.091-0.393c0.145-0.632,0.274-1.269,0.378-1.915c0.006-0.036,0.014-0.072,0.02-0.108
					c0.103-0.663,0.178-1.335,0.236-2.011c0.013-0.155,0.025-0.31,0.035-0.465c0.047-0.674,0.079-1.351,0.079-2.036
					c0-0.695-0.033-1.384-0.08-2.07c-0.009-0.124-0.017-0.249-0.027-0.373c-0.566-6.878-3.509-13.271-8.444-18.206
					C113.446,3.037,106.117,0,98.322,0c-0.004,0-0.008,0-0.012,0c-9.3,0-17.593,4.376-22.945,11.172
					c-0.029,0.031-0.063,0.057-0.089,0.091c-0.058,0.074-0.106,0.155-0.162,0.229c-0.428,0.559-0.835,1.135-1.223,1.725
					c-0.102,0.156-0.202,0.312-0.301,0.469c-0.386,0.613-0.751,1.24-1.092,1.883c-0.032,0.061-0.072,0.118-0.104,0.18
					c-0.018,0.034-0.027,0.07-0.042,0.104c-0.719,1.392-1.33,2.846-1.82,4.356c-0.004,0.012-0.013,0.021-0.017,0.033
					c-0.01,0.031-0.016,0.062-0.026,0.093c-0.204,0.64-0.385,1.291-0.545,1.95c-0.029,0.12-0.056,0.24-0.083,0.36
					c-0.148,0.643-0.28,1.292-0.385,1.95c-0.005,0.029-0.011,0.058-0.016,0.088c-0.104,0.664-0.178,1.337-0.236,2.014
					c-0.013,0.156-0.025,0.311-0.036,0.467c-0.047,0.673-0.079,1.35-0.079,2.035c0,0.684,0.032,1.36,0.079,2.033
					c0.011,0.157,0.023,0.313,0.036,0.469c0.058,0.677,0.133,1.35,0.237,2.014c0.005,0.03,0.011,0.06,0.016,0.09
					c0.105,0.659,0.237,1.308,0.386,1.952c0.028,0.119,0.054,0.239,0.083,0.358c0.161,0.658,0.341,1.308,0.546,1.948
					c0.011,0.033,0.017,0.067,0.028,0.1c0.004,0.013,0.013,0.022,0.018,0.035c0.493,1.517,1.109,2.979,1.833,4.376
					c0.012,0.026,0.018,0.053,0.031,0.078c0.043,0.082,0.09,0.162,0.134,0.244c0.091,0.17,0.184,0.337,0.278,0.505
					c0.136,0.243,0.274,0.485,0.417,0.724c0.086,0.145,0.175,0.288,0.264,0.431c0.161,0.259,0.325,0.515,0.494,0.77
					c0.08,0.12,0.16,0.238,0.241,0.357c0.189,0.275,0.382,0.546,0.58,0.815c0.069,0.093,0.138,0.187,0.208,0.279
					c0.091,0.121,0.178,0.245,0.271,0.364c0.023,0.029,0.052,0.051,0.077,0.078c5.352,6.798,13.646,11.18,22.947,11.185
					c0.001,0,0.001,0,0.002,0c9.293-0.004,17.58-4.376,22.931-11.163c0.032-0.034,0.069-0.063,0.098-0.1
					c0.064-0.082,0.117-0.172,0.18-0.254c0.416-0.545,0.813-1.106,1.191-1.68c0.111-0.17,0.22-0.339,0.328-0.511
					c0.38-0.604,0.739-1.221,1.075-1.854c0.034-0.065,0.076-0.125,0.11-0.19c0.019-0.036,0.028-0.074,0.044-0.11
					c0.716-1.387,1.325-2.836,1.814-4.34C126.09,38.187,126.101,38.176,126.105,38.161z M121.463,41.446
					c-0.258,0.487-0.531,0.966-0.82,1.437c-0.092,0.15-0.19,0.296-0.285,0.444c-0.231,0.359-0.471,0.712-0.718,1.059
					c-0.079,0.11-0.156,0.222-0.236,0.332H77.222c-0.049-0.066-0.094-0.133-0.142-0.2c-0.304-0.421-0.596-0.85-0.875-1.288
					c-0.065-0.101-0.131-0.201-0.195-0.303c-0.312-0.506-0.606-1.022-0.882-1.545c-0.374-0.709-0.719-1.436-1.028-2.181h48.421
					C122.205,39.969,121.85,40.717,121.463,41.446z M124.458,30.808c-0.009,0.151-0.022,0.301-0.034,0.451
					c-0.032,0.406-0.073,0.811-0.123,1.215c-0.018,0.141-0.034,0.283-0.054,0.423c-0.15,1.055-0.365,2.101-0.643,3.132
					c-0.016,0.058-0.033,0.115-0.049,0.173H73.07c-0.015-0.054-0.031-0.108-0.046-0.163c-0.28-1.035-0.496-2.084-0.647-3.143
					c-0.02-0.143-0.037-0.287-0.055-0.431c-0.05-0.399-0.091-0.799-0.122-1.2c-0.012-0.155-0.026-0.309-0.036-0.465
					c-0.033-0.532-0.054-1.066-0.054-1.601c0-0.536,0.021-1.07,0.054-1.603c0.01-0.154,0.023-0.307,0.035-0.46
					c0.032-0.402,0.072-0.803,0.122-1.203c0.018-0.144,0.035-0.288,0.055-0.432c0.151-1.059,0.366-2.108,0.646-3.143
					c0.014-0.052,0.03-0.104,0.044-0.156h50.495c0.31,1.119,0.543,2.256,0.702,3.405c0.008,0.062,0.015,0.125,0.023,0.187
					c0.061,0.467,0.107,0.937,0.143,1.407c0.01,0.128,0.02,0.255,0.028,0.383c0.033,0.537,0.054,1.075,0.054,1.615
					C124.512,29.738,124.49,30.274,124.458,30.808z M74.097,19.203c0.318-0.766,0.671-1.514,1.058-2.242
					c0.259-0.49,0.534-0.973,0.825-1.447c0.089-0.145,0.183-0.286,0.275-0.429c0.235-0.367,0.48-0.727,0.733-1.081
					c0.076-0.106,0.149-0.214,0.227-0.318h42.202c0.804,1.093,1.525,2.25,2.148,3.449c0.01,0.02,0.026,0.033,0.037,0.052
					c0.341,0.66,0.658,1.331,0.941,2.016H74.097z M98.312,3c0.004,0,0.006,0,0.01,0c6.994,0,13.57,2.725,18.517,7.673
					c0.004,0.004,0.008,0.009,0.012,0.013H79.791C84.535,5.94,91.087,3,98.312,3z M79.8,47.718h37.027
					c-4.744,4.743-11.292,7.682-18.513,7.686C91.093,55.399,84.545,52.46,79.8,47.718z"/>
			</g>
		</g>
	</g>
	<g>
		<g>
			<g>
				<path style="fill:#33363A;" d="M66.984,58.068c-0.828,0-1.5-0.672-1.5-1.5v-5.227h-5.227c-0.828,0-1.5-0.672-1.5-1.5
					s0.672-1.5,1.5-1.5h6.727c0.828,0,1.5,0.672,1.5,1.5v6.727C68.484,57.396,67.813,58.068,66.984,58.068z"/>
			</g>
			<g>
				<path style="fill:#33363A;" d="M59.395,58.932c-0.384,0-0.768-0.146-1.061-0.439c-0.586-0.586-0.586-1.535,0-2.121l7.59-7.59
					c0.586-0.586,1.535-0.586,2.121,0s0.586,1.535,0,2.121l-7.59,7.59C60.162,58.785,59.778,58.932,59.395,58.932z"/>
			</g>
			<g>
				<path style="fill:#33363A;" d="M56.204,62.114c-0.39,0-0.78-0.16-1.06-0.44c-0.28-0.27-0.44-0.66-0.44-1.06
					c0-0.391,0.16-0.78,0.44-1.061c0.56-0.55,1.56-0.55,2.119,0c0.28,0.28,0.44,0.67,0.44,1.061c0,0.399-0.16,0.79-0.44,1.06
					C56.984,61.954,56.604,62.114,56.204,62.114z"/>
			</g>
			<g>
				<path style="fill:#33363A;" d="M53.024,65.304c-0.4,0-0.78-0.159-1.061-0.439s-0.439-0.67-0.439-1.061
					c0-0.399,0.159-0.779,0.439-1.06c0.55-0.561,1.561-0.561,2.12,0c0.28,0.28,0.44,0.67,0.44,1.06c0,0.391-0.16,0.78-0.44,1.061
					S53.414,65.304,53.024,65.304z"/>
			</g>
			<g>
				<path style="fill:#33363A;" d="M49.844,68.484c-0.399,0-0.79-0.16-1.06-0.44c-0.28-0.28-0.44-0.67-0.44-1.06
					c0-0.4,0.16-0.78,0.44-1.061c0.55-0.56,1.56-0.56,2.12,0c0.279,0.28,0.439,0.67,0.439,1.061c0,0.39-0.16,0.779-0.439,1.06
					C50.624,68.324,50.234,68.484,49.844,68.484z"/>
			</g>
		</g>
		<g>
			<g>
				<path style="fill:#33363A;" d="M77.889,68.971c-0.828,0-1.5-0.672-1.5-1.5v-5.227h-5.227c-0.828,0-1.5-0.672-1.5-1.5
					s0.672-1.5,1.5-1.5h6.727c0.828,0,1.5,0.672,1.5,1.5v6.727C79.389,68.299,78.717,68.971,77.889,68.971z"/>
			</g>
			<g>
				<path style="fill:#33363A;" d="M70.297,69.836c-0.384,0-0.768-0.146-1.061-0.439c-0.586-0.586-0.586-1.535,0-2.121l7.592-7.592
					c0.586-0.586,1.535-0.586,2.121,0s0.586,1.535,0,2.121l-7.592,7.592C71.064,69.689,70.681,69.836,70.297,69.836z"/>
			</g>
			<g>
				<path style="fill:#33363A;" d="M67.104,73.024c-0.391,0-0.78-0.16-1.061-0.44c-0.27-0.28-0.43-0.67-0.43-1.06
					c0-0.4,0.16-0.78,0.43-1.061c0.561-0.56,1.57-0.56,2.13,0c0.28,0.28,0.431,0.67,0.431,1.061c0,0.39-0.15,0.779-0.431,1.06
					C67.895,72.864,67.504,73.024,67.104,73.024z"/>
			</g>
			<g>
				<path style="fill:#33363A;" d="M63.924,76.204c-0.39,0-0.779-0.16-1.06-0.44c-0.28-0.279-0.44-0.659-0.44-1.06
					s0.16-0.78,0.44-1.06c0.56-0.561,1.569-0.561,2.12,0c0.279,0.279,0.439,0.67,0.439,1.06s-0.16,0.78-0.43,1.06
					C64.714,76.044,64.324,76.204,63.924,76.204z"/>
			</g>
			<g>
				<path style="fill:#33363A;" d="M60.744,79.384c-0.39,0-0.78-0.16-1.061-0.439c-0.279-0.28-0.439-0.66-0.439-1.061
					c0-0.39,0.16-0.779,0.439-1.06c0.57-0.561,1.561-0.55,2.12,0c0.28,0.28,0.44,0.67,0.44,1.06c0,0.391-0.16,0.78-0.44,1.061
					C61.524,79.224,61.134,79.384,60.744,79.384z"/>
			</g>
		</g>
	</g>
</g>
<g>
</g>
<g>
</g>
<g>
</g>
<g>
</g>
<g>
</g>
<g>
</g>
<g>
</g>
<g>
</g>
<g>
</g>
<g>
</g>
<g>
</g>
<g>
</g>
<g>
</g>
<g>
</g>
<g>
</g>
</svg>
