<?xml version="1.0" encoding="iso-8859-1"?>
<!-- Generator: Adobe Illustrator 19.0.0, SVG Export Plug-In . SVG Version: 6.00 Build 0)  -->
<svg version="1.1" id="Layer_1" xmlns="http://www.w3.org/2000/svg" xmlns:xlink="http://www.w3.org/1999/xlink" x="0px" y="0px"
	 viewBox="0 0 121.924 121.924" style="enable-background:new 0 0 121.924 121.924;" xml:space="preserve">
<g>
	<g>
		<g>
			<g>
				<path style="fill:#FF8B00;" d="M38.284,65.745c4.518-4.517,6.627-10.515,6.377-16.431c-5.916-0.249-11.913,1.86-16.43,6.376
					c-4.517,4.518-6.627,10.515-6.376,16.431C27.771,72.371,33.768,70.263,38.284,65.745z"/>
			</g>
			<g>
				<path style="fill:#33363A;" d="M22.782,73.641c-0.33,0-0.659-0.007-0.99-0.021c-0.778-0.033-1.402-0.657-1.435-1.436
					c-0.278-6.548,2.206-12.946,6.814-17.555c4.607-4.606,11.008-7.083,17.553-6.814c0.779,0.033,1.403,0.657,1.436,1.436
					c0.277,6.55-2.207,12.948-6.815,17.555l0,0l0,0C34.971,71.181,28.982,73.641,22.782,73.641z M43.173,50.803
					c-5.207,0.144-10.2,2.269-13.881,5.948c-3.681,3.682-5.807,8.676-5.949,13.882c5.207-0.143,10.2-2.268,13.88-5.948l0,0
					C40.904,61.004,43.03,56.01,43.173,50.803z"/>
			</g>
		</g>
		<g>
			<g>
				<path style="fill:#FF8B00;" d="M83.639,65.745c-4.517-4.517-6.626-10.515-6.377-16.431c5.917-0.249,11.913,1.86,16.431,6.376
					c4.518,4.518,6.626,10.515,6.376,16.431C94.152,72.371,88.156,70.263,83.639,65.745z"/>
			</g>
			<g>
				<path style="fill:#33363A;" d="M99.143,73.641c-6.2,0-12.19-2.46-16.564-6.835c-4.607-4.606-7.091-11.005-6.815-17.555
					c0.033-0.778,0.657-1.402,1.436-1.436c6.542-0.266,12.947,2.208,17.554,6.814c4.607,4.607,7.091,11.006,6.814,17.555
					c-0.033,0.778-0.657,1.402-1.435,1.436C99.802,73.634,99.472,73.641,99.143,73.641z M78.75,50.803
					c0.144,5.207,2.27,10.202,5.949,13.882c3.68,3.681,8.675,5.806,13.881,5.948c-0.143-5.207-2.268-10.201-5.948-13.882
					C88.951,53.072,83.956,50.946,78.75,50.803z"/>
			</g>
		</g>
	</g>
	<g>
		<g>
			<polygon style="fill:#4B6466;" points="60.963,76.658 1.5,87.763 6.711,117.624 115.214,117.624 120.424,87.763 			"/>
		</g>
		<g>
			<polygon style="fill:#FF5252;" points="60.963,76.658 1.5,87.763 6.711,117.624 115.214,117.624 120.424,87.763 			"/>
		</g>
		<g>
			<polygon style="fill:#FF1A1A;" points="60.963,93.873 1.5,87.763 6.711,117.624 115.214,117.624 120.424,87.763 			"/>
		</g>
		<g>
			<path style="fill:#33363A;" d="M115.214,119.124H6.711c-0.729,0-1.353-0.524-1.478-1.242L0.023,88.021
				c-0.141-0.81,0.395-1.581,1.202-1.732l59.463-11.104c0.182-0.033,0.369-0.033,0.551,0l59.461,11.104
				c0.808,0.151,1.343,0.923,1.202,1.732l-5.21,29.861C116.566,118.6,115.943,119.124,115.214,119.124z M7.972,116.124h105.981
				l4.738-27.159l-57.729-10.78l-57.73,10.78L7.972,116.124z"/>
		</g>
	</g>
	<g>
		<g>
			<polygon style="fill:#EFA37D;" points="47.292,52.472 47.162,83.384 60.962,116.941 74.763,83.384 74.634,52.472 			"/>
		</g>
		<g>
			<polygon style="fill:#0086FF;" points="70.04,94.867 51.885,94.867 60.706,116.318 61.219,116.318 			"/>
		</g>
		<g>
			<path style="fill:#33363A;" d="M61.219,117.817h-0.513c-0.608,0-1.156-0.367-1.387-0.93l-8.821-21.45
				c-0.19-0.463-0.137-0.989,0.141-1.405s0.746-0.665,1.246-0.665H70.04c0.5,0,0.968,0.249,1.246,0.665s0.332,0.942,0.141,1.405
				l-8.821,21.45C62.375,117.45,61.827,117.817,61.219,117.817z M54.124,96.367l6.839,16.63l6.839-16.63H54.124z"/>
		</g>
		<g>
			<polygon style="fill:#F9C19B;" points="47.292,52.472 47.162,83.384 60.962,86.341 74.763,83.384 74.634,52.472 			"/>
		</g>
		<g>
			<path style="fill:#EFA37D;" d="M74.634,52.472H47.292l-1.5,17.625l10.447,8.549c1.374,1.124,3.049,1.686,4.723,1.686
				c1.675,0,3.351-0.562,4.724-1.686l10.448-8.547L74.634,52.472z"/>
		</g>
		<g>
			<path style="fill:#33363A;" d="M60.962,118.441L60.962,118.441c-0.608,0-1.156-0.367-1.387-0.93l-13.8-33.557
				c-0.075-0.183-0.114-0.379-0.113-0.576l0.13-30.912c0.003-0.826,0.674-1.494,1.5-1.494h27.342c0.826,0,1.497,0.668,1.5,1.494
				l0.129,30.912c0.001,0.197-0.038,0.394-0.113,0.576l-13.801,33.557C62.118,118.073,61.57,118.441,60.962,118.441z M48.664,83.091
				l12.298,29.906l12.299-29.906L73.14,53.972H48.786L48.664,83.091z"/>
		</g>
	</g>
	<g>
		<path style="fill:#FFBF31;" d="M86.28,30.296c0,12.705-11.335,23.004-25.318,23.004c-13.982,0-25.318-10.299-25.318-23.004
			S46.98,4.3,60.962,4.3C74.945,4.3,86.28,17.591,86.28,30.296z"/>
	</g>
	<g>
		<path style="fill:#FF8B00;" d="M86.28,30.296c0,12.705-11.335,23.004-25.318,23.004c-13.982,0-25.318-10.299-25.318-23.004
			S46.98,10.175,60.962,10.175C74.945,10.175,86.28,17.591,86.28,30.296z"/>
	</g>
	<g>
		<path style="fill:#33363A;" d="M60.962,54.8c-14.788,0-26.818-10.992-26.818-24.504C34.144,17.316,45.613,2.8,60.962,2.8
			S87.78,17.316,87.78,30.296C87.78,43.808,75.75,54.8,60.962,54.8z M60.962,5.8c-13.632,0-23.818,12.933-23.818,24.496
			c0,11.857,10.685,21.504,23.818,21.504S84.78,42.153,84.78,30.296C84.78,18.733,74.594,5.8,60.962,5.8z"/>
	</g>
	<g>
		<g>
			<path style="fill:#F9C19B;" d="M40.951,49.493c-3.907,0-7.073-3.166-7.073-7.072c0-3.906,3.166-7.073,7.073-7.073"/>
		</g>
		<g>
			<path style="fill:#33363A;" d="M40.951,50.993c-4.728,0-8.573-3.846-8.573-8.572c0-4.728,3.846-8.573,8.573-8.573
				c0.829,0,1.5,0.672,1.5,1.5s-0.671,1.5-1.5,1.5c-3.073,0-5.573,2.5-5.573,5.573c0,3.072,2.5,5.572,5.573,5.572
				c0.829,0,1.5,0.672,1.5,1.5S41.78,50.993,40.951,50.993z"/>
		</g>
	</g>
	<g>
		<path style="fill:#F9C19B;" d="M80.974,35.348c3.906,0,7.073,3.167,7.073,7.073c0,3.908-3.167,7.072-7.073,7.072"/>
	</g>
	<g>
		<path style="fill:#33363A;" d="M80.974,50.993c-0.829,0-1.5-0.672-1.5-1.5s0.671-1.5,1.5-1.5c3.073,0,5.573-2.5,5.573-5.572
			c0-3.073-2.5-5.573-5.573-5.573c-0.829,0-1.5-0.672-1.5-1.5s0.671-1.5,1.5-1.5c4.728,0,8.573,3.846,8.573,8.573
			C89.547,47.148,85.701,50.993,80.974,50.993z"/>
	</g>
	<g>
		<path style="fill:#EFA37D;" d="M75.631,26.868l-13.362-2.379c-0.864-0.152-1.748-0.152-2.612,0l-13.361,2.379
			c-3.56,0.633-6.152,3.726-6.152,7.344v19.509c0,2.239,1.003,4.356,2.735,5.774l13.361,13.432c1.374,1.125,3.049,1.686,4.723,1.686
			c1.675,0,3.351-0.561,4.724-1.686l13.362-13.432c1.732-1.418,2.734-3.535,2.734-5.774V34.212
			C81.782,30.595,79.189,27.501,75.631,26.868z"/>
	</g>
	<g>
		<path style="fill:#F9C19B;" d="M75.631,26.868l-13.362,6.475c-0.864-0.152-1.748-0.152-2.612,0l-13.361-6.475
			c-3.56,0.633-6.152,3.726-6.152,7.344v19.509c0,2.239,1.003,4.356,2.735,5.774l13.361,13.432c1.374,1.125,3.049,1.686,4.723,1.686
			c1.675,0,3.351-0.561,4.724-1.686l13.362-13.432c1.732-1.418,2.734-3.535,2.734-5.774V34.212
			C81.782,30.595,79.189,27.501,75.631,26.868z"/>
	</g>
	<g>
		<path style="fill:#EFA37D;" d="M60.962,74.612c1.675,0,3.351-0.561,4.724-1.686l13.362-13.432
			c1.732-1.418,2.734-3.535,2.734-5.774V34.212c0-3.617-2.593-6.711-6.151-7.344l-13.362-2.379c-0.864-0.152-0.441-0.152-1.307,0"/>
	</g>
	<g>
		<path style="fill:#33363A;" d="M60.962,76.112c-2.063,0-4.078-0.719-5.673-2.025c-0.04-0.032-0.077-0.066-0.113-0.103
			l-13.31-13.38c-2.05-1.708-3.224-4.212-3.224-6.884V34.212c0-4.35,3.108-8.06,7.39-8.82l13.361-2.379
			c1.041-0.185,2.095-0.184,3.135-0.001l13.365,2.38c4.281,0.761,7.389,4.471,7.389,8.82v19.509c0,2.672-1.173,5.176-3.223,6.884
			l-13.311,13.38c-0.036,0.036-0.074,0.07-0.113,0.103C65.042,75.393,63.027,76.112,60.962,76.112z M57.246,71.812
			c2.103,1.679,5.334,1.679,7.434,0l13.305-13.374c0.036-0.036,0.074-0.07,0.113-0.103c1.388-1.138,2.185-2.819,2.185-4.614V34.212
			c0-2.894-2.066-5.36-4.914-5.867l0,0l-13.362-2.379c-0.691-0.121-1.394-0.122-2.089,0.001l-13.359,2.378
			c-2.848,0.507-4.915,2.974-4.915,5.867v19.509c0,1.795,0.796,3.477,2.186,4.613c0.04,0.033,0.077,0.067,0.113,0.104L57.246,71.812
			z"/>
	</g>
	<g>
		<g>
			<path style="fill:#33363A;" d="M18.007,119.124c-0.563,0-1.102-0.317-1.358-0.86l-5.333-11.309
				c-0.353-0.749-0.032-1.643,0.717-1.996c0.748-0.354,1.643-0.033,1.997,0.717l5.333,11.309c0.353,0.749,0.032,1.643-0.717,1.996
				C18.439,119.078,18.221,119.124,18.007,119.124z"/>
		</g>
		<g>
			<path style="fill:#33363A;" d="M103.918,119.124c-0.214,0-0.432-0.046-0.639-0.144c-0.75-0.354-1.07-1.247-0.717-1.996
				l5.333-11.309c0.354-0.749,1.248-1.069,1.997-0.717c0.75,0.354,1.07,1.247,0.717,1.996l-5.333,11.309
				C105.02,118.807,104.481,119.124,103.918,119.124z"/>
		</g>
	</g>
	<g>
		<g>
			<path style="fill:#FFBF31;" d="M60.962,10.994c-11.517,0-20.852,9.335-20.852,20.852h41.703
				C81.814,20.329,72.478,10.994,60.962,10.994z"/>
		</g>
		<g>
			<path style="fill:#FF8B00;" d="M60.962,16.965c-9.441,0-17.412,6.274-19.98,14.881h39.959
				C78.373,23.239,70.402,16.965,60.962,16.965z"/>
		</g>
		<g>
			<path style="fill:#33363A;" d="M81.814,33.346H40.11c-0.829,0-1.5-0.672-1.5-1.5c0-0.828,0.671-1.5,1.5-1.5h41.703
				c0.829,0,1.5,0.672,1.5,1.5C83.314,32.674,82.642,33.346,81.814,33.346z"/>
		</g>
	</g>
	<g>
		<rect x="69.792" y="116.318" style="fill:#FF5252;" width="0" height="0"/>
	</g>
	<g>
		<g>
			<path style="fill:#6EBDF9;" d="M76.133,107.401c0-6.92,5.612-12.533,12.532-12.533c6.921,0,12.532,5.613,12.532,12.533"/>
		</g>
		<g>
			<path style="fill:#0086FF;" d="M76.133,107.401c0-5.299,5.612-9.601,12.532-9.601c6.921,0,12.532,4.302,12.532,9.601"/>
		</g>
		<g>
			<line style="fill:#FFFFFF;" x1="101.197" y1="107.401" x2="76.133" y2="107.401"/>
		</g>
		<g>
			<line style="fill:#DCE6EA;" x1="101.197" y1="107.401" x2="76.133" y2="107.401"/>
		</g>
		<path style="fill:#33363A;" d="M88.665,93.367c-7.737,0-14.032,6.295-14.032,14.033c0,0.828,0.671,1.5,1.5,1.5h25.064
			c0.829,0,1.5-0.672,1.5-1.5C102.697,99.662,96.402,93.367,88.665,93.367z M88.665,96.367c5.573,0,10.182,4.158,10.918,9.533
			H77.747C78.483,100.525,83.092,96.367,88.665,96.367z"/>
		<g>
			<g>
				<circle style="fill:#FFFFFF;" cx="88.664" cy="107.426" r="4.143"/>
			</g>
			<g>
				<path style="fill:#D8E5EA;" d="M85.734,110.356c-1.617-1.615-1.617-4.24,0-5.858c1.619-1.618,4.243-1.618,5.859,0"/>
			</g>
			<g>
				<path style="fill:#33363A;" d="M88.665,113.07c-1.507,0-2.925-0.588-3.991-1.654c-1.065-1.063-1.652-2.48-1.652-3.988
					s0.586-2.925,1.652-3.991c1.067-1.066,2.484-1.653,3.992-1.653c1.508,0,2.925,0.588,3.99,1.654
					c1.066,1.066,1.653,2.484,1.653,3.992s-0.588,2.924-1.655,3.987C91.59,112.483,90.173,113.07,88.665,113.07z M88.665,104.783
					c-0.706,0-1.371,0.275-1.87,0.774c-0.499,0.499-0.773,1.163-0.773,1.87c0,0.706,0.274,1.368,0.773,1.866
					c1.001,1.002,2.741,1.001,3.738,0.002c0.501-0.5,0.775-1.162,0.776-1.867c0-0.707-0.275-1.371-0.775-1.871c0,0,0,0-0.001-0.001
					C90.034,105.059,89.371,104.783,88.665,104.783z"/>
			</g>
		</g>
	</g>
</g>
<g>
</g>
<g>
</g>
<g>
</g>
<g>
</g>
<g>
</g>
<g>
</g>
<g>
</g>
<g>
</g>
<g>
</g>
<g>
</g>
<g>
</g>
<g>
</g>
<g>
</g>
<g>
</g>
<g>
</g>
</svg>
