<?xml version="1.0" encoding="iso-8859-1"?>
<!-- Generator: Adobe Illustrator 19.0.0, SVG Export Plug-In . SVG Version: 6.00 Build 0)  -->
<svg version="1.1" id="Layer_1" xmlns="http://www.w3.org/2000/svg" xmlns:xlink="http://www.w3.org/1999/xlink" x="0px" y="0px"
	 viewBox="0 0 127.121 127.121" style="enable-background:new 0 0 127.121 127.121;" xml:space="preserve">
<g>
	<g>
		<g>
			<g>
				<g>
					<path style="fill:#FFBE08;" d="M47.535,44.963c0,1.251-1.015,2.264-2.266,2.264H3.765c-1.25,0-2.265-1.013-2.265-2.264v-5.661
						c0-1.251,1.015-2.265,2.265-2.265H45.27c1.251,0,2.266,1.014,2.266,2.265V44.963z"/>
				</g>
				<g>
					<path style="fill:#FFD00B;" d="M3.765,37.038c-1.193,0-2.161,0.926-2.248,2.098c0.087,1.173,1.055,2.1,2.248,2.1H45.27
						c1.194,0,2.162-0.927,2.248-2.1c-0.086-1.172-1.054-2.098-2.248-2.098H3.765z"/>
				</g>
				<g>
					<path style="fill:#33363A;" d="M45.27,48.727H3.765C1.688,48.727,0,47.039,0,44.963v-5.661c0-2.076,1.688-3.765,3.765-3.765
						H45.27c2.076,0,3.766,1.689,3.766,3.765v5.661C49.035,47.039,47.346,48.727,45.27,48.727z M3.765,38.538
						C3.343,38.538,3,38.88,3,39.302v5.661c0,0.421,0.343,0.764,0.765,0.764H45.27c0.422,0,0.766-0.343,0.766-0.764v-5.661
						c0-0.422-0.344-0.765-0.766-0.765H3.765z"/>
				</g>
			</g>
			<g>
				<g>
					<path style="fill:#33363A;" d="M8.093,44.768c-0.828,0-1.5-0.671-1.5-1.5v-2.272c0-0.829,0.672-1.5,1.5-1.5s1.5,0.671,1.5,1.5
						v2.272C9.593,44.097,8.921,44.768,8.093,44.768z"/>
				</g>
				<g>
					<path style="fill:#33363A;" d="M13.621,44.768c-0.828,0-1.5-0.671-1.5-1.5v-2.272c0-0.829,0.672-1.5,1.5-1.5s1.5,0.671,1.5,1.5
						v2.272C15.121,44.097,14.449,44.768,13.621,44.768z"/>
				</g>
				<g>
					<path style="fill:#33363A;" d="M19.149,44.768c-0.828,0-1.5-0.671-1.5-1.5v-2.272c0-0.829,0.672-1.5,1.5-1.5s1.5,0.671,1.5,1.5
						v2.272C20.649,44.097,19.978,44.768,19.149,44.768z"/>
				</g>
				<g>
					<path style="fill:#33363A;" d="M24.678,44.768c-0.828,0-1.5-0.671-1.5-1.5v-2.272c0-0.829,0.672-1.5,1.5-1.5s1.5,0.671,1.5,1.5
						v2.272C26.178,44.097,25.506,44.768,24.678,44.768z"/>
				</g>
				<g>
					<path style="fill:#33363A;" d="M30.205,44.768c-0.828,0-1.5-0.671-1.5-1.5v-2.272c0-0.829,0.672-1.5,1.5-1.5s1.5,0.671,1.5,1.5
						v2.272C31.705,44.097,31.033,44.768,30.205,44.768z"/>
				</g>
				<g>
					<path style="fill:#33363A;" d="M35.732,44.768c-0.828,0-1.5-0.671-1.5-1.5v-2.272c0-0.829,0.672-1.5,1.5-1.5s1.5,0.671,1.5,1.5
						v2.272C37.232,44.097,36.561,44.768,35.732,44.768z"/>
				</g>
				<g>
					<path style="fill:#33363A;" d="M41.262,44.768c-0.828,0-1.5-0.671-1.5-1.5v-2.272c0-0.829,0.672-1.5,1.5-1.5s1.5,0.671,1.5,1.5
						v2.272C42.762,44.097,42.09,44.768,41.262,44.768z"/>
				</g>
			</g>
		</g>
		<g>
			<g>
				<g>
					<path style="fill:#FFBE08;" d="M47.535,55.153c0,1.251-1.015,2.264-2.266,2.264H3.765c-1.25,0-2.265-1.013-2.265-2.264v-5.661
						c0-1.251,1.015-2.265,2.265-2.265H45.27c1.251,0,2.266,1.014,2.266,2.265V55.153z"/>
				</g>
				<g>
					<path style="fill:#FFD00B;" d="M3.765,47.227c-1.193,0-2.161,0.926-2.248,2.098c0.087,1.173,1.055,2.1,2.248,2.1H45.27
						c1.194,0,2.162-0.927,2.248-2.1c-0.086-1.172-1.054-2.098-2.248-2.098H3.765z"/>
				</g>
				<g>
					<path style="fill:#33363A;" d="M45.27,58.917H3.765C1.688,58.917,0,57.228,0,55.153v-5.661c0-2.076,1.688-3.765,3.765-3.765
						H45.27c2.076,0,3.766,1.689,3.766,3.765v5.661C49.035,57.228,47.346,58.917,45.27,58.917z M3.765,48.727
						C3.343,48.727,3,49.07,3,49.492v5.661c0,0.421,0.343,0.764,0.765,0.764H45.27c0.422,0,0.766-0.343,0.766-0.764v-5.661
						c0-0.422-0.344-0.765-0.766-0.765H3.765z"/>
				</g>
			</g>
			<g>
				<g>
					<path style="fill:#33363A;" d="M8.093,54.958c-0.828,0-1.5-0.671-1.5-1.5v-2.272c0-0.829,0.672-1.5,1.5-1.5s1.5,0.671,1.5,1.5
						v2.272C9.593,54.286,8.921,54.958,8.093,54.958z"/>
				</g>
				<g>
					<path style="fill:#33363A;" d="M13.621,54.958c-0.828,0-1.5-0.671-1.5-1.5v-2.272c0-0.829,0.672-1.5,1.5-1.5s1.5,0.671,1.5,1.5
						v2.272C15.121,54.286,14.449,54.958,13.621,54.958z"/>
				</g>
				<g>
					<path style="fill:#33363A;" d="M19.149,54.958c-0.828,0-1.5-0.671-1.5-1.5v-2.272c0-0.829,0.672-1.5,1.5-1.5s1.5,0.671,1.5,1.5
						v2.272C20.649,54.286,19.978,54.958,19.149,54.958z"/>
				</g>
				<g>
					<path style="fill:#33363A;" d="M24.678,54.958c-0.828,0-1.5-0.671-1.5-1.5v-2.272c0-0.829,0.672-1.5,1.5-1.5s1.5,0.671,1.5,1.5
						v2.272C26.178,54.286,25.506,54.958,24.678,54.958z"/>
				</g>
				<g>
					<path style="fill:#33363A;" d="M30.205,54.958c-0.828,0-1.5-0.671-1.5-1.5v-2.272c0-0.829,0.672-1.5,1.5-1.5s1.5,0.671,1.5,1.5
						v2.272C31.705,54.286,31.033,54.958,30.205,54.958z"/>
				</g>
				<g>
					<path style="fill:#33363A;" d="M35.732,54.958c-0.828,0-1.5-0.671-1.5-1.5v-2.272c0-0.829,0.672-1.5,1.5-1.5s1.5,0.671,1.5,1.5
						v2.272C37.232,54.286,36.561,54.958,35.732,54.958z"/>
				</g>
				<g>
					<path style="fill:#33363A;" d="M41.262,54.958c-0.828,0-1.5-0.671-1.5-1.5v-2.272c0-0.829,0.672-1.5,1.5-1.5s1.5,0.671,1.5,1.5
						v2.272C42.762,54.286,42.09,54.958,41.262,54.958z"/>
				</g>
			</g>
		</g>
		<g>
			<g>
				<g>
					<path style="fill:#FFBE08;" d="M47.535,65.342c0,1.251-1.015,2.264-2.266,2.264H3.765c-1.25,0-2.265-1.013-2.265-2.264v-5.661
						c0-1.251,1.015-2.265,2.265-2.265H45.27c1.251,0,2.266,1.014,2.266,2.265V65.342z"/>
				</g>
				<g>
					<path style="fill:#FFD00B;" d="M3.765,57.417c-1.193,0-2.161,0.926-2.248,2.098c0.087,1.173,1.055,2.1,2.248,2.1H45.27
						c1.194,0,2.162-0.927,2.248-2.1c-0.086-1.172-1.054-2.098-2.248-2.098H3.765z"/>
				</g>
				<g>
					<path style="fill:#33363A;" d="M45.27,69.106H3.765C1.688,69.106,0,67.417,0,65.342v-5.661c0-2.076,1.688-3.765,3.765-3.765
						H45.27c2.076,0,3.766,1.689,3.766,3.765v5.661C49.035,67.417,47.346,69.106,45.27,69.106z M3.765,58.917
						C3.343,58.917,3,59.259,3,59.681v5.661c0,0.421,0.343,0.764,0.765,0.764H45.27c0.422,0,0.766-0.343,0.766-0.764v-5.661
						c0-0.422-0.344-0.765-0.766-0.765H3.765z"/>
				</g>
			</g>
			<g>
				<g>
					<path style="fill:#33363A;" d="M8.093,65.148c-0.828,0-1.5-0.671-1.5-1.5v-2.273c0-0.829,0.672-1.5,1.5-1.5s1.5,0.671,1.5,1.5
						v2.273C9.593,64.477,8.921,65.148,8.093,65.148z"/>
				</g>
				<g>
					<path style="fill:#33363A;" d="M13.621,65.148c-0.828,0-1.5-0.671-1.5-1.5v-2.273c0-0.829,0.672-1.5,1.5-1.5s1.5,0.671,1.5,1.5
						v2.273C15.121,64.477,14.449,65.148,13.621,65.148z"/>
				</g>
				<g>
					<path style="fill:#33363A;" d="M19.149,65.148c-0.828,0-1.5-0.671-1.5-1.5v-2.273c0-0.829,0.672-1.5,1.5-1.5s1.5,0.671,1.5,1.5
						v2.273C20.649,64.477,19.978,65.148,19.149,65.148z"/>
				</g>
				<g>
					<path style="fill:#33363A;" d="M24.678,65.148c-0.828,0-1.5-0.671-1.5-1.5v-2.273c0-0.829,0.672-1.5,1.5-1.5s1.5,0.671,1.5,1.5
						v2.273C26.178,64.477,25.506,65.148,24.678,65.148z"/>
				</g>
				<g>
					<path style="fill:#33363A;" d="M30.205,65.148c-0.828,0-1.5-0.671-1.5-1.5v-2.273c0-0.829,0.672-1.5,1.5-1.5s1.5,0.671,1.5,1.5
						v2.273C31.705,64.477,31.033,65.148,30.205,65.148z"/>
				</g>
				<g>
					<path style="fill:#33363A;" d="M35.732,65.148c-0.828,0-1.5-0.671-1.5-1.5v-2.273c0-0.829,0.672-1.5,1.5-1.5s1.5,0.671,1.5,1.5
						v2.273C37.232,64.477,36.561,65.148,35.732,65.148z"/>
				</g>
				<g>
					<path style="fill:#33363A;" d="M41.262,65.148c-0.828,0-1.5-0.671-1.5-1.5v-2.273c0-0.829,0.672-1.5,1.5-1.5s1.5,0.671,1.5,1.5
						v2.273C42.762,64.477,42.09,65.148,41.262,65.148z"/>
				</g>
			</g>
		</g>
		<g>
			<g>
				<g>
					<path style="fill:#FFBE08;" d="M47.535,75.532c0,1.251-1.015,2.264-2.266,2.264H3.765c-1.25,0-2.265-1.013-2.265-2.264v-5.661
						c0-1.251,1.015-2.265,2.265-2.265H45.27c1.251,0,2.266,1.014,2.266,2.265V75.532z"/>
				</g>
				<g>
					<path style="fill:#FFD00B;" d="M3.765,67.606c-1.193,0-2.161,0.926-2.248,2.098c0.087,1.173,1.055,2.1,2.248,2.1H45.27
						c1.194,0,2.162-0.927,2.248-2.1c-0.086-1.172-1.054-2.098-2.248-2.098H3.765z"/>
				</g>
				<g>
					<path style="fill:#33363A;" d="M45.27,79.295H3.765C1.688,79.295,0,77.607,0,75.532v-5.661c0-2.076,1.688-3.765,3.765-3.765
						H45.27c2.076,0,3.766,1.689,3.766,3.765v5.661C49.035,77.607,47.346,79.295,45.27,79.295z M3.765,69.106
						C3.343,69.106,3,69.449,3,69.871v5.661c0,0.421,0.343,0.764,0.765,0.764H45.27c0.422,0,0.766-0.343,0.766-0.764v-5.661
						c0-0.422-0.344-0.765-0.766-0.765H3.765z"/>
				</g>
			</g>
			<g>
				<g>
					<path style="fill:#33363A;" d="M8.093,75.336c-0.828,0-1.5-0.671-1.5-1.5v-2.272c0-0.829,0.672-1.5,1.5-1.5s1.5,0.671,1.5,1.5
						v2.272C9.593,74.665,8.921,75.336,8.093,75.336z"/>
				</g>
				<g>
					<path style="fill:#33363A;" d="M13.621,75.336c-0.828,0-1.5-0.671-1.5-1.5v-2.272c0-0.829,0.672-1.5,1.5-1.5s1.5,0.671,1.5,1.5
						v2.272C15.121,74.665,14.449,75.336,13.621,75.336z"/>
				</g>
				<g>
					<path style="fill:#33363A;" d="M19.149,75.336c-0.828,0-1.5-0.671-1.5-1.5v-2.272c0-0.829,0.672-1.5,1.5-1.5s1.5,0.671,1.5,1.5
						v2.272C20.649,74.665,19.978,75.336,19.149,75.336z"/>
				</g>
				<g>
					<path style="fill:#33363A;" d="M24.678,75.336c-0.828,0-1.5-0.671-1.5-1.5v-2.272c0-0.829,0.672-1.5,1.5-1.5s1.5,0.671,1.5,1.5
						v2.272C26.178,74.665,25.506,75.336,24.678,75.336z"/>
				</g>
				<g>
					<path style="fill:#33363A;" d="M30.205,75.336c-0.828,0-1.5-0.671-1.5-1.5v-2.272c0-0.829,0.672-1.5,1.5-1.5s1.5,0.671,1.5,1.5
						v2.272C31.705,74.665,31.033,75.336,30.205,75.336z"/>
				</g>
				<g>
					<path style="fill:#33363A;" d="M35.732,75.336c-0.828,0-1.5-0.671-1.5-1.5v-2.272c0-0.829,0.672-1.5,1.5-1.5s1.5,0.671,1.5,1.5
						v2.272C37.232,74.665,36.561,75.336,35.732,75.336z"/>
				</g>
				<g>
					<path style="fill:#33363A;" d="M41.262,75.336c-0.828,0-1.5-0.671-1.5-1.5v-2.272c0-0.829,0.672-1.5,1.5-1.5s1.5,0.671,1.5,1.5
						v2.272C42.762,74.665,42.09,75.336,41.262,75.336z"/>
				</g>
			</g>
		</g>
		<g>
			<g>
				<g>
					<path style="fill:#FFBE08;" d="M47.535,85.721c0,1.251-1.015,2.264-2.266,2.264H3.765c-1.25,0-2.265-1.013-2.265-2.264V80.06
						c0-1.251,1.015-2.265,2.265-2.265H45.27c1.251,0,2.266,1.014,2.266,2.265V85.721z"/>
				</g>
				<g>
					<path style="fill:#FFD00B;" d="M3.765,77.795c-1.193,0-2.161,0.926-2.248,2.098c0.087,1.173,1.055,2.1,2.248,2.1H45.27
						c1.194,0,2.162-0.927,2.248-2.1c-0.086-1.172-1.054-2.098-2.248-2.098H3.765z"/>
				</g>
				<g>
					<path style="fill:#33363A;" d="M45.27,89.485H3.765C1.688,89.485,0,87.796,0,85.721V80.06c0-2.076,1.688-3.765,3.765-3.765
						H45.27c2.076,0,3.766,1.689,3.766,3.765v5.661C49.035,87.796,47.346,89.485,45.27,89.485z M3.765,79.295
						C3.343,79.295,3,79.638,3,80.06v5.661c0,0.421,0.343,0.764,0.765,0.764H45.27c0.422,0,0.766-0.343,0.766-0.764V80.06
						c0-0.422-0.344-0.765-0.766-0.765H3.765z"/>
				</g>
			</g>
			<g>
				<g>
					<path style="fill:#33363A;" d="M8.093,85.526c-0.828,0-1.5-0.671-1.5-1.5v-2.272c0-0.829,0.672-1.5,1.5-1.5s1.5,0.671,1.5,1.5
						v2.272C9.593,84.854,8.921,85.526,8.093,85.526z"/>
				</g>
				<g>
					<path style="fill:#33363A;" d="M13.621,85.526c-0.828,0-1.5-0.671-1.5-1.5v-2.272c0-0.829,0.672-1.5,1.5-1.5s1.5,0.671,1.5,1.5
						v2.272C15.121,84.854,14.449,85.526,13.621,85.526z"/>
				</g>
				<g>
					<path style="fill:#33363A;" d="M19.149,85.526c-0.828,0-1.5-0.671-1.5-1.5v-2.272c0-0.829,0.672-1.5,1.5-1.5s1.5,0.671,1.5,1.5
						v2.272C20.649,84.854,19.978,85.526,19.149,85.526z"/>
				</g>
				<g>
					<path style="fill:#33363A;" d="M24.678,85.526c-0.828,0-1.5-0.671-1.5-1.5v-2.272c0-0.829,0.672-1.5,1.5-1.5s1.5,0.671,1.5,1.5
						v2.272C26.178,84.854,25.506,85.526,24.678,85.526z"/>
				</g>
				<g>
					<path style="fill:#33363A;" d="M30.205,85.526c-0.828,0-1.5-0.671-1.5-1.5v-2.272c0-0.829,0.672-1.5,1.5-1.5s1.5,0.671,1.5,1.5
						v2.272C31.705,84.854,31.033,85.526,30.205,85.526z"/>
				</g>
				<g>
					<path style="fill:#33363A;" d="M35.732,85.526c-0.828,0-1.5-0.671-1.5-1.5v-2.272c0-0.829,0.672-1.5,1.5-1.5s1.5,0.671,1.5,1.5
						v2.272C37.232,84.854,36.561,85.526,35.732,85.526z"/>
				</g>
				<g>
					<path style="fill:#33363A;" d="M41.262,85.526c-0.828,0-1.5-0.671-1.5-1.5v-2.272c0-0.829,0.672-1.5,1.5-1.5s1.5,0.671,1.5,1.5
						v2.272C42.762,84.854,42.09,85.526,41.262,85.526z"/>
				</g>
			</g>
		</g>
		<g>
			<g>
				<g>
					<path style="fill:#FFBE08;" d="M47.535,95.911c0,1.251-1.015,2.264-2.266,2.264H3.765c-1.25,0-2.265-1.013-2.265-2.264V90.25
						c0-1.251,1.015-2.265,2.265-2.265H45.27c1.251,0,2.266,1.014,2.266,2.265V95.911z"/>
				</g>
				<g>
					<path style="fill:#FFD00B;" d="M3.765,87.985c-1.193,0-2.161,0.926-2.248,2.098c0.087,1.173,1.055,2.1,2.248,2.1H45.27
						c1.194,0,2.162-0.927,2.248-2.1c-0.086-1.172-1.054-2.098-2.248-2.098H3.765z"/>
				</g>
				<g>
					<path style="fill:#33363A;" d="M45.27,99.674H3.765C1.688,99.674,0,97.986,0,95.911V90.25c0-2.076,1.688-3.765,3.765-3.765
						H45.27c2.076,0,3.766,1.689,3.766,3.765v5.661C49.035,97.986,47.346,99.674,45.27,99.674z M3.765,89.485
						C3.343,89.485,3,89.828,3,90.25v5.661c0,0.421,0.343,0.764,0.765,0.764H45.27c0.422,0,0.766-0.343,0.766-0.764V90.25
						c0-0.422-0.344-0.765-0.766-0.765H3.765z"/>
				</g>
			</g>
			<g>
				<g>
					<path style="fill:#33363A;" d="M8.093,95.715c-0.828,0-1.5-0.671-1.5-1.5v-2.272c0-0.829,0.672-1.5,1.5-1.5s1.5,0.671,1.5,1.5
						v2.272C9.593,95.044,8.921,95.715,8.093,95.715z"/>
				</g>
				<g>
					<path style="fill:#33363A;" d="M13.621,95.715c-0.828,0-1.5-0.671-1.5-1.5v-2.272c0-0.829,0.672-1.5,1.5-1.5s1.5,0.671,1.5,1.5
						v2.272C15.121,95.044,14.449,95.715,13.621,95.715z"/>
				</g>
				<g>
					<path style="fill:#33363A;" d="M19.149,95.715c-0.828,0-1.5-0.671-1.5-1.5v-2.272c0-0.829,0.672-1.5,1.5-1.5s1.5,0.671,1.5,1.5
						v2.272C20.649,95.044,19.978,95.715,19.149,95.715z"/>
				</g>
				<g>
					<path style="fill:#33363A;" d="M24.678,95.715c-0.828,0-1.5-0.671-1.5-1.5v-2.272c0-0.829,0.672-1.5,1.5-1.5s1.5,0.671,1.5,1.5
						v2.272C26.178,95.044,25.506,95.715,24.678,95.715z"/>
				</g>
				<g>
					<path style="fill:#33363A;" d="M30.205,95.715c-0.828,0-1.5-0.671-1.5-1.5v-2.272c0-0.829,0.672-1.5,1.5-1.5s1.5,0.671,1.5,1.5
						v2.272C31.705,95.044,31.033,95.715,30.205,95.715z"/>
				</g>
				<g>
					<path style="fill:#33363A;" d="M35.732,95.715c-0.828,0-1.5-0.671-1.5-1.5v-2.272c0-0.829,0.672-1.5,1.5-1.5s1.5,0.671,1.5,1.5
						v2.272C37.232,95.044,36.561,95.715,35.732,95.715z"/>
				</g>
				<g>
					<path style="fill:#33363A;" d="M41.262,95.715c-0.828,0-1.5-0.671-1.5-1.5v-2.272c0-0.829,0.672-1.5,1.5-1.5s1.5,0.671,1.5,1.5
						v2.272C42.762,95.044,42.09,95.715,41.262,95.715z"/>
				</g>
			</g>
		</g>
		<g>
			<g>
				<g>
					<path style="fill:#FFBE08;" d="M47.535,106.1c0,1.251-1.015,2.264-2.266,2.264H3.765c-1.25,0-2.265-1.013-2.265-2.264v-5.661
						c0-1.25,1.015-2.265,2.265-2.265H45.27c1.251,0,2.266,1.015,2.266,2.265V106.1z"/>
				</g>
				<g>
					<path style="fill:#FFD00B;" d="M3.765,98.174c-1.193,0-2.161,0.926-2.248,2.098c0.087,1.173,1.055,2.1,2.248,2.1H45.27
						c1.194,0,2.162-0.927,2.248-2.1c-0.086-1.172-1.054-2.098-2.248-2.098H3.765z"/>
				</g>
				<g>
					<path style="fill:#33363A;" d="M45.27,109.864H3.765C1.688,109.864,0,108.175,0,106.1v-5.661c0-2.076,1.688-3.765,3.765-3.765
						H45.27c2.076,0,3.766,1.689,3.766,3.765v5.661C49.035,108.175,47.346,109.864,45.27,109.864z M3.765,99.674
						c-0.422,0-0.765,0.343-0.765,0.765v5.661c0,0.421,0.343,0.764,0.765,0.764H45.27c0.422,0,0.766-0.343,0.766-0.764v-5.661
						c0-0.422-0.344-0.765-0.766-0.765H3.765z"/>
				</g>
			</g>
			<g>
				<g>
					<path style="fill:#33363A;" d="M8.093,105.905c-0.828,0-1.5-0.671-1.5-1.5v-2.272c0-0.829,0.672-1.5,1.5-1.5s1.5,0.671,1.5,1.5
						v2.272C9.593,105.233,8.921,105.905,8.093,105.905z"/>
				</g>
				<g>
					<path style="fill:#33363A;" d="M13.621,105.905c-0.828,0-1.5-0.671-1.5-1.5v-2.272c0-0.829,0.672-1.5,1.5-1.5
						s1.5,0.671,1.5,1.5v2.272C15.121,105.233,14.449,105.905,13.621,105.905z"/>
				</g>
				<g>
					<path style="fill:#33363A;" d="M19.149,105.905c-0.828,0-1.5-0.671-1.5-1.5v-2.272c0-0.829,0.672-1.5,1.5-1.5
						s1.5,0.671,1.5,1.5v2.272C20.649,105.233,19.978,105.905,19.149,105.905z"/>
				</g>
				<g>
					<path style="fill:#33363A;" d="M24.678,105.905c-0.828,0-1.5-0.671-1.5-1.5v-2.272c0-0.829,0.672-1.5,1.5-1.5
						s1.5,0.671,1.5,1.5v2.272C26.178,105.233,25.506,105.905,24.678,105.905z"/>
				</g>
				<g>
					<path style="fill:#33363A;" d="M30.205,105.905c-0.828,0-1.5-0.671-1.5-1.5v-2.272c0-0.829,0.672-1.5,1.5-1.5
						s1.5,0.671,1.5,1.5v2.272C31.705,105.233,31.033,105.905,30.205,105.905z"/>
				</g>
				<g>
					<path style="fill:#33363A;" d="M35.732,105.905c-0.828,0-1.5-0.671-1.5-1.5v-2.272c0-0.829,0.672-1.5,1.5-1.5
						s1.5,0.671,1.5,1.5v2.272C37.232,105.233,36.561,105.905,35.732,105.905z"/>
				</g>
				<g>
					<path style="fill:#33363A;" d="M41.262,105.905c-0.828,0-1.5-0.671-1.5-1.5v-2.272c0-0.829,0.672-1.5,1.5-1.5
						s1.5,0.671,1.5,1.5v2.272C42.762,105.233,42.09,105.905,41.262,105.905z"/>
				</g>
			</g>
		</g>
		<g>
			<g>
				<g>
					<path style="fill:#FFBE08;" d="M47.535,116.29c0,1.251-1.015,2.264-2.266,2.264H3.765c-1.25,0-2.265-1.013-2.265-2.264v-5.661
						c0-1.251,1.015-2.265,2.265-2.265H45.27c1.251,0,2.266,1.014,2.266,2.265V116.29z"/>
				</g>
				<g>
					<path style="fill:#FFD00B;" d="M3.765,108.364c-1.193,0-2.161,0.926-2.248,2.098c0.087,1.173,1.055,2.1,2.248,2.1H45.27
						c1.194,0,2.162-0.927,2.248-2.1c-0.086-1.172-1.054-2.098-2.248-2.098H3.765z"/>
				</g>
				<g>
					<path style="fill:#33363A;" d="M45.27,120.053H3.765c-2.076,0-3.765-1.688-3.765-3.764v-5.661c0-2.076,1.688-3.765,3.765-3.765
						H45.27c2.076,0,3.766,1.689,3.766,3.765v5.661C49.035,118.365,47.346,120.053,45.27,120.053z M3.765,109.864
						c-0.422,0-0.765,0.343-0.765,0.765v5.661c0,0.421,0.343,0.764,0.765,0.764H45.27c0.422,0,0.766-0.343,0.766-0.764v-5.661
						c0-0.422-0.344-0.765-0.766-0.765H3.765z"/>
				</g>
			</g>
			<g>
				<g>
					<path style="fill:#33363A;" d="M8.093,116.094c-0.828,0-1.5-0.671-1.5-1.5v-2.272c0-0.829,0.672-1.5,1.5-1.5s1.5,0.671,1.5,1.5
						v2.272C9.593,115.423,8.921,116.094,8.093,116.094z"/>
				</g>
				<g>
					<path style="fill:#33363A;" d="M13.621,116.094c-0.828,0-1.5-0.671-1.5-1.5v-2.272c0-0.829,0.672-1.5,1.5-1.5
						s1.5,0.671,1.5,1.5v2.272C15.121,115.423,14.449,116.094,13.621,116.094z"/>
				</g>
				<g>
					<path style="fill:#33363A;" d="M19.149,116.094c-0.828,0-1.5-0.671-1.5-1.5v-2.272c0-0.829,0.672-1.5,1.5-1.5
						s1.5,0.671,1.5,1.5v2.272C20.649,115.423,19.978,116.094,19.149,116.094z"/>
				</g>
				<g>
					<path style="fill:#33363A;" d="M24.678,116.094c-0.828,0-1.5-0.671-1.5-1.5v-2.272c0-0.829,0.672-1.5,1.5-1.5
						s1.5,0.671,1.5,1.5v2.272C26.178,115.423,25.506,116.094,24.678,116.094z"/>
				</g>
				<g>
					<path style="fill:#33363A;" d="M30.205,116.094c-0.828,0-1.5-0.671-1.5-1.5v-2.272c0-0.829,0.672-1.5,1.5-1.5
						s1.5,0.671,1.5,1.5v2.272C31.705,115.423,31.033,116.094,30.205,116.094z"/>
				</g>
				<g>
					<path style="fill:#33363A;" d="M35.732,116.094c-0.828,0-1.5-0.671-1.5-1.5v-2.272c0-0.829,0.672-1.5,1.5-1.5
						s1.5,0.671,1.5,1.5v2.272C37.232,115.423,36.561,116.094,35.732,116.094z"/>
				</g>
				<g>
					<path style="fill:#33363A;" d="M41.262,116.094c-0.828,0-1.5-0.671-1.5-1.5v-2.272c0-0.829,0.672-1.5,1.5-1.5
						s1.5,0.671,1.5,1.5v2.272C42.762,115.423,42.09,116.094,41.262,116.094z"/>
				</g>
			</g>
		</g>
	</g>
	<g>
		<g>
			<rect x="8.899" y="37.038" style="fill:#FF630D;" width="116.722" height="24.821"/>
		</g>
		<g>
			<rect x="8.899" y="44.846" style="fill:#FF900B;" width="116.722" height="17.013"/>
		</g>
		<g>
			<rect x="8.899" y="53.804" style="fill:#FF630D;" width="116.722" height="8.055"/>
		</g>
		<g>
			<path style="fill:#33363A;" d="M125.621,63.359H8.899c-0.828,0-1.5-0.671-1.5-1.5V37.038c0-0.829,0.672-1.5,1.5-1.5h116.722
				c0.828,0,1.5,0.671,1.5,1.5v24.821C127.121,62.688,126.449,63.359,125.621,63.359z M10.399,60.359h113.722V38.538H10.399V60.359z
				"/>
		</g>
	</g>
	<g>
		<g>
			<g>
				<g>
					<path style="fill:#FFBE08;" d="M67.385,36.457c0,1.251-1.014,2.264-2.265,2.264H23.615c-1.25,0-2.264-1.013-2.264-2.264v-5.661
						c0-1.251,1.014-2.265,2.264-2.265H65.12c1.251,0,2.265,1.014,2.265,2.265V36.457z"/>
				</g>
				<g>
					<path style="fill:#FFD00B;" d="M23.615,28.531c-1.193,0-2.161,0.926-2.248,2.098c0.087,1.173,1.055,2.1,2.248,2.1H65.12
						c1.194,0,2.162-0.927,2.249-2.1c-0.087-1.172-1.055-2.098-2.249-2.098H23.615z"/>
				</g>
				<g>
					<path style="fill:#33363A;" d="M65.12,40.22H23.615c-2.075,0-3.764-1.688-3.764-3.764v-5.661c0-2.076,1.688-3.765,3.764-3.765
						H65.12c2.076,0,3.765,1.689,3.765,3.765v5.661C68.885,38.532,67.196,40.22,65.12,40.22z M23.615,30.031
						c-0.421,0-0.764,0.343-0.764,0.765v5.661c0,0.421,0.343,0.764,0.764,0.764H65.12c0.422,0,0.765-0.343,0.765-0.764v-5.661
						c0-0.422-0.343-0.765-0.765-0.765H23.615z"/>
				</g>
			</g>
			<g>
				<g>
					<path style="fill:#33363A;" d="M27.943,36.261c-0.828,0-1.5-0.671-1.5-1.5v-2.272c0-0.829,0.672-1.5,1.5-1.5s1.5,0.671,1.5,1.5
						v2.272C29.443,35.59,28.771,36.261,27.943,36.261z"/>
				</g>
				<g>
					<path style="fill:#33363A;" d="M33.472,36.261c-0.828,0-1.5-0.671-1.5-1.5v-2.272c0-0.829,0.672-1.5,1.5-1.5s1.5,0.671,1.5,1.5
						v2.272C34.972,35.59,34.3,36.261,33.472,36.261z"/>
				</g>
				<g>
					<path style="fill:#33363A;" d="M39,36.261c-0.828,0-1.5-0.671-1.5-1.5v-2.272c0-0.829,0.672-1.5,1.5-1.5s1.5,0.671,1.5,1.5
						v2.272C40.5,35.59,39.828,36.261,39,36.261z"/>
				</g>
				<g>
					<path style="fill:#33363A;" d="M44.527,36.261c-0.828,0-1.5-0.671-1.5-1.5v-2.272c0-0.829,0.672-1.5,1.5-1.5s1.5,0.671,1.5,1.5
						v2.272C46.027,35.59,45.355,36.261,44.527,36.261z"/>
				</g>
				<g>
					<path style="fill:#33363A;" d="M50.056,36.261c-0.828,0-1.5-0.671-1.5-1.5v-2.272c0-0.829,0.672-1.5,1.5-1.5s1.5,0.671,1.5,1.5
						v2.272C51.556,35.59,50.884,36.261,50.056,36.261z"/>
				</g>
				<g>
					<path style="fill:#33363A;" d="M55.584,36.261c-0.828,0-1.5-0.671-1.5-1.5v-2.272c0-0.829,0.672-1.5,1.5-1.5s1.5,0.671,1.5,1.5
						v2.272C57.084,35.59,56.412,36.261,55.584,36.261z"/>
				</g>
				<g>
					<path style="fill:#33363A;" d="M61.111,36.261c-0.828,0-1.5-0.671-1.5-1.5v-2.272c0-0.829,0.672-1.5,1.5-1.5s1.5,0.671,1.5,1.5
						v2.272C62.611,35.59,61.939,36.261,61.111,36.261z"/>
				</g>
			</g>
		</g>
		<g>
			<g>
				<g>
					<path style="fill:#FFBE08;" d="M67.385,46.646c0,1.252-1.014,2.264-2.265,2.264H23.615c-1.25,0-2.264-1.012-2.264-2.264v-5.661
						c0-1.251,1.014-2.265,2.264-2.265H65.12c1.251,0,2.265,1.014,2.265,2.265V46.646z"/>
				</g>
				<g>
					<path style="fill:#FFD00B;" d="M23.615,38.72c-1.193,0-2.161,0.926-2.248,2.098c0.087,1.173,1.055,2.1,2.248,2.1H65.12
						c1.194,0,2.162-0.927,2.249-2.1c-0.087-1.172-1.055-2.098-2.249-2.098H23.615z"/>
				</g>
				<g>
					<path style="fill:#33363A;" d="M65.12,50.41H23.615c-2.075,0-3.764-1.688-3.764-3.764v-5.661c0-2.076,1.688-3.765,3.764-3.765
						H65.12c2.076,0,3.765,1.689,3.765,3.765v5.661C68.885,48.721,67.196,50.41,65.12,50.41z M23.615,40.22
						c-0.421,0-0.764,0.343-0.764,0.765v5.661c0,0.421,0.343,0.764,0.764,0.764H65.12c0.422,0,0.765-0.343,0.765-0.764v-5.661
						c0-0.422-0.343-0.765-0.765-0.765H23.615z"/>
				</g>
			</g>
			<g>
				<g>
					<path style="fill:#33363A;" d="M27.943,46.451c-0.828,0-1.5-0.671-1.5-1.5v-2.272c0-0.829,0.672-1.5,1.5-1.5s1.5,0.671,1.5,1.5
						v2.272C29.443,45.779,28.771,46.451,27.943,46.451z"/>
				</g>
				<g>
					<path style="fill:#33363A;" d="M33.472,46.451c-0.828,0-1.5-0.671-1.5-1.5v-2.272c0-0.829,0.672-1.5,1.5-1.5s1.5,0.671,1.5,1.5
						v2.272C34.972,45.779,34.3,46.451,33.472,46.451z"/>
				</g>
				<g>
					<path style="fill:#33363A;" d="M39,46.451c-0.828,0-1.5-0.671-1.5-1.5v-2.272c0-0.829,0.672-1.5,1.5-1.5s1.5,0.671,1.5,1.5
						v2.272C40.5,45.779,39.828,46.451,39,46.451z"/>
				</g>
				<g>
					<path style="fill:#33363A;" d="M44.527,46.451c-0.828,0-1.5-0.671-1.5-1.5v-2.272c0-0.829,0.672-1.5,1.5-1.5s1.5,0.671,1.5,1.5
						v2.272C46.027,45.779,45.355,46.451,44.527,46.451z"/>
				</g>
				<g>
					<path style="fill:#33363A;" d="M50.056,46.451c-0.828,0-1.5-0.671-1.5-1.5v-2.272c0-0.829,0.672-1.5,1.5-1.5s1.5,0.671,1.5,1.5
						v2.272C51.556,45.779,50.884,46.451,50.056,46.451z"/>
				</g>
				<g>
					<path style="fill:#33363A;" d="M55.584,46.451c-0.828,0-1.5-0.671-1.5-1.5v-2.272c0-0.829,0.672-1.5,1.5-1.5s1.5,0.671,1.5,1.5
						v2.272C57.084,45.779,56.412,46.451,55.584,46.451z"/>
				</g>
				<g>
					<path style="fill:#33363A;" d="M61.111,46.451c-0.828,0-1.5-0.671-1.5-1.5v-2.272c0-0.829,0.672-1.5,1.5-1.5s1.5,0.671,1.5,1.5
						v2.272C62.611,45.779,61.939,46.451,61.111,46.451z"/>
				</g>
			</g>
		</g>
		<g>
			<g>
				<g>
					<path style="fill:#FFBE08;" d="M67.385,56.835c0,1.251-1.014,2.264-2.265,2.264H23.615c-1.25,0-2.264-1.013-2.264-2.264v-5.661
						c0-1.251,1.014-2.265,2.264-2.265H65.12c1.251,0,2.265,1.014,2.265,2.265V56.835z"/>
				</g>
				<g>
					<path style="fill:#FFD00B;" d="M23.615,48.91c-1.193,0-2.161,0.926-2.248,2.098c0.087,1.173,1.055,2.1,2.248,2.1H65.12
						c1.194,0,2.162-0.927,2.249-2.1c-0.087-1.172-1.055-2.098-2.249-2.098H23.615z"/>
				</g>
				<g>
					<path style="fill:#33363A;" d="M65.12,60.599H23.615c-2.075,0-3.764-1.688-3.764-3.764v-5.661c0-2.076,1.688-3.765,3.764-3.765
						H65.12c2.076,0,3.765,1.689,3.765,3.765v5.661C68.885,58.911,67.196,60.599,65.12,60.599z M23.615,50.41
						c-0.421,0-0.764,0.343-0.764,0.765v5.661c0,0.421,0.343,0.764,0.764,0.764H65.12c0.422,0,0.765-0.343,0.765-0.764v-5.661
						c0-0.422-0.343-0.765-0.765-0.765H23.615z"/>
				</g>
			</g>
			<g>
				<g>
					<path style="fill:#33363A;" d="M27.943,56.64c-0.828,0-1.5-0.671-1.5-1.5v-2.272c0-0.829,0.672-1.5,1.5-1.5s1.5,0.671,1.5,1.5
						v2.272C29.443,55.969,28.771,56.64,27.943,56.64z"/>
				</g>
				<g>
					<path style="fill:#33363A;" d="M33.472,56.64c-0.828,0-1.5-0.671-1.5-1.5v-2.272c0-0.829,0.672-1.5,1.5-1.5s1.5,0.671,1.5,1.5
						v2.272C34.972,55.969,34.3,56.64,33.472,56.64z"/>
				</g>
				<g>
					<path style="fill:#33363A;" d="M39,56.64c-0.828,0-1.5-0.671-1.5-1.5v-2.272c0-0.829,0.672-1.5,1.5-1.5s1.5,0.671,1.5,1.5
						v2.272C40.5,55.969,39.828,56.64,39,56.64z"/>
				</g>
				<g>
					<path style="fill:#33363A;" d="M44.527,56.64c-0.828,0-1.5-0.671-1.5-1.5v-2.272c0-0.829,0.672-1.5,1.5-1.5s1.5,0.671,1.5,1.5
						v2.272C46.027,55.969,45.355,56.64,44.527,56.64z"/>
				</g>
				<g>
					<path style="fill:#33363A;" d="M50.056,56.64c-0.828,0-1.5-0.671-1.5-1.5v-2.272c0-0.829,0.672-1.5,1.5-1.5s1.5,0.671,1.5,1.5
						v2.272C51.556,55.969,50.884,56.64,50.056,56.64z"/>
				</g>
				<g>
					<path style="fill:#33363A;" d="M55.584,56.64c-0.828,0-1.5-0.671-1.5-1.5v-2.272c0-0.829,0.672-1.5,1.5-1.5s1.5,0.671,1.5,1.5
						v2.272C57.084,55.969,56.412,56.64,55.584,56.64z"/>
				</g>
				<g>
					<path style="fill:#33363A;" d="M61.111,56.64c-0.828,0-1.5-0.671-1.5-1.5v-2.272c0-0.829,0.672-1.5,1.5-1.5s1.5,0.671,1.5,1.5
						v2.272C62.611,55.969,61.939,56.64,61.111,56.64z"/>
				</g>
			</g>
		</g>
		<g>
			<g>
				<g>
					<path style="fill:#FFBE08;" d="M67.385,67.025c0,1.251-1.014,2.264-2.265,2.264H23.615c-1.25,0-2.264-1.013-2.264-2.264v-5.661
						c0-1.251,1.014-2.265,2.264-2.265H65.12c1.251,0,2.265,1.014,2.265,2.265V67.025z"/>
				</g>
				<g>
					<path style="fill:#FFD00B;" d="M23.615,59.099c-1.193,0-2.161,0.926-2.248,2.098c0.087,1.173,1.055,2.1,2.248,2.1H65.12
						c1.194,0,2.162-0.927,2.249-2.1c-0.087-1.172-1.055-2.098-2.249-2.098H23.615z"/>
				</g>
				<g>
					<path style="fill:#33363A;" d="M65.12,70.789H23.615c-2.075,0-3.764-1.688-3.764-3.764v-5.661c0-2.076,1.688-3.765,3.764-3.765
						H65.12c2.076,0,3.765,1.689,3.765,3.765v5.661C68.885,69.1,67.196,70.789,65.12,70.789z M23.615,60.599
						c-0.421,0-0.764,0.343-0.764,0.765v5.661c0,0.421,0.343,0.764,0.764,0.764H65.12c0.422,0,0.765-0.343,0.765-0.764v-5.661
						c0-0.422-0.343-0.765-0.765-0.765H23.615z"/>
				</g>
			</g>
			<g>
				<g>
					<path style="fill:#33363A;" d="M27.943,66.83c-0.828,0-1.5-0.671-1.5-1.5v-2.272c0-0.829,0.672-1.5,1.5-1.5s1.5,0.671,1.5,1.5
						v2.272C29.443,66.158,28.771,66.83,27.943,66.83z"/>
				</g>
				<g>
					<path style="fill:#33363A;" d="M33.472,66.83c-0.828,0-1.5-0.671-1.5-1.5v-2.272c0-0.829,0.672-1.5,1.5-1.5s1.5,0.671,1.5,1.5
						v2.272C34.972,66.158,34.3,66.83,33.472,66.83z"/>
				</g>
				<g>
					<path style="fill:#33363A;" d="M39,66.83c-0.828,0-1.5-0.671-1.5-1.5v-2.272c0-0.829,0.672-1.5,1.5-1.5s1.5,0.671,1.5,1.5
						v2.272C40.5,66.158,39.828,66.83,39,66.83z"/>
				</g>
				<g>
					<path style="fill:#33363A;" d="M44.527,66.83c-0.828,0-1.5-0.671-1.5-1.5v-2.272c0-0.829,0.672-1.5,1.5-1.5s1.5,0.671,1.5,1.5
						v2.272C46.027,66.158,45.355,66.83,44.527,66.83z"/>
				</g>
				<g>
					<path style="fill:#33363A;" d="M50.056,66.83c-0.828,0-1.5-0.671-1.5-1.5v-2.272c0-0.829,0.672-1.5,1.5-1.5s1.5,0.671,1.5,1.5
						v2.272C51.556,66.158,50.884,66.83,50.056,66.83z"/>
				</g>
				<g>
					<path style="fill:#33363A;" d="M55.584,66.83c-0.828,0-1.5-0.671-1.5-1.5v-2.272c0-0.829,0.672-1.5,1.5-1.5s1.5,0.671,1.5,1.5
						v2.272C57.084,66.158,56.412,66.83,55.584,66.83z"/>
				</g>
				<g>
					<path style="fill:#33363A;" d="M61.111,66.83c-0.828,0-1.5-0.671-1.5-1.5v-2.272c0-0.829,0.672-1.5,1.5-1.5s1.5,0.671,1.5,1.5
						v2.272C62.611,66.158,61.939,66.83,61.111,66.83z"/>
				</g>
			</g>
		</g>
		<g>
			<g>
				<g>
					<path style="fill:#FFBE08;" d="M67.385,77.214c0,1.251-1.014,2.264-2.265,2.264H23.615c-1.25,0-2.264-1.013-2.264-2.264v-5.661
						c0-1.251,1.014-2.265,2.264-2.265H65.12c1.251,0,2.265,1.014,2.265,2.265V77.214z"/>
				</g>
				<g>
					<path style="fill:#FFD00B;" d="M23.615,69.289c-1.193,0-2.161,0.926-2.248,2.098c0.087,1.173,1.055,2.1,2.248,2.1H65.12
						c1.194,0,2.162-0.927,2.249-2.1c-0.087-1.172-1.055-2.098-2.249-2.098H23.615z"/>
				</g>
				<g>
					<path style="fill:#33363A;" d="M65.12,80.978H23.615c-2.075,0-3.764-1.688-3.764-3.764v-5.661c0-2.076,1.688-3.765,3.764-3.765
						H65.12c2.076,0,3.765,1.689,3.765,3.765v5.661C68.885,79.29,67.196,80.978,65.12,80.978z M23.615,70.789
						c-0.421,0-0.764,0.343-0.764,0.765v5.661c0,0.421,0.343,0.764,0.764,0.764H65.12c0.422,0,0.765-0.343,0.765-0.764v-5.661
						c0-0.422-0.343-0.765-0.765-0.765H23.615z"/>
				</g>
			</g>
			<g>
				<g>
					<path style="fill:#33363A;" d="M27.943,77.019c-0.828,0-1.5-0.671-1.5-1.5v-2.272c0-0.829,0.672-1.5,1.5-1.5s1.5,0.671,1.5,1.5
						v2.272C29.443,76.348,28.771,77.019,27.943,77.019z"/>
				</g>
				<g>
					<path style="fill:#33363A;" d="M33.472,77.019c-0.828,0-1.5-0.671-1.5-1.5v-2.272c0-0.829,0.672-1.5,1.5-1.5s1.5,0.671,1.5,1.5
						v2.272C34.972,76.348,34.3,77.019,33.472,77.019z"/>
				</g>
				<g>
					<path style="fill:#33363A;" d="M39,77.019c-0.828,0-1.5-0.671-1.5-1.5v-2.272c0-0.829,0.672-1.5,1.5-1.5s1.5,0.671,1.5,1.5
						v2.272C40.5,76.348,39.828,77.019,39,77.019z"/>
				</g>
				<g>
					<path style="fill:#33363A;" d="M44.527,77.019c-0.828,0-1.5-0.671-1.5-1.5v-2.272c0-0.829,0.672-1.5,1.5-1.5s1.5,0.671,1.5,1.5
						v2.272C46.027,76.348,45.355,77.019,44.527,77.019z"/>
				</g>
				<g>
					<path style="fill:#33363A;" d="M50.056,77.019c-0.828,0-1.5-0.671-1.5-1.5v-2.272c0-0.829,0.672-1.5,1.5-1.5s1.5,0.671,1.5,1.5
						v2.272C51.556,76.348,50.884,77.019,50.056,77.019z"/>
				</g>
				<g>
					<path style="fill:#33363A;" d="M55.584,77.019c-0.828,0-1.5-0.671-1.5-1.5v-2.272c0-0.829,0.672-1.5,1.5-1.5s1.5,0.671,1.5,1.5
						v2.272C57.084,76.348,56.412,77.019,55.584,77.019z"/>
				</g>
				<g>
					<path style="fill:#33363A;" d="M61.111,77.019c-0.828,0-1.5-0.671-1.5-1.5v-2.272c0-0.829,0.672-1.5,1.5-1.5s1.5,0.671,1.5,1.5
						v2.272C62.611,76.348,61.939,77.019,61.111,77.019z"/>
				</g>
			</g>
		</g>
		<g>
			<g>
				<g>
					<path style="fill:#FFBE08;" d="M67.385,87.404c0,1.251-1.014,2.264-2.265,2.264H23.615c-1.25,0-2.264-1.013-2.264-2.264v-5.661
						c0-1.251,1.014-2.265,2.264-2.265H65.12c1.251,0,2.265,1.014,2.265,2.265V87.404z"/>
				</g>
				<g>
					<path style="fill:#FFD00B;" d="M23.615,79.478c-1.193,0-2.161,0.926-2.248,2.098c0.087,1.173,1.055,2.1,2.248,2.1H65.12
						c1.194,0,2.162-0.927,2.249-2.1c-0.087-1.172-1.055-2.098-2.249-2.098H23.615z"/>
				</g>
				<g>
					<path style="fill:#33363A;" d="M65.12,91.167H23.615c-2.075,0-3.764-1.688-3.764-3.764v-5.661c0-2.076,1.688-3.765,3.764-3.765
						H65.12c2.076,0,3.765,1.689,3.765,3.765v5.661C68.885,89.479,67.196,91.167,65.12,91.167z M23.615,80.978
						c-0.421,0-0.764,0.343-0.764,0.765v5.661c0,0.421,0.343,0.764,0.764,0.764H65.12c0.422,0,0.765-0.343,0.765-0.764v-5.661
						c0-0.422-0.343-0.765-0.765-0.765H23.615z"/>
				</g>
			</g>
			<g>
				<g>
					<path style="fill:#33363A;" d="M27.943,87.208c-0.828,0-1.5-0.671-1.5-1.5v-2.272c0-0.829,0.672-1.5,1.5-1.5s1.5,0.671,1.5,1.5
						v2.272C29.443,86.537,28.771,87.208,27.943,87.208z"/>
				</g>
				<g>
					<path style="fill:#33363A;" d="M33.472,87.208c-0.828,0-1.5-0.671-1.5-1.5v-2.272c0-0.829,0.672-1.5,1.5-1.5s1.5,0.671,1.5,1.5
						v2.272C34.972,86.537,34.3,87.208,33.472,87.208z"/>
				</g>
				<g>
					<path style="fill:#33363A;" d="M39,87.208c-0.828,0-1.5-0.671-1.5-1.5v-2.272c0-0.829,0.672-1.5,1.5-1.5s1.5,0.671,1.5,1.5
						v2.272C40.5,86.537,39.828,87.208,39,87.208z"/>
				</g>
				<g>
					<path style="fill:#33363A;" d="M44.527,87.208c-0.828,0-1.5-0.671-1.5-1.5v-2.272c0-0.829,0.672-1.5,1.5-1.5s1.5,0.671,1.5,1.5
						v2.272C46.027,86.537,45.355,87.208,44.527,87.208z"/>
				</g>
				<g>
					<path style="fill:#33363A;" d="M50.056,87.208c-0.828,0-1.5-0.671-1.5-1.5v-2.272c0-0.829,0.672-1.5,1.5-1.5s1.5,0.671,1.5,1.5
						v2.272C51.556,86.537,50.884,87.208,50.056,87.208z"/>
				</g>
				<g>
					<path style="fill:#33363A;" d="M55.584,87.208c-0.828,0-1.5-0.671-1.5-1.5v-2.272c0-0.829,0.672-1.5,1.5-1.5s1.5,0.671,1.5,1.5
						v2.272C57.084,86.537,56.412,87.208,55.584,87.208z"/>
				</g>
				<g>
					<path style="fill:#33363A;" d="M61.111,87.208c-0.828,0-1.5-0.671-1.5-1.5v-2.272c0-0.829,0.672-1.5,1.5-1.5s1.5,0.671,1.5,1.5
						v2.272C62.611,86.537,61.939,87.208,61.111,87.208z"/>
				</g>
			</g>
		</g>
		<g>
			<g>
				<g>
					<path style="fill:#FFBE08;" d="M67.385,97.593c0,1.251-1.014,2.264-2.265,2.264H23.615c-1.25,0-2.264-1.013-2.264-2.264v-5.661
						c0-1.251,1.014-2.265,2.264-2.265H65.12c1.251,0,2.265,1.014,2.265,2.265V97.593z"/>
				</g>
				<g>
					<path style="fill:#FFD00B;" d="M23.615,89.667c-1.193,0-2.161,0.926-2.248,2.098c0.087,1.174,1.055,2.1,2.248,2.1H65.12
						c1.194,0,2.162-0.926,2.249-2.1c-0.087-1.172-1.055-2.098-2.249-2.098H23.615z"/>
				</g>
				<g>
					<path style="fill:#33363A;" d="M65.12,101.357H23.615c-2.075,0-3.764-1.688-3.764-3.764v-5.661
						c0-2.076,1.688-3.765,3.764-3.765H65.12c2.076,0,3.765,1.689,3.765,3.765v5.661C68.885,99.668,67.196,101.357,65.12,101.357z
						 M23.615,91.167c-0.421,0-0.764,0.343-0.764,0.765v5.661c0,0.421,0.343,0.764,0.764,0.764H65.12
						c0.422,0,0.765-0.343,0.765-0.764v-5.661c0-0.422-0.343-0.765-0.765-0.765H23.615z"/>
				</g>
			</g>
			<g>
				<g>
					<path style="fill:#33363A;" d="M27.943,97.398c-0.828,0-1.5-0.671-1.5-1.5v-2.272c0-0.829,0.672-1.5,1.5-1.5s1.5,0.671,1.5,1.5
						v2.272C29.443,96.727,28.771,97.398,27.943,97.398z"/>
				</g>
				<g>
					<path style="fill:#33363A;" d="M33.472,97.398c-0.828,0-1.5-0.671-1.5-1.5v-2.272c0-0.829,0.672-1.5,1.5-1.5s1.5,0.671,1.5,1.5
						v2.272C34.972,96.727,34.3,97.398,33.472,97.398z"/>
				</g>
				<g>
					<path style="fill:#33363A;" d="M39,97.398c-0.828,0-1.5-0.671-1.5-1.5v-2.272c0-0.829,0.672-1.5,1.5-1.5s1.5,0.671,1.5,1.5
						v2.272C40.5,96.727,39.828,97.398,39,97.398z"/>
				</g>
				<g>
					<path style="fill:#33363A;" d="M44.527,97.398c-0.828,0-1.5-0.671-1.5-1.5v-2.272c0-0.829,0.672-1.5,1.5-1.5s1.5,0.671,1.5,1.5
						v2.272C46.027,96.727,45.355,97.398,44.527,97.398z"/>
				</g>
				<g>
					<path style="fill:#33363A;" d="M50.056,97.398c-0.828,0-1.5-0.671-1.5-1.5v-2.272c0-0.829,0.672-1.5,1.5-1.5s1.5,0.671,1.5,1.5
						v2.272C51.556,96.727,50.884,97.398,50.056,97.398z"/>
				</g>
				<g>
					<path style="fill:#33363A;" d="M55.584,97.398c-0.828,0-1.5-0.671-1.5-1.5v-2.272c0-0.829,0.672-1.5,1.5-1.5s1.5,0.671,1.5,1.5
						v2.272C57.084,96.727,56.412,97.398,55.584,97.398z"/>
				</g>
				<g>
					<path style="fill:#33363A;" d="M61.111,97.398c-0.828,0-1.5-0.671-1.5-1.5v-2.272c0-0.829,0.672-1.5,1.5-1.5s1.5,0.671,1.5,1.5
						v2.272C62.611,96.727,61.939,97.398,61.111,97.398z"/>
				</g>
			</g>
		</g>
		<g>
			<g>
				<g>
					<path style="fill:#FFBE08;" d="M67.385,107.783c0,1.251-1.014,2.264-2.265,2.264H23.615c-1.25,0-2.264-1.013-2.264-2.264
						v-5.661c0-1.251,1.014-2.265,2.264-2.265H65.12c1.251,0,2.265,1.014,2.265,2.265V107.783z"/>
				</g>
				<g>
					<path style="fill:#FFD00B;" d="M23.615,99.857c-1.193,0-2.161,0.926-2.248,2.098c0.087,1.173,1.055,2.1,2.248,2.1H65.12
						c1.194,0,2.162-0.927,2.249-2.1c-0.087-1.172-1.055-2.098-2.249-2.098H23.615z"/>
				</g>
				<g>
					<path style="fill:#33363A;" d="M65.12,111.546H23.615c-2.075,0-3.764-1.688-3.764-3.764v-5.661
						c0-2.076,1.688-3.765,3.764-3.765H65.12c2.076,0,3.765,1.689,3.765,3.765v5.661C68.885,109.858,67.196,111.546,65.12,111.546z
						 M23.615,101.357c-0.421,0-0.764,0.343-0.764,0.765v5.661c0,0.421,0.343,0.764,0.764,0.764H65.12
						c0.422,0,0.765-0.343,0.765-0.764v-5.661c0-0.422-0.343-0.765-0.765-0.765H23.615z"/>
				</g>
			</g>
			<g>
				<g>
					<path style="fill:#33363A;" d="M27.943,107.587c-0.828,0-1.5-0.671-1.5-1.5v-2.272c0-0.829,0.672-1.5,1.5-1.5
						s1.5,0.671,1.5,1.5v2.272C29.443,106.916,28.771,107.587,27.943,107.587z"/>
				</g>
				<g>
					<path style="fill:#33363A;" d="M33.472,107.587c-0.828,0-1.5-0.671-1.5-1.5v-2.272c0-0.829,0.672-1.5,1.5-1.5
						s1.5,0.671,1.5,1.5v2.272C34.972,106.916,34.3,107.587,33.472,107.587z"/>
				</g>
				<g>
					<path style="fill:#33363A;" d="M39,107.587c-0.828,0-1.5-0.671-1.5-1.5v-2.272c0-0.829,0.672-1.5,1.5-1.5s1.5,0.671,1.5,1.5
						v2.272C40.5,106.916,39.828,107.587,39,107.587z"/>
				</g>
				<g>
					<path style="fill:#33363A;" d="M44.527,107.587c-0.828,0-1.5-0.671-1.5-1.5v-2.272c0-0.829,0.672-1.5,1.5-1.5
						s1.5,0.671,1.5,1.5v2.272C46.027,106.916,45.355,107.587,44.527,107.587z"/>
				</g>
				<g>
					<path style="fill:#33363A;" d="M50.056,107.587c-0.828,0-1.5-0.671-1.5-1.5v-2.272c0-0.829,0.672-1.5,1.5-1.5
						s1.5,0.671,1.5,1.5v2.272C51.556,106.916,50.884,107.587,50.056,107.587z"/>
				</g>
				<g>
					<path style="fill:#33363A;" d="M55.584,107.587c-0.828,0-1.5-0.671-1.5-1.5v-2.272c0-0.829,0.672-1.5,1.5-1.5
						s1.5,0.671,1.5,1.5v2.272C57.084,106.916,56.412,107.587,55.584,107.587z"/>
				</g>
				<g>
					<path style="fill:#33363A;" d="M61.111,107.587c-0.828,0-1.5-0.671-1.5-1.5v-2.272c0-0.829,0.672-1.5,1.5-1.5
						s1.5,0.671,1.5,1.5v2.272C62.611,106.916,61.939,107.587,61.111,107.587z"/>
				</g>
			</g>
		</g>
	</g>
	<g>
		<g>
			<g>
				<g>
					<path style="fill:#FFBE08;" d="M113.977,16.494c0,1.251-1.015,2.264-2.266,2.264H70.206c-1.25,0-2.265-1.013-2.265-2.264
						v-5.661c0-1.251,1.015-2.265,2.265-2.265h41.505c1.251,0,2.266,1.014,2.266,2.265V16.494z"/>
				</g>
				<g>
					<path style="fill:#FFD00B;" d="M70.206,8.568c-1.193,0-2.161,0.926-2.248,2.098c0.087,1.173,1.055,2.1,2.248,2.1h41.505
						c1.194,0,2.162-0.927,2.248-2.1c-0.086-1.172-1.054-2.098-2.248-2.098H70.206z"/>
				</g>
				<g>
					<path style="fill:#33363A;" d="M111.711,20.257H70.206c-2.076,0-3.765-1.688-3.765-3.764v-5.661
						c0-2.076,1.688-3.765,3.765-3.765h41.505c2.076,0,3.766,1.689,3.766,3.765v5.661C115.477,18.569,113.787,20.257,111.711,20.257
						z M70.206,10.068c-0.422,0-0.765,0.343-0.765,0.765v5.661c0,0.421,0.343,0.764,0.765,0.764h41.505
						c0.422,0,0.766-0.343,0.766-0.764v-5.661c0-0.422-0.344-0.765-0.766-0.765H70.206z"/>
				</g>
			</g>
			<g>
				<g>
					<path style="fill:#33363A;" d="M74.534,16.298c-0.828,0-1.5-0.671-1.5-1.5v-2.272c0-0.829,0.672-1.5,1.5-1.5s1.5,0.671,1.5,1.5
						v2.272C76.034,15.627,75.362,16.298,74.534,16.298z"/>
				</g>
				<g>
					<path style="fill:#33363A;" d="M80.063,16.298c-0.828,0-1.5-0.671-1.5-1.5v-2.272c0-0.829,0.672-1.5,1.5-1.5s1.5,0.671,1.5,1.5
						v2.272C81.563,15.627,80.891,16.298,80.063,16.298z"/>
				</g>
				<g>
					<path style="fill:#33363A;" d="M85.591,16.298c-0.828,0-1.5-0.671-1.5-1.5v-2.272c0-0.829,0.672-1.5,1.5-1.5s1.5,0.671,1.5,1.5
						v2.272C87.091,15.627,86.419,16.298,85.591,16.298z"/>
				</g>
				<g>
					<path style="fill:#33363A;" d="M91.119,16.298c-0.828,0-1.5-0.671-1.5-1.5v-2.272c0-0.829,0.672-1.5,1.5-1.5s1.5,0.671,1.5,1.5
						v2.272C92.619,15.627,91.947,16.298,91.119,16.298z"/>
				</g>
				<g>
					<path style="fill:#33363A;" d="M96.646,16.298c-0.828,0-1.5-0.671-1.5-1.5v-2.272c0-0.829,0.672-1.5,1.5-1.5s1.5,0.671,1.5,1.5
						v2.272C98.146,15.627,97.475,16.298,96.646,16.298z"/>
				</g>
				<g>
					<path style="fill:#33363A;" d="M102.174,16.298c-0.828,0-1.5-0.671-1.5-1.5v-2.272c0-0.829,0.672-1.5,1.5-1.5
						s1.5,0.671,1.5,1.5v2.272C103.674,15.627,103.002,16.298,102.174,16.298z"/>
				</g>
				<g>
					<path style="fill:#33363A;" d="M107.703,16.298c-0.828,0-1.5-0.671-1.5-1.5v-2.272c0-0.829,0.672-1.5,1.5-1.5
						s1.5,0.671,1.5,1.5v2.272C109.203,15.627,108.531,16.298,107.703,16.298z"/>
				</g>
			</g>
		</g>
		<g>
			<g>
				<g>
					<path style="fill:#FFBE08;" d="M113.977,26.683c0,1.251-1.015,2.264-2.266,2.264H70.206c-1.25,0-2.265-1.013-2.265-2.264
						v-5.661c0-1.251,1.015-2.265,2.265-2.265h41.505c1.251,0,2.266,1.014,2.266,2.265V26.683z"/>
				</g>
				<g>
					<path style="fill:#FFD00B;" d="M70.206,18.757c-1.193,0-2.161,0.926-2.248,2.098c0.087,1.173,1.055,2.1,2.248,2.1h41.505
						c1.194,0,2.162-0.927,2.248-2.1c-0.086-1.172-1.054-2.098-2.248-2.098H70.206z"/>
				</g>
				<g>
					<path style="fill:#33363A;" d="M111.711,30.447H70.206c-2.076,0-3.765-1.688-3.765-3.764v-5.661
						c0-2.076,1.688-3.765,3.765-3.765h41.505c2.076,0,3.766,1.689,3.766,3.765v5.661C115.477,28.758,113.787,30.447,111.711,30.447
						z M70.206,20.257c-0.422,0-0.765,0.343-0.765,0.765v5.661c0,0.421,0.343,0.764,0.765,0.764h41.505
						c0.422,0,0.766-0.343,0.766-0.764v-5.661c0-0.422-0.344-0.765-0.766-0.765H70.206z"/>
				</g>
			</g>
			<g>
				<g>
					<path style="fill:#33363A;" d="M74.534,26.488c-0.828,0-1.5-0.671-1.5-1.5v-2.272c0-0.829,0.672-1.5,1.5-1.5s1.5,0.671,1.5,1.5
						v2.272C76.034,25.816,75.362,26.488,74.534,26.488z"/>
				</g>
				<g>
					<path style="fill:#33363A;" d="M80.063,26.488c-0.828,0-1.5-0.671-1.5-1.5v-2.272c0-0.829,0.672-1.5,1.5-1.5s1.5,0.671,1.5,1.5
						v2.272C81.563,25.816,80.891,26.488,80.063,26.488z"/>
				</g>
				<g>
					<path style="fill:#33363A;" d="M85.591,26.488c-0.828,0-1.5-0.671-1.5-1.5v-2.272c0-0.829,0.672-1.5,1.5-1.5s1.5,0.671,1.5,1.5
						v2.272C87.091,25.816,86.419,26.488,85.591,26.488z"/>
				</g>
				<g>
					<path style="fill:#33363A;" d="M91.119,26.488c-0.828,0-1.5-0.671-1.5-1.5v-2.272c0-0.829,0.672-1.5,1.5-1.5s1.5,0.671,1.5,1.5
						v2.272C92.619,25.816,91.947,26.488,91.119,26.488z"/>
				</g>
				<g>
					<path style="fill:#33363A;" d="M96.646,26.488c-0.828,0-1.5-0.671-1.5-1.5v-2.272c0-0.829,0.672-1.5,1.5-1.5s1.5,0.671,1.5,1.5
						v2.272C98.146,25.816,97.475,26.488,96.646,26.488z"/>
				</g>
				<g>
					<path style="fill:#33363A;" d="M102.174,26.488c-0.828,0-1.5-0.671-1.5-1.5v-2.272c0-0.829,0.672-1.5,1.5-1.5
						s1.5,0.671,1.5,1.5v2.272C103.674,25.816,103.002,26.488,102.174,26.488z"/>
				</g>
				<g>
					<path style="fill:#33363A;" d="M107.703,26.488c-0.828,0-1.5-0.671-1.5-1.5v-2.272c0-0.829,0.672-1.5,1.5-1.5
						s1.5,0.671,1.5,1.5v2.272C109.203,25.816,108.531,26.488,107.703,26.488z"/>
				</g>
			</g>
		</g>
		<g>
			<g>
				<g>
					<path style="fill:#FFBE08;" d="M113.977,36.873c0,1.251-1.015,2.264-2.266,2.264H70.206c-1.25,0-2.265-1.013-2.265-2.264
						v-5.661c0-1.251,1.015-2.265,2.265-2.265h41.505c1.251,0,2.266,1.014,2.266,2.265V36.873z"/>
				</g>
				<g>
					<path style="fill:#FFD00B;" d="M70.206,28.947c-1.193,0-2.161,0.926-2.248,2.098c0.087,1.173,1.055,2.1,2.248,2.1h41.505
						c1.194,0,2.162-0.927,2.248-2.1c-0.086-1.172-1.054-2.098-2.248-2.098H70.206z"/>
				</g>
				<g>
					<path style="fill:#33363A;" d="M111.711,40.636H70.206c-2.076,0-3.765-1.688-3.765-3.764v-5.661
						c0-2.076,1.688-3.765,3.765-3.765h41.505c2.076,0,3.766,1.689,3.766,3.765v5.661C115.477,38.948,113.787,40.636,111.711,40.636
						z M70.206,30.447c-0.422,0-0.765,0.343-0.765,0.765v5.661c0,0.421,0.343,0.764,0.765,0.764h41.505
						c0.422,0,0.766-0.343,0.766-0.764v-5.661c0-0.422-0.344-0.765-0.766-0.765H70.206z"/>
				</g>
			</g>
			<g>
				<g>
					<path style="fill:#33363A;" d="M74.534,36.677c-0.828,0-1.5-0.671-1.5-1.5v-2.272c0-0.829,0.672-1.5,1.5-1.5s1.5,0.671,1.5,1.5
						v2.272C76.034,36.006,75.362,36.677,74.534,36.677z"/>
				</g>
				<g>
					<path style="fill:#33363A;" d="M80.063,36.677c-0.828,0-1.5-0.671-1.5-1.5v-2.272c0-0.829,0.672-1.5,1.5-1.5s1.5,0.671,1.5,1.5
						v2.272C81.563,36.006,80.891,36.677,80.063,36.677z"/>
				</g>
				<g>
					<path style="fill:#33363A;" d="M85.591,36.677c-0.828,0-1.5-0.671-1.5-1.5v-2.272c0-0.829,0.672-1.5,1.5-1.5s1.5,0.671,1.5,1.5
						v2.272C87.091,36.006,86.419,36.677,85.591,36.677z"/>
				</g>
				<g>
					<path style="fill:#33363A;" d="M91.119,36.677c-0.828,0-1.5-0.671-1.5-1.5v-2.272c0-0.829,0.672-1.5,1.5-1.5s1.5,0.671,1.5,1.5
						v2.272C92.619,36.006,91.947,36.677,91.119,36.677z"/>
				</g>
				<g>
					<path style="fill:#33363A;" d="M96.646,36.677c-0.828,0-1.5-0.671-1.5-1.5v-2.272c0-0.829,0.672-1.5,1.5-1.5s1.5,0.671,1.5,1.5
						v2.272C98.146,36.006,97.475,36.677,96.646,36.677z"/>
				</g>
				<g>
					<path style="fill:#33363A;" d="M102.174,36.677c-0.828,0-1.5-0.671-1.5-1.5v-2.272c0-0.829,0.672-1.5,1.5-1.5
						s1.5,0.671,1.5,1.5v2.272C103.674,36.006,103.002,36.677,102.174,36.677z"/>
				</g>
				<g>
					<path style="fill:#33363A;" d="M107.703,36.677c-0.828,0-1.5-0.671-1.5-1.5v-2.272c0-0.829,0.672-1.5,1.5-1.5
						s1.5,0.671,1.5,1.5v2.272C109.203,36.006,108.531,36.677,107.703,36.677z"/>
				</g>
			</g>
		</g>
		<g>
			<g>
				<g>
					<path style="fill:#FFBE08;" d="M113.977,47.062c0,1.252-1.015,2.264-2.266,2.264H70.206c-1.25,0-2.265-1.012-2.265-2.264
						v-5.661c0-1.251,1.015-2.265,2.265-2.265h41.505c1.251,0,2.266,1.014,2.266,2.265V47.062z"/>
				</g>
				<g>
					<path style="fill:#FFD00B;" d="M70.206,39.136c-1.193,0-2.161,0.926-2.248,2.098c0.087,1.173,1.055,2.1,2.248,2.1h41.505
						c1.194,0,2.162-0.927,2.248-2.1c-0.086-1.172-1.054-2.098-2.248-2.098H70.206z"/>
				</g>
				<g>
					<path style="fill:#33363A;" d="M111.711,50.826H70.206c-2.076,0-3.765-1.688-3.765-3.764v-5.661
						c0-2.076,1.688-3.765,3.765-3.765h41.505c2.076,0,3.766,1.689,3.766,3.765v5.661C115.477,49.137,113.787,50.826,111.711,50.826
						z M70.206,40.636c-0.422,0-0.765,0.343-0.765,0.765v5.661c0,0.421,0.343,0.764,0.765,0.764h41.505
						c0.422,0,0.766-0.343,0.766-0.764v-5.661c0-0.422-0.344-0.765-0.766-0.765H70.206z"/>
				</g>
			</g>
			<g>
				<g>
					<path style="fill:#33363A;" d="M74.534,46.867c-0.828,0-1.5-0.671-1.5-1.5v-2.272c0-0.829,0.672-1.5,1.5-1.5s1.5,0.671,1.5,1.5
						v2.272C76.034,46.195,75.362,46.867,74.534,46.867z"/>
				</g>
				<g>
					<path style="fill:#33363A;" d="M80.063,46.867c-0.828,0-1.5-0.671-1.5-1.5v-2.272c0-0.829,0.672-1.5,1.5-1.5s1.5,0.671,1.5,1.5
						v2.272C81.563,46.195,80.891,46.867,80.063,46.867z"/>
				</g>
				<g>
					<path style="fill:#33363A;" d="M85.591,46.867c-0.828,0-1.5-0.671-1.5-1.5v-2.272c0-0.829,0.672-1.5,1.5-1.5s1.5,0.671,1.5,1.5
						v2.272C87.091,46.195,86.419,46.867,85.591,46.867z"/>
				</g>
				<g>
					<path style="fill:#33363A;" d="M91.119,46.867c-0.828,0-1.5-0.671-1.5-1.5v-2.272c0-0.829,0.672-1.5,1.5-1.5s1.5,0.671,1.5,1.5
						v2.272C92.619,46.195,91.947,46.867,91.119,46.867z"/>
				</g>
				<g>
					<path style="fill:#33363A;" d="M96.646,46.867c-0.828,0-1.5-0.671-1.5-1.5v-2.272c0-0.829,0.672-1.5,1.5-1.5s1.5,0.671,1.5,1.5
						v2.272C98.146,46.195,97.475,46.867,96.646,46.867z"/>
				</g>
				<g>
					<path style="fill:#33363A;" d="M102.174,46.867c-0.828,0-1.5-0.671-1.5-1.5v-2.272c0-0.829,0.672-1.5,1.5-1.5
						s1.5,0.671,1.5,1.5v2.272C103.674,46.195,103.002,46.867,102.174,46.867z"/>
				</g>
				<g>
					<path style="fill:#33363A;" d="M107.703,46.867c-0.828,0-1.5-0.671-1.5-1.5v-2.272c0-0.829,0.672-1.5,1.5-1.5
						s1.5,0.671,1.5,1.5v2.272C109.203,46.195,108.531,46.867,107.703,46.867z"/>
				</g>
			</g>
		</g>
		<g>
			<g>
				<g>
					<path style="fill:#FFBE08;" d="M113.977,57.251c0,1.251-1.015,2.264-2.266,2.264H70.206c-1.25,0-2.265-1.013-2.265-2.264V51.59
						c0-1.251,1.015-2.265,2.265-2.265h41.505c1.251,0,2.266,1.014,2.266,2.265V57.251z"/>
				</g>
				<g>
					<path style="fill:#FFD00B;" d="M70.206,49.326c-1.193,0-2.161,0.926-2.248,2.098c0.087,1.173,1.055,2.1,2.248,2.1h41.505
						c1.194,0,2.162-0.927,2.248-2.1c-0.086-1.172-1.054-2.098-2.248-2.098H70.206z"/>
				</g>
				<g>
					<path style="fill:#33363A;" d="M111.711,61.015H70.206c-2.076,0-3.765-1.688-3.765-3.764V51.59
						c0-2.076,1.688-3.765,3.765-3.765h41.505c2.076,0,3.766,1.689,3.766,3.765v5.661C115.477,59.327,113.787,61.015,111.711,61.015
						z M70.206,50.826c-0.422,0-0.765,0.343-0.765,0.765v5.661c0,0.421,0.343,0.764,0.765,0.764h41.505
						c0.422,0,0.766-0.343,0.766-0.764V51.59c0-0.422-0.344-0.765-0.766-0.765H70.206z"/>
				</g>
			</g>
			<g>
				<g>
					<path style="fill:#33363A;" d="M74.534,57.056c-0.828,0-1.5-0.671-1.5-1.5v-2.272c0-0.829,0.672-1.5,1.5-1.5s1.5,0.671,1.5,1.5
						v2.272C76.034,56.385,75.362,57.056,74.534,57.056z"/>
				</g>
				<g>
					<path style="fill:#33363A;" d="M80.063,57.056c-0.828,0-1.5-0.671-1.5-1.5v-2.272c0-0.829,0.672-1.5,1.5-1.5s1.5,0.671,1.5,1.5
						v2.272C81.563,56.385,80.891,57.056,80.063,57.056z"/>
				</g>
				<g>
					<path style="fill:#33363A;" d="M85.591,57.056c-0.828,0-1.5-0.671-1.5-1.5v-2.272c0-0.829,0.672-1.5,1.5-1.5s1.5,0.671,1.5,1.5
						v2.272C87.091,56.385,86.419,57.056,85.591,57.056z"/>
				</g>
				<g>
					<path style="fill:#33363A;" d="M91.119,57.056c-0.828,0-1.5-0.671-1.5-1.5v-2.272c0-0.829,0.672-1.5,1.5-1.5s1.5,0.671,1.5,1.5
						v2.272C92.619,56.385,91.947,57.056,91.119,57.056z"/>
				</g>
				<g>
					<path style="fill:#33363A;" d="M96.646,57.056c-0.828,0-1.5-0.671-1.5-1.5v-2.272c0-0.829,0.672-1.5,1.5-1.5s1.5,0.671,1.5,1.5
						v2.272C98.146,56.385,97.475,57.056,96.646,57.056z"/>
				</g>
				<g>
					<path style="fill:#33363A;" d="M102.174,57.056c-0.828,0-1.5-0.671-1.5-1.5v-2.272c0-0.829,0.672-1.5,1.5-1.5
						s1.5,0.671,1.5,1.5v2.272C103.674,56.385,103.002,57.056,102.174,57.056z"/>
				</g>
				<g>
					<path style="fill:#33363A;" d="M107.703,57.056c-0.828,0-1.5-0.671-1.5-1.5v-2.272c0-0.829,0.672-1.5,1.5-1.5
						s1.5,0.671,1.5,1.5v2.272C109.203,56.385,108.531,57.056,107.703,57.056z"/>
				</g>
			</g>
		</g>
		<g>
			<g>
				<g>
					<path style="fill:#FFBE08;" d="M113.977,67.441c0,1.251-1.015,2.264-2.266,2.264H70.206c-1.25,0-2.265-1.013-2.265-2.264V61.78
						c0-1.251,1.015-2.265,2.265-2.265h41.505c1.251,0,2.266,1.014,2.266,2.265V67.441z"/>
				</g>
				<g>
					<path style="fill:#FFD00B;" d="M70.206,59.515c-1.193,0-2.161,0.926-2.248,2.098c0.087,1.173,1.055,2.1,2.248,2.1h41.505
						c1.194,0,2.162-0.927,2.248-2.1c-0.086-1.172-1.054-2.098-2.248-2.098H70.206z"/>
				</g>
				<g>
					<path style="fill:#33363A;" d="M111.711,71.205H70.206c-2.076,0-3.765-1.688-3.765-3.764V61.78
						c0-2.076,1.688-3.765,3.765-3.765h41.505c2.076,0,3.766,1.689,3.766,3.765v5.661C115.477,69.516,113.787,71.205,111.711,71.205
						z M70.206,61.015c-0.422,0-0.765,0.343-0.765,0.765v5.661c0,0.421,0.343,0.764,0.765,0.764h41.505
						c0.422,0,0.766-0.343,0.766-0.764V61.78c0-0.422-0.344-0.765-0.766-0.765H70.206z"/>
				</g>
			</g>
			<g>
				<g>
					<path style="fill:#33363A;" d="M74.534,67.246c-0.828,0-1.5-0.671-1.5-1.5v-2.272c0-0.829,0.672-1.5,1.5-1.5s1.5,0.671,1.5,1.5
						v2.272C76.034,66.574,75.362,67.246,74.534,67.246z"/>
				</g>
				<g>
					<path style="fill:#33363A;" d="M80.063,67.246c-0.828,0-1.5-0.671-1.5-1.5v-2.272c0-0.829,0.672-1.5,1.5-1.5s1.5,0.671,1.5,1.5
						v2.272C81.563,66.574,80.891,67.246,80.063,67.246z"/>
				</g>
				<g>
					<path style="fill:#33363A;" d="M85.591,67.246c-0.828,0-1.5-0.671-1.5-1.5v-2.272c0-0.829,0.672-1.5,1.5-1.5s1.5,0.671,1.5,1.5
						v2.272C87.091,66.574,86.419,67.246,85.591,67.246z"/>
				</g>
				<g>
					<path style="fill:#33363A;" d="M91.119,67.246c-0.828,0-1.5-0.671-1.5-1.5v-2.272c0-0.829,0.672-1.5,1.5-1.5s1.5,0.671,1.5,1.5
						v2.272C92.619,66.574,91.947,67.246,91.119,67.246z"/>
				</g>
				<g>
					<path style="fill:#33363A;" d="M96.646,67.246c-0.828,0-1.5-0.671-1.5-1.5v-2.272c0-0.829,0.672-1.5,1.5-1.5s1.5,0.671,1.5,1.5
						v2.272C98.146,66.574,97.475,67.246,96.646,67.246z"/>
				</g>
				<g>
					<path style="fill:#33363A;" d="M102.174,67.246c-0.828,0-1.5-0.671-1.5-1.5v-2.272c0-0.829,0.672-1.5,1.5-1.5
						s1.5,0.671,1.5,1.5v2.272C103.674,66.574,103.002,67.246,102.174,67.246z"/>
				</g>
				<g>
					<path style="fill:#33363A;" d="M107.703,67.246c-0.828,0-1.5-0.671-1.5-1.5v-2.272c0-0.829,0.672-1.5,1.5-1.5
						s1.5,0.671,1.5,1.5v2.272C109.203,66.574,108.531,67.246,107.703,67.246z"/>
				</g>
			</g>
		</g>
		<g>
			<g>
				<g>
					<path style="fill:#FFBE08;" d="M113.977,77.63c0,1.251-1.015,2.264-2.266,2.264H70.206c-1.25,0-2.265-1.013-2.265-2.264v-5.661
						c0-1.251,1.015-2.265,2.265-2.265h41.505c1.251,0,2.266,1.014,2.266,2.265V77.63z"/>
				</g>
				<g>
					<path style="fill:#FFD00B;" d="M70.206,69.705c-1.193,0-2.161,0.926-2.248,2.098c0.087,1.173,1.055,2.1,2.248,2.1h41.505
						c1.194,0,2.162-0.927,2.248-2.1c-0.086-1.172-1.054-2.098-2.248-2.098H70.206z"/>
				</g>
				<g>
					<path style="fill:#33363A;" d="M111.711,81.394H70.206c-2.076,0-3.765-1.688-3.765-3.764v-5.661
						c0-2.076,1.688-3.765,3.765-3.765h41.505c2.076,0,3.766,1.689,3.766,3.765v5.661C115.477,79.706,113.787,81.394,111.711,81.394
						z M70.206,71.205c-0.422,0-0.765,0.343-0.765,0.765v5.661c0,0.421,0.343,0.764,0.765,0.764h41.505
						c0.422,0,0.766-0.343,0.766-0.764v-5.661c0-0.422-0.344-0.765-0.766-0.765H70.206z"/>
				</g>
			</g>
			<g>
				<g>
					<path style="fill:#33363A;" d="M74.534,77.435c-0.828,0-1.5-0.671-1.5-1.5v-2.272c0-0.829,0.672-1.5,1.5-1.5s1.5,0.671,1.5,1.5
						v2.272C76.034,76.764,75.362,77.435,74.534,77.435z"/>
				</g>
				<g>
					<path style="fill:#33363A;" d="M80.063,77.435c-0.828,0-1.5-0.671-1.5-1.5v-2.272c0-0.829,0.672-1.5,1.5-1.5s1.5,0.671,1.5,1.5
						v2.272C81.563,76.764,80.891,77.435,80.063,77.435z"/>
				</g>
				<g>
					<path style="fill:#33363A;" d="M85.591,77.435c-0.828,0-1.5-0.671-1.5-1.5v-2.272c0-0.829,0.672-1.5,1.5-1.5s1.5,0.671,1.5,1.5
						v2.272C87.091,76.764,86.419,77.435,85.591,77.435z"/>
				</g>
				<g>
					<path style="fill:#33363A;" d="M91.119,77.435c-0.828,0-1.5-0.671-1.5-1.5v-2.272c0-0.829,0.672-1.5,1.5-1.5s1.5,0.671,1.5,1.5
						v2.272C92.619,76.764,91.947,77.435,91.119,77.435z"/>
				</g>
				<g>
					<path style="fill:#33363A;" d="M96.646,77.435c-0.828,0-1.5-0.671-1.5-1.5v-2.272c0-0.829,0.672-1.5,1.5-1.5s1.5,0.671,1.5,1.5
						v2.272C98.146,76.764,97.475,77.435,96.646,77.435z"/>
				</g>
				<g>
					<path style="fill:#33363A;" d="M102.174,77.435c-0.828,0-1.5-0.671-1.5-1.5v-2.272c0-0.829,0.672-1.5,1.5-1.5
						s1.5,0.671,1.5,1.5v2.272C103.674,76.764,103.002,77.435,102.174,77.435z"/>
				</g>
				<g>
					<path style="fill:#33363A;" d="M107.703,77.435c-0.828,0-1.5-0.671-1.5-1.5v-2.272c0-0.829,0.672-1.5,1.5-1.5
						s1.5,0.671,1.5,1.5v2.272C109.203,76.764,108.531,77.435,107.703,77.435z"/>
				</g>
			</g>
		</g>
		<g>
			<g>
				<g>
					<path style="fill:#FFBE08;" d="M113.977,87.82c0,1.251-1.015,2.264-2.266,2.264H70.206c-1.25,0-2.265-1.013-2.265-2.264v-5.661
						c0-1.251,1.015-2.265,2.265-2.265h41.505c1.251,0,2.266,1.014,2.266,2.265V87.82z"/>
				</g>
				<g>
					<path style="fill:#FFD00B;" d="M70.206,79.894c-1.193,0-2.161,0.926-2.248,2.098c0.087,1.173,1.055,2.1,2.248,2.1h41.505
						c1.194,0,2.162-0.927,2.248-2.1c-0.086-1.172-1.054-2.098-2.248-2.098H70.206z"/>
				</g>
				<g>
					<path style="fill:#33363A;" d="M111.711,91.583H70.206c-2.076,0-3.765-1.688-3.765-3.764v-5.661
						c0-2.076,1.688-3.765,3.765-3.765h41.505c2.076,0,3.766,1.689,3.766,3.765v5.661C115.477,89.895,113.787,91.583,111.711,91.583
						z M70.206,81.394c-0.422,0-0.765,0.343-0.765,0.765v5.661c0,0.421,0.343,0.764,0.765,0.764h41.505
						c0.422,0,0.766-0.343,0.766-0.764v-5.661c0-0.422-0.344-0.765-0.766-0.765H70.206z"/>
				</g>
			</g>
			<g>
				<g>
					<path style="fill:#33363A;" d="M74.534,87.625c-0.828,0-1.5-0.671-1.5-1.5v-2.272c0-0.829,0.672-1.5,1.5-1.5s1.5,0.671,1.5,1.5
						v2.272C76.034,86.953,75.362,87.625,74.534,87.625z"/>
				</g>
				<g>
					<path style="fill:#33363A;" d="M80.063,87.625c-0.828,0-1.5-0.671-1.5-1.5v-2.272c0-0.829,0.672-1.5,1.5-1.5s1.5,0.671,1.5,1.5
						v2.272C81.563,86.953,80.891,87.625,80.063,87.625z"/>
				</g>
				<g>
					<path style="fill:#33363A;" d="M85.591,87.625c-0.828,0-1.5-0.671-1.5-1.5v-2.272c0-0.829,0.672-1.5,1.5-1.5s1.5,0.671,1.5,1.5
						v2.272C87.091,86.953,86.419,87.625,85.591,87.625z"/>
				</g>
				<g>
					<path style="fill:#33363A;" d="M91.119,87.625c-0.828,0-1.5-0.671-1.5-1.5v-2.272c0-0.829,0.672-1.5,1.5-1.5s1.5,0.671,1.5,1.5
						v2.272C92.619,86.953,91.947,87.625,91.119,87.625z"/>
				</g>
				<g>
					<path style="fill:#33363A;" d="M96.646,87.625c-0.828,0-1.5-0.671-1.5-1.5v-2.272c0-0.829,0.672-1.5,1.5-1.5s1.5,0.671,1.5,1.5
						v2.272C98.146,86.953,97.475,87.625,96.646,87.625z"/>
				</g>
				<g>
					<path style="fill:#33363A;" d="M102.174,87.625c-0.828,0-1.5-0.671-1.5-1.5v-2.272c0-0.829,0.672-1.5,1.5-1.5
						s1.5,0.671,1.5,1.5v2.272C103.674,86.953,103.002,87.625,102.174,87.625z"/>
				</g>
				<g>
					<path style="fill:#33363A;" d="M107.703,87.625c-0.828,0-1.5-0.671-1.5-1.5v-2.272c0-0.829,0.672-1.5,1.5-1.5
						s1.5,0.671,1.5,1.5v2.272C109.203,86.953,108.531,87.625,107.703,87.625z"/>
				</g>
			</g>
		</g>
	</g>
	<g>
		<g>
			<rect x="14.639" y="48.496" style="fill:#AAB9BA;" width="105.242" height="70.058"/>
		</g>
		<g>
			<rect x="14.639" y="56.896" style="fill:#DFE7E8;" width="105.242" height="61.657"/>
		</g>
		<g>
			<rect x="14.639" y="100.82" style="fill:#FFFFFF;" width="105.242" height="17.733"/>
		</g>
		<g>
			<path style="fill:#33363A;" d="M119.881,120.053H14.639c-0.828,0-1.5-0.671-1.5-1.5V48.496c0-0.829,0.672-1.5,1.5-1.5h105.242
				c0.828,0,1.5,0.671,1.5,1.5v70.058C121.381,119.382,120.709,120.053,119.881,120.053z M16.139,117.053h102.242V49.996H16.139
				V117.053z"/>
		</g>
	</g>
	<g>
		<path style="fill:#AAB9BA;" d="M40.346,72.347c0,1.322-1.07,2.393-2.392,2.393h-8.649c-1.32,0-2.392-1.07-2.392-2.393V55.189
			c0-1.322,1.071-2.393,2.392-2.393h8.649c1.321,0,2.392,1.07,2.392,2.393V72.347z"/>
	</g>
	<g>
		<path style="fill:#BFDAE0;" d="M40.346,66.861c0,1.322-1.07,2.393-2.392,2.393h-8.649c-1.32,0-2.392-1.07-2.392-2.393V49.703
			c0-1.321,1.071-2.393,2.392-2.393h8.649c1.321,0,2.392,1.071,2.392,2.393V66.861z"/>
	</g>
	<g>
		<path style="fill:#FFFFFF;" d="M37.954,47.31h-8.649c-1.32,0-2.392,1.071-2.392,2.393v6.187c0,1.323,1.071,2.394,2.392,2.394
			h8.649c1.321,0,2.392-1.07,2.392-2.394v-6.187C40.346,48.381,39.275,47.31,37.954,47.31z"/>
	</g>
	<g>
		<path style="fill:#33363A;" d="M37.954,70.753h-8.649c-2.146,0-3.892-1.746-3.892-3.893V49.703c0-2.146,1.746-3.893,3.892-3.893
			h8.649c2.146,0,3.892,1.746,3.892,3.893v17.158C41.846,69.007,40.1,70.753,37.954,70.753z M29.305,48.81
			c-0.491,0-0.892,0.4-0.892,0.893v17.158c0,0.492,0.4,0.893,0.892,0.893h8.649c0.491,0,0.892-0.4,0.892-0.893V49.703
			c0-0.492-0.4-0.893-0.892-0.893H29.305z"/>
	</g>
	<g>
		<g>
			<path style="fill:#33363A;" d="M31.388,61.375c-0.828,0-1.5-0.671-1.5-1.5v-2.726c0-0.829,0.672-1.5,1.5-1.5s1.5,0.671,1.5,1.5
				v2.726C32.888,60.703,32.216,61.375,31.388,61.375z"/>
		</g>
		<g>
			<path style="fill:#33363A;" d="M35.871,61.375c-0.828,0-1.5-0.671-1.5-1.5v-2.726c0-0.829,0.672-1.5,1.5-1.5s1.5,0.671,1.5,1.5
				v2.726C37.371,60.703,36.699,61.375,35.871,61.375z"/>
		</g>
	</g>
	<g>
		<path style="fill:#AAB9BA;" d="M107.606,72.347c0,1.322-1.071,2.393-2.394,2.393h-8.648c-1.32,0-2.393-1.07-2.393-2.393V55.189
			c0-1.322,1.072-2.393,2.393-2.393h8.648c1.322,0,2.394,1.07,2.394,2.393V72.347z"/>
	</g>
	<g>
		<path style="fill:#BFDAE0;" d="M107.606,66.861c0,1.322-1.071,2.393-2.394,2.393h-8.648c-1.32,0-2.393-1.07-2.393-2.393V49.703
			c0-1.321,1.072-2.393,2.393-2.393h8.648c1.322,0,2.394,1.071,2.394,2.393V66.861z"/>
	</g>
	<g>
		<path style="fill:#FFFFFF;" d="M105.213,47.31h-8.648c-1.32,0-2.393,1.071-2.393,2.393v6.187c0,1.323,1.072,2.394,2.393,2.394
			h8.648c1.322,0,2.394-1.07,2.394-2.394v-6.187C107.606,48.381,106.535,47.31,105.213,47.31z"/>
	</g>
	<g>
		<path style="fill:#33363A;" d="M105.213,70.753h-8.648c-2.146,0-3.893-1.746-3.893-3.893V49.703c0-2.146,1.746-3.893,3.893-3.893
			h8.648c2.146,0,3.894,1.746,3.894,3.893v17.158C109.106,69.007,107.359,70.753,105.213,70.753z M96.564,48.81
			c-0.492,0-0.893,0.4-0.893,0.893v17.158c0,0.492,0.4,0.893,0.893,0.893h8.648c0.493,0,0.894-0.4,0.894-0.893V49.703
			c0-0.492-0.4-0.893-0.894-0.893H96.564z"/>
	</g>
	<g>
		<g>
			<path style="fill:#33363A;" d="M98.646,61.375c-0.828,0-1.5-0.671-1.5-1.5v-2.726c0-0.829,0.672-1.5,1.5-1.5s1.5,0.671,1.5,1.5
				v2.726C100.146,60.703,99.475,61.375,98.646,61.375z"/>
		</g>
		<g>
			<path style="fill:#33363A;" d="M103.132,61.375c-0.828,0-1.5-0.671-1.5-1.5v-2.726c0-0.829,0.672-1.5,1.5-1.5s1.5,0.671,1.5,1.5
				v2.726C104.632,60.703,103.96,61.375,103.132,61.375z"/>
		</g>
	</g>
	<g>
		<circle style="fill:#FFD00B;" cx="67.26" cy="84.655" r="27.611"/>
	</g>
	<g>
		<path style="fill:#FFBE08;" d="M67.26,57.044v55.222c15.249,0,27.611-12.362,27.611-27.611
			C94.871,69.408,82.509,57.044,67.26,57.044z"/>
	</g>
	<g>
		<circle style="fill:#FFD00B;" cx="67.259" cy="84.656" r="21.374"/>
	</g>
	<g>
		<path style="fill:#FFBE08;" d="M52.146,69.542l30.228,30.227c8.348-8.347,8.348-21.881-0.001-30.227
			C74.027,61.196,60.493,61.195,52.146,69.542z"/>
	</g>
	<g>
		<path style="fill:#33363A;" d="M76.206,89.47c-0.324,0-0.624-0.103-0.869-0.278c-0.246,0.175-0.546,0.278-0.87,0.278
			c-0.828,0-1.5-0.671-1.5-1.5c0-1.306,1.063-2.369,2.369-2.369s2.37,1.063,2.37,2.369C77.706,88.799,77.034,89.47,76.206,89.47z"/>
	</g>
	<g>
		<circle style="fill:#E04038;" cx="74.333" cy="92.771" r="2.334"/>
	</g>
	<g>
		<path style="fill:#FF6155;" d="M74.333,90.439c1.289,0,2.334,1.045,2.334,2.332c0,1.289-1.045,2.334-2.334,2.334"/>
	</g>
	<path style="fill:#33363A;" d="M67.26,55.544c-16.052,0-29.11,13.059-29.11,29.11c0,16.052,13.059,29.111,29.11,29.111
		s29.111-13.059,29.111-29.111C96.371,68.604,83.312,55.544,67.26,55.544z M92.775,90.19c-0.187-0.206-0.43-0.364-0.718-0.441
		l-1.516-0.408c-0.309-0.083-0.622-0.061-0.903,0.042c0.241-1.15,0.376-2.328,0.438-3.52c0.248,0.182,0.552,0.293,0.883,0.293h1.569
		c0.299,0,0.577-0.09,0.811-0.241C93.269,87.375,93.076,88.802,92.775,90.19z M89.894,95.992l-1.358-0.785
		c-0.28-0.161-0.589-0.22-0.888-0.192c0.536-1.053,0.988-2.144,1.354-3.267c0.191,0.23,0.45,0.406,0.761,0.49l1.516,0.408
		c0.13,0.035,0.262,0.052,0.391,0.052c0.157,0,0.31-0.029,0.456-0.075c-0.443,1.379-1,2.706-1.655,3.974
		C90.341,96.353,90.149,96.139,89.894,95.992z M47.386,84.655c0-2.432,0.454-4.789,1.285-6.999c0.031,0.106,0.07,0.21,0.104,0.315
		c0.033,0.103,0.065,0.206,0.101,0.308c0.079,0.227,0.166,0.45,0.258,0.671c0.019,0.046,0.034,0.094,0.054,0.14
		c0.006,0.013,0.016,0.024,0.022,0.037c0.642,1.489,1.552,2.86,2.709,4.017c1.518,1.519,3.399,2.624,5.443,3.233
		c-0.629,0.924-1.259,1.904-1.922,2.939c-1.277,1.992-2.702,4.208-4.516,6.639C48.631,92.659,47.386,88.756,47.386,84.655z
		 M44.052,96.596c-0.655-1.268-1.212-2.595-1.655-3.974c0.146,0.047,0.298,0.075,0.455,0.075c0.129,0,0.261-0.017,0.391-0.052
		l1.516-0.408c0.311-0.084,0.57-0.26,0.761-0.49c0.365,1.124,0.817,2.215,1.353,3.268c-0.298-0.028-0.607,0.031-0.886,0.192
		l-1.359,0.785C44.371,96.139,44.179,96.352,44.052,96.596z M41.181,85.915c0.234,0.151,0.511,0.241,0.81,0.241h1.569
		c0.332,0,0.635-0.111,0.884-0.294c0.062,1.193,0.197,2.37,0.438,3.521c-0.281-0.104-0.595-0.127-0.904-0.043l-1.516,0.408
		c-0.288,0.077-0.531,0.235-0.718,0.441C41.445,88.801,41.251,87.375,41.181,85.915z M41.745,79.122
		c0.187,0.206,0.43,0.364,0.718,0.441l1.516,0.407c0.131,0.035,0.262,0.052,0.391,0.052c0.179,0,0.351-0.037,0.514-0.098
		c-0.241,1.152-0.377,2.331-0.439,3.524c-0.249-0.182-0.552-0.294-0.884-0.294h-1.569c-0.299,0-0.576,0.09-0.81,0.241
		C41.251,81.937,41.444,80.51,41.745,79.122z M44.626,73.319l1.359,0.786c0.236,0.137,0.495,0.202,0.75,0.202
		c0.048,0,0.094-0.014,0.141-0.018c-0.538,1.055-0.991,2.149-1.357,3.275c-0.191-0.23-0.451-0.407-0.762-0.491l-1.516-0.407
		c-0.289-0.078-0.58-0.063-0.845,0.022c0.443-1.378,0.999-2.705,1.654-3.973C44.178,72.958,44.371,73.172,44.626,73.319z
		 M82.957,66.837c-0.239,0.238-0.354,0.541-0.399,0.851c-0.895-0.809-1.833-1.553-2.828-2.203c0.273-0.125,0.516-0.323,0.677-0.603
		l0.785-1.357c0.147-0.255,0.208-0.535,0.196-0.81c1.215,0.785,2.365,1.663,3.431,2.633c-0.275,0.058-0.541,0.166-0.754,0.38
		L82.957,66.837z M78.596,62.023l-0.785,1.357c-0.162,0.28-0.22,0.59-0.192,0.889c-1.055-0.537-2.148-0.99-3.274-1.356
		c0.232-0.192,0.415-0.448,0.498-0.761l0.406-1.518c0.077-0.289,0.062-0.579-0.023-0.844c1.379,0.443,2.707,1,3.976,1.656
		C78.958,61.574,78.744,61.767,78.596,62.023z M72.351,59.86l-0.406,1.518c-0.083,0.31-0.06,0.622,0.042,0.901
		c-1.15-0.241-2.327-0.376-3.519-0.438c0.182-0.248,0.292-0.551,0.292-0.883v-1.572c0-0.299-0.09-0.576-0.24-0.81
		c1.459,0.07,2.887,0.263,4.274,0.564C72.587,59.327,72.428,59.571,72.351,59.86z M66.052,61.841
		c-1.192,0.062-2.369,0.197-3.519,0.438c0.103-0.28,0.125-0.592,0.042-0.901l-0.406-1.518c-0.077-0.289-0.236-0.533-0.442-0.72
		c1.387-0.301,2.814-0.494,4.273-0.564c-0.151,0.234-0.241,0.511-0.241,0.81v1.572C65.76,61.29,65.87,61.593,66.052,61.841z
		 M59.271,60.635l0.406,1.518c0.084,0.313,0.267,0.569,0.498,0.761c-1.126,0.366-2.219,0.818-3.274,1.356
		c0.028-0.299-0.03-0.609-0.192-0.889l-0.784-1.357c-0.148-0.256-0.362-0.449-0.606-0.577c1.269-0.656,2.596-1.212,3.975-1.655
		C59.208,60.056,59.193,60.347,59.271,60.635z M53.327,63.524l0.784,1.357c0.162,0.28,0.404,0.478,0.677,0.603
		c-0.994,0.65-1.932,1.394-2.828,2.203c-0.044-0.31-0.16-0.612-0.399-0.851l-1.109-1.109c-0.213-0.213-0.479-0.322-0.754-0.38
		c1.066-0.97,2.216-1.848,3.431-2.633C53.12,62.989,53.18,63.269,53.327,63.524z M52.364,71.532
		c-0.062,0.193-0.088,0.399-0.067,0.606c0,0.002,0,0.003,0,0.005v0c0,0,0,0.001,0,0.001c0.041,0.391,0.102,0.78,0.172,1.167
		c0.022,0.12,0.046,0.238,0.071,0.357c0.047,0.228,0.099,0.454,0.156,0.68c-0.292-0.1-0.587-0.189-0.886-0.268
		c-0.02-0.005-0.039-0.012-0.059-0.017c-0.257-0.066-0.517-0.122-0.778-0.172c-0.057-0.011-0.114-0.026-0.171-0.037
		c-0.066-0.012-0.134-0.019-0.2-0.03C51.125,73.02,51.721,72.26,52.364,71.532z M61.251,77.105c1.18,1.179,2.104,2.573,2.745,4.143
		c0.156,0.383,0.464,0.684,0.85,0.833s0.816,0.131,1.188-0.048c0.979-0.471,2.014-0.567,3.266-0.567
		c2.975,0,8.258,2.385,10.442,6.862c1.945,3.987,0.884,8.77-3.069,13.832c-0.003,0.004-0.004,0.008-0.007,0.011
		c-2.858,1.54-6.068,2.359-9.406,2.359c-5.309,0-10.3-2.068-14.054-5.822c-0.116-0.116-0.215-0.243-0.328-0.361
		c0.159-0.209,0.312-0.414,0.465-0.62c0.247,0.062,0.51,0.068,0.772-0.006c1.668-0.474,2.591,1.192,2.694,1.39
		c0.265,0.52,0.791,0.82,1.338,0.82c0.226,0,0.454-0.051,0.669-0.159c0.741-0.37,1.042-1.271,0.672-2.012
		c-0.535-1.073-1.927-2.724-3.988-3.067c0.299-0.441,0.586-0.871,0.865-1.295c0.053-0.009,0.106-0.013,0.16-0.028
		c1.658-0.477,2.59,1.188,2.695,1.388c0.265,0.52,0.791,0.82,1.338,0.82c0.226,0,0.454-0.051,0.67-0.159
		c0.741-0.371,1.041-1.271,0.671-2.012c-0.502-1.005-1.757-2.515-3.608-2.983c1.603-2.497,2.933-4.514,4.528-6.075
		c0.351-0.343,0.512-0.836,0.431-1.32s-0.394-0.897-0.836-1.107c-1.037-0.492-1.99-1.123-2.851-1.87
		c-0.007-0.006-0.01-0.014-0.016-0.02c-0.217-0.188-0.435-0.376-0.642-0.583c-0.385-0.386-0.743-0.795-1.073-1.225
		c-0.1-0.131-0.181-0.276-0.276-0.41c-0.477-0.674-0.89-1.388-1.227-2.14l1.155-1.155C58.87,75.141,60.145,75.999,61.251,77.105z
		 M53.303,77.889c0.413,0.229,0.814,0.483,1.193,0.771c0.055,0.091,0.124,0.172,0.182,0.261c0.225,0.353,0.463,0.696,0.715,1.03
		c0.098,0.129,0.194,0.258,0.296,0.384c0.34,0.422,0.695,0.832,1.08,1.218c0.005,0.005,0.01,0.012,0.016,0.017l0.001,0
		c0.188,0.188,0.382,0.365,0.578,0.538c0.214,0.427,0.396,0.865,0.546,1.31c-1.449-0.478-2.763-1.287-3.87-2.396
		c-0.659-0.659-1.204-1.414-1.649-2.222L53.303,77.889z M51.563,102.474c0.238-0.238,0.354-0.54,0.398-0.85
		c0.893,0.807,1.828,1.55,2.819,2.198c-0.271,0.125-0.508,0.33-0.669,0.608l-0.784,1.357c-0.147,0.255-0.207,0.534-0.196,0.807
		c-1.215-0.785-2.365-1.662-3.43-2.633c0.274-0.058,0.54-0.166,0.753-0.38L51.563,102.474z M55.925,107.289l0.784-1.357
		c0.161-0.28,0.22-0.59,0.192-0.889c1.053,0.536,2.144,0.989,3.268,1.354c-0.231,0.191-0.408,0.451-0.492,0.763l-0.406,1.516
		c-0.077,0.288-0.062,0.578,0.023,0.843c-1.379-0.443-2.706-1-3.975-1.655C55.562,107.736,55.777,107.545,55.925,107.289z
		 M62.169,109.452l0.406-1.516c0.083-0.31,0.06-0.623-0.043-0.903c1.15,0.241,2.328,0.376,3.52,0.438
		c-0.182,0.248-0.293,0.552-0.293,0.883v1.569c0,0.299,0.09,0.576,0.241,0.81c-1.464-0.07-2.895-0.264-4.287-0.567
		C61.922,109.98,62.091,109.743,62.169,109.452z M68.467,107.472c1.192-0.062,2.37-0.197,3.52-0.438
		c-0.103,0.28-0.126,0.593-0.043,0.903l0.406,1.516c0.078,0.291,0.247,0.528,0.455,0.715c-1.392,0.302-2.823,0.497-4.287,0.567
		c0.151-0.234,0.24-0.511,0.24-0.81v-1.569C68.76,108.024,68.649,107.72,68.467,107.472z M75.249,108.676l-0.406-1.516
		c-0.084-0.312-0.261-0.572-0.491-0.763c1.123-0.365,2.214-0.817,3.267-1.353c-0.027,0.298,0.031,0.607,0.192,0.886l0.785,1.359
		c0.148,0.256,0.362,0.447,0.606,0.575c-1.269,0.656-2.597,1.213-3.976,1.656C75.311,109.254,75.326,108.964,75.249,108.676z
		 M81.193,105.789l-0.785-1.359c-0.16-0.278-0.396-0.483-0.667-0.608c0.99-0.648,1.925-1.391,2.817-2.197
		c0.044,0.31,0.16,0.612,0.398,0.85l1.109,1.109c0.213,0.213,0.479,0.321,0.753,0.38c-1.065,0.97-2.215,1.847-3.43,2.632
		C81.4,106.322,81.34,106.043,81.193,105.789z M83.023,96.731c0.939-3.041,0.789-5.628,0.187-7.704
		c0.609-0.814,0.703-1.949,0.144-2.87c-0.481-0.791-1.327-1.22-2.193-1.221c-3.004-4.043-8.147-6.469-11.861-6.469
		c-1,0-2.054,0.05-3.133,0.336c-0.733-1.415-1.67-2.694-2.795-3.818c-1.613-1.614-3.565-2.842-5.69-3.619
		c-0.015-0.006-0.027-0.016-0.042-0.021c-0.332-0.12-0.669-0.226-1.007-0.323c-0.087-0.025-0.176-0.045-0.264-0.069
		c-0.303-0.081-0.609-0.154-0.916-0.217c-0.111-0.023-0.222-0.046-0.334-0.066c-0.391-0.071-0.783-0.133-1.177-0.173
		c-0.226-0.024-0.45,0.005-0.659,0.079c-0.032,0.012-0.061,0.031-0.093,0.045c0.005-0.005,0.01-0.011,0.015-0.017
		c3.754-3.754,8.744-5.821,14.053-5.821s10.3,2.067,14.053,5.821c0,0,0,0,0,0c3.754,3.753,5.822,8.743,5.822,14.052
		C87.135,89.083,85.678,93.279,83.023,96.731z M90.469,72.714c0.656,1.269,1.212,2.596,1.655,3.975
		c-0.265-0.085-0.556-0.1-0.847-0.023l-1.516,0.407c-0.311,0.083-0.57,0.26-0.761,0.49c-0.366-1.126-0.819-2.219-1.357-3.274
		c0.047,0.005,0.093,0.018,0.141,0.018c0.255,0,0.514-0.065,0.75-0.202l1.359-0.786C90.149,73.172,90.342,72.958,90.469,72.714z
		 M92.528,83.156h-1.569c-0.331,0-0.635,0.111-0.883,0.293c-0.062-1.193-0.198-2.372-0.439-3.523
		c0.163,0.06,0.335,0.097,0.513,0.097c0.129,0,0.26-0.017,0.391-0.052l1.516-0.407c0.288-0.077,0.532-0.236,0.719-0.442
		c0.301,1.388,0.494,2.815,0.564,4.275C93.105,83.246,92.828,83.156,92.528,83.156z M89.201,70.526
		c-0.274-0.011-0.554,0.049-0.809,0.196l-1.359,0.786c-0.277,0.16-0.481,0.396-0.607,0.666c-0.648-0.991-1.391-1.925-2.198-2.818
		c0.31-0.044,0.612-0.16,0.85-0.398l1.109-1.109c0.213-0.213,0.322-0.479,0.38-0.754C87.538,68.161,88.415,69.311,89.201,70.526z
		 M47.952,67.095c0.058,0.275,0.166,0.541,0.38,0.754l1.109,1.109c0.239,0.238,0.541,0.354,0.851,0.399
		c-0.807,0.893-1.55,1.828-2.198,2.819c-0.125-0.27-0.33-0.506-0.607-0.667l-1.359-0.786c-0.254-0.147-0.534-0.207-0.808-0.196
		C46.105,69.311,46.982,68.161,47.952,67.095z M45.319,98.783c0.02,0.001,0.039,0.008,0.059,0.008c0.255,0,0.513-0.065,0.749-0.202
		l1.359-0.785c0.278-0.16,0.483-0.397,0.608-0.667c0.494,0.756,1.035,1.484,1.622,2.184c0.056,0.076,0.121,0.147,0.193,0.213
		c0.123,0.143,0.255,0.28,0.382,0.421c-0.31,0.044-0.612,0.16-0.85,0.398l-1.109,1.109c-0.213,0.213-0.321,0.478-0.38,0.753
		C46.982,101.149,46.105,99.999,45.319,98.783z M86.567,102.215c-0.058-0.274-0.167-0.54-0.38-0.753l-1.109-1.109
		c-0.238-0.238-0.54-0.354-0.85-0.398c0.806-0.893,1.549-1.827,2.197-2.818c0.125,0.271,0.33,0.507,0.607,0.668l1.358,0.785
		c0.236,0.137,0.495,0.202,0.75,0.202c0.02,0,0.039-0.007,0.059-0.008C88.416,99.999,87.538,101.149,86.567,102.215z"/>
</g>
<g>
</g>
<g>
</g>
<g>
</g>
<g>
</g>
<g>
</g>
<g>
</g>
<g>
</g>
<g>
</g>
<g>
</g>
<g>
</g>
<g>
</g>
<g>
</g>
<g>
</g>
<g>
</g>
<g>
</g>
</svg>
