<?xml version="1.0" encoding="iso-8859-1"?>
<!-- Generator: Adobe Illustrator 19.0.0, SVG Export Plug-In . SVG Version: 6.00 Build 0)  -->
<svg version="1.1" id="Layer_1" xmlns="http://www.w3.org/2000/svg" xmlns:xlink="http://www.w3.org/1999/xlink" x="0px" y="0px"
	 viewBox="0 0 125.687 125.687" style="enable-background:new 0 0 125.687 125.687;" xml:space="preserve">
<g>
	<g>
		<polygon style="fill:#C12727;" points="117.975,94.518 7.712,94.518 20.31,6.981 105.377,6.981 		"/>
	</g>
	<g>
		<polygon style="fill:#FF1A1A;" points="20.31,6.981 19.149,15.054 106.538,15.054 105.377,6.981 		"/>
	</g>
	<g>
		<polygon style="fill:#FF1A1A;" points="20.31,42.784 9.702,94.518 115.984,94.518 105.377,42.784 		"/>
	</g>
	<g>
		<path style="fill:#33363A;" d="M117.975,96.018H7.712c-0.436,0-0.849-0.189-1.134-0.518c-0.285-0.329-0.413-0.766-0.351-1.196
			L18.826,6.767c0.105-0.738,0.738-1.286,1.484-1.286h85.066c0.746,0,1.379,0.548,1.484,1.286l12.599,87.537
			c0.063,0.431-0.065,0.867-0.351,1.196C118.824,95.829,118.411,96.018,117.975,96.018z M9.443,93.018h106.801L104.077,8.481H21.61
			L9.443,93.018z"/>
	</g>
	<g>
		<polygon style="fill:#F95D5D;" points="124.187,118.706 1.5,118.706 15.517,21.304 110.17,21.304 		"/>
	</g>
	<g>
		<polygon style="fill:#FF1A1A;" points="15.517,61.142 3.714,118.706 121.974,118.706 110.17,61.142 		"/>
	</g>
	<g>
		<circle style="fill:#FFFFFF;" cx="42.846" cy="37.455" r="5.585"/>
	</g>
	<g>
		<circle style="fill:#FFFFFF;" cx="82.842" cy="37.455" r="5.585"/>
	</g>
	<path style="fill:#33363A;" d="M89.928,37.455c0-3.907-3.179-7.086-7.086-7.086c-3.906,0-7.085,3.179-7.085,7.086
		c0,2.945,1.806,5.474,4.368,6.543c-2.651,6.975-9.386,11.955-17.281,11.955s-14.63-4.98-17.281-11.955
		c2.562-1.069,4.368-3.598,4.368-6.543c0-3.907-3.179-7.086-7.085-7.086s-7.085,3.179-7.085,7.086c0,3.813,3.029,6.924,6.805,7.073
		c2.934,8.385,10.904,14.425,20.278,14.425s17.344-6.04,20.278-14.425C86.899,44.379,89.928,41.268,89.928,37.455z M38.761,37.455
		c0-2.253,1.832-4.086,4.085-4.086s4.085,1.833,4.085,4.086c0,1.58-0.91,2.938-2.225,3.618c-0.233-1.171-0.36-2.379-0.36-3.618
		c0-0.829-0.672-1.5-1.5-1.5s-1.5,0.671-1.5,1.5c0,1.336,0.139,2.639,0.374,3.909C40.017,40.871,38.761,39.315,38.761,37.455z
		 M83.968,41.364c0.234-1.27,0.374-2.573,0.374-3.909c0-0.829-0.672-1.5-1.5-1.5s-1.5,0.671-1.5,1.5c0,1.238-0.127,2.447-0.36,3.618
		c-1.314-0.68-2.225-2.038-2.225-3.618c0-2.253,1.832-4.086,4.085-4.086s4.086,1.833,4.086,4.086
		C86.928,39.315,85.671,40.871,83.968,41.364z"/>
	<g>
		<circle style="fill:#FF7676;" cx="62.844" cy="91.723" r="25.185"/>
	</g>
	<g>
		<path style="fill:#F95D5D;" d="M88.029,91.723c0,10.654-11.275,19.293-25.186,19.293c-13.909,0-25.185-8.639-25.185-19.293
			c0-10.652,11.276-19.289,25.185-19.289C76.754,72.433,88.029,81.07,88.029,91.723z"/>
	</g>
	<g>
		<path style="fill:#FFFFFF;" d="M37.658,91.723c0,13.91,11.276,25.187,25.185,25.187c13.91,0,25.186-11.277,25.186-25.187H37.658z"
			/>
	</g>
	<g>
		<path style="fill:#D8E5EA;" d="M62.844,111.016c13.91,0,25.186-8.639,25.186-19.293H37.658
			C37.658,102.377,48.934,111.016,62.844,111.016z"/>
	</g>
	<g>
		<path style="fill:#A7BBC1;" d="M68.731,88.719c3.253,3.256,3.253,8.525,0,11.777c-3.252,3.254-8.523,3.254-11.776,0
			c-3.252-3.252-3.252-8.521,0-11.777C60.208,85.469,65.479,85.469,68.731,88.719z"/>
	</g>
	<g>
		<circle style="fill:#FFFFFF;" cx="62.843" cy="91.777" r="8.328"/>
	</g>
	<g>
		<path style="fill:#D8E5EA;" d="M56.955,97.666c-3.252-3.252-3.252-8.525,0-11.777c3.253-3.253,8.524-3.253,11.776,0"/>
	</g>
	<path style="fill:#33363A;" d="M125.672,118.492L111.654,21.09c-0.105-0.738-0.738-1.286-1.484-1.286H15.517
		c-0.746,0-1.379,0.548-1.484,1.286L0.016,118.492c-0.063,0.431,0.065,0.867,0.351,1.196c0.285,0.329,0.698,0.518,1.134,0.518
		h122.688c0.436,0,0.849-0.189,1.134-0.518C125.606,119.359,125.734,118.923,125.672,118.492z M72.538,90.223
		c-0.322-2.034-1.262-3.911-2.746-5.395c-1.856-1.856-4.324-2.878-6.948-2.878c-2.625,0-5.093,1.022-6.949,2.879
		c-1.52,1.52-2.427,3.419-2.741,5.395H39.211c0.777-12.363,11.077-22.186,23.633-22.186S85.7,77.859,86.477,90.223H72.538z
		 M61.344,90.223h-5.139c0.279-1.2,0.878-2.34,1.811-3.273c0.928-0.928,2.078-1.55,3.328-1.829V90.223z M61.344,93.225v5.203
		c-1.22-0.273-2.38-0.876-3.328-1.822c-0.961-0.961-1.57-2.141-1.837-3.381H61.344z M64.344,93.225h5.17
		c-0.273,1.271-0.901,2.44-1.843,3.38c-0.947,0.947-2.107,1.55-3.327,1.823V93.225z M64.344,90.223V85.12
		c1.25,0.279,2.399,0.901,3.327,1.829c0,0,0,0,0,0c0.915,0.914,1.531,2.044,1.816,3.273H64.344z M53.138,93.223
		c0.298,2.015,1.209,3.957,2.757,5.504c1.916,1.915,4.433,2.872,6.949,2.872s5.032-0.958,6.948-2.872
		c1.51-1.511,2.458-3.429,2.762-5.504h13.923C85.7,105.587,75.4,115.41,62.844,115.41s-22.856-9.823-23.633-22.188H53.138z
		 M70.777,117.206c10.853-3.386,18.752-13.53,18.752-25.483c0-14.714-11.971-26.686-26.686-26.686S36.158,77.008,36.158,91.723
		c0,11.954,7.899,22.097,18.752,25.483H3.231l13.586-94.402h92.053l13.586,94.402H70.777z"/>
</g>
<g>
</g>
<g>
</g>
<g>
</g>
<g>
</g>
<g>
</g>
<g>
</g>
<g>
</g>
<g>
</g>
<g>
</g>
<g>
</g>
<g>
</g>
<g>
</g>
<g>
</g>
<g>
</g>
<g>
</g>
</svg>
