<?xml version="1.0" encoding="iso-8859-1"?>
<!-- Generator: Adobe Illustrator 19.0.0, SVG Export Plug-In . SVG Version: 6.00 Build 0)  -->
<svg version="1.1" id="Layer_1" xmlns="http://www.w3.org/2000/svg" xmlns:xlink="http://www.w3.org/1999/xlink" x="0px" y="0px"
	 viewBox="0 0 127.852 127.852" style="enable-background:new 0 0 127.852 127.852;" xml:space="preserve">
<g>
	<g>
		<polygon style="fill:#8DE4FF;" points="36.174,17.522 63.926,1.5 91.678,17.522 91.678,49.572 63.926,65.592 36.174,49.572 		"/>
	</g>
	<g>
		<polyline style="fill:#36C6FF;" points="36.174,17.522 63.926,1.5 91.678,17.522 91.678,49.572 63.926,65.592 		"/>
	</g>
	<g>
		<polygon style="fill:#0086FF;" points="63.925,1.5 63.925,65.592 63.926,65.592 91.678,49.572 91.678,17.522 63.926,1.5 		"/>
	</g>
	<g>
		<polyline style="fill:#0062FF;" points="91.678,17.522 63.926,1.5 63.925,1.5 63.925,65.592 63.926,65.592 		"/>
	</g>
	<g>
		<polygon style="fill:#36C6FF;" points="36.174,17.522 36.174,17.524 63.926,33.546 91.678,17.524 91.678,17.522 63.926,1.5 		"/>
	</g>
	<g>
		<polyline style="fill:#00AAFF;" points="36.174,17.522 36.174,17.524 63.926,33.546 91.678,17.524 91.678,17.522 		"/>
	</g>
	<g>
		<polygon style="fill:#0062FF;" points="45.077,90.853 45.077,90.855 63.926,101.737 82.775,90.855 82.775,90.853 63.926,79.972 		
			"/>
	</g>
	<g>
		<polyline style="fill:#0031FF;" points="63.926,101.737 82.775,90.855 82.775,90.853 63.926,79.972 		"/>
	</g>
	<g>
		<circle style="fill:#36C6FF;" cx="63.926" cy="121.193" r="5.16"/>
	</g>
	<g>
		<path style="fill:#0086FF;" d="M63.926,116.032c2.85,0,5.16,2.311,5.16,5.16c0,2.851-2.31,5.159-5.16,5.159"/>
	</g>
	<g>
		<path style="fill:#33363A;" d="M63.926,127.852c-3.672,0-6.66-2.987-6.66-6.659c0-3.672,2.987-6.66,6.66-6.66
			s6.66,2.988,6.66,6.66C70.586,124.865,67.598,127.852,63.926,127.852z M63.926,117.532c-2.018,0-3.66,1.642-3.66,3.66
			c0,2.018,1.642,3.659,3.66,3.659s3.66-1.642,3.66-3.659C67.586,119.175,65.944,117.532,63.926,117.532z"/>
	</g>
	<g>
		<path style="fill:#33363A;" d="M83.525,89.553L64.676,78.673c-0.464-0.268-1.036-0.268-1.5,0L44.327,89.553
			c-0.464,0.268-0.75,0.764-0.75,1.3s0.286,1.032,0.75,1.3l18.099,10.449v5.015c0,0.829,0.671,1.5,1.5,1.5s1.5-0.671,1.5-1.5v-5.015
			l18.099-10.451c0.464-0.268,0.75-0.763,0.75-1.299C84.275,90.317,83.989,89.822,83.525,89.553z M63.926,100.005l-15.849-9.152
			l15.849-9.149l15.849,9.151L63.926,100.005z"/>
		<path style="fill:#33363A;" d="M62.866,110.846c-0.28,0.28-0.44,0.66-0.44,1.06c0,0.39,0.16,0.78,0.44,1.06
			c0.28,0.28,0.67,0.44,1.06,0.44c0.4,0,0.78-0.16,1.06-0.44c0.28-0.28,0.44-0.67,0.44-1.06c0-0.4-0.16-0.79-0.44-1.06
			C64.436,110.286,63.426,110.276,62.866,110.846z"/>
	</g>
	<g>
		<path style="fill:#33363A;" d="M93.17,17.462c-0.004-0.089-0.015-0.177-0.035-0.264c-0.008-0.034-0.013-0.068-0.023-0.101
			c-0.03-0.101-0.07-0.199-0.123-0.295c-0.012-0.023-0.026-0.044-0.04-0.066c-0.054-0.087-0.115-0.167-0.183-0.239
			c-0.028-0.029-0.058-0.055-0.088-0.082c-0.061-0.055-0.124-0.104-0.192-0.147c-0.021-0.013-0.037-0.033-0.059-0.045L64.676,0.201
			c-0.464-0.269-1.036-0.269-1.5,0L35.424,16.223c-0.023,0.013-0.039,0.033-0.061,0.047c-0.066,0.042-0.128,0.09-0.187,0.143
			c-0.031,0.028-0.063,0.054-0.092,0.085c-0.067,0.072-0.128,0.151-0.182,0.237c-0.014,0.022-0.028,0.044-0.04,0.067
			c-0.053,0.096-0.093,0.194-0.123,0.295c-0.01,0.033-0.015,0.067-0.023,0.101c-0.02,0.088-0.031,0.176-0.035,0.264
			c-0.001,0.02-0.008,0.039-0.008,0.06v32.05c0,0.536,0.286,1.031,0.75,1.299l27.002,15.588v4.15c0,0.829,0.671,1.5,1.5,1.5
			s1.5-0.671,1.5-1.5v-4.15l27.002-15.588c0.464-0.268,0.75-0.763,0.75-1.299v-32.05C93.178,17.501,93.171,17.482,93.17,17.462z
			 M63.926,3.232L88.68,17.523L63.926,31.814L39.172,17.523L63.926,3.232z M37.674,20.122l24.752,14.29v28.582L37.674,48.705V20.122
			z M65.426,62.994V34.412l24.752-14.29v28.584L65.426,62.994z"/>
		<path style="fill:#33363A;" d="M62.866,73.836c-0.28,0.28-0.44,0.66-0.44,1.06c0,0.39,0.16,0.78,0.44,1.06
			c0.28,0.28,0.66,0.44,1.06,0.44c0.4,0,0.78-0.16,1.06-0.44c0.28-0.28,0.44-0.67,0.44-1.06c0-0.4-0.16-0.78-0.44-1.06
			C64.436,73.276,63.426,73.276,62.866,73.836z"/>
	</g>
</g>
<g>
</g>
<g>
</g>
<g>
</g>
<g>
</g>
<g>
</g>
<g>
</g>
<g>
</g>
<g>
</g>
<g>
</g>
<g>
</g>
<g>
</g>
<g>
</g>
<g>
</g>
<g>
</g>
<g>
</g>
</svg>
