<?xml version="1.0" encoding="iso-8859-1"?>
<!-- Generator: Adobe Illustrator 19.0.0, SVG Export Plug-In . SVG Version: 6.00 Build 0)  -->
<svg version="1.1" id="Layer_1" xmlns="http://www.w3.org/2000/svg" xmlns:xlink="http://www.w3.org/1999/xlink" x="0px" y="0px"
	 viewBox="0 0 127.346 127.346" style="enable-background:new 0 0 127.346 127.346;" xml:space="preserve">
<g>
	<g>
		<g>
			<g>
				<g>
					<path style="fill:#FF8F8F;" d="M104.454,38.89c-2.328,0-4.604-1.16-5.934-3.276C90.41,22.706,77.383,15,63.673,15
						s-26.737,7.706-34.847,20.613c-2.056,3.274-6.377,4.26-9.651,2.202c-3.273-2.057-4.26-6.378-2.203-9.651
						C27.659,11.155,45.117,1,63.673,1s36.014,10.155,46.702,27.164c2.057,3.273,1.07,7.595-2.203,9.651
						C107.015,38.543,105.727,38.89,104.454,38.89z"/>
				</g>
			</g>
			<g>
				<g>
					<path style="fill:#FF1A1A;" d="M63.673,55.02"/>
				</g>
			</g>
			<g>
				<g>
					<path style="fill:#FF8F8F;" d="M63.673,125.346c-31.476,0-57.084-28.676-57.084-63.923c0-3.866,3.134-7,7-7
						c3.866,0,7,3.134,7,7c0,27.527,19.328,49.923,43.084,49.923s43.084-22.396,43.084-49.923c0-3.866,3.134-7,7-7
						c3.866,0,7,3.134,7,7C120.757,96.67,95.149,125.346,63.673,125.346z"/>
				</g>
			</g>
			<g>
				<path style="fill:#FF1A1A;" d="M63.673,9C45.219,9,27.854,19.047,17.151,35.887c0.522,0.75,1.2,1.412,2.023,1.929
					c3.274,2.058,7.595,1.071,9.651-2.202C36.936,22.706,49.962,15,63.673,15S90.41,22.706,98.52,35.613
					c1.33,2.116,3.606,3.276,5.934,3.276c1.272,0,2.56-0.347,3.717-1.074c0.823-0.517,1.501-1.178,2.023-1.929
					C99.492,19.047,82.126,9,63.673,9z"/>
			</g>
			<g>
				<path style="fill:#FF1A1A;" d="M113.757,62.423c-3.866,0-7,3.134-7,7c0,27.527-19.328,49.923-43.084,49.923
					S20.589,96.95,20.589,69.423c0-3.866-3.134-7-7-7c-3.209,0-5.906,2.161-6.733,5.105c2.755,32.393,27.181,57.817,56.817,57.817
					s54.062-25.425,56.817-57.817C119.663,64.584,116.965,62.423,113.757,62.423z"/>
			</g>
		</g>
		<g>
			<g>
				<g>
					<path style="fill:#33363A;" d="M22.883,40.892c-1.582,0-3.135-0.443-4.507-1.307c-1.922-1.207-3.259-3.092-3.764-5.305
						c-0.505-2.214-0.119-4.492,1.089-6.414C26.665,10.417,44.599,0,63.673,0s37.008,10.417,47.972,27.866
						c1.208,1.922,1.595,4.2,1.089,6.414c-0.505,2.213-1.842,4.098-3.765,5.306c-1.356,0.853-2.917,1.304-4.515,1.304
						c-2.945,0-5.639-1.487-7.204-3.979C89.416,24.443,76.864,17,63.673,17S37.93,24.443,30.096,36.911
						c-1.208,1.923-3.092,3.26-5.305,3.765C24.157,40.82,23.518,40.892,22.883,40.892z M63.673,3
						c-18.036,0-35.02,9.893-45.432,26.462c-0.781,1.244-1.032,2.718-0.705,4.15c0.327,1.433,1.192,2.651,2.436,3.433
						c1.244,0.782,2.717,1.034,4.151,0.706c1.432-0.327,2.651-1.191,3.433-2.436C35.942,21.969,49.443,14,63.673,14
						s27.731,7.969,36.117,21.315c1.013,1.611,2.757,2.574,4.664,2.574c1.032,0,2.041-0.292,2.918-0.844
						c1.245-0.782,2.11-2.001,2.437-3.434c0.327-1.433,0.076-2.906-0.705-4.15C98.693,12.893,81.709,3,63.673,3z"/>
				</g>
			</g>
			<g>
				<g>
					<path style="fill:none;stroke:#33363A;stroke-width:3;stroke-linecap:round;stroke-linejoin:round;stroke-miterlimit:10;" d="
						M63.673,55.52"/>
				</g>
			</g>
			<g>
				<g>
					<path style="fill:#33363A;" d="M63.673,127.346c-32.303,0-58.584-29.349-58.584-65.423c0-4.687,3.813-8.5,8.5-8.5
						s8.5,3.813,8.5,8.5c0,26.7,18.654,48.423,41.584,48.423s41.584-21.723,41.584-48.423c0-4.687,3.813-8.5,8.5-8.5
						s8.5,3.813,8.5,8.5C122.257,97.997,95.976,127.346,63.673,127.346z M13.589,56.423c-3.033,0-5.5,2.467-5.5,5.5
						c0,34.42,24.935,62.423,55.584,62.423s55.584-28.003,55.584-62.423c0-3.033-2.467-5.5-5.5-5.5s-5.5,2.467-5.5,5.5
						c0,28.354-20,51.423-44.584,51.423S19.089,90.277,19.089,61.923C19.089,58.89,16.622,56.423,13.589,56.423z"/>
				</g>
			</g>
		</g>
	</g>
	<g>
		<g>
			<circle style="fill:#FF8F8F;" cx="63.673" cy="63.422" r="15.736"/>
		</g>
		<g>
			<path style="fill:#FF1A1A;" d="M79.409,63.422c0,6.658-7.046,12.054-15.736,12.054c-8.689,0-15.735-5.395-15.735-12.054
				c0-6.65,7.046-12.054,15.735-12.054C72.363,51.368,79.409,56.771,79.409,63.422z"/>
		</g>
		<g>
			<path style="fill:#FFFFFF;" d="M47.937,63.422c0,8.691,7.046,15.737,15.735,15.737c8.69,0,15.736-7.046,15.736-15.737H47.937z"/>
		</g>
		<g>
			<path style="fill:#DCE6EA;" d="M63.672,75.476c8.69,0,15.736-5.395,15.736-12.054H47.937
				C47.937,70.08,54.983,75.476,63.672,75.476z"/>
		</g>
		<path style="fill:#33363A;" d="M63.672,46.188c-9.503,0-17.235,7.731-17.235,17.234c0,9.505,7.732,17.237,17.235,17.237
			c9.504,0,17.236-7.732,17.236-17.237C80.909,53.919,73.176,46.188,63.672,46.188z M63.672,49.188
			c7.343,0,13.403,5.588,14.156,12.734h-28.31C50.27,54.776,56.33,49.188,63.672,49.188z M63.672,77.659
			c-7.343,0-13.403-5.589-14.155-12.737h28.31C77.076,72.07,71.016,77.659,63.672,77.659z"/>
		<g>
			<g>
				<path style="fill:#A7BBC1;" d="M67.351,61.548c2.032,2.031,2.032,5.324,0,7.355c-2.03,2.034-5.325,2.034-7.357,0
					c-2.031-2.031-2.031-5.324,0-7.355C62.026,59.515,65.321,59.515,67.351,61.548z"/>
			</g>
			<g>
				<circle style="fill:#FFFFFF;" cx="63.672" cy="63.456" r="5.202"/>
			</g>
			<g>
				<path style="fill:#D8E5EA;" d="M59.994,67.134c-2.031-2.029-2.031-5.326,0-7.356c2.032-2.031,5.327-2.031,7.357,0"/>
			</g>
			<g>
				<path style="fill:#33363A;" d="M63.673,70.159c-1.791,0-3.474-0.698-4.74-1.965c-1.265-1.265-1.962-2.947-1.962-4.738
					s0.697-3.475,1.963-4.739c1.266-1.266,2.95-1.963,4.74-1.963c1.791,0,3.474,0.697,4.739,1.963
					c1.266,1.266,1.963,2.949,1.963,4.74c0,1.791-0.698,3.474-1.964,4.738C67.147,69.461,65.464,70.159,63.673,70.159z
					 M63.673,59.754c-0.989,0-1.919,0.385-2.619,1.084s-1.084,1.629-1.084,2.618s0.385,1.919,1.083,2.616
					c1.401,1.402,3.84,1.4,5.236,0.002c0.701-0.7,1.085-1.629,1.085-2.618c0-0.989-0.385-1.919-1.084-2.617
					c0-0.001,0-0.001-0.001-0.001C65.592,60.139,64.662,59.754,63.673,59.754z"/>
			</g>
		</g>
	</g>
</g>
<g>
</g>
<g>
</g>
<g>
</g>
<g>
</g>
<g>
</g>
<g>
</g>
<g>
</g>
<g>
</g>
<g>
</g>
<g>
</g>
<g>
</g>
<g>
</g>
<g>
</g>
<g>
</g>
<g>
</g>
</svg>
