<?xml version="1.0" encoding="iso-8859-1"?>
<!-- Generator: Adobe Illustrator 19.0.0, SVG Export Plug-In . SVG Version: 6.00 Build 0)  -->
<svg version="1.1" id="Layer_1" xmlns="http://www.w3.org/2000/svg" xmlns:xlink="http://www.w3.org/1999/xlink" x="0px" y="0px"
	 viewBox="0 0 129.217 129.217" style="enable-background:new 0 0 129.217 129.217;" xml:space="preserve">
<g>
	<g>
		<g>
			<polygon style="fill:#FFFBD7;" points="90.336,64.607 64.608,127.717 38.88,64.607 64.608,1.5 			"/>
		</g>
		<g>
			<polygon style="fill:#F9F07D;" points="82.836,64.607 64.608,127.717 46.38,64.607 64.608,1.5 			"/>
		</g>
		<g>
			<polygon style="fill:#FFD00B;" points="74.196,64.607 64.608,127.717 55.02,64.607 64.608,1.5 			"/>
		</g>
		<path style="fill:#33363A;" d="M91.725,64.041L65.997,0.934c-0.013-0.033-0.038-0.058-0.053-0.089
			c-0.029-0.059-0.062-0.111-0.098-0.165c-0.057-0.086-0.12-0.163-0.192-0.234c-0.044-0.043-0.086-0.084-0.134-0.122
			c-0.086-0.067-0.18-0.119-0.279-0.165c-0.049-0.023-0.093-0.051-0.144-0.069C64.941,0.035,64.778,0,64.608,0
			s-0.333,0.035-0.488,0.089c-0.051,0.018-0.095,0.046-0.144,0.069c-0.099,0.047-0.193,0.099-0.279,0.165
			c-0.049,0.038-0.091,0.079-0.134,0.122c-0.072,0.071-0.135,0.149-0.192,0.234c-0.036,0.054-0.069,0.106-0.098,0.165
			c-0.015,0.031-0.04,0.056-0.053,0.089L37.492,64.041c-0.148,0.363-0.148,0.77,0,1.133l25.728,63.109
			c0.013,0.033,0.038,0.058,0.053,0.089c0.029,0.059,0.062,0.111,0.098,0.165c0.057,0.086,0.12,0.163,0.192,0.234
			c0.044,0.043,0.086,0.084,0.134,0.122c0.086,0.067,0.18,0.119,0.279,0.165c0.049,0.023,0.093,0.051,0.144,0.069
			c0.155,0.054,0.318,0.089,0.488,0.089s0.333-0.035,0.488-0.089c0.051-0.018,0.095-0.046,0.144-0.069
			c0.099-0.047,0.193-0.099,0.279-0.165c0.049-0.038,0.091-0.079,0.134-0.122c0.072-0.071,0.135-0.149,0.192-0.234
			c0.036-0.054,0.069-0.106,0.098-0.165c0.015-0.031,0.04-0.056,0.053-0.089l25.729-63.109
			C91.874,64.811,91.874,64.404,91.725,64.041z M56.765,63.109l7.843-51.623l7.843,51.623H56.765z M72.45,66.109l-7.842,51.621
			l-7.842-51.621H72.45z M53.73,63.109H41.111l20.115-49.342L53.73,63.109z M53.731,66.109l7.496,49.339L41.113,66.109H53.731z
			 M75.485,66.109h12.619l-20.115,49.34L75.485,66.109z M75.486,63.109l-7.497-49.342l20.116,49.342H75.486z"/>
	</g>
	<g>
		<g>
			<g>
				<g>
					<path style="fill:#33363A;" d="M118.774,66.111h-0.992c-0.828,0-1.5-0.671-1.5-1.5s0.672-1.5,1.5-1.5h0.992
						c0.828,0,1.5,0.671,1.5,1.5S119.602,66.111,118.774,66.111z"/>
				</g>
				<g>
					<path style="fill:#33363A;" d="M108.741,66.111L108.741,66.111l-5.824-0.001c-0.829,0-1.5-0.672-1.5-1.5
						c0-0.828,0.672-1.5,1.5-1.5l0,0l5.824,0.001c0.829,0,1.5,0.672,1.5,1.5C110.241,65.44,109.569,66.111,108.741,66.111z"/>
				</g>
			</g>
			<g>
				<g>
					<g>
						<path style="fill:#33363A;" d="M112.448,38.751c-0.381,0-0.763-0.145-1.055-0.434c-0.589-0.583-0.595-1.532-0.012-2.121
							l0.701-0.709c0.582-0.589,1.533-0.594,2.121-0.012c0.589,0.583,0.595,1.532,0.012,2.121l-0.701,0.709
							C113.221,38.603,112.834,38.751,112.448,38.751z"/>
					</g>
					<g>
						<path style="fill:#33363A;" d="M101.932,49.263c-0.384,0-0.769-0.146-1.062-0.44c-0.585-0.586-0.585-1.536,0.002-2.122
							L105,42.579c0.584-0.584,1.535-0.585,2.121,0.001c0.585,0.586,0.585,1.536-0.002,2.122l-4.127,4.122
							C102.7,49.116,102.316,49.263,101.932,49.263z"/>
					</g>
				</g>
				<g>
					<g>
						<path style="fill:#33363A;" d="M113.149,94.175c-0.384,0-0.768-0.146-1.061-0.439l-0.705-0.705
							c-0.586-0.585-0.586-1.536,0-2.121c0.586-0.586,1.535-0.586,2.121,0l0.705,0.705c0.586,0.585,0.586,1.536,0,2.121
							C113.917,94.028,113.533,94.175,113.149,94.175z"/>
					</g>
					<g>
						<path style="fill:#33363A;" d="M106.057,87.08c-0.384,0-0.767-0.146-1.06-0.438l-4.127-4.12
							c-0.587-0.585-0.587-1.535-0.002-2.121c0.586-0.587,1.535-0.587,2.121-0.002l4.127,4.12c0.587,0.585,0.587,1.535,0.002,2.121
							C106.826,86.933,106.441,87.08,106.057,87.08z"/>
					</g>
				</g>
			</g>
		</g>
		<g>
			<g>
				<g>
					<path style="fill:#33363A;" d="M11.435,66.105h-0.992c-0.828,0-1.5-0.671-1.5-1.5s0.672-1.5,1.5-1.5h0.992
						c0.828,0,1.5,0.671,1.5,1.5S12.263,66.105,11.435,66.105z"/>
				</g>
				<g>
					<path style="fill:#33363A;" d="M26.3,66.106L26.3,66.106l-5.824-0.001c-0.829,0-1.5-0.672-1.5-1.5c0-0.828,0.672-1.5,1.5-1.5
						l0,0l5.824,0.001c0.829,0,1.5,0.672,1.5,1.5C27.8,65.435,27.128,66.106,26.3,66.106z"/>
				</g>
			</g>
			<g>
				<g>
					<g>
						<path style="fill:#33363A;" d="M16.068,94.175c-0.381,0-0.763-0.145-1.055-0.434c-0.589-0.583-0.595-1.532-0.012-2.121
							l0.701-0.709c0.581-0.589,1.532-0.594,2.121-0.012s0.595,1.532,0.012,2.121l-0.701,0.709
							C16.841,94.026,16.455,94.175,16.068,94.175z"/>
					</g>
					<g>
						<path style="fill:#33363A;" d="M23.158,87.077c-0.384,0-0.769-0.146-1.062-0.44c-0.585-0.586-0.585-1.536,0.001-2.121
							l4.127-4.123c0.586-0.585,1.536-0.586,2.122,0.001c0.585,0.586,0.585,1.536-0.001,2.121l-4.127,4.123
							C23.925,86.931,23.542,87.077,23.158,87.077z"/>
					</g>
				</g>
				<g>
					<g>
						<path style="fill:#33363A;" d="M16.773,38.748c-0.384,0-0.769-0.146-1.062-0.44l-0.705-0.706
							c-0.585-0.586-0.585-1.536,0.002-2.122c0.584-0.585,1.535-0.585,2.121,0.001l0.705,0.706c0.585,0.586,0.585,1.536-0.002,2.122
							C17.541,38.602,17.157,38.748,16.773,38.748z"/>
					</g>
					<g>
						<path style="fill:#33363A;" d="M27.287,49.257c-0.384,0-0.767-0.146-1.06-0.438L22.1,44.699
							c-0.586-0.585-0.587-1.535-0.002-2.121s1.534-0.588,2.121-0.002l4.127,4.119c0.586,0.585,0.587,1.535,0.002,2.121
							C28.055,49.11,27.671,49.257,27.287,49.257z"/>
					</g>
				</g>
			</g>
		</g>
	</g>
</g>
<g>
</g>
<g>
</g>
<g>
</g>
<g>
</g>
<g>
</g>
<g>
</g>
<g>
</g>
<g>
</g>
<g>
</g>
<g>
</g>
<g>
</g>
<g>
</g>
<g>
</g>
<g>
</g>
<g>
</g>
</svg>
