<?xml version="1.0" encoding="iso-8859-1"?>
<!-- Generator: Adobe Illustrator 19.0.0, SVG Export Plug-In . SVG Version: 6.00 Build 0)  -->
<svg version="1.1" id="Layer_1" xmlns="http://www.w3.org/2000/svg" xmlns:xlink="http://www.w3.org/1999/xlink" x="0px" y="0px"
	 viewBox="0 0 127.887 127.887" style="enable-background:new 0 0 127.887 127.887;" xml:space="preserve">
<g>
	<g>
		<circle style="fill:#FFBF31;" cx="101.382" cy="19.477" r="6.921"/>
	</g>
	<g>
		<path style="fill:#33363A;" d="M93.656,57.455H76.194c-0.829,0-1.5-0.672-1.5-1.5s0.671-1.5,1.5-1.5h17.462
			c0.829,0,1.5,0.672,1.5,1.5S94.485,57.455,93.656,57.455z"/>
	</g>
	<g>
		<path style="fill:#33363A;" d="M84.892,66.795c-0.384,0-0.768-0.146-1.061-0.439c-0.586-0.586-0.586-1.535,0-2.121l15.97-15.971
			c0.586-0.586,1.535-0.586,2.121,0l13.101,13.1c0.586,0.586,0.586,1.535,0,2.121c-0.585,0.586-1.535,0.586-2.121,0l-12.041-12.039
			l-14.909,14.91C85.66,66.649,85.276,66.795,84.892,66.795z"/>
	</g>
	<g>
		<path style="fill:#33363A;" d="M104.409,52.981c-0.384,0-0.768-0.146-1.061-0.439c-0.586-0.586-0.586-1.535,0-2.121l18.253-18.254
			c0.586-0.586,1.535-0.585,2.121-0.001l1.983,1.981c0.586,0.586,0.586,1.535,0.001,2.122c-0.586,0.585-1.535,0.586-2.121,0.001
			l-0.923-0.922l-17.193,17.193C105.176,52.834,104.792,52.981,104.409,52.981z"/>
	</g>
	<g>
		<g>
			<circle style="fill:#24D1AF;" cx="111.385" cy="56.932" r="8.991"/>
		</g>
		<g>
			<path style="fill:#58ED9B;" d="M111.385,47.938c-3.328,0-6.225,1.814-7.78,4.498c1.556,2.686,4.452,4.496,7.78,4.496
				c3.325,0,6.222-1.811,7.779-4.496C117.607,49.751,114.71,47.938,111.385,47.938z"/>
		</g>
		<g>
			<path style="fill:#33363A;" d="M111.385,75.369c-0.829,0-1.5-0.672-1.5-1.5V60.402c0-0.828,0.671-1.5,1.5-1.5s1.5,0.672,1.5,1.5
				v13.467C112.885,74.697,112.214,75.369,111.385,75.369z"/>
		</g>
		<g>
			<path style="fill:#33363A;" d="M111.386,61.902c-0.398,0-0.78-0.158-1.061-0.439l-3.472-3.471c-0.586-0.585-0.586-1.535,0-2.121
				c0.586-0.586,1.536-0.586,2.122,0l2.411,2.41l2.408-2.41c0.586-0.586,1.536-0.586,2.122,0c0.586,0.585,0.586,1.535,0,2.121
				l-3.469,3.471C112.165,61.744,111.783,61.902,111.386,61.902z"/>
		</g>
		<g>
			<path style="fill:#33363A;" d="M111.385,67.424c-5.785,0-10.492-4.707-10.492-10.492c0-5.786,4.707-10.494,10.492-10.494
				c5.785,0,10.491,4.708,10.491,10.494C121.876,62.717,117.17,67.424,111.385,67.424z M111.385,49.438
				c-4.131,0-7.492,3.362-7.492,7.494c0,4.131,3.361,7.492,7.492,7.492c4.13,0,7.491-3.361,7.491-7.492
				C118.876,52.8,115.516,49.438,111.385,49.438z"/>
		</g>
	</g>
	<g>
		<g>
			<circle style="fill:#24D1AF;" cx="91.851" cy="48.643" r="10.323"/>
		</g>
		<g>
			<path style="fill:#58ED9B;" d="M91.85,38.319c-3.819,0-7.146,2.079-8.932,5.161c1.787,3.084,5.113,5.162,8.932,5.162
				c3.817,0,7.145-2.078,8.93-5.162C98.995,40.399,95.667,38.319,91.85,38.319z"/>
		</g>
		<g>
			<path style="fill:#33363A;" d="M91.85,70.779c-0.829,0-1.5-0.672-1.5-1.5V52.627c0-0.828,0.671-1.5,1.5-1.5s1.5,0.672,1.5,1.5
				v16.652C93.35,70.108,92.679,70.779,91.85,70.779z"/>
		</g>
		<g>
			<path style="fill:#33363A;" d="M91.85,54.127c-0.397,0-0.779-0.158-1.061-0.439l-3.985-3.984c-0.586-0.586-0.586-1.535,0-2.121
				c0.586-0.586,1.536-0.586,2.122,0l2.924,2.924l2.922-2.924c0.586-0.586,1.536-0.586,2.122,0c0.586,0.585,0.586,1.535,0,2.121
				l-3.983,3.984C92.63,53.969,92.248,54.127,91.85,54.127z"/>
		</g>
		<g>
			<path style="fill:#33363A;" d="M91.85,60.463c-6.519,0-11.822-5.303-11.822-11.82c0-6.52,5.303-11.823,11.822-11.823
				c6.52,0,11.824,5.304,11.824,11.823C103.674,55.16,98.37,60.463,91.85,60.463z M91.85,39.819c-4.865,0-8.822,3.958-8.822,8.823
				c0,4.863,3.958,8.82,8.822,8.82c4.865,0,8.824-3.957,8.824-8.82C100.674,43.777,96.715,39.819,91.85,39.819z"/>
		</g>
	</g>
	<g>
		<path style="fill:#33363A;" d="M13.113,46.943c0.39,0,0.78-0.16,1.06-0.45c0.28-0.28,0.44-0.66,0.44-1.05
			c0-0.4-0.16-0.78-0.44-1.07c-0.56-0.55-1.57-0.55-2.12,0.01c-0.28,0.28-0.44,0.66-0.44,1.061c0,0.39,0.16,0.77,0.44,1.06
			C12.333,46.783,12.713,46.943,13.113,46.943z"/>
		<path style="fill:#33363A;" d="M6.343,46.943c0.4,0,0.78-0.17,1.06-0.44c0.28-0.29,0.44-0.67,0.44-1.06
			c0-0.4-0.16-0.79-0.44-1.061c-0.55-0.56-1.56-0.56-2.12-0.01c-0.28,0.28-0.44,0.67-0.44,1.07c0,0.39,0.16,0.78,0.44,1.06
			C5.563,46.783,5.953,46.943,6.343,46.943z"/>
		<path style="fill:#33363A;" d="M12.053,53.003c0.28,0.28,0.66,0.44,1.06,0.44c0.39,0,0.78-0.16,1.06-0.44
			c0.28-0.279,0.44-0.66,0.44-1.06c0-0.391-0.16-0.78-0.44-1.061c-0.56-0.56-1.56-0.56-2.13,0c-0.27,0.28-0.43,0.67-0.43,1.061
			C11.613,52.343,11.773,52.724,12.053,53.003z"/>
		<path style="fill:#33363A;" d="M5.283,53.003c0.28,0.28,0.67,0.44,1.06,0.44s0.78-0.16,1.06-0.44c0.28-0.27,0.44-0.66,0.44-1.06
			c0-0.391-0.16-0.78-0.44-1.061c-0.56-0.56-1.56-0.56-2.12,0c-0.28,0.28-0.44,0.67-0.44,1.061
			C4.843,52.343,5.003,52.724,5.283,53.003z"/>
		<path style="fill:#33363A;" d="M12.053,59.524c0.28,0.279,0.66,0.439,1.06,0.439c0.39,0,0.78-0.16,1.06-0.439
			c0.28-0.28,0.44-0.67,0.44-1.061c0-0.399-0.16-0.79-0.44-1.069c-0.56-0.551-1.56-0.561-2.12,0c-0.28,0.279-0.44,0.67-0.44,1.069
			C11.613,58.854,11.773,59.243,12.053,59.524z"/>
		<path style="fill:#33363A;" d="M5.283,59.524c0.28,0.279,0.67,0.439,1.06,0.439s0.78-0.16,1.06-0.439
			c0.28-0.28,0.44-0.67,0.44-1.061c0-0.399-0.16-0.79-0.44-1.069c-0.56-0.551-1.56-0.551-2.12,0c-0.28,0.29-0.44,0.67-0.44,1.069
			C4.843,58.854,5.003,59.234,5.283,59.524z"/>
		<path style="fill:#33363A;" d="M12.053,66.033c0.27,0.27,0.66,0.43,1.06,0.43c0.39,0,0.78-0.16,1.06-0.43
			c0.28-0.28,0.44-0.67,0.44-1.07c0-0.39-0.16-0.779-0.44-1.06c-0.56-0.561-1.57-0.55-2.12,0c-0.28,0.28-0.44,0.67-0.44,1.06
			C11.613,65.363,11.773,65.743,12.053,66.033z"/>
		<path style="fill:#33363A;" d="M5.283,66.033c0.28,0.27,0.67,0.43,1.06,0.43c0.4,0,0.78-0.16,1.06-0.439
			c0.28-0.271,0.44-0.66,0.44-1.061c0-0.39-0.16-0.779-0.44-1.06c-0.56-0.55-1.56-0.561-2.12,0c-0.28,0.28-0.44,0.67-0.44,1.06
			C4.843,65.363,5.003,65.743,5.283,66.033z"/>
		<path style="fill:#33363A;" d="M127.768,76.325c-0.441-1.044-1.263-2.986-20.278-4.561c-11.75-0.973-27.215-1.508-43.547-1.508
			c-10.047,0-19.762,0.203-28.49,0.586V57.455h40.742c0.829,0,1.5-0.672,1.5-1.5s-0.671-1.5-1.5-1.5H35.453v-7.018
			c0-0.828-0.671-1.5-1.5-1.5H21.094V35.055c0-0.828-0.671-1.5-1.5-1.5h-8.367V23.199c0-0.828-0.671-1.5-1.5-1.5s-1.5,0.672-1.5,1.5
			v10.355H3.242c-0.829,0-1.5,0.672-1.5,1.5s0.671,1.5,1.5,1.5h14.852v10.679c-0.009,0.067-0.021,0.134-0.021,0.203
			s0.011,0.136,0.021,0.203v24.326c-16.77,1.535-17.552,3.359-17.975,4.359c-0.322,0.763,0.035,1.643,0.798,1.966
			c0.19,0.08,0.389,0.118,0.583,0.118c0.523,0,1.023-0.275,1.296-0.743c2.348-1.862,24.699-4.409,61.147-4.409
			c36.449,0,58.801,2.547,61.149,4.409c0.374,0.642,1.175,0.92,1.879,0.625C127.734,77.968,128.091,77.088,127.768,76.325z
			 M25.263,71.402c-1.435,0.097-2.823,0.2-4.169,0.308V48.938h4.169V71.402z M32.453,55.955v15.027
			c-1.431,0.071-2.823,0.149-4.19,0.23V48.938h4.19V55.955z"/>
	</g>
	<g>
		<path style="fill:#33363A;" d="M101.381,27.897c-4.643,0-8.42-3.777-8.42-8.42s3.777-8.419,8.42-8.419
			c4.644,0,8.421,3.776,8.421,8.419S106.025,27.897,101.381,27.897z M101.381,14.058c-2.989,0-5.42,2.431-5.42,5.419
			s2.431,5.42,5.42,5.42c2.989,0,5.421-2.432,5.421-5.42S104.371,14.058,101.381,14.058z"/>
	</g>
	<g>
		<g>
			<path style="fill:#33363A;" d="M101.381,9.299c-0.829,0-1.5-0.672-1.5-1.5V4.205c0-0.828,0.671-1.5,1.5-1.5s1.5,0.672,1.5,1.5
				v3.594C102.881,8.627,102.21,9.299,101.381,9.299z"/>
		</g>
		<g>
			<path style="fill:#33363A;" d="M101.381,36.249c-0.829,0-1.5-0.672-1.5-1.5v-3.591c0-0.828,0.671-1.5,1.5-1.5s1.5,0.672,1.5,1.5
				v3.591C102.881,35.577,102.21,36.249,101.381,36.249z"/>
		</g>
	</g>
	<g>
		<g>
			<path style="fill:#33363A;" d="M109.64,12.718c-0.384,0-0.768-0.146-1.061-0.439c-0.586-0.586-0.586-1.535,0-2.121l2.541-2.54
				c0.586-0.586,1.536-0.586,2.121,0c0.586,0.586,0.586,1.535,0,2.121l-2.541,2.54C110.408,12.571,110.024,12.718,109.64,12.718z"/>
		</g>
		<g>
			<path style="fill:#33363A;" d="M90.582,31.776c-0.384,0-0.768-0.146-1.061-0.439c-0.586-0.586-0.586-1.535,0-2.121l2.541-2.54
				c0.586-0.586,1.536-0.586,2.121,0c0.586,0.586,0.586,1.535,0,2.121l-2.541,2.54C91.35,31.63,90.966,31.776,90.582,31.776z"/>
		</g>
	</g>
	<g>
		<g>
			<path style="fill:#33363A;" d="M116.652,20.977h-3.591c-0.829,0-1.5-0.672-1.5-1.5s0.671-1.5,1.5-1.5h3.591
				c0.829,0,1.5,0.672,1.5,1.5S117.481,20.977,116.652,20.977z"/>
		</g>
		<g>
			<path style="fill:#33363A;" d="M89.702,20.977h-3.593c-0.829,0-1.5-0.672-1.5-1.5s0.671-1.5,1.5-1.5h3.593
				c0.829,0,1.5,0.672,1.5,1.5S90.53,20.977,89.702,20.977z"/>
		</g>
	</g>
	<g>
		<g>
			<path style="fill:#33363A;" d="M112.181,31.776c-0.384,0-0.768-0.146-1.061-0.439l-2.54-2.54c-0.586-0.586-0.586-1.535,0-2.121
				s1.536-0.586,2.121,0l2.54,2.54c0.586,0.586,0.586,1.535,0,2.121C112.948,31.63,112.564,31.776,112.181,31.776z"/>
		</g>
		<g>
			<path style="fill:#33363A;" d="M93.123,12.718c-0.384,0-0.768-0.146-1.061-0.439l-2.541-2.542c-0.585-0.586-0.585-1.536,0-2.121
				c0.586-0.587,1.536-0.585,2.122,0l2.541,2.542c0.585,0.586,0.585,1.536,0,2.121C93.891,12.571,93.507,12.718,93.123,12.718z"/>
		</g>
	</g>
	<g>
		<path style="fill:#33363A;" d="M43.347,64.074h-2.333c-0.829,0-1.5-0.672-1.5-1.5s0.671-1.5,1.5-1.5h2.333
			c0.829,0,1.5,0.672,1.5,1.5S44.175,64.074,43.347,64.074z"/>
	</g>
	<g>
		<path style="fill:#33363A;" d="M51.68,64.074h-2.333c-0.829,0-1.5-0.672-1.5-1.5s0.671-1.5,1.5-1.5h2.333
			c0.829,0,1.5,0.672,1.5,1.5S52.509,64.074,51.68,64.074z"/>
	</g>
	<g>
		<path style="fill:#33363A;" d="M60.014,64.074h-2.333c-0.829,0-1.5-0.672-1.5-1.5s0.671-1.5,1.5-1.5h2.333
			c0.829,0,1.5,0.672,1.5,1.5S60.842,64.074,60.014,64.074z"/>
	</g>
	<path style="fill:#33363A;" d="M48.562,23.02c-0.941-4.787-5.2-8.384-10.181-8.384c-5.372,0-9.83,4.138-10.332,9.395
		c-0.429,0.265-0.818,0.579-1.187,0.914c-0.115-0.028-0.234-0.048-0.358-0.048c-2.989,0-5.421-2.432-5.421-5.42
		s2.432-5.419,5.421-5.419c0.829,0,1.5-0.672,1.5-1.5s-0.671-1.5-1.5-1.5c-4.643,0-8.421,3.776-8.421,8.419
		c0,4.077,2.914,7.484,6.767,8.255c-0.447,1.017-0.701,2.125-0.701,3.27v0.532c0,4.518,3.676,8.193,8.194,8.193h14.392
		c4.519,0,8.195-3.676,8.195-8.193v-0.532C54.931,27.15,52.218,23.856,48.562,23.02z M51.931,31.533
		c0,2.863-2.331,5.193-5.195,5.193H32.344c-2.864,0-5.194-2.33-5.194-5.193v-0.532c0-1.998,1.174-3.843,2.991-4.697
		c0.522-0.246,0.856-0.769,0.861-1.345c0.033-4.038,3.343-7.323,7.379-7.323c3.83,0,7.06,2.992,7.353,6.811
		c0.057,0.74,0.646,1.328,1.387,1.382c2.698,0.196,4.811,2.468,4.811,5.173V31.533z"/>
	<g>
		<g>
			<g>
				<path style="fill:#FFBF31;" d="M84.322,36.423c-1.914,5.596-5.694,10.026-10.406,12.836c-2.003-5.107-2.281-10.922-0.367-16.521
					c1.914-5.595,5.696-10.025,10.406-12.834C85.959,25.009,86.236,30.825,84.322,36.423z"/>
			</g>
			<g>
				<path style="fill:#FF8B00;" d="M73.548,39.036c-0.522,1.525-0.876,3.069-1.081,4.609c0.257,1.932,0.743,3.817,1.448,5.613
					c4.712-2.809,8.493-7.24,10.406-12.836c0.522-1.527,0.876-3.07,1.081-4.611c-0.257-1.93-0.743-3.815-1.448-5.611
					C79.244,29.009,75.462,33.439,73.548,39.036z"/>
			</g>
			<path style="fill:#33363A;" d="M87.053,30.355c0.003-0.039,0.003-0.078,0.005-0.117c0.04-0.638,0.05-1.279,0.041-1.919
				c-0.002-0.123-0.001-0.245-0.005-0.368c-0.019-0.643-0.06-1.286-0.127-1.927c-0.016-0.151-0.038-0.301-0.056-0.452
				c-0.066-0.537-0.148-1.072-0.248-1.604c-0.027-0.142-0.048-0.285-0.077-0.427c-0.126-0.617-0.28-1.228-0.451-1.833
				c-0.045-0.16-0.094-0.319-0.143-0.479c-0.192-0.632-0.4-1.259-0.641-1.873c-0.161-0.41-0.494-0.729-0.911-0.871
				c-0.208-0.072-0.427-0.096-0.641-0.074c-0.214,0.022-0.424,0.091-0.613,0.205c-0.019,0.011-0.036,0.025-0.055,0.036
				c-0.658,0.394-1.294,0.818-1.909,1.267c-0.133,0.097-0.256,0.207-0.387,0.307c-0.505,0.384-1,0.778-1.473,1.197
				c-0.102,0.091-0.197,0.189-0.298,0.282c-0.499,0.456-0.982,0.928-1.442,1.421c-0.061,0.065-0.118,0.135-0.178,0.201
				c-0.488,0.534-0.953,1.088-1.394,1.661c-0.018,0.024-0.039,0.045-0.058,0.069c-0.012,0.015-0.019,0.033-0.03,0.049
				c-1.634,2.153-2.947,4.553-3.834,7.146c-1.95,5.706-1.812,11.94,0.39,17.555c0.161,0.41,0.494,0.729,0.911,0.871
				c0.158,0.055,0.322,0.081,0.485,0.081c0.268,0,0.533-0.071,0.768-0.212c5.179-3.088,9.106-7.932,11.058-13.639
				c0.705-2.062,1.128-4.194,1.289-6.34c0.004-0.031,0.016-0.059,0.018-0.09C87.051,30.437,87.05,30.396,87.053,30.355z
				 M74.705,46.952c-1.339-4.475-1.256-9.284,0.263-13.729c0.65-1.9,1.561-3.682,2.673-5.322l6.312,3.323
				c-0.183,1.595-0.524,3.177-1.05,4.714C81.382,40.384,78.503,44.235,74.705,46.952z"/>
			<g>
				<g>
					<path style="fill:#FF8B00;" d="M80.541,116.173c0,0.938-0.759,1.696-1.695,1.696h-2.755c-0.937,0-1.697-0.759-1.697-1.696
						v-3.39c0-0.937,0.76-1.695,1.697-1.695h2.755c0.937,0,1.695,0.759,1.695,1.695V116.173z"/>
				</g>
			</g>
			<g>
				<g>
					<path style="fill:#33363A;" d="M78.846,119.369h-2.755c-1.763,0-3.197-1.434-3.197-3.196v-3.39
						c0-1.762,1.434-3.195,3.197-3.195h2.755c1.762,0,3.195,1.434,3.195,3.195v3.39C82.041,117.936,80.608,119.369,78.846,119.369z
						 M76.091,112.588c-0.108,0-0.197,0.088-0.197,0.195v3.39c0,0.108,0.088,0.196,0.197,0.196h2.755
						c0.108,0,0.195-0.088,0.195-0.196v-3.39c0-0.107-0.087-0.195-0.195-0.195H76.091z"/>
				</g>
			</g>
			<g>
				<path style="fill:#FFBF31;" d="M78.531,113.005c4.496,0,8.141-3.645,8.141-8.143v-6.751c0-2.13-0.825-4.063-2.164-5.513V62.79
					c0-10.504-8.545-19.048-19.047-19.048h-2.93"/>
			</g>
			<g>
				<path style="fill:#FF8B00;" d="M84.507,97.624v-5.025V67.815c0-10.503-8.545-19.048-19.047-19.048h-2.93l0.607,64.238
					c4.496,0,23.535,2.819,23.535-8.143v-1.725C86.672,101.009,85.847,99.075,84.507,97.624z"/>
			</g>
			<g>
				<path style="fill:#33363A;" d="M78.531,114.505H63.137c-0.829,0-1.5-0.672-1.5-1.5s0.671-1.5,1.5-1.5h15.394
					c3.662,0,6.641-2.979,6.641-6.643v-6.751c0-1.666-0.627-3.263-1.766-4.494c-0.256-0.277-0.398-0.642-0.398-1.019V62.79
					c0-9.676-7.872-17.548-17.547-17.548h-2.93c-0.829,0-1.5-0.672-1.5-1.5s0.671-1.5,1.5-1.5h2.93
					c11.33,0,20.547,9.218,20.547,20.548v29.249c1.4,1.718,2.165,3.852,2.165,6.072v6.751
					C88.172,110.18,83.847,114.505,78.531,114.505z"/>
			</g>
			<g>
				<polygon style="fill:#FFBF31;" points="119.164,74.291 97.7,65.158 77.038,80.878 86.648,84.97 63.137,105.221 108.891,89.673 
					98.127,85.093 				"/>
			</g>
			<g>
				<polygon style="fill:#FF8B00;" points="92.594,87.825 113.631,77.025 93.411,68.42 77.038,80.878 86.648,84.97 63.137,105.221 
					102.243,91.933 				"/>
			</g>
			<g>
				<path style="fill:#33363A;" d="M63.137,106.721c-0.625,0-1.208-0.393-1.42-1.018c-0.267-0.784,0.153-1.636,0.938-1.902
					l42.036-14.285l-7.151-3.043c-0.535-0.228-0.891-0.744-0.912-1.326c-0.021-0.581,0.296-1.122,0.814-1.388l18.19-9.341
					L97.915,66.88L80,80.509l7.235,3.081c0.762,0.324,1.117,1.205,0.792,1.968c-0.324,0.763-1.208,1.117-1.967,0.792l-9.61-4.092
					c-0.492-0.209-0.835-0.664-0.901-1.194c-0.066-0.53,0.155-1.056,0.58-1.379l20.662-15.72c0.429-0.327,0.999-0.4,1.496-0.187
					l21.464,9.133c0.535,0.228,0.891,0.744,0.912,1.326c0.021,0.581-0.296,1.122-0.814,1.388l-18.19,9.341l7.819,3.327
					c0.572,0.243,0.935,0.814,0.912,1.436c-0.023,0.622-0.428,1.164-1.017,1.364L63.62,106.641
					C63.46,106.695,63.297,106.721,63.137,106.721z"/>
			</g>
			<g>
				<path style="fill:none;stroke:#33363A;stroke-width:3;stroke-linecap:round;stroke-linejoin:round;stroke-miterlimit:10;" d="
					M71.531,66.587"/>
			</g>
			<g>
				<path style="fill:none;stroke:#33363A;stroke-width:3;stroke-linecap:round;stroke-linejoin:round;stroke-miterlimit:10;" d="
					M71.531,75.976"/>
			</g>
		</g>
	</g>
	<g>
		<path style="fill:#33363A;" d="M106.068,103.554c-0.829-0.088-1.563,0.507-1.652,1.33c-0.623,5.778-16.359,11.951-38.972,12.204
			v-7.722c0-0.828-0.671-1.5-1.5-1.5s-1.5,0.672-1.5,1.5v7.721c-21.977-0.268-37.421-6.129-38.762-11.765l4.969-4.969l2.818,2.819
			l-0.764,0.764c-0.586,0.586-0.586,1.535,0,2.121s1.535,0.586,2.121,0l11.941-11.941l11.939,11.941
			c0.292,0.293,0.677,0.439,1.061,0.439s0.768-0.146,1.061-0.439c0.586-0.586,0.586-1.535,0-2.121l-6.74-6.74L62.512,86.77
			c0.183,0.621,0.751,1.077,1.432,1.077c0.829,0,1.5-0.672,1.5-1.5v-2.864c0.05-0.221,0.05-0.442,0-0.662v-6.622
			c0-0.828-0.671-1.5-1.5-1.5s-1.5,0.672-1.5,1.5v6.396L49.967,95.073l-4.14-4.14c-0.281-0.281-0.663-0.439-1.061-0.439
			s-0.779,0.158-1.061,0.439L33.59,101.049l-3.878-3.879c-0.282-0.281-0.663-0.439-1.061-0.439s-0.779,0.158-1.061,0.439
			l-6.544,6.544c-0.314,0.314-0.446,0.731-0.424,1.142c-0.015,0.114-0.02,0.231-0.007,0.351
			c0.896,8.317,18.818,14.627,41.942,14.881c0.225,0.543,0.76,0.926,1.385,0.926c0.625,0,1.159-0.382,1.385-0.925
			c23.185-0.232,41.171-6.55,42.07-14.882C107.487,104.382,106.892,103.643,106.068,103.554z"/>
		<path style="fill:#33363A;" d="M63.944,101.345c-0.829,0-1.5,0.672-1.5,1.5v1.929c0,0.828,0.671,1.5,1.5,1.5s1.5-0.672,1.5-1.5
			v-1.929C65.444,102.017,64.772,101.345,63.944,101.345z"/>
		<path style="fill:#33363A;" d="M63.944,122.824c-0.829,0-1.5,0.672-1.5,1.5v0.217c0,0.828,0.671,1.5,1.5,1.5s1.5-0.672,1.5-1.5
			v-0.217C65.444,123.496,64.772,122.824,63.944,122.824z"/>
		<path style="fill:#33363A;" d="M65.444,98.279c0-0.828-0.671-1.5-1.5-1.5s-1.5,0.672-1.5,1.5v0.215c0,0.828,0.671,1.5,1.5,1.5
			s1.5-0.672,1.5-1.5V98.279z"/>
		<path style="fill:#33363A;" d="M63.944,73.107c0.829,0,1.5-0.672,1.5-1.5v-1.929c0-0.828-0.671-1.5-1.5-1.5s-1.5,0.672-1.5,1.5
			v1.929C62.444,72.435,63.115,73.107,63.944,73.107z"/>
		<path style="fill:#33363A;" d="M65.444,91.159c0-0.828-0.671-1.5-1.5-1.5s-1.5,0.672-1.5,1.5v0.216c0,0.828,0.671,1.5,1.5,1.5
			s1.5-0.672,1.5-1.5V91.159z"/>
		<path style="fill:#33363A;" d="M63.944,66.828c0.829,0,1.5-0.672,1.5-1.5v-0.215c0-0.828-0.671-1.5-1.5-1.5s-1.5,0.672-1.5,1.5
			v0.215C62.444,66.156,63.115,66.828,63.944,66.828z"/>
		<path style="fill:#33363A;" d="M63.944,54.68c0.829,0,1.5-0.672,1.5-1.5V32.162v-0.053v-0.164c0-0.828-0.671-1.5-1.5-1.5
			s-1.5,0.672-1.5,1.5v0.164v0.053V53.18C62.444,54.008,63.115,54.68,63.944,54.68z"/>
		<path style="fill:#33363A;" d="M63.944,59.708c0.829,0,1.5-0.672,1.5-1.5v-0.216c0-0.828-0.671-1.5-1.5-1.5s-1.5,0.672-1.5,1.5
			v0.216C62.444,59.036,63.115,59.708,63.944,59.708z"/>
		<path style="fill:#33363A;" d="M63.944,21.516c0.829,0,1.5-0.672,1.5-1.5V9.866c0-0.828-0.671-1.5-1.5-1.5s-1.5,0.672-1.5,1.5
			v10.149C62.444,20.844,63.115,21.516,63.944,21.516z"/>
		<path style="fill:#33363A;" d="M63.944,6.774c0.829,0,1.5-0.672,1.5-1.5V3.346c0-0.828-0.671-1.5-1.5-1.5s-1.5,0.672-1.5,1.5
			v1.928C62.444,6.102,63.115,6.774,63.944,6.774z"/>
		<path style="fill:#33363A;" d="M63.944,26.541c0.829,0,1.5-0.672,1.5-1.5v-0.215c0-0.828-0.671-1.5-1.5-1.5s-1.5,0.672-1.5,1.5
			v0.215C62.444,25.869,63.115,26.541,63.944,26.541z"/>
		<path style="fill:#33363A;" d="M71.418,31.169c0.237-0.237,0.453-0.236,0.69,0c0.293,0.294,0.677,0.44,1.062,0.44
			c0.384,0,0.767-0.146,1.06-0.438c0.586-0.586,0.587-1.535,0.001-2.121c-0.66-0.66-1.536-1.024-2.468-1.024h0
			c-0.932,0-1.809,0.364-2.467,1.024c-0.585,0.586-0.584,1.536,0.002,2.121C69.882,31.755,70.832,31.755,71.418,31.169z"/>
	</g>
</g>
<g>
</g>
<g>
</g>
<g>
</g>
<g>
</g>
<g>
</g>
<g>
</g>
<g>
</g>
<g>
</g>
<g>
</g>
<g>
</g>
<g>
</g>
<g>
</g>
<g>
</g>
<g>
</g>
<g>
</g>
</svg>
