<?xml version="1.0" encoding="iso-8859-1"?>
<!-- Generator: Adobe Illustrator 19.0.0, SVG Export Plug-In . SVG Version: 6.00 Build 0)  -->
<svg version="1.1" id="Layer_1" xmlns="http://www.w3.org/2000/svg" xmlns:xlink="http://www.w3.org/1999/xlink" x="0px" y="0px"
	 viewBox="0 0 127.667 127.667" style="enable-background:new 0 0 127.667 127.667;" xml:space="preserve">
<g>
	<g>
		<path style="fill:#FFFFFF;" d="M86,122.167c0,2.209-1.791,4-4,4H45.666c-2.209,0-4-1.791-4-4V5.5c0-2.209,1.791-4,4-4H82
			c2.209,0,4,1.791,4,4V122.167z"/>
	</g>
	<g>
		<path style="fill:#B3C6C6;" d="M78.612,115.08c0,1.473-1.194,2.668-2.667,2.668H51.721c-1.473,0-2.666-1.195-2.666-2.668V37.3
			c0-1.472,1.193-2.667,2.666-2.667h24.224c1.473,0,2.667,1.195,2.667,2.667V115.08z"/>
	</g>
	<g>
		<path style="fill:#CFE1E2;" d="M75.945,42.967H51.721c-1.473,0-2.666,1.195-2.666,2.667v69.446c0,1.473,1.193,2.668,2.666,2.668
			h24.224c1.473,0,2.667-1.195,2.667-2.668V45.634C78.612,44.162,77.417,42.967,75.945,42.967z"/>
	</g>
	<g>
		<g>
			<path style="fill:#D271FF;" d="M49.658,57.263c7.829,0,14.176,6.347,14.176,14.176c0,0.375,0.013,0.596,0.034,0.679
				c0.356,7.512,6.542,13.497,14.142,13.497c0.204,0,0.401-0.021,0.602-0.03v29.496c0,1.473-1.193,2.668-2.666,2.668H51.722
				c-1.473,0-2.667-1.195-2.667-2.668V57.293C49.256,57.284,49.455,57.263,49.658,57.263z"/>
		</g>
	</g>
	<g>
		<path style="fill:#B122E0;" d="M63.868,78.683c-0.021-0.083-0.034-0.304-0.034-0.679c0-7.829-6.347-14.176-14.176-14.176
			c-0.203,0-0.401,0.021-0.602,0.03v51.222c0,1.473,1.194,2.668,2.667,2.668h24.224c1.473,0,2.666-1.195,2.666-2.668V92.149
			c-0.201,0.009-0.398,0.03-0.602,0.03C70.41,92.18,64.224,86.194,63.868,78.683z"/>
	</g>
	<g>
		<path style="fill:#CFE1E2;" d="M82,1.5H45.666c-2.209,0-4,1.791-4,4v29.133H86V5.5C86,3.291,84.209,1.5,82,1.5z"/>
	</g>
	<g>
		<path style="fill:#A3CCCC;" d="M75.945,1.5H51.722c-1.473,0-2.667,1.791-2.667,4v29.133h29.557V5.5
			C78.612,3.291,77.417,1.5,75.945,1.5z"/>
	</g>
	<path style="fill:#33363A;" d="M82,0H45.667c-3.033,0-5.5,2.467-5.5,5.5v29.133v87.534c0,3.033,2.467,5.5,5.5,5.5H82
		c3.033,0,5.5-2.467,5.5-5.5V34.633V5.5C87.5,2.467,85.033,0,82,0z M43.167,5.5c0-1.378,1.122-2.5,2.5-2.5H82
		c1.378,0,2.5,1.122,2.5,2.5v27.633h-8.556H51.721h-8.555V5.5z M77.112,37.3V84.07c-6.354-0.446-11.439-5.56-11.746-12.025
		c-0.003-0.068-0.012-0.137-0.024-0.205c-0.007-0.086-0.009-0.219-0.009-0.403c0-8.341-6.553-15.161-14.778-15.63V37.3
		c0-0.644,0.523-1.167,1.166-1.167h24.224C76.588,36.133,77.112,36.656,77.112,37.3z M50.555,58.794
		c6.572,0.462,11.778,5.957,11.778,12.645c0,0.424,0.015,0.672,0.041,0.849c0.43,8.022,6.809,14.355,14.737,14.801v27.991
		c0,0.644-0.523,1.168-1.167,1.168H51.722c-0.644,0-1.167-0.524-1.167-1.168V58.794z M82,124.667H45.667c-1.378,0-2.5-1.122-2.5-2.5
		V36.133h4.576c-0.11,0.373-0.187,0.759-0.187,1.167v19.993v57.787c0,0.287,0.029,0.568,0.085,0.839
		c0.389,1.898,2.071,3.329,4.081,3.329h0.001h24.223h0.001c2.01,0,3.692-1.431,4.081-3.329c0.056-0.271,0.085-0.552,0.085-0.839
		V85.584V37.3c0-0.408-0.077-0.794-0.187-1.167H84.5v86.034C84.5,123.545,83.379,124.667,82,124.667z"/>
	<g>
		<path style="fill:#FFD00B;" d="M72.949,15.902c-0.146-0.45-0.534-0.778-1.002-0.845l-4.837-0.704L64.947,9.97
			c-0.208-0.423-0.641-0.691-1.113-0.691c-0.473,0-0.904,0.269-1.113,0.691l-2.163,4.384l-4.837,0.704
			c-0.468,0.066-0.855,0.395-1.002,0.845c-0.146,0.449-0.024,0.943,0.314,1.273l3.5,3.41l-0.827,4.818
			c-0.08,0.466,0.111,0.937,0.494,1.215c0.385,0.276,0.891,0.314,1.309,0.093l4.325-2.272l4.326,2.272
			c0.182,0.097,0.38,0.144,0.577,0.144c0.258,0,0.514-0.079,0.731-0.236c0.383-0.278,0.574-0.749,0.494-1.215l-0.827-4.818l3.5-3.41
			C72.973,16.846,73.094,16.352,72.949,15.902z"/>
	</g>
	<g>
		<path style="fill:#FFBE08;" d="M69.134,20.585l2.827-2.754c-0.005,0-0.01-0.002-0.015-0.003l-4.837-0.704l-2.163-4.383
			c-0.208-0.424-0.641-0.691-1.113-0.691c-0.473,0-0.904,0.268-1.113,0.691l-2.163,4.383l-4.837,0.704
			c-0.005,0.001-0.01,0.003-0.014,0.003l2.826,2.754l-0.407,2.373l0.407,0.397l-0.529,3.081c0.06,0.066,0.123,0.128,0.196,0.182
			c0.385,0.276,0.891,0.314,1.309,0.093l4.325-2.272l4.326,2.272c0.182,0.097,0.38,0.144,0.577,0.144
			c0.258,0,0.514-0.079,0.731-0.236c0.073-0.054,0.137-0.115,0.196-0.182l-0.529-3.081l0.407-0.397L69.134,20.585z"/>
	</g>
	<g>
		<path style="fill:#33363A;" d="M58.93,28.357c-0.563,0-1.124-0.175-1.605-0.521c-0.858-0.624-1.275-1.651-1.098-2.687l0.694-4.041
			l-2.935-2.86c-0.741-0.719-1.014-1.823-0.695-2.809c0.327-1.005,1.177-1.72,2.218-1.868l4.052-0.589l1.814-3.677
			c0.466-0.943,1.408-1.528,2.458-1.528c1.037,0,2.002,0.6,2.459,1.529l1.813,3.675l4.057,0.59c1.022,0.145,1.893,0.878,2.212,1.867
			h0c0.319,0.986,0.046,2.09-0.697,2.811l-2.933,2.858l0.694,4.041c0.178,1.036-0.24,2.063-1.091,2.682
			c-0.833,0.604-1.989,0.686-2.894,0.204l-3.622-1.902l-3.627,1.906C59.804,28.252,59.366,28.357,58.93,28.357z M56.455,16.466
			l3.125,3.044c0.354,0.345,0.515,0.841,0.432,1.328l-0.739,4.301l3.863-2.029c0.437-0.229,0.958-0.23,1.396,0l3.863,2.029
			l-0.738-4.301c-0.083-0.487,0.078-0.983,0.432-1.328l3.125-3.044l-4.318-0.628c-0.488-0.071-0.911-0.378-1.129-0.821l-1.931-3.914
			l-1.931,3.914c-0.218,0.443-0.641,0.75-1.129,0.821L56.455,16.466z"/>
	</g>
	<g>
		<circle style="fill:#D271FF;" cx="55.991" cy="72.763" r="1.333"/>
	</g>
	<g>
		<circle style="fill:#D271FF;" cx="57.157" cy="82.429" r="1.166"/>
	</g>
	<g>
		<circle style="fill:#D271FF;" cx="58.745" cy="78.351" r="0.421"/>
	</g>
	<g>
		<circle style="fill:#D271FF;" cx="66.584" cy="97.347" r="1.584"/>
	</g>
	<g>
		<circle style="fill:#D271FF;" cx="59.116" cy="96.555" r="0.792"/>
	</g>
	<g>
		<circle style="fill:#D271FF;" cx="63.513" cy="90.108" r="0.679"/>
	</g>
	<g>
		<circle style="fill:#D271FF;" cx="59.04" cy="107.145" r="3.049"/>
	</g>
	<g>
		<circle style="fill:#D271FF;" cx="68.727" cy="107.036" r="0.773"/>
	</g>
	<g>
		<ellipse style="fill:#D271FF;" cx="73.009" cy="99.513" rx="0" ry="0.583"/>
	</g>
	<g>
		<ellipse style="fill:#D271FF;" cx="54.658" cy="100.929" rx="0" ry="0.167"/>
	</g>
	<g>
		<circle style="fill:#D271FF;" cx="73.045" cy="104.179" r="1.084"/>
	</g>
	<g>
		<path style="fill:#FFFFFF;" d="M73.211,64.263c-0.829,0-1.5-0.671-1.5-1.5v-23c0-0.829,0.671-1.5,1.5-1.5s1.5,0.671,1.5,1.5v23
			C74.711,63.591,74.04,64.263,73.211,64.263z"/>
	</g>
	<g>
		<path style="fill:#FFFFFF;" d="M73.211,71.138c-0.829,0-1.5-0.671-1.5-1.5v-1.167c0-0.829,0.671-1.5,1.5-1.5s1.5,0.671,1.5,1.5
			v1.167C74.711,70.466,74.04,71.138,73.211,71.138z"/>
	</g>
	<g>
		<path style="fill:#FFFFFF;" d="M73.211,76.763c-0.829,0-1.5-0.671-1.5-1.5v-1.167c0-0.829,0.671-1.5,1.5-1.5s1.5,0.671,1.5,1.5
			v1.167C74.711,76.091,74.04,76.763,73.211,76.763z"/>
	</g>
</g>
<g>
</g>
<g>
</g>
<g>
</g>
<g>
</g>
<g>
</g>
<g>
</g>
<g>
</g>
<g>
</g>
<g>
</g>
<g>
</g>
<g>
</g>
<g>
</g>
<g>
</g>
<g>
</g>
<g>
</g>
</svg>
