<?xml version="1.0" encoding="iso-8859-1"?>
<!-- Generator: Adobe Illustrator 19.0.0, SVG Export Plug-In . SVG Version: 6.00 Build 0)  -->
<svg version="1.1" id="Layer_1" xmlns="http://www.w3.org/2000/svg" xmlns:xlink="http://www.w3.org/1999/xlink" x="0px" y="0px"
	 viewBox="0 0 128.633 128.633" style="enable-background:new 0 0 128.633 128.633;" xml:space="preserve">
<g>
	<g>
		<polygon style="fill:#AFD7DD;" points="117.845,33.981 68.227,126.006 18.609,49.674 15.771,30.955 25.573,16.387 46.5,6.32 
			71.4,2.877 93.652,6.32 111.93,16.916 		"/>
	</g>
	<g>
		<polygon style="fill:#D8E5EA;" points="117.845,33.981 68.227,126.006 18.609,49.674 15.771,30.955 25.573,16.387 46.5,6.32 
			71.4,2.877 93.652,6.32 111.93,16.916 		"/>
	</g>
	<g>
		<polygon style="fill:#F0FBFC;" points="117.845,33.981 72.18,99.828 18.609,49.674 15.771,30.955 25.573,16.387 46.5,6.32 
			71.4,2.877 93.652,6.32 111.93,16.916 		"/>
	</g>
	<g>
		<polygon style="fill:#D8E5EA;" points="117.845,33.981 88.356,76.775 18.609,49.674 15.771,30.955 25.573,16.387 46.5,6.32 
			71.4,2.877 93.652,6.32 111.93,16.916 		"/>
	</g>
	<g>
		<path style="fill:#33363A;" d="M68.226,127.506c-0.507,0-0.98-0.256-1.258-0.683L17.351,50.491
			c-0.116-0.179-0.193-0.381-0.226-0.593L14.288,31.18c-0.124-0.818,0.439-1.583,1.259-1.708c0.814-0.116,1.583,0.439,1.708,1.259
			l2.789,18.397l48.063,73.94l48.418-89.8c0.394-0.729,1.304-1.002,2.032-0.608c0.729,0.394,1.002,1.303,0.608,2.032l-49.618,92.025
			c-0.251,0.466-0.729,0.766-1.259,0.787C68.267,127.506,68.247,127.506,68.226,127.506z"/>
	</g>
	<g>
		<g style="enable-background:new    ;">
			<g>
				<g>
					<path style="fill:#F0FBFC;" d="M104.727,9.473C96.202,4.551,84.421,1.494,71.463,1.5c-16.013,0-30.517,3.75-40.971,9.826
						c-10.477,6.088-16.959,14.508-16.907,23.795c0.064,11.504,8.185,21.926,21.232,29.457
						c13.046,7.533,31.063,12.203,50.911,12.197c1.453-0.002,2.635-0.688,2.63-1.529c-0.003-0.422-0.298-0.803-0.774-1.076
						c-0.477-0.275-1.135-0.445-1.861-0.445c-18.417-0.006-35.078-4.32-47.184-11.309c-12.104-6.988-19.617-16.633-19.676-27.295
						c-0.049-8.457,5.835-16.088,15.375-21.631c9.519-5.531,22.672-8.939,37.23-8.939c11.539,0,21.953,2.709,29.536,7.086
						c7.572,4.371,12.258,10.394,12.296,17.066c0.029,5.26-3.623,10.008-9.553,13.453c-5.928,3.445-14.102,5.568-23.17,5.563
						c-7.134,0-13.572-1.678-18.262-4.385c-4.667-2.693-7.528-6.412-7.551-10.518c-0.03-3.219,2.202-6.115,5.824-8.219
						c3.622-2.105,8.624-3.4,14.17-3.4c4.294,0,8.168,0.996,10.995,2.629c2.827,1.633,4.562,3.873,4.576,6.361
						c0.011,1.904-1.3,3.613-3.462,4.869c-2.151,1.25-5.099,2.016-8.387,2.016c-2.493-0.008-4.721-0.584-6.371-1.524
						c-1.626-0.951-2.64-2.246-2.648-3.684c0.006-1.07,0.728-2.021,1.942-2.729c1.204-0.699,2.855-1.127,4.701-1.133
						c1.453,0,2.623-0.68,2.618-1.521c-0.002-0.422-0.297-0.801-0.773-1.078c-0.478-0.273-1.136-0.443-1.863-0.443
						c-3.297-0.008-6.291,0.77-8.43,2.014c-2.15,1.25-3.482,2.986-3.473,4.891c0.013,2.279,1.635,4.352,4.215,5.842
						c2.58,1.488,6.164,2.422,10.088,2.414c4.741,0,9.029-1.113,12.117-2.908c3.098-1.801,5.007-4.285,4.992-7.033
						c-0.02-3.316-2.361-6.334-6.131-8.51c-3.77-2.178-8.988-3.537-14.725-3.531c-6.988-0.006-13.33,1.639-17.889,4.301
						c-4.57,2.645-7.39,6.322-7.365,10.377c0.026,4.936,3.496,9.43,9.116,12.676c5.632,3.25,13.415,5.277,21.991,5.283
						c10.511,0,20.034-2.467,26.9-6.455c6.865-3.992,11.116-9.516,11.082-15.617C118.536,21.203,113.242,14.391,104.727,9.473"/>
				</g>
			</g>
		</g>
	</g>
	<g>
		<g style="enable-background:new    ;">
			<g>
				<g>
					<path style="fill:#33363A;" d="M80.596,52.275c-8.547-0.006-16.623-1.953-22.741-5.484c-6.334-3.658-9.838-8.618-9.866-13.967
						c-0.027-4.49,2.854-8.64,8.114-11.683c4.971-2.903,11.578-4.503,18.603-4.503c0.025,0,0.052,0,0.077,0
						c5.787,0,11.268,1.325,15.435,3.732c4.415,2.548,6.858,6.028,6.881,9.8c0.018,3.217-2.021,6.178-5.738,8.339
						c-3.452,2.007-8.022,3.111-12.871,3.111c-0.018,0-0.035,0-0.053,0c-4.031,0-7.86-0.928-10.784-2.614
						c-3.188-1.841-4.95-4.374-4.966-7.133c-0.012-2.373,1.525-4.631,4.219-6.196c2.459-1.43,5.701-2.217,9.134-2.217
						c0.931-0.012,1.921,0.22,2.658,0.642c0.971,0.564,1.523,1.428,1.528,2.373c0.004,0.828-0.665,1.503-1.493,1.507
						c-0.002,0-0.005,0-0.007,0c-0.743,0-1.361-0.541-1.479-1.252c-0.014-0.009-0.029-0.019-0.049-0.029
						c-0.268-0.154-0.695-0.254-1.153-0.24c-2.874,0-5.651,0.659-7.631,1.811c-1.739,1.011-2.733,2.318-2.727,3.586
						c0.009,1.625,1.272,3.284,3.465,4.551c2.439,1.407,5.823,2.213,9.29,2.213c0.016,0,0.03,0,0.045,0
						c4.33,0,8.365-0.961,11.366-2.705c2.749-1.599,4.257-3.633,4.246-5.729c-0.016-2.661-1.927-5.225-5.381-7.219
						c-3.718-2.147-8.667-3.33-13.938-3.33c-0.024,0-0.05,0-0.072,0c-6.504,0-12.573,1.454-17.097,4.096
						c-4.293,2.484-6.643,5.705-6.622,9.073c0.022,4.239,2.994,8.282,8.366,11.386c5.67,3.271,13.214,5.076,21.242,5.082
						c9.919,0,19.205-2.221,26.146-6.252c6.694-3.894,10.365-8.976,10.335-14.312c-0.037-6.711-4.69-13.082-13.101-17.94
						c-0.718-0.414-0.963-1.332-0.549-2.049c0.414-0.719,1.332-0.964,2.049-0.549c9.372,5.413,14.557,12.7,14.601,20.521
						c0.036,6.456-4.164,12.466-11.828,16.923C100.857,49.911,91.037,52.275,80.596,52.275z"/>
				</g>
				<g>
					<path style="fill:none;stroke:#33363A;stroke-width:3;stroke-linecap:round;stroke-linejoin:round;stroke-miterlimit:10;" d="
						M54.766,32.816"/>
				</g>
				<g>
					<path style="fill:none;stroke:#33363A;stroke-width:3;stroke-linecap:round;stroke-linejoin:round;stroke-miterlimit:10;" d="
						M80.578,47.719"/>
				</g>
				<g>
					<path style="fill:none;stroke:#33363A;stroke-width:3;stroke-linecap:round;stroke-linejoin:round;stroke-miterlimit:10;" d="
						M85.723,73.725"/>
				</g>
				<g>
					<path style="fill:#33363A;" d="M85.692,78.275c-19.447,0-37.777-4.402-51.625-12.398C19.957,57.732,12.15,46.813,12.085,35.13
						c-0.053-9.54,6.217-18.454,17.653-25.101C40.866,3.562,55.684,0,71.463,0c0.013,0,0.025,0,0.038,0
						c12.781,0,24.846,2.902,33.977,8.174c0.718,0.414,0.963,1.331,0.549,2.049c-0.414,0.719-1.332,0.964-2.049,0.549
						C95.296,5.76,83.763,3,71.501,3c-0.013,0-0.024,0-0.037,0c-15.259,0-29.541,3.418-40.218,9.623
						c-10.469,6.083-16.208,14.07-16.161,22.489c0.06,10.573,7.333,20.576,20.482,28.167c13.397,7.736,31.197,11.996,50.123,11.996
						c0.616,0.02,1.016-0.157,1.188-0.27c0.114-0.711,0.729-1.256,1.472-1.26c0.003,0,0.006,0,0.009,0
						c0.824,0,1.495,0.666,1.5,1.491c0.004,0.665-0.274,1.314-0.783,1.827c-0.752,0.757-2.002,1.209-3.345,1.211
						C85.719,78.275,85.704,78.275,85.692,78.275z"/>
				</g>
			</g>
		</g>
	</g>
	<g>
		<g style="enable-background:new    ;">
			<g>
				<g>
					<path style="fill:#33363A;" d="M47.487,91.191c-5.521,0-10.743-1.26-14.708-3.549c-4.221-2.436-6.556-5.765-6.576-9.372
						c-0.017-3.024,1.896-5.808,5.386-7.837c0.715-0.415,1.634-0.175,2.051,0.543c0.416,0.716,0.173,1.634-0.543,2.051
						c-2.521,1.466-3.903,3.322-3.894,5.227c0.014,2.497,1.816,4.909,5.076,6.791c3.516,2.029,8.206,3.146,13.208,3.146
						c0.005,0,0.012,0,0.013,0c0.828,0,1.5,0.671,1.5,1.499c0,0.829-0.671,1.501-1.499,1.501
						C47.496,91.191,47.491,91.191,47.487,91.191z"/>
				</g>
			</g>
		</g>
	</g>
	<g>
		<g style="enable-background:new    ;">
			<g>
				<g>
					<path style="fill:#33363A;" d="M63.238,116.834c-3.411,0-6.648-0.783-9.116-2.206c-2.725-1.574-4.231-3.754-4.245-6.139
						c-0.012-2.039,1.242-3.895,3.529-5.224c0.716-0.416,1.635-0.173,2.051,0.543c0.416,0.717,0.173,1.635-0.543,2.051
						c-1.3,0.755-2.042,1.707-2.037,2.612c0.007,1.258,1.008,2.554,2.744,3.558c1.989,1.146,4.766,1.805,7.618,1.805
						c0.004,0,0.007,0,0.011,0h0.001c0.828,0,1.499,0.671,1.5,1.499C64.752,116.166,64.099,116.879,63.238,116.834z"/>
				</g>
			</g>
		</g>
	</g>
	<g>
		<g style="enable-background:new    ;">
			<g>
				<g>
					<path style="fill:none;stroke:#33363A;stroke-width:3;stroke-linecap:round;stroke-linejoin:round;stroke-miterlimit:10;" d="
						M80.131,55.67"/>
				</g>
				<g>
					<path style="fill:none;stroke:#33363A;stroke-width:3;stroke-linecap:round;stroke-linejoin:round;stroke-miterlimit:10;" d="
						M61.263,49.859"/>
				</g>
				<g>
					<path style="fill:none;stroke:#33363A;stroke-width:3;stroke-linecap:round;stroke-linejoin:round;stroke-miterlimit:10;" d="
						M81.793,61.713"/>
				</g>
			</g>
		</g>
	</g>
	<g>
		<g style="enable-background:new    ;">
			<g>
				<g>
					<path style="fill:#33363A;" d="M73.03,100.098c-0.828,0-1.5-0.672-1.5-1.5s0.672-1.5,1.5-1.5c3.847,0,7.434-0.854,10.101-2.402
						c2.413-1.402,3.735-3.176,3.726-4.995c-0.005-0.829,0.663-1.504,1.491-1.509c0.003,0,0.006,0,0.009,0
						c0.824,0,1.495,0.666,1.5,1.491c0.017,2.94-1.837,5.642-5.218,7.606C81.52,99.101,77.398,100.098,73.03,100.098z"/>
				</g>
				<g>
					<path style="fill:none;stroke:#33363A;stroke-width:3;stroke-linecap:round;stroke-linejoin:round;stroke-miterlimit:10;" d="
						M72.18,94.299"/>
				</g>
				<g>
					<path style="fill:none;stroke:#33363A;stroke-width:3;stroke-linecap:round;stroke-linejoin:round;stroke-miterlimit:10;" d="
						M62.607,91.352"/>
				</g>
				<g>
					<path style="fill:none;stroke:#33363A;stroke-width:3;stroke-linecap:round;stroke-linejoin:round;stroke-miterlimit:10;" d="
						M73.023,97.363"/>
				</g>
			</g>
		</g>
	</g>
	<g>
		<circle style="fill:#D8E5EA;" cx="17.555" cy="68.834" r="2.843"/>
	</g>
	<g>
		<circle style="fill:#D8E5EA;" cx="104.512" cy="78.1" r="1.325"/>
	</g>
	<g>
		<circle style="fill:#D8E5EA;" cx="112.857" cy="72.676" r="3.841"/>
	</g>
	<g>
		<circle style="fill:#D8E5EA;" cx="9.302" cy="54.42" r="0.948"/>
	</g>
	<g>
		<circle style="fill:#D8E5EA;" cx="6.633" cy="19.168" r="1.722"/>
	</g>
	<g>
		<circle style="fill:#D8E5EA;" cx="118.42" cy="63.436" r="1.722"/>
	</g>
	<g>
		<circle style="fill:#D8E5EA;" cx="16.088" cy="6.971" r="2.503"/>
	</g>
	<g>
		<path style="fill:#33363A;" d="M88.356,128.633h-29.2c-0.828,0-1.5-0.672-1.5-1.5s0.672-1.5,1.5-1.5h29.2
			c0.828,0,1.5,0.672,1.5,1.5S89.184,128.633,88.356,128.633z"/>
	</g>
	<g>
		<path style="fill:#33363A;" d="M102.396,128.633h-5.484c-0.828,0-1.5-0.672-1.5-1.5s0.672-1.5,1.5-1.5h5.484
			c0.828,0,1.5,0.672,1.5,1.5S103.225,128.633,102.396,128.633z"/>
	</g>
	<g>
		<g>
			<polygon style="fill:#FFBF31;" points="99.357,36.721 63.756,36.721 44.138,71.15 60.078,71.15 39.164,113.645 94.126,64.465 
				76.269,64.465 			"/>
		</g>
		<g>
			<polygon style="fill:#FFD833;" points="60.078,71.15 71.738,71.15 60.002,94.998 94.126,64.465 87.93,64.465 76.269,64.465 
				99.357,36.721 75.416,36.721 55.799,71.15 			"/>
		</g>
		<g>
			<path style="fill:#33363A;" d="M39.164,115.145c-0.318,0-0.638-0.101-0.906-0.305c-0.572-0.435-0.757-1.213-0.439-1.857
				l19.85-40.332h-13.53c-0.534,0-1.028-0.284-1.297-0.746s-0.271-1.032-0.007-1.496l19.618-34.43
				c0.268-0.469,0.765-0.758,1.304-0.758h35.602c0.582,0,1.111,0.337,1.358,0.863s0.167,1.149-0.205,1.597L79.469,62.965h14.657
				c0.622,0,1.18,0.384,1.401,0.965s0.063,1.238-0.401,1.653l-54.962,49.18C39.881,115.017,39.522,115.145,39.164,115.145z
				 M46.719,69.65h13.359c0.519,0,1,0.268,1.273,0.707c0.273,0.44,0.301,0.99,0.072,1.455l-17.502,35.563L90.2,65.965H76.269
				c-0.582,0-1.111-0.337-1.358-0.863s-0.167-1.149,0.205-1.597l21.042-25.284h-31.53L46.719,69.65z"/>
		</g>
	</g>
	<g>
		<path style="fill:#3E5054;" d="M112.51,127.133l9.712-36l-17.56,10.42l-0.001,0.002c0.018,2.514-1.253,4.971-3.566,6.344
			c-2.313,1.373-5.079,1.309-7.276,0.09l-9.256,5.492c5.47,5.908,14.519,7.422,21.715,3.152c0.068-0.041,0.133-0.084,0.199-0.125
			l0.068,0.572L112.51,127.133z"/>
	</g>
	<g>
		<g>
			<path style="fill:#4A5D60;" d="M101.095,107.898c-2.313,1.373-5.079,1.309-7.276,0.09l-7.945,4.715
				c5.371,3.379,12.404,3.713,18.227,0.258c5.822-3.455,8.9-9.789,8.506-16.121l-7.944,4.715
				C104.679,104.068,103.408,106.525,101.095,107.898z"/>
		</g>
	</g>
	<g>
		<path style="fill:#3E5054;" d="M90.121,101.76c-0.016-2.514,1.254-4.971,3.566-6.344c2.313-1.373,5.08-1.309,7.277-0.09
			l9.256-5.494c-5.469-5.906-14.52-7.422-21.715-3.148c-7.197,4.27-10.204,12.938-7.64,20.566L90.121,101.76z"/>
	</g>
	<g>
		<path style="fill:#4A5D60;" d="M93.687,95.416c2.313-1.373,5.08-1.309,7.277-0.09l7.945-4.717
			c-5.371-3.381-12.404-3.713-18.227-0.258c-5.822,3.457-8.9,9.789-8.508,16.121l7.945-4.713
			C90.105,99.246,91.375,96.789,93.687,95.416z"/>
	</g>
	<g>
		<path style="fill:#33363A;" d="M80.866,108.75c-0.176,0-0.353-0.031-0.522-0.094c-0.425-0.158-0.755-0.499-0.899-0.929
			c-2.828-8.412,0.661-17.805,8.296-22.334c7.632-4.533,17.549-3.096,23.581,3.419c0.308,0.333,0.449,0.786,0.384,1.235
			c-0.065,0.448-0.329,0.843-0.719,1.074l-9.256,5.494c-0.458,0.271-1.027,0.28-1.493,0.021c-1.809-1.001-4.022-0.977-5.784,0.068
			c-1.76,1.045-2.845,2.978-2.832,5.044c0.003,0.533-0.276,1.028-0.734,1.3l-9.255,5.49C81.397,108.679,81.132,108.75,80.866,108.75
			z M97.38,85.758c-2.79,0-5.596,0.724-8.108,2.216c-5.881,3.488-8.84,10.406-7.476,16.98l6.864-4.072
			c0.265-2.786,1.844-5.32,4.262-6.756c2.417-1.436,5.4-1.606,7.973-0.503l6.865-4.075C104.828,87.058,101.119,85.758,97.38,85.758z
			"/>
	</g>
	<g>
		<g>
			<g>
				<path style="fill:none;stroke:#33363A;stroke-width:3;stroke-linecap:round;stroke-linejoin:round;stroke-miterlimit:10;" d="
					M91.15,105.359"/>
			</g>
			<g>
				<path style="fill:none;stroke:#33363A;stroke-width:3;stroke-linecap:round;stroke-linejoin:round;stroke-miterlimit:10;" d="
					M86.525,108.106"/>
			</g>
		</g>
	</g>
	<path style="fill:#33363A;" d="M123.129,89.938c-0.485-0.37-1.146-0.407-1.673-0.096l-17.56,10.42
		c-0.247,0.146-0.448,0.364-0.577,0.621c-0.105,0.212-0.16,0.445-0.158,0.682c0.015,2.065-1.07,3.998-2.832,5.043
		s-3.977,1.069-5.783,0.068c-0.467-0.259-1.034-0.25-1.493,0.021l-9.256,5.492c-0.39,0.231-0.653,0.626-0.719,1.074
		s0.076,0.902,0.384,1.234c5.685,6.143,14.83,7.774,22.262,4.136l4.152,6.998h-0.6c-0.828,0-1.5,0.672-1.5,1.5s0.672,1.5,1.5,1.5
		h5.484c0.828,0,1.5-0.672,1.5-1.5s-0.672-1.5-1.5-1.5h-0.292l9.202-34.109C123.829,90.935,123.615,90.308,123.129,89.938z
		 M111.987,123.313l-3.99-6.726l-0.031-0.257c-0.061-0.509-0.377-0.951-0.838-1.174c-0.46-0.22-1.005-0.193-1.439,0.075
		c-0.006,0.004-0.17,0.107-0.177,0.111c-5.88,3.488-13.371,2.769-18.488-1.578l6.864-4.073c2.574,1.104,5.554,0.931,7.973-0.503
		c2.42-1.437,4-3.972,4.263-6.758l13.688-8.124L111.987,123.313z"/>
	<g>
		<path style="fill:#436377;" d="M39.547,30.131c-0.246-1.393-0.383-2.82-0.383-4.281c0-13.447,10.902-24.35,24.35-24.35
			c9.697,0,18.068,5.67,21.984,13.875c0.392-0.029,0.785-0.047,1.184-0.047c8.527,0,15.494,6.668,15.975,15.078
			c4.227,1.541,7.25,5.584,7.25,10.346c0,6.088-4.936,11.021-11.024,11.021H42.478c-6.09,0-11.025-4.934-11.025-11.021
			C31.453,35.678,34.884,31.418,39.547,30.131z"/>
	</g>
	<g>
		<path style="fill:#364B5B;" d="M63.514,6.014c9.697,0,18.068,5.67,21.984,13.877c0.392-0.031,0.785-0.051,1.184-0.051
			c8.527,0,15.494,6.67,15.975,15.076c3.544,1.295,6.232,4.348,7.012,8.107c-1.048,4.998-5.478,8.75-10.786,8.75H42.478
			c-5.309,0-9.739-3.752-10.787-8.748c0.839-4.053,3.9-7.289,7.856-8.379c-0.246-1.395-0.383-2.82-0.383-4.285
			c0-0.035,0.002-0.072,0.002-0.109c0.129-0.037,0.252-0.084,0.381-0.121c-0.117-0.67-0.209-1.352-0.274-2.039
			C40.42,15.711,50.832,6.014,63.514,6.014z"/>
	</g>
	<g>
		<g>
			<path style="fill:#436377;" d="M69.695,42.955c1.117-0.324,2.147-0.846,3.055-1.523l9.375,10.34h0.076L69.695,42.955z"/>
		</g>
		<g>
			<path style="fill:#436377;" d="M64.643,21.809c-7.676,0-13.995,5.783-14.851,13.228c-0.066-0.643-0.102-1.295-0.102-1.955
				c0-8.256,6.693-14.949,14.952-14.949c6.604,0,11.96,5.354,11.96,11.959c0,0.602-0.062,1.188-0.167,1.756
				C75.516,26.156,70.594,21.809,64.643,21.809z"/>
		</g>
	</g>
	<path style="fill:#33363A;" d="M111.349,39.629c-0.011-0.127-0.027-0.253-0.042-0.379c-0.03-0.243-0.067-0.484-0.111-0.723
		c-0.026-0.143-0.049-0.287-0.079-0.429c-0.068-0.309-0.146-0.615-0.236-0.917c-0.061-0.204-0.133-0.402-0.204-0.602
		c-0.043-0.12-0.085-0.24-0.131-0.358c-0.084-0.216-0.173-0.43-0.269-0.64c-0.032-0.07-0.067-0.138-0.1-0.208
		c-0.344-0.72-0.753-1.4-1.222-2.036c-0.041-0.055-0.082-0.11-0.123-0.165c-0.158-0.208-0.32-0.411-0.491-0.608
		c-0.006-0.007-0.013-0.014-0.019-0.021c-0.368-0.422-0.763-0.818-1.183-1.188c-0.022-0.02-0.044-0.041-0.066-0.06
		c-0.196-0.17-0.397-0.331-0.603-0.488c-0.056-0.042-0.112-0.084-0.168-0.126c-0.693-0.512-1.437-0.955-2.228-1.317
		c-0.982-8.786-8.444-15.537-17.391-15.537c-0.094,0-0.188,0.001-0.28,0.003c-0.037-0.071-0.081-0.137-0.119-0.208
		c-0.216-0.4-0.44-0.795-0.676-1.182c-0.117-0.193-0.242-0.379-0.365-0.568c-0.162-0.252-0.328-0.501-0.499-0.746
		c-0.126-0.18-0.252-0.36-0.382-0.537c-0.26-0.353-0.527-0.701-0.803-1.04c-0.052-0.063-0.102-0.128-0.154-0.19
		c-0.328-0.395-0.671-0.777-1.021-1.151c-0.063-0.068-0.128-0.134-0.192-0.201c-3.931-4.113-9.198-6.933-15.101-7.754
		c-0.03-0.004-0.059-0.007-0.089-0.011c-0.496-0.067-0.995-0.119-1.499-0.158c-0.116-0.009-0.231-0.019-0.347-0.026
		C64.612,0.023,64.066,0,63.514,0c-14.254,0-25.85,11.596-25.85,25.85c0,1.06,0.064,2.123,0.193,3.162
		c0.002,0.013,0.01,0.023,0.011,0.036c0.003,0.021,0.003,0.042,0.006,0.063c-0.006,0.002-0.012,0.006-0.019,0.008
		c-0.233,0.093-0.46,0.196-0.686,0.302c-0.099,0.046-0.197,0.093-0.294,0.142c-0.209,0.105-0.416,0.214-0.619,0.33
		c-0.101,0.058-0.198,0.12-0.297,0.181c-0.649,0.398-1.258,0.852-1.823,1.357c-0.094,0.084-0.188,0.167-0.279,0.254
		c-0.161,0.153-0.317,0.311-0.469,0.472c-0.083,0.087-0.162,0.177-0.242,0.266c-0.155,0.173-0.309,0.347-0.454,0.528
		c-0.013,0.016-0.024,0.033-0.037,0.049c-0.322,0.407-0.615,0.837-0.885,1.282c-0.052,0.086-0.106,0.17-0.156,0.257
		c-0.113,0.197-0.219,0.399-0.322,0.603c-0.057,0.114-0.112,0.229-0.166,0.344c-0.093,0.199-0.184,0.397-0.266,0.602
		c-0.058,0.145-0.108,0.293-0.161,0.44c-0.105,0.291-0.2,0.586-0.283,0.887c-0.059,0.21-0.116,0.421-0.164,0.635
		c-0.033,0.151-0.061,0.304-0.089,0.457c-0.044,0.237-0.08,0.476-0.11,0.717c-0.016,0.13-0.033,0.258-0.045,0.389
		c-0.035,0.376-0.058,0.755-0.058,1.138c0,6.904,5.619,12.521,12.525,12.521h56.403c6.906,0,12.524-5.617,12.524-12.521
		C111.406,40.374,111.383,40,111.349,39.629z M98.882,50.273H87.435c-0.007,0-0.013-0.002-0.019-0.002H68.381
		c-9.479,0-17.189-7.711-17.189-17.189c0-7.416,6.034-13.449,13.452-13.449c5.768,0,10.46,4.691,10.46,10.459
		c0,4.45-3.619,8.07-8.068,8.07c-3.394,0-6.155-2.762-6.155-6.156c0-0.828-0.672-1.5-1.5-1.5s-1.5,0.672-1.5,1.5
		c0,5.049,4.107,9.156,9.155,9.156c6.104,0,11.068-4.966,11.068-11.07c0-7.421-6.038-13.459-13.46-13.459
		c-9.071,0-16.452,7.379-16.452,16.449c0,7.271,3.876,13.636,9.656,17.191H42.478c-5.252,0-9.525-4.271-9.525-9.521
		c0-0.298,0.018-0.593,0.045-0.884c0.011-0.113,0.028-0.224,0.042-0.336c0.022-0.173,0.047-0.344,0.079-0.514
		c0.026-0.139,0.056-0.277,0.088-0.414c0.031-0.132,0.065-0.262,0.101-0.392c0.044-0.156,0.088-0.312,0.139-0.465
		c0.03-0.091,0.066-0.179,0.099-0.269c0.234-0.633,0.53-1.239,0.889-1.805c0.014-0.023,0.027-0.047,0.042-0.069
		c0.115-0.179,0.239-0.351,0.366-0.522c0.036-0.049,0.072-0.098,0.109-0.146c0.125-0.162,0.256-0.32,0.391-0.473
		c0.042-0.047,0.085-0.094,0.128-0.14c0.141-0.154,0.286-0.306,0.437-0.45c0.028-0.027,0.057-0.051,0.085-0.078
		c0.708-0.661,1.519-1.218,2.413-1.642c0.03-0.014,0.059-0.029,0.089-0.043c0.214-0.099,0.433-0.19,0.656-0.273
		c0.027-0.01,0.054-0.02,0.081-0.03c0.234-0.085,0.472-0.163,0.715-0.23l0,0c0.808-0.223,1.654-0.352,2.532-0.352
		c0.828,0,1.5-0.672,1.5-1.5s-0.672-1.5-1.5-1.5c-0.563,0-1.114,0.05-1.657,0.123c-0.013-0.115-0.035-0.231-0.046-0.345
		c-0.009-0.099-0.019-0.197-0.027-0.296c-0.052-0.624-0.084-1.244-0.084-1.856c0-12.6,10.25-22.85,22.85-22.85
		c0.501,0,1,0.021,1.496,0.054c0.102,0.007,0.204,0.015,0.306,0.023c5.342,0.429,10.336,2.742,14.119,6.404
		c0.009,0.008,0.017,0.016,0.026,0.024c0.364,0.353,0.715,0.72,1.056,1.098c0.055,0.061,0.107,0.124,0.161,0.185
		c0.252,0.286,0.495,0.58,0.733,0.878c0.099,0.125,0.2,0.25,0.297,0.377c0.259,0.34,0.511,0.686,0.752,1.042
		c0.102,0.151,0.196,0.306,0.295,0.459c0.153,0.238,0.302,0.478,0.446,0.722c0.107,0.182,0.213,0.364,0.316,0.549
		c0.177,0.321,0.348,0.646,0.511,0.977c1.495,3.037,2.338,6.45,2.338,10.057c0,0.828,0.672,1.5,1.5,1.5s1.5-0.672,1.5-1.5
		c0-3.152-0.569-6.174-1.607-8.969c6.485,0.479,11.819,5.232,13.112,11.517c-0.649-0.104-1.309-0.173-1.986-0.173
		c-0.828,0-1.5,0.672-1.5,1.5s0.672,1.5,1.5,1.5c1.139,0,2.228,0.211,3.241,0.58c0.007,0.003,0.013,0.008,0.02,0.011
		c1.166,0.425,2.213,1.067,3.103,1.868c0.007,0.006,0.014,0.013,0.021,0.019c0.699,0.634,1.299,1.367,1.782,2.172
		c0.01,0.017,0.021,0.033,0.031,0.05c0.112,0.188,0.216,0.381,0.315,0.577c0.017,0.034,0.033,0.069,0.05,0.103
		c0.263,0.54,0.473,1.107,0.631,1.692c0.033,0.122,0.067,0.243,0.094,0.367c0.03,0.131,0.054,0.263,0.078,0.396
		c0.03,0.168,0.057,0.338,0.078,0.509c0.013,0.106,0.028,0.212,0.038,0.319c0.026,0.285,0.044,0.573,0.044,0.865
		C108.406,46.002,104.134,50.273,98.882,50.273z"/>
</g>
<g>
</g>
<g>
</g>
<g>
</g>
<g>
</g>
<g>
</g>
<g>
</g>
<g>
</g>
<g>
</g>
<g>
</g>
<g>
</g>
<g>
</g>
<g>
</g>
<g>
</g>
<g>
</g>
<g>
</g>
</svg>
