<?xml version="1.0" encoding="iso-8859-1"?>
<!-- Generator: Adobe Illustrator 19.0.0, SVG Export Plug-In . SVG Version: 6.00 Build 0)  -->
<svg version="1.1" id="Layer_1" xmlns="http://www.w3.org/2000/svg" xmlns:xlink="http://www.w3.org/1999/xlink" x="0px" y="0px"
	 viewBox="0 0 128.633 128.633" style="enable-background:new 0 0 128.633 128.633;" xml:space="preserve">
<g>
	<g>
		<polygon style="fill:#AFD7DD;" points="119.635,33.981 70.018,126.006 20.399,49.674 17.563,30.955 27.363,16.387 48.29,6.32 
			73.191,2.877 95.441,6.32 113.721,16.916 		"/>
	</g>
	<g>
		<polygon style="fill:#D8E5EA;" points="119.635,33.981 70.018,126.006 20.399,49.674 17.563,30.955 27.363,16.387 48.29,6.32 
			73.191,2.877 95.441,6.32 113.721,16.916 		"/>
	</g>
	<g>
		<polygon style="fill:#F0FBFC;" points="119.635,33.981 73.971,99.828 20.399,49.674 17.563,30.955 27.363,16.387 48.29,6.32 
			73.191,2.877 95.441,6.32 113.721,16.916 		"/>
	</g>
	<g>
		<polygon style="fill:#D8E5EA;" points="119.635,33.981 90.147,76.775 20.399,49.674 17.563,30.955 27.363,16.387 48.29,6.32 
			73.191,2.877 95.441,6.32 113.721,16.916 		"/>
	</g>
	<g>
		<path style="fill:#33363A;" d="M70.018,127.506c-0.507,0-0.98-0.256-1.258-0.683L19.142,50.491
			c-0.116-0.179-0.193-0.381-0.226-0.593L16.079,31.18c-0.124-0.819,0.439-1.584,1.259-1.708c0.815-0.113,1.583,0.438,1.708,1.259
			l2.788,18.397l48.063,73.94l48.417-89.8c0.394-0.729,1.303-1.002,2.032-0.608s1.002,1.303,0.608,2.032l-49.617,92.025
			c-0.251,0.466-0.729,0.766-1.259,0.787C70.059,127.506,70.038,127.506,70.018,127.506z"/>
	</g>
	<g>
		<g style="enable-background:new    ;">
			<g>
				<g>
					<path style="fill:#F0FBFC;" d="M106.518,9.473C97.992,4.551,86.211,1.494,73.252,1.5c-16.012,0-30.516,3.75-40.971,9.826
						c-10.476,6.088-16.959,14.508-16.906,23.795c0.064,11.504,8.186,21.926,21.232,29.457c13.046,7.533,31.064,12.203,50.91,12.197
						c1.455-0.002,2.637-0.688,2.631-1.529c-0.002-0.422-0.297-0.803-0.773-1.076c-0.477-0.275-1.135-0.445-1.861-0.445
						c-18.418-0.006-35.079-4.32-47.184-11.309c-12.105-6.988-19.617-16.633-19.678-27.295c-0.048-8.457,5.836-16.088,15.377-21.631
						c9.518-5.531,22.67-8.939,37.229-8.939c11.541,0,21.955,2.709,29.537,7.086c7.572,4.371,12.258,10.394,12.295,17.066
						c0.031,5.26-3.621,10.008-9.551,13.453c-5.93,3.445-14.102,5.568-23.17,5.563c-7.135,0-13.572-1.678-18.263-4.385
						c-4.667-2.693-7.528-6.412-7.551-10.518c-0.03-3.219,2.202-6.115,5.823-8.219c3.623-2.105,8.625-3.4,14.172-3.4
						c4.293,0,8.168,0.996,10.994,2.629s4.563,3.873,4.576,6.361c0.012,1.904-1.299,3.613-3.461,4.869
						c-2.152,1.25-5.1,2.016-8.387,2.016c-2.494-0.008-4.723-0.584-6.371-1.524c-1.627-0.951-2.641-2.246-2.648-3.684
						c0.006-1.07,0.727-2.021,1.941-2.729c1.203-0.699,2.855-1.127,4.701-1.133c1.453,0,2.623-0.68,2.619-1.521
						c-0.002-0.422-0.297-0.801-0.773-1.078c-0.478-0.273-1.137-0.443-1.863-0.443c-3.299-0.008-6.291,0.77-8.43,2.014
						c-2.152,1.25-3.484,2.986-3.474,4.891c0.013,2.279,1.636,4.352,4.216,5.842c2.58,1.488,6.164,2.422,10.088,2.414
						c4.74,0,9.029-1.113,12.115-2.908c3.1-1.801,5.008-4.285,4.992-7.033c-0.018-3.316-2.361-6.334-6.131-8.51
						c-3.768-2.178-8.986-3.537-14.723-3.531c-6.988-0.006-13.331,1.639-17.89,4.301c-4.569,2.645-7.39,6.322-7.366,10.377
						c0.027,4.936,3.497,9.43,9.117,12.676c5.633,3.25,13.416,5.277,21.992,5.283c10.51,0,20.033-2.467,26.9-6.455
						c6.863-3.992,11.115-9.516,11.082-15.617C120.326,21.203,115.033,14.391,106.518,9.473"/>
				</g>
			</g>
		</g>
	</g>
	<g>
		<g style="enable-background:new    ;">
			<g>
				<g>
					<path style="fill:#33363A;" d="M82.387,52.275c-8.547-0.006-16.623-1.953-22.742-5.484c-6.333-3.658-9.838-8.618-9.867-13.966
						c-0.026-4.491,2.856-8.641,8.115-11.684c4.971-2.903,11.578-4.503,18.604-4.503c0.025,0,0.052,0,0.077,0
						c5.788,0,11.268,1.325,15.434,3.732c4.416,2.55,6.86,6.03,6.88,9.801c0.019,3.216-2.02,6.178-5.738,8.338
						c-3.462,2.013-8.074,3.105-12.922,3.111c-4.031,0-7.86-0.928-10.784-2.614c-3.188-1.842-4.951-4.375-4.967-7.133
						c-0.014-2.373,1.524-4.631,4.221-6.196c2.458-1.43,5.7-2.217,9.133-2.217c0.018,0,0.035,0,0.054,0
						c0.954,0,1.88,0.228,2.604,0.641c0.972,0.565,1.525,1.429,1.529,2.374c0.004,0.828-0.665,1.503-1.493,1.507
						c-0.002,0-0.005,0-0.007,0c-0.743,0-1.361-0.541-1.479-1.252c-0.014-0.009-0.029-0.019-0.049-0.029
						c-0.268-0.154-0.681-0.254-1.153-0.24c-2.874,0-5.651,0.659-7.631,1.811c-1.741,1.011-2.734,2.317-2.728,3.585
						c0.009,1.626,1.272,3.284,3.466,4.552c2.439,1.407,5.823,2.213,9.29,2.213c0.016,0,0.03,0,0.045,0
						c4.33,0,8.365-0.961,11.364-2.705c2.75-1.598,4.258-3.632,4.246-5.728c-0.014-2.661-1.925-5.225-5.381-7.22
						c-3.717-2.147-8.664-3.33-13.936-3.33c-0.023,0-0.049,0-0.072,0c-6.504,0-12.574,1.454-17.098,4.096
						c-4.292,2.484-6.643,5.705-6.623,9.073c0.023,4.239,2.995,8.282,8.367,11.386c5.671,3.271,13.215,5.076,21.243,5.082
						c9.918,0,19.204-2.221,26.146-6.252c6.693-3.894,10.364-8.977,10.335-14.313c-0.038-6.711-4.691-13.082-13.102-17.939
						c-0.718-0.414-0.963-1.332-0.549-2.049c0.414-0.719,1.332-0.964,2.049-0.549c9.371,5.412,14.557,12.699,14.602,20.521
						c0.035,6.456-4.165,12.466-11.828,16.923C102.647,49.911,92.827,52.275,82.387,52.275z"/>
				</g>
				<g>
					<path style="fill:none;stroke:#33363A;stroke-width:3;stroke-linecap:round;stroke-linejoin:round;stroke-miterlimit:10;" d="
						M56.556,32.816"/>
				</g>
				<g>
					<path style="fill:none;stroke:#33363A;stroke-width:3;stroke-linecap:round;stroke-linejoin:round;stroke-miterlimit:10;" d="
						M82.369,47.719"/>
				</g>
				<g>
					<path style="fill:#33363A;" d="M87.481,78.275c-19.446,0-37.776-4.402-51.624-12.398C21.747,57.732,13.94,46.813,13.875,35.13
						c-0.054-9.539,6.215-18.454,17.652-25.101C42.656,3.562,57.474,0,73.252,0c0.013,0,0.025,0,0.038,0
						c12.781,0,24.847,2.902,33.978,8.174c0.718,0.414,0.963,1.331,0.549,2.049c-0.414,0.719-1.332,0.964-2.049,0.549
						C97.077,5.755,85.52,3.011,73.253,3c-15.258,0-29.54,3.418-40.218,9.623c-10.469,6.084-16.208,14.071-16.16,22.489
						c0.06,10.573,7.333,20.576,20.482,28.167c13.397,7.736,31.197,11.996,50.122,11.996c0.154,0.001,0.298-0.009,0.427-0.025
						c-0.126-0.017-0.259-0.025-0.393-0.025c-0.828,0-1.5-0.672-1.5-1.5s0.672-1.5,1.5-1.5c0.963,0,1.891,0.229,2.612,0.646
						c0.962,0.552,1.518,1.416,1.522,2.368c0.005,0.662-0.273,1.312-0.782,1.824c-0.751,0.757-2.002,1.21-3.347,1.212
						C87.508,78.275,87.493,78.275,87.481,78.275z"/>
				</g>
			</g>
		</g>
	</g>
	<g>
		<g style="enable-background:new    ;">
			<g>
				<g>
					<path style="fill:#33363A;" d="M49.277,91.191c-5.521,0-10.743-1.26-14.708-3.549c-4.221-2.436-6.556-5.765-6.576-9.372
						c-0.018-3.024,1.896-5.807,5.386-7.837c0.715-0.415,1.635-0.175,2.051,0.543c0.416,0.716,0.173,1.634-0.543,2.051
						c-2.521,1.467-3.904,3.322-3.894,5.226c0.014,2.498,1.816,4.91,5.076,6.792c3.516,2.029,8.206,3.146,13.208,3.146
						c0.005,0,0.013,0,0.013,0c0.828,0,1.5,0.671,1.5,1.499c0,0.829-0.671,1.501-1.499,1.501
						C49.286,91.191,49.281,91.191,49.277,91.191z"/>
				</g>
			</g>
		</g>
	</g>
	<g>
		<g style="enable-background:new    ;">
			<g>
				<g>
					<path style="fill:#33363A;" d="M65.028,116.834c-3.411,0-6.648-0.783-9.116-2.206c-2.725-1.573-4.231-3.754-4.245-6.139
						c-0.012-2.039,1.241-3.895,3.528-5.224c0.716-0.416,1.635-0.173,2.051,0.543s0.173,1.635-0.543,2.051
						c-1.299,0.755-2.041,1.707-2.036,2.612c0.007,1.258,1.008,2.555,2.744,3.558c1.989,1.146,4.766,1.805,7.618,1.805
						c0.004,0,0.007,0,0.011,0h0.001c0.828,0,1.499,0.671,1.5,1.499s-0.671,1.5-1.499,1.501
						C65.037,116.834,65.033,116.834,65.028,116.834z"/>
				</g>
			</g>
		</g>
	</g>
	<g>
		<g style="enable-background:new    ;">
			<g>
				<g>
					<path style="fill:#33363A;" d="M83.598,65.645c-0.828,0-1.5-0.672-1.5-1.5s0.672-1.5,1.5-1.5
						c7.837,0,15.168-1.751,20.641-4.932c5.226-3.037,8.092-6.985,8.07-11.117c-0.004-0.828,0.664-1.504,1.492-1.508
						c0.003,0,0.005,0,0.008,0c0.825,0,1.496,0.666,1.5,1.492c0.027,5.252-3.368,10.127-9.563,13.727
						C99.821,63.749,91.956,65.645,83.598,65.645z"/>
				</g>
				<g>
					<path style="fill:none;stroke:#33363A;stroke-width:3;stroke-linecap:round;stroke-linejoin:round;stroke-miterlimit:10;" d="
						M81.922,55.67"/>
				</g>
				<g>
					<path style="fill:none;stroke:#33363A;stroke-width:3;stroke-linecap:round;stroke-linejoin:round;stroke-miterlimit:10;" d="
						M63.053,49.859"/>
				</g>
				<g>
					<path style="fill:none;stroke:#33363A;stroke-width:3;stroke-linecap:round;stroke-linejoin:round;stroke-miterlimit:10;" d="
						M83.584,61.713"/>
				</g>
			</g>
		</g>
	</g>
	<g>
		<g style="enable-background:new    ;">
			<g>
				<g>
					<path style="fill:#33363A;" d="M74.82,100.098c-0.828,0-1.5-0.672-1.5-1.5s0.672-1.5,1.5-1.5c3.847,0,7.435-0.854,10.103-2.402
						c2.411-1.401,3.733-3.176,3.724-4.995c-0.005-0.829,0.663-1.504,1.491-1.509c0.003,0,0.006,0,0.009,0
						c0.824,0,1.495,0.666,1.5,1.491c0.017,2.94-1.837,5.642-5.217,7.606C83.311,99.101,79.188,100.098,74.82,100.098z"/>
				</g>
				<g>
					<path style="fill:none;stroke:#33363A;stroke-width:3;stroke-linecap:round;stroke-linejoin:round;stroke-miterlimit:10;" d="
						M73.971,94.299"/>
				</g>
				<g>
					<path style="fill:none;stroke:#33363A;stroke-width:3;stroke-linecap:round;stroke-linejoin:round;stroke-miterlimit:10;" d="
						M64.398,91.352"/>
				</g>
				<g>
					<path style="fill:none;stroke:#33363A;stroke-width:3;stroke-linecap:round;stroke-linejoin:round;stroke-miterlimit:10;" d="
						M74.813,97.363"/>
				</g>
			</g>
		</g>
	</g>
	<g>
		<circle style="fill:#D8E5EA;" cx="19.345" cy="68.834" r="2.843"/>
	</g>
	<g>
		<circle style="fill:#D8E5EA;" cx="106.303" cy="78.1" r="1.324"/>
	</g>
	<g>
		<circle style="fill:#D8E5EA;" cx="114.647" cy="72.676" r="3.841"/>
	</g>
	<g>
		<circle style="fill:#D8E5EA;" cx="11.092" cy="54.42" r="0.947"/>
	</g>
	<g>
		<circle style="fill:#D8E5EA;" cx="8.423" cy="19.168" r="1.722"/>
	</g>
	<g>
		<circle style="fill:#D8E5EA;" cx="120.21" cy="63.436" r="1.722"/>
	</g>
	<g>
		<circle style="fill:#D8E5EA;" cx="17.879" cy="6.971" r="2.504"/>
	</g>
	<g>
		<path style="fill:#91EA57;" d="M19.324,42.703c6.179,4.293,13.773,4.992,20.332,2.57c-0.016-6.994-3.321-13.867-9.5-18.16
			c-6.177-4.293-13.772-4.994-20.332-2.57C9.841,31.537,13.147,38.41,19.324,42.703z"/>
	</g>
	<g>
		<path style="fill:#34C166;" d="M9.824,24.543c0.017,6.994,3.322,13.867,9.5,18.16c6.179,4.293,13.773,4.992,20.332,2.57"/>
	</g>
	<path style="fill:#33363A;" d="M42.678,45.546l-1.548-1.075c-0.268-7.436-4.003-14.34-10.117-18.589
		c-6.334-4.401-14.449-5.428-21.708-2.746c-0.591,0.219-0.982,0.781-0.98,1.411c0.019,7.739,3.811,14.987,10.144,19.388
		c0.001,0,0.001,0,0.001,0c4.004,2.783,8.721,4.216,13.484,4.216c2.506,0,5.021-0.419,7.455-1.225l1.559,1.083
		c0.261,0.182,0.559,0.269,0.854,0.269c0.475,0,0.941-0.225,1.232-0.645C43.526,46.953,43.358,46.019,42.678,45.546z M29.301,28.345
		c4.691,3.26,7.777,8.311,8.618,13.895L13.272,25.115C18.798,23.954,24.61,25.085,29.301,28.345z M20.18,41.472L20.18,41.472
		c-4.69-3.259-7.776-8.31-8.617-13.893l24.644,17.123C30.681,45.86,24.87,44.729,20.18,41.472z"/>
	<g>
		<path style="fill:#91EA57;" d="M65.718,15.904c-2.675,6.541-1.769,13.645,1.79,19.166c6.41-1.441,12.037-5.873,14.713-12.412
			c2.678-6.541,1.771-13.647-1.787-19.168C74.023,4.932,68.395,9.365,65.718,15.904z"/>
	</g>
	<g>
		<path style="fill:#34C166;" d="M80.434,3.49c-6.41,1.441-12.039,5.875-14.716,12.414c-2.675,6.541-1.769,13.645,1.79,19.166"/>
	</g>
	<path style="fill:#33363A;" d="M81.694,2.678c-0.342-0.529-0.979-0.788-1.59-0.651c-7.122,1.602-13.019,6.577-15.775,13.31
		c0,0,0,0,0,0.001c-2.651,6.485-2.074,13.846,1.506,19.862l-0.653,1.596c-0.313,0.767,0.054,1.643,0.82,1.957
		c0.187,0.076,0.379,0.111,0.567,0.111c0.592,0,1.151-0.352,1.39-0.932l0.653-1.597c6.771-1.779,12.343-6.624,14.996-13.108
		C86.364,16.495,85.648,8.813,81.694,2.678z M67.106,16.472L67.106,16.472c1.995-4.875,5.898-8.682,10.732-10.608L67.323,31.561
		C65.228,26.798,65.112,21.348,67.106,16.472z M80.832,22.09c-1.994,4.876-5.898,8.682-10.731,10.608l10.516-25.7
		C82.714,11.762,82.828,17.214,80.832,22.09z"/>
	<g>
		<path style="fill:#91EA57;" d="M89.107,64.725c-6.598,4.584-14.707,5.332-21.713,2.744C67.412,60,70.941,52.66,77.539,48.076
			c6.598-4.586,14.709-5.332,21.715-2.744C99.234,52.801,95.705,60.141,89.107,64.725z"/>
	</g>
	<g>
		<path style="fill:#34C166;" d="M99.254,45.332c-0.02,7.469-3.549,14.809-10.146,19.393c-6.598,4.584-14.707,5.332-21.713,2.744"/>
	</g>
	<path style="fill:#33363A;" d="M99.773,43.925c-7.724-2.852-16.356-1.763-23.09,2.92c-6.518,4.528-10.493,11.893-10.763,19.822
		l-1.695,1.178c-0.681,0.473-0.849,1.407-0.376,2.087c0.291,0.42,0.758,0.645,1.232,0.645c0.296,0,0.594-0.087,0.854-0.269
		l1.707-1.186c2.604,0.868,5.296,1.319,7.979,1.319c5.065,0,10.082-1.524,14.341-4.484c6.735-4.679,10.77-12.388,10.791-20.62
		C100.756,44.707,100.364,44.143,99.773,43.925z M78.396,49.308c5.097-3.542,11.427-4.74,17.425-3.415L69.118,64.446
		C69.968,58.363,73.298,52.849,78.396,49.308z M88.252,63.493c-5.099,3.541-11.428,4.74-17.423,3.415L97.53,48.356
		C96.678,54.439,93.348,59.952,88.252,63.493z"/>
	<g>
		<path style="fill:#91EA57;" d="M75.158,99.641c-2.037,7.771-7.717,13.609-14.724,16.193c-4.839-5.689-6.925-13.563-4.888-21.334
			c2.037-7.771,7.719-13.609,14.725-16.193C75.111,83.996,77.197,91.869,75.158,99.641z"/>
	</g>
	<g>
		<path style="fill:#34C166;" d="M70.272,78.307c4.84,5.69,6.926,13.563,4.887,21.334c-2.037,7.771-7.717,13.609-14.724,16.193"/>
	</g>
	<path style="fill:#33363A;" d="M71.414,77.335c-0.408-0.479-1.07-0.652-1.662-0.436c-7.724,2.849-13.576,9.286-15.656,17.221
		c-2.012,7.676-0.249,15.858,4.697,22.06l-0.524,1.997c-0.21,0.802,0.27,1.622,1.07,1.832c0.128,0.033,0.256,0.049,0.382,0.049
		c0.665,0,1.273-0.445,1.45-1.119l0.524-1.998c7.353-2.979,12.902-9.244,14.915-16.921v0.001
		C78.69,92.087,76.749,83.606,71.414,77.335z M56.998,94.88c1.573-6.003,5.607-11.026,11.027-13.916l-8.246,31.451
		C56.474,107.239,55.424,100.884,56.998,94.88z M73.707,99.26C73.707,99.26,73.707,99.26,73.707,99.26
		c-1.573,6.004-5.606,11.028-11.025,13.917l8.246-31.45C74.233,86.903,75.282,93.257,73.707,99.26z"/>
	<g>
		<path style="fill:#33363A;" d="M90.146,128.633h-29.2c-0.828,0-1.5-0.672-1.5-1.5s0.672-1.5,1.5-1.5h29.2
			c0.828,0,1.5,0.672,1.5,1.5S90.975,128.633,90.146,128.633z"/>
	</g>
	<g>
		<path style="fill:#33363A;" d="M104.186,128.633h-5.482c-0.828,0-1.5-0.672-1.5-1.5s0.672-1.5,1.5-1.5h5.482
			c0.828,0,1.5,0.672,1.5,1.5S105.014,128.633,104.186,128.633z"/>
	</g>
	<g>
		<path style="fill:#33363A;" d="M116.551,128.633h-5.484c-0.828,0-1.5-0.672-1.5-1.5s0.672-1.5,1.5-1.5h5.484
			c0.828,0,1.5,0.672,1.5,1.5S117.379,128.633,116.551,128.633z"/>
	</g>
</g>
<g>
</g>
<g>
</g>
<g>
</g>
<g>
</g>
<g>
</g>
<g>
</g>
<g>
</g>
<g>
</g>
<g>
</g>
<g>
</g>
<g>
</g>
<g>
</g>
<g>
</g>
<g>
</g>
<g>
</g>
</svg>
