<?xml version="1.0" encoding="iso-8859-1"?>
<!-- Generator: Adobe Illustrator 19.0.0, SVG Export Plug-In . SVG Version: 6.00 Build 0)  -->
<svg version="1.1" id="Layer_1" xmlns="http://www.w3.org/2000/svg" xmlns:xlink="http://www.w3.org/1999/xlink" x="0px" y="0px"
	 viewBox="0 0 127.814 127.814" style="enable-background:new 0 0 127.814 127.814;" xml:space="preserve">
<g>
	<g>
		<g>
			<g>
				<path style="fill:#FF8F8F;" d="M63.905,95.334c-10.246,0-18.553-16.233-18.553-26.481c-0.002-10.247,8.307-18.555,18.555-18.555
					s18.555,8.307,18.555,18.555C82.462,79.102,74.155,95.334,63.905,95.334z"/>
			</g>
			<g>
				<path style="fill:#FF1A1A;" d="M63.907,59.062c-8.822,0-16.191,6.161-18.074,14.411c1.898,9.877,9.266,21.861,18.072,21.861
					c8.809,0,16.176-11.984,18.076-21.86C80.097,65.223,72.73,59.062,63.907,59.062z"/>
			</g>
			<g>
				<path style="fill:#33363A;" d="M63.905,96.834c-11.069,0-20.053-16.931-20.053-27.98c-0.001-5.356,2.085-10.393,5.873-14.181
					s8.824-5.874,14.182-5.874c11.059,0,20.055,8.997,20.055,20.055C83.962,79.903,74.977,96.834,63.905,96.834z M63.907,51.799
					c-4.556,0-8.839,1.774-12.061,4.996c-3.222,3.221-4.995,7.504-4.994,12.059c0,9.637,7.804,24.98,17.053,24.98
					c9.251,0,17.057-15.344,17.057-24.98C80.962,59.45,73.312,51.799,63.907,51.799z"/>
			</g>
		</g>
		<g>
			<polygon style="fill:#FFE6D4;" points="72.13,89.474 63.907,126.314 55.685,89.474 63.907,80.398 			"/>
		</g>
		<g>
			<polygon style="fill:#F9D2B2;" points="57.462,97.442 63.907,126.314 70.351,97.442 63.907,90.33 			"/>
		</g>
		<g>
			<path style="fill:#33363A;" d="M63.907,127.814c-0.702,0-1.311-0.487-1.464-1.173l-8.223-36.841
				c-0.106-0.476,0.025-0.974,0.353-1.334l8.223-9.075c0.568-0.629,1.654-0.629,2.223,0l8.223,9.075
				c0.327,0.36,0.459,0.858,0.353,1.334l-8.223,36.841C65.218,127.327,64.609,127.814,63.907,127.814z M57.317,89.905l6.59,29.523
				l6.59-29.523l-6.59-7.272L57.317,89.905z"/>
		</g>
	</g>
	<g>
		<path style="fill:none;stroke:#E83834;stroke-width:6;stroke-linecap:round;stroke-linejoin:round;stroke-miterlimit:10;" d="
			M52.167,72.816"/>
	</g>
	<g>
		<g>
			<g>
				<path style="fill:#FF1A1A;" d="M48.661,72.153c-2.209,0-3.309-9.944-3.309-12.153V40.703c0-4.144,3.371-7.516,7.516-7.516
					c2.209,0,4,1.791,4,4c0,2.045-1.535,3.732-3.516,3.971v27.33C53.353,70.697,50.87,72.153,48.661,72.153z"/>
			</g>
		</g>
		<g>
			<g>
				<path style="fill:#FF1A1A;" d="M62.161,46.207c-2.209,0-4-1.791-4-4c0-2.045,1.535-3.732,3.518-3.971v-14.83
					c0-2.209,1.791-4,4-4s4,1.791,4,4v15.285C69.679,42.836,66.306,46.207,62.161,46.207z"/>
			</g>
		</g>
		<g>
			<g>
				<path style="fill:#FF1A1A;" d="M65.679,15.5c-2.209,0-4-1.791-4-4v-6c0-2.209,1.791-4,4-4s4,1.791,4,4v6
					C69.679,13.709,67.888,15.5,65.679,15.5z"/>
			</g>
		</g>
		<g>
			<g>
				<path style="fill:#33363A;" d="M53.353,65.418c-0.828,0-1.5-0.672-1.5-1.5v-22.76c0-0.829,0.672-1.5,1.5-1.5s1.5,0.671,1.5,1.5
					v22.76C54.853,64.746,54.181,65.418,53.353,65.418z"/>
			</g>
			<g>
				<path style="fill:#33363A;" d="M45.353,69.988c-0.828,0-1.5-0.672-1.5-1.5V40.703c0-4.971,4.044-9.016,9.016-9.016
					c3.032,0,5.5,2.467,5.5,5.5c0,0.829-0.672,1.5-1.5,1.5s-1.5-0.671-1.5-1.5c0-1.378-1.121-2.5-2.5-2.5
					c-3.317,0-6.016,2.699-6.016,6.016v27.785C46.853,69.316,46.181,69.988,45.353,69.988z"/>
			</g>
		</g>
		<g>
			<g>
				<path style="fill:#33363A;" d="M62.161,47.707c-3.032,0-5.5-2.467-5.5-5.5c0-0.829,0.672-1.5,1.5-1.5s1.5,0.671,1.5,1.5
					c0,1.378,1.121,2.5,2.5,2.5c3.318,0,6.018-2.699,6.018-6.016V23.406c0-1.378-1.121-2.5-2.5-2.5s-2.5,1.122-2.5,2.5v14.83
					c0,0.829-0.672,1.5-1.5,1.5s-1.5-0.671-1.5-1.5v-14.83c0-3.033,2.468-5.5,5.5-5.5s5.5,2.467,5.5,5.5v15.285
					C71.179,43.663,67.134,47.707,62.161,47.707z"/>
			</g>
		</g>
		<g>
			<g>
				<path style="fill:#33363A;" d="M69.679,13c-0.828,0-1.5-0.671-1.5-1.5v-6c0-1.378-1.121-2.5-2.5-2.5s-2.5,1.122-2.5,2.5v6
					c0,0.829-0.672,1.5-1.5,1.5s-1.5-0.671-1.5-1.5v-6c0-3.033,2.468-5.5,5.5-5.5s5.5,2.467,5.5,5.5v6
					C71.179,12.329,70.507,13,69.679,13z"/>
			</g>
		</g>
	</g>
	<g>
		<g>
			<g>
				<g>
					<path style="fill:#33363A;" d="M114.907,69.991h-0.936c-0.828,0-1.5-0.672-1.5-1.5s0.672-1.5,1.5-1.5h0.936
						c0.828,0,1.5,0.672,1.5,1.5S115.735,69.991,114.907,69.991z"/>
				</g>
				<g>
					<path style="fill:#33363A;" d="M105.46,69.991L105.46,69.991l-5.484-0.001c-0.829,0-1.5-0.672-1.5-1.5s0.672-1.5,1.5-1.5l0,0
						l5.484,0.001c0.829,0,1.5,0.672,1.5,1.5S106.288,69.991,105.46,69.991z"/>
				</g>
			</g>
			<g>
				<g>
					<g>
						<path style="fill:#33363A;" d="M108.95,44.229c-0.381,0-0.762-0.144-1.055-0.433c-0.589-0.583-0.595-1.532-0.012-2.121
							l0.66-0.668c0.581-0.59,1.53-0.595,2.121-0.013c0.589,0.583,0.595,1.532,0.012,2.121l-0.66,0.668
							C109.724,44.081,109.337,44.229,108.95,44.229z"/>
					</g>
					<g>
						<path style="fill:#33363A;" d="M99.05,54.127c-0.384,0-0.769-0.146-1.062-0.44c-0.585-0.586-0.585-1.536,0.001-2.121
							l3.885-3.881c0.586-0.585,1.536-0.586,2.122,0.001c0.585,0.586,0.585,1.536-0.001,2.121l-3.885,3.881
							C99.817,53.98,99.434,54.127,99.05,54.127z"/>
					</g>
				</g>
				<g>
					<g>
						<path style="fill:#33363A;" d="M109.61,96.415c-0.384,0-0.767-0.146-1.06-0.438l-0.664-0.663
							c-0.587-0.585-0.587-1.535-0.002-2.121c0.586-0.588,1.535-0.586,2.121-0.002l0.664,0.663c0.587,0.585,0.587,1.535,0.002,2.121
							C110.379,96.269,109.994,96.415,109.61,96.415z"/>
					</g>
					<g>
						<path style="fill:#33363A;" d="M102.933,89.735c-0.384,0-0.768-0.146-1.06-0.438l-3.885-3.88
							c-0.587-0.586-0.587-1.535-0.002-2.121c0.586-0.588,1.537-0.586,2.121-0.002l3.885,3.88c0.587,0.586,0.587,1.535,0.002,2.121
							C103.701,89.589,103.316,89.735,102.933,89.735z"/>
					</g>
				</g>
			</g>
		</g>
		<g>
			<g>
				<g>
					<path style="fill:#33363A;" d="M13.841,69.985h-0.934c-0.828,0-1.5-0.672-1.5-1.5s0.672-1.5,1.5-1.5h0.934
						c0.828,0,1.5,0.672,1.5,1.5S14.669,69.985,13.841,69.985z"/>
				</g>
				<g>
					<path style="fill:#33363A;" d="M27.839,69.986L27.839,69.986l-5.484-0.001c-0.829,0-1.5-0.672-1.5-1.5s0.672-1.5,1.5-1.5l0,0
						l5.484,0.001c0.829,0,1.5,0.672,1.5,1.5S28.667,69.986,27.839,69.986z"/>
				</g>
			</g>
			<g>
				<g>
					<g>
						<path style="fill:#33363A;" d="M18.204,96.415c-0.381,0-0.762-0.145-1.055-0.434c-0.589-0.582-0.595-1.531-0.012-2.121
							l0.66-0.668c0.582-0.589,1.531-0.595,2.121-0.012c0.589,0.582,0.595,1.531,0.012,2.121l-0.66,0.668
							C18.978,96.267,18.591,96.415,18.204,96.415z"/>
					</g>
					<g>
						<path style="fill:#33363A;" d="M24.88,89.731c-0.384,0-0.769-0.146-1.062-0.439c-0.585-0.586-0.585-1.536,0.001-2.122
							l3.885-3.882c0.586-0.584,1.536-0.585,2.122,0.001c0.585,0.586,0.585,1.536-0.001,2.122l-3.885,3.882
							C25.647,89.585,25.264,89.731,24.88,89.731z"/>
					</g>
				</g>
				<g>
					<g>
						<path style="fill:#33363A;" d="M18.868,44.228c-0.385,0-0.77-0.147-1.063-0.441l-0.664-0.666
							c-0.585-0.586-0.583-1.536,0.003-2.121c0.587-0.585,1.537-0.583,2.122,0.003l0.664,0.666c0.585,0.586,0.583,1.536-0.003,2.121
							C19.635,44.082,19.251,44.228,18.868,44.228z"/>
					</g>
					<g>
						<path style="fill:#33363A;" d="M28.767,54.122c-0.384,0-0.767-0.146-1.06-0.438l-3.885-3.879
							c-0.587-0.585-0.587-1.535-0.002-2.122c0.586-0.586,1.535-0.586,2.121-0.001l3.885,3.879c0.587,0.585,0.587,1.535,0.002,2.122
							C29.535,53.975,29.15,54.122,28.767,54.122z"/>
					</g>
				</g>
			</g>
		</g>
	</g>
</g>
<g>
</g>
<g>
</g>
<g>
</g>
<g>
</g>
<g>
</g>
<g>
</g>
<g>
</g>
<g>
</g>
<g>
</g>
<g>
</g>
<g>
</g>
<g>
</g>
<g>
</g>
<g>
</g>
<g>
</g>
</svg>
